G04 MADE WITH FRITZING*
G04 WWW.FRITZING.ORG*
G04 DOUBLE SIDED*
G04 HOLES PLATED*
G04 CONTOUR ON CENTER OF CONTOUR VECTOR*
%ASAXBY*%
%FSLAX23Y23*%
%MOIN*%
%OFA0B0*%
%SFA1.0B1.0*%
%ADD10C,0.175354*%
%ADD11C,0.085000*%
%ADD12C,0.084000*%
%ADD13C,0.135984*%
%ADD14C,0.089370*%
%ADD15C,0.088000*%
%ADD16R,0.085000X0.085000*%
%ADD17R,0.001000X0.001000*%
%LNMASK0*%
G90*
G70*
G54D10*
X1987Y1992D03*
X1987Y192D03*
X187Y192D03*
X187Y1992D03*
G54D11*
X1487Y1492D03*
X1487Y1892D03*
X1687Y1192D03*
X1687Y892D03*
X1587Y1192D03*
X1587Y892D03*
X1487Y1192D03*
X1487Y892D03*
X1387Y1192D03*
X1387Y892D03*
X1387Y1492D03*
X1387Y1892D03*
G54D12*
X1687Y492D03*
X1637Y392D03*
X1587Y492D03*
X1487Y492D03*
X1387Y492D03*
X1537Y392D03*
X1437Y392D03*
X1337Y392D03*
G54D13*
X1287Y142D03*
X1737Y142D03*
G54D12*
X987Y492D03*
X937Y392D03*
X887Y492D03*
X787Y492D03*
X687Y492D03*
X837Y392D03*
X737Y392D03*
X637Y392D03*
G54D13*
X587Y142D03*
X1037Y142D03*
G54D14*
X1687Y1692D03*
X1687Y1592D03*
X1687Y1492D03*
X1687Y1392D03*
G54D15*
X1187Y1892D03*
X1187Y1792D03*
X1187Y1692D03*
X1187Y1592D03*
X1187Y1492D03*
X1187Y1392D03*
X1187Y1292D03*
X1187Y1192D03*
X1187Y1092D03*
X1187Y992D03*
X1187Y892D03*
X1187Y792D03*
X487Y1892D03*
X487Y1792D03*
X487Y1692D03*
X487Y1592D03*
X487Y1492D03*
X487Y1392D03*
X487Y1292D03*
X487Y1192D03*
X487Y1092D03*
X487Y992D03*
X487Y892D03*
X487Y792D03*
G54D16*
X1687Y1192D03*
G54D17*
X480Y1931D02*
X492Y1931D01*
X1180Y1931D02*
X1192Y1931D01*
X476Y1930D02*
X496Y1930D01*
X1176Y1930D02*
X1196Y1930D01*
X474Y1929D02*
X499Y1929D01*
X1174Y1929D02*
X1199Y1929D01*
X472Y1928D02*
X501Y1928D01*
X1172Y1928D02*
X1201Y1928D01*
X470Y1927D02*
X503Y1927D01*
X1170Y1927D02*
X1203Y1927D01*
X468Y1926D02*
X504Y1926D01*
X1168Y1926D02*
X1204Y1926D01*
X466Y1925D02*
X506Y1925D01*
X1166Y1925D02*
X1206Y1925D01*
X465Y1924D02*
X507Y1924D01*
X1165Y1924D02*
X1207Y1924D01*
X464Y1923D02*
X509Y1923D01*
X1164Y1923D02*
X1209Y1923D01*
X462Y1922D02*
X510Y1922D01*
X1162Y1922D02*
X1210Y1922D01*
X461Y1921D02*
X511Y1921D01*
X1161Y1921D02*
X1211Y1921D01*
X460Y1920D02*
X512Y1920D01*
X1160Y1920D02*
X1212Y1920D01*
X459Y1919D02*
X513Y1919D01*
X1159Y1919D02*
X1213Y1919D01*
X458Y1918D02*
X514Y1918D01*
X1158Y1918D02*
X1214Y1918D01*
X457Y1917D02*
X515Y1917D01*
X1157Y1917D02*
X1215Y1917D01*
X457Y1916D02*
X516Y1916D01*
X1157Y1916D02*
X1216Y1916D01*
X456Y1915D02*
X516Y1915D01*
X1156Y1915D02*
X1216Y1915D01*
X455Y1914D02*
X517Y1914D01*
X1155Y1914D02*
X1217Y1914D01*
X454Y1913D02*
X518Y1913D01*
X1154Y1913D02*
X1218Y1913D01*
X454Y1912D02*
X519Y1912D01*
X1154Y1912D02*
X1218Y1912D01*
X453Y1911D02*
X519Y1911D01*
X1153Y1911D02*
X1219Y1911D01*
X452Y1910D02*
X520Y1910D01*
X1152Y1910D02*
X1220Y1910D01*
X452Y1909D02*
X520Y1909D01*
X1152Y1909D02*
X1220Y1909D01*
X451Y1908D02*
X521Y1908D01*
X1151Y1908D02*
X1221Y1908D01*
X451Y1907D02*
X521Y1907D01*
X1151Y1907D02*
X1221Y1907D01*
X450Y1906D02*
X522Y1906D01*
X1150Y1906D02*
X1222Y1906D01*
X450Y1905D02*
X522Y1905D01*
X1150Y1905D02*
X1222Y1905D01*
X450Y1904D02*
X522Y1904D01*
X1150Y1904D02*
X1222Y1904D01*
X449Y1903D02*
X523Y1903D01*
X1149Y1903D02*
X1223Y1903D01*
X449Y1902D02*
X523Y1902D01*
X1149Y1902D02*
X1223Y1902D01*
X449Y1901D02*
X523Y1901D01*
X1149Y1901D02*
X1223Y1901D01*
X448Y1900D02*
X524Y1900D01*
X1148Y1900D02*
X1224Y1900D01*
X448Y1899D02*
X524Y1899D01*
X1148Y1899D02*
X1224Y1899D01*
X448Y1898D02*
X524Y1898D01*
X1148Y1898D02*
X1224Y1898D01*
X448Y1897D02*
X524Y1897D01*
X1148Y1897D02*
X1224Y1897D01*
X448Y1896D02*
X524Y1896D01*
X1148Y1896D02*
X1224Y1896D01*
X448Y1895D02*
X524Y1895D01*
X1148Y1895D02*
X1224Y1895D01*
X448Y1894D02*
X524Y1894D01*
X1147Y1894D02*
X1224Y1894D01*
X448Y1893D02*
X524Y1893D01*
X1147Y1893D02*
X1224Y1893D01*
X448Y1892D02*
X524Y1892D01*
X1147Y1892D02*
X1224Y1892D01*
X448Y1891D02*
X524Y1891D01*
X1147Y1891D02*
X1224Y1891D01*
X448Y1890D02*
X524Y1890D01*
X1148Y1890D02*
X1224Y1890D01*
X448Y1889D02*
X524Y1889D01*
X1148Y1889D02*
X1224Y1889D01*
X448Y1888D02*
X524Y1888D01*
X1148Y1888D02*
X1224Y1888D01*
X448Y1887D02*
X524Y1887D01*
X1148Y1887D02*
X1224Y1887D01*
X448Y1886D02*
X524Y1886D01*
X1148Y1886D02*
X1224Y1886D01*
X448Y1885D02*
X524Y1885D01*
X1148Y1885D02*
X1224Y1885D01*
X449Y1884D02*
X523Y1884D01*
X1149Y1884D02*
X1223Y1884D01*
X449Y1883D02*
X523Y1883D01*
X1149Y1883D02*
X1223Y1883D01*
X449Y1882D02*
X523Y1882D01*
X1149Y1882D02*
X1223Y1882D01*
X450Y1881D02*
X522Y1881D01*
X1150Y1881D02*
X1222Y1881D01*
X450Y1880D02*
X522Y1880D01*
X1150Y1880D02*
X1222Y1880D01*
X450Y1879D02*
X522Y1879D01*
X1150Y1879D02*
X1222Y1879D01*
X451Y1878D02*
X521Y1878D01*
X1151Y1878D02*
X1221Y1878D01*
X451Y1877D02*
X521Y1877D01*
X1151Y1877D02*
X1221Y1877D01*
X452Y1876D02*
X520Y1876D01*
X1152Y1876D02*
X1220Y1876D01*
X452Y1875D02*
X520Y1875D01*
X1152Y1875D02*
X1220Y1875D01*
X453Y1874D02*
X519Y1874D01*
X1153Y1874D02*
X1219Y1874D01*
X454Y1873D02*
X519Y1873D01*
X1154Y1873D02*
X1219Y1873D01*
X454Y1872D02*
X518Y1872D01*
X1154Y1872D02*
X1218Y1872D01*
X455Y1871D02*
X517Y1871D01*
X1155Y1871D02*
X1217Y1871D01*
X456Y1870D02*
X517Y1870D01*
X1156Y1870D02*
X1216Y1870D01*
X457Y1869D02*
X516Y1869D01*
X1156Y1869D02*
X1216Y1869D01*
X457Y1868D02*
X515Y1868D01*
X1157Y1868D02*
X1215Y1868D01*
X458Y1867D02*
X514Y1867D01*
X1158Y1867D02*
X1214Y1867D01*
X459Y1866D02*
X513Y1866D01*
X1159Y1866D02*
X1213Y1866D01*
X460Y1865D02*
X512Y1865D01*
X1160Y1865D02*
X1212Y1865D01*
X461Y1864D02*
X511Y1864D01*
X1161Y1864D02*
X1211Y1864D01*
X463Y1863D02*
X510Y1863D01*
X1163Y1863D02*
X1210Y1863D01*
X464Y1862D02*
X509Y1862D01*
X1164Y1862D02*
X1209Y1862D01*
X465Y1861D02*
X507Y1861D01*
X1165Y1861D02*
X1207Y1861D01*
X467Y1860D02*
X506Y1860D01*
X1167Y1860D02*
X1206Y1860D01*
X468Y1859D02*
X504Y1859D01*
X1168Y1859D02*
X1204Y1859D01*
X470Y1858D02*
X502Y1858D01*
X1170Y1858D02*
X1202Y1858D01*
X472Y1857D02*
X500Y1857D01*
X1172Y1857D02*
X1200Y1857D01*
X474Y1856D02*
X498Y1856D01*
X1174Y1856D02*
X1198Y1856D01*
X477Y1855D02*
X495Y1855D01*
X1177Y1855D02*
X1195Y1855D01*
X482Y1854D02*
X490Y1854D01*
X1182Y1854D02*
X1190Y1854D01*
X480Y1831D02*
X492Y1831D01*
X1180Y1831D02*
X1192Y1831D01*
X476Y1830D02*
X496Y1830D01*
X1176Y1830D02*
X1196Y1830D01*
X474Y1829D02*
X499Y1829D01*
X1174Y1829D02*
X1199Y1829D01*
X472Y1828D02*
X501Y1828D01*
X1171Y1828D02*
X1201Y1828D01*
X470Y1827D02*
X503Y1827D01*
X1170Y1827D02*
X1203Y1827D01*
X468Y1826D02*
X505Y1826D01*
X1168Y1826D02*
X1204Y1826D01*
X466Y1825D02*
X506Y1825D01*
X1166Y1825D02*
X1206Y1825D01*
X465Y1824D02*
X507Y1824D01*
X1165Y1824D02*
X1207Y1824D01*
X464Y1823D02*
X509Y1823D01*
X1164Y1823D02*
X1209Y1823D01*
X462Y1822D02*
X510Y1822D01*
X1162Y1822D02*
X1210Y1822D01*
X461Y1821D02*
X511Y1821D01*
X1161Y1821D02*
X1211Y1821D01*
X460Y1820D02*
X512Y1820D01*
X1160Y1820D02*
X1212Y1820D01*
X459Y1819D02*
X513Y1819D01*
X1159Y1819D02*
X1213Y1819D01*
X458Y1818D02*
X514Y1818D01*
X1158Y1818D02*
X1214Y1818D01*
X457Y1817D02*
X515Y1817D01*
X1157Y1817D02*
X1215Y1817D01*
X457Y1816D02*
X516Y1816D01*
X1157Y1816D02*
X1216Y1816D01*
X456Y1815D02*
X516Y1815D01*
X1156Y1815D02*
X1216Y1815D01*
X455Y1814D02*
X517Y1814D01*
X1155Y1814D02*
X1217Y1814D01*
X454Y1813D02*
X518Y1813D01*
X1154Y1813D02*
X1218Y1813D01*
X454Y1812D02*
X519Y1812D01*
X1154Y1812D02*
X1218Y1812D01*
X453Y1811D02*
X519Y1811D01*
X1153Y1811D02*
X1219Y1811D01*
X452Y1810D02*
X520Y1810D01*
X1152Y1810D02*
X1220Y1810D01*
X452Y1809D02*
X520Y1809D01*
X1152Y1809D02*
X1220Y1809D01*
X451Y1808D02*
X521Y1808D01*
X1151Y1808D02*
X1221Y1808D01*
X451Y1807D02*
X521Y1807D01*
X1151Y1807D02*
X1221Y1807D01*
X450Y1806D02*
X522Y1806D01*
X1150Y1806D02*
X1222Y1806D01*
X450Y1805D02*
X522Y1805D01*
X1150Y1805D02*
X1222Y1805D01*
X450Y1804D02*
X522Y1804D01*
X1150Y1804D02*
X1222Y1804D01*
X449Y1803D02*
X523Y1803D01*
X1149Y1803D02*
X1223Y1803D01*
X449Y1802D02*
X523Y1802D01*
X1149Y1802D02*
X1223Y1802D01*
X449Y1801D02*
X523Y1801D01*
X1149Y1801D02*
X1223Y1801D01*
X448Y1800D02*
X524Y1800D01*
X1148Y1800D02*
X1224Y1800D01*
X448Y1799D02*
X524Y1799D01*
X1148Y1799D02*
X1224Y1799D01*
X448Y1798D02*
X524Y1798D01*
X1148Y1798D02*
X1224Y1798D01*
X448Y1797D02*
X524Y1797D01*
X1148Y1797D02*
X1224Y1797D01*
X448Y1796D02*
X524Y1796D01*
X1148Y1796D02*
X1224Y1796D01*
X448Y1795D02*
X524Y1795D01*
X1148Y1795D02*
X1224Y1795D01*
X448Y1794D02*
X524Y1794D01*
X1147Y1794D02*
X1224Y1794D01*
X448Y1793D02*
X524Y1793D01*
X1147Y1793D02*
X1224Y1793D01*
X448Y1792D02*
X524Y1792D01*
X1147Y1792D02*
X1224Y1792D01*
X448Y1791D02*
X524Y1791D01*
X1147Y1791D02*
X1224Y1791D01*
X448Y1790D02*
X524Y1790D01*
X1148Y1790D02*
X1224Y1790D01*
X448Y1789D02*
X524Y1789D01*
X1148Y1789D02*
X1224Y1789D01*
X448Y1788D02*
X524Y1788D01*
X1148Y1788D02*
X1224Y1788D01*
X448Y1787D02*
X524Y1787D01*
X1148Y1787D02*
X1224Y1787D01*
X448Y1786D02*
X524Y1786D01*
X1148Y1786D02*
X1224Y1786D01*
X448Y1785D02*
X524Y1785D01*
X1148Y1785D02*
X1224Y1785D01*
X449Y1784D02*
X523Y1784D01*
X1149Y1784D02*
X1223Y1784D01*
X449Y1783D02*
X523Y1783D01*
X1149Y1783D02*
X1223Y1783D01*
X449Y1782D02*
X523Y1782D01*
X1149Y1782D02*
X1223Y1782D01*
X450Y1781D02*
X522Y1781D01*
X1150Y1781D02*
X1222Y1781D01*
X450Y1780D02*
X522Y1780D01*
X1150Y1780D02*
X1222Y1780D01*
X450Y1779D02*
X522Y1779D01*
X1150Y1779D02*
X1222Y1779D01*
X451Y1778D02*
X521Y1778D01*
X1151Y1778D02*
X1221Y1778D01*
X451Y1777D02*
X521Y1777D01*
X1151Y1777D02*
X1221Y1777D01*
X452Y1776D02*
X520Y1776D01*
X1152Y1776D02*
X1220Y1776D01*
X452Y1775D02*
X520Y1775D01*
X1152Y1775D02*
X1220Y1775D01*
X453Y1774D02*
X519Y1774D01*
X1153Y1774D02*
X1219Y1774D01*
X454Y1773D02*
X519Y1773D01*
X1154Y1773D02*
X1219Y1773D01*
X454Y1772D02*
X518Y1772D01*
X1154Y1772D02*
X1218Y1772D01*
X455Y1771D02*
X517Y1771D01*
X1155Y1771D02*
X1217Y1771D01*
X456Y1770D02*
X517Y1770D01*
X1156Y1770D02*
X1216Y1770D01*
X457Y1769D02*
X516Y1769D01*
X1157Y1769D02*
X1216Y1769D01*
X457Y1768D02*
X515Y1768D01*
X1157Y1768D02*
X1215Y1768D01*
X458Y1767D02*
X514Y1767D01*
X1158Y1767D02*
X1214Y1767D01*
X459Y1766D02*
X513Y1766D01*
X1159Y1766D02*
X1213Y1766D01*
X460Y1765D02*
X512Y1765D01*
X1160Y1765D02*
X1212Y1765D01*
X461Y1764D02*
X511Y1764D01*
X1161Y1764D02*
X1211Y1764D01*
X463Y1763D02*
X510Y1763D01*
X1163Y1763D02*
X1210Y1763D01*
X464Y1762D02*
X509Y1762D01*
X1164Y1762D02*
X1209Y1762D01*
X465Y1761D02*
X507Y1761D01*
X1165Y1761D02*
X1207Y1761D01*
X467Y1760D02*
X506Y1760D01*
X1167Y1760D02*
X1206Y1760D01*
X468Y1759D02*
X504Y1759D01*
X1168Y1759D02*
X1204Y1759D01*
X470Y1758D02*
X502Y1758D01*
X1170Y1758D02*
X1202Y1758D01*
X472Y1757D02*
X500Y1757D01*
X1172Y1757D02*
X1200Y1757D01*
X475Y1756D02*
X498Y1756D01*
X1174Y1756D02*
X1198Y1756D01*
X478Y1755D02*
X495Y1755D01*
X1177Y1755D02*
X1195Y1755D01*
X482Y1754D02*
X490Y1754D01*
X1182Y1754D02*
X1190Y1754D01*
X480Y1731D02*
X492Y1731D01*
X1180Y1731D02*
X1192Y1731D01*
X476Y1730D02*
X496Y1730D01*
X1176Y1730D02*
X1196Y1730D01*
X474Y1729D02*
X499Y1729D01*
X1174Y1729D02*
X1199Y1729D01*
X472Y1728D02*
X501Y1728D01*
X1171Y1728D02*
X1201Y1728D01*
X470Y1727D02*
X503Y1727D01*
X1170Y1727D02*
X1203Y1727D01*
X468Y1726D02*
X505Y1726D01*
X1168Y1726D02*
X1204Y1726D01*
X466Y1725D02*
X506Y1725D01*
X1166Y1725D02*
X1206Y1725D01*
X465Y1724D02*
X507Y1724D01*
X1165Y1724D02*
X1207Y1724D01*
X464Y1723D02*
X509Y1723D01*
X1164Y1723D02*
X1209Y1723D01*
X462Y1722D02*
X510Y1722D01*
X1162Y1722D02*
X1210Y1722D01*
X461Y1721D02*
X511Y1721D01*
X1161Y1721D02*
X1211Y1721D01*
X460Y1720D02*
X512Y1720D01*
X1160Y1720D02*
X1212Y1720D01*
X459Y1719D02*
X513Y1719D01*
X1159Y1719D02*
X1213Y1719D01*
X458Y1718D02*
X514Y1718D01*
X1158Y1718D02*
X1214Y1718D01*
X457Y1717D02*
X515Y1717D01*
X1157Y1717D02*
X1215Y1717D01*
X457Y1716D02*
X516Y1716D01*
X1157Y1716D02*
X1216Y1716D01*
X456Y1715D02*
X516Y1715D01*
X1156Y1715D02*
X1216Y1715D01*
X455Y1714D02*
X517Y1714D01*
X1155Y1714D02*
X1217Y1714D01*
X454Y1713D02*
X518Y1713D01*
X1154Y1713D02*
X1218Y1713D01*
X454Y1712D02*
X519Y1712D01*
X1154Y1712D02*
X1218Y1712D01*
X453Y1711D02*
X519Y1711D01*
X1153Y1711D02*
X1219Y1711D01*
X452Y1710D02*
X520Y1710D01*
X1152Y1710D02*
X1220Y1710D01*
X452Y1709D02*
X520Y1709D01*
X1152Y1709D02*
X1220Y1709D01*
X451Y1708D02*
X521Y1708D01*
X1151Y1708D02*
X1221Y1708D01*
X451Y1707D02*
X521Y1707D01*
X1151Y1707D02*
X1221Y1707D01*
X450Y1706D02*
X522Y1706D01*
X1150Y1706D02*
X1222Y1706D01*
X450Y1705D02*
X522Y1705D01*
X1150Y1705D02*
X1222Y1705D01*
X450Y1704D02*
X522Y1704D01*
X1150Y1704D02*
X1222Y1704D01*
X449Y1703D02*
X523Y1703D01*
X1149Y1703D02*
X1223Y1703D01*
X449Y1702D02*
X523Y1702D01*
X1149Y1702D02*
X1223Y1702D01*
X449Y1701D02*
X523Y1701D01*
X1149Y1701D02*
X1223Y1701D01*
X448Y1700D02*
X524Y1700D01*
X1148Y1700D02*
X1224Y1700D01*
X448Y1699D02*
X524Y1699D01*
X1148Y1699D02*
X1224Y1699D01*
X448Y1698D02*
X524Y1698D01*
X1148Y1698D02*
X1224Y1698D01*
X448Y1697D02*
X524Y1697D01*
X1148Y1697D02*
X1224Y1697D01*
X448Y1696D02*
X524Y1696D01*
X1148Y1696D02*
X1224Y1696D01*
X448Y1695D02*
X524Y1695D01*
X1148Y1695D02*
X1224Y1695D01*
X448Y1694D02*
X524Y1694D01*
X1147Y1694D02*
X1224Y1694D01*
X448Y1693D02*
X524Y1693D01*
X1147Y1693D02*
X1224Y1693D01*
X448Y1692D02*
X524Y1692D01*
X1147Y1692D02*
X1224Y1692D01*
X448Y1691D02*
X524Y1691D01*
X1147Y1691D02*
X1224Y1691D01*
X448Y1690D02*
X524Y1690D01*
X1148Y1690D02*
X1224Y1690D01*
X448Y1689D02*
X524Y1689D01*
X1148Y1689D02*
X1224Y1689D01*
X448Y1688D02*
X524Y1688D01*
X1148Y1688D02*
X1224Y1688D01*
X448Y1687D02*
X524Y1687D01*
X1148Y1687D02*
X1224Y1687D01*
X448Y1686D02*
X524Y1686D01*
X1148Y1686D02*
X1224Y1686D01*
X448Y1685D02*
X524Y1685D01*
X1148Y1685D02*
X1224Y1685D01*
X449Y1684D02*
X523Y1684D01*
X1149Y1684D02*
X1223Y1684D01*
X449Y1683D02*
X523Y1683D01*
X1149Y1683D02*
X1223Y1683D01*
X449Y1682D02*
X523Y1682D01*
X1149Y1682D02*
X1223Y1682D01*
X450Y1681D02*
X522Y1681D01*
X1150Y1681D02*
X1222Y1681D01*
X450Y1680D02*
X522Y1680D01*
X1150Y1680D02*
X1222Y1680D01*
X450Y1679D02*
X522Y1679D01*
X1150Y1679D02*
X1222Y1679D01*
X451Y1678D02*
X521Y1678D01*
X1151Y1678D02*
X1221Y1678D01*
X451Y1677D02*
X521Y1677D01*
X1151Y1677D02*
X1221Y1677D01*
X452Y1676D02*
X520Y1676D01*
X1152Y1676D02*
X1220Y1676D01*
X452Y1675D02*
X520Y1675D01*
X1152Y1675D02*
X1220Y1675D01*
X453Y1674D02*
X519Y1674D01*
X1153Y1674D02*
X1219Y1674D01*
X454Y1673D02*
X519Y1673D01*
X1154Y1673D02*
X1219Y1673D01*
X454Y1672D02*
X518Y1672D01*
X1154Y1672D02*
X1218Y1672D01*
X455Y1671D02*
X517Y1671D01*
X1155Y1671D02*
X1217Y1671D01*
X456Y1670D02*
X516Y1670D01*
X1156Y1670D02*
X1216Y1670D01*
X457Y1669D02*
X516Y1669D01*
X1157Y1669D02*
X1216Y1669D01*
X457Y1668D02*
X515Y1668D01*
X1157Y1668D02*
X1215Y1668D01*
X458Y1667D02*
X514Y1667D01*
X1158Y1667D02*
X1214Y1667D01*
X459Y1666D02*
X513Y1666D01*
X1159Y1666D02*
X1213Y1666D01*
X460Y1665D02*
X512Y1665D01*
X1160Y1665D02*
X1212Y1665D01*
X461Y1664D02*
X511Y1664D01*
X1161Y1664D02*
X1211Y1664D01*
X463Y1663D02*
X510Y1663D01*
X1163Y1663D02*
X1210Y1663D01*
X464Y1662D02*
X509Y1662D01*
X1164Y1662D02*
X1209Y1662D01*
X465Y1661D02*
X507Y1661D01*
X1165Y1661D02*
X1207Y1661D01*
X467Y1660D02*
X506Y1660D01*
X1167Y1660D02*
X1206Y1660D01*
X468Y1659D02*
X504Y1659D01*
X1168Y1659D02*
X1204Y1659D01*
X470Y1658D02*
X502Y1658D01*
X1170Y1658D02*
X1202Y1658D01*
X472Y1657D02*
X500Y1657D01*
X1172Y1657D02*
X1200Y1657D01*
X475Y1656D02*
X498Y1656D01*
X1174Y1656D02*
X1198Y1656D01*
X478Y1655D02*
X495Y1655D01*
X1178Y1655D02*
X1195Y1655D01*
X482Y1654D02*
X490Y1654D01*
X1182Y1654D02*
X1190Y1654D01*
X480Y1631D02*
X492Y1631D01*
X1180Y1631D02*
X1192Y1631D01*
X476Y1630D02*
X496Y1630D01*
X1176Y1630D02*
X1196Y1630D01*
X474Y1629D02*
X499Y1629D01*
X1174Y1629D02*
X1199Y1629D01*
X472Y1628D02*
X501Y1628D01*
X1171Y1628D02*
X1201Y1628D01*
X470Y1627D02*
X503Y1627D01*
X1170Y1627D02*
X1203Y1627D01*
X468Y1626D02*
X505Y1626D01*
X1168Y1626D02*
X1205Y1626D01*
X466Y1625D02*
X506Y1625D01*
X1166Y1625D02*
X1206Y1625D01*
X465Y1624D02*
X507Y1624D01*
X1165Y1624D02*
X1207Y1624D01*
X464Y1623D02*
X509Y1623D01*
X1164Y1623D02*
X1209Y1623D01*
X462Y1622D02*
X510Y1622D01*
X1162Y1622D02*
X1210Y1622D01*
X461Y1621D02*
X511Y1621D01*
X1161Y1621D02*
X1211Y1621D01*
X460Y1620D02*
X512Y1620D01*
X1160Y1620D02*
X1212Y1620D01*
X459Y1619D02*
X513Y1619D01*
X1159Y1619D02*
X1213Y1619D01*
X458Y1618D02*
X514Y1618D01*
X1158Y1618D02*
X1214Y1618D01*
X457Y1617D02*
X515Y1617D01*
X1157Y1617D02*
X1215Y1617D01*
X457Y1616D02*
X516Y1616D01*
X1157Y1616D02*
X1216Y1616D01*
X456Y1615D02*
X516Y1615D01*
X1156Y1615D02*
X1216Y1615D01*
X455Y1614D02*
X517Y1614D01*
X1155Y1614D02*
X1217Y1614D01*
X454Y1613D02*
X518Y1613D01*
X1154Y1613D02*
X1218Y1613D01*
X454Y1612D02*
X519Y1612D01*
X1154Y1612D02*
X1218Y1612D01*
X453Y1611D02*
X519Y1611D01*
X1153Y1611D02*
X1219Y1611D01*
X452Y1610D02*
X520Y1610D01*
X1152Y1610D02*
X1220Y1610D01*
X452Y1609D02*
X520Y1609D01*
X1152Y1609D02*
X1220Y1609D01*
X451Y1608D02*
X521Y1608D01*
X1151Y1608D02*
X1221Y1608D01*
X451Y1607D02*
X521Y1607D01*
X1151Y1607D02*
X1221Y1607D01*
X450Y1606D02*
X522Y1606D01*
X1150Y1606D02*
X1222Y1606D01*
X450Y1605D02*
X522Y1605D01*
X1150Y1605D02*
X1222Y1605D01*
X450Y1604D02*
X522Y1604D01*
X1150Y1604D02*
X1222Y1604D01*
X449Y1603D02*
X523Y1603D01*
X1149Y1603D02*
X1223Y1603D01*
X449Y1602D02*
X523Y1602D01*
X1149Y1602D02*
X1223Y1602D01*
X449Y1601D02*
X523Y1601D01*
X1149Y1601D02*
X1223Y1601D01*
X448Y1600D02*
X524Y1600D01*
X1148Y1600D02*
X1224Y1600D01*
X448Y1599D02*
X524Y1599D01*
X1148Y1599D02*
X1224Y1599D01*
X448Y1598D02*
X524Y1598D01*
X1148Y1598D02*
X1224Y1598D01*
X448Y1597D02*
X524Y1597D01*
X1148Y1597D02*
X1224Y1597D01*
X448Y1596D02*
X524Y1596D01*
X1148Y1596D02*
X1224Y1596D01*
X448Y1595D02*
X524Y1595D01*
X1148Y1595D02*
X1224Y1595D01*
X448Y1594D02*
X524Y1594D01*
X1147Y1594D02*
X1224Y1594D01*
X448Y1593D02*
X524Y1593D01*
X1147Y1593D02*
X1224Y1593D01*
X448Y1592D02*
X524Y1592D01*
X1147Y1592D02*
X1224Y1592D01*
X448Y1591D02*
X524Y1591D01*
X1147Y1591D02*
X1224Y1591D01*
X448Y1590D02*
X524Y1590D01*
X1148Y1590D02*
X1224Y1590D01*
X448Y1589D02*
X524Y1589D01*
X1148Y1589D02*
X1224Y1589D01*
X448Y1588D02*
X524Y1588D01*
X1148Y1588D02*
X1224Y1588D01*
X448Y1587D02*
X524Y1587D01*
X1148Y1587D02*
X1224Y1587D01*
X448Y1586D02*
X524Y1586D01*
X1148Y1586D02*
X1224Y1586D01*
X448Y1585D02*
X524Y1585D01*
X1148Y1585D02*
X1224Y1585D01*
X449Y1584D02*
X523Y1584D01*
X1149Y1584D02*
X1223Y1584D01*
X449Y1583D02*
X523Y1583D01*
X1149Y1583D02*
X1223Y1583D01*
X449Y1582D02*
X523Y1582D01*
X1149Y1582D02*
X1223Y1582D01*
X450Y1581D02*
X522Y1581D01*
X1150Y1581D02*
X1222Y1581D01*
X450Y1580D02*
X522Y1580D01*
X1150Y1580D02*
X1222Y1580D01*
X450Y1579D02*
X522Y1579D01*
X1150Y1579D02*
X1222Y1579D01*
X451Y1578D02*
X521Y1578D01*
X1151Y1578D02*
X1221Y1578D01*
X451Y1577D02*
X521Y1577D01*
X1151Y1577D02*
X1221Y1577D01*
X452Y1576D02*
X520Y1576D01*
X1152Y1576D02*
X1220Y1576D01*
X452Y1575D02*
X520Y1575D01*
X1152Y1575D02*
X1220Y1575D01*
X453Y1574D02*
X519Y1574D01*
X1153Y1574D02*
X1219Y1574D01*
X454Y1573D02*
X519Y1573D01*
X1154Y1573D02*
X1218Y1573D01*
X454Y1572D02*
X518Y1572D01*
X1154Y1572D02*
X1218Y1572D01*
X455Y1571D02*
X517Y1571D01*
X1155Y1571D02*
X1217Y1571D01*
X456Y1570D02*
X516Y1570D01*
X1156Y1570D02*
X1216Y1570D01*
X457Y1569D02*
X516Y1569D01*
X1157Y1569D02*
X1216Y1569D01*
X457Y1568D02*
X515Y1568D01*
X1157Y1568D02*
X1215Y1568D01*
X458Y1567D02*
X514Y1567D01*
X1158Y1567D02*
X1214Y1567D01*
X459Y1566D02*
X513Y1566D01*
X1159Y1566D02*
X1213Y1566D01*
X460Y1565D02*
X512Y1565D01*
X1160Y1565D02*
X1212Y1565D01*
X461Y1564D02*
X511Y1564D01*
X1161Y1564D02*
X1211Y1564D01*
X463Y1563D02*
X510Y1563D01*
X1163Y1563D02*
X1210Y1563D01*
X464Y1562D02*
X509Y1562D01*
X1164Y1562D02*
X1209Y1562D01*
X465Y1561D02*
X507Y1561D01*
X1165Y1561D02*
X1207Y1561D01*
X467Y1560D02*
X506Y1560D01*
X1167Y1560D02*
X1206Y1560D01*
X468Y1559D02*
X504Y1559D01*
X1168Y1559D02*
X1204Y1559D01*
X470Y1558D02*
X502Y1558D01*
X1170Y1558D02*
X1202Y1558D01*
X472Y1557D02*
X500Y1557D01*
X1172Y1557D02*
X1200Y1557D01*
X475Y1556D02*
X498Y1556D01*
X1174Y1556D02*
X1198Y1556D01*
X478Y1555D02*
X495Y1555D01*
X1178Y1555D02*
X1195Y1555D01*
X482Y1554D02*
X490Y1554D01*
X1182Y1554D02*
X1190Y1554D01*
X480Y1531D02*
X492Y1531D01*
X1180Y1531D02*
X1192Y1531D01*
X476Y1530D02*
X496Y1530D01*
X1176Y1530D02*
X1196Y1530D01*
X474Y1529D02*
X499Y1529D01*
X1174Y1529D02*
X1199Y1529D01*
X471Y1528D02*
X501Y1528D01*
X1171Y1528D02*
X1201Y1528D01*
X470Y1527D02*
X503Y1527D01*
X1169Y1527D02*
X1203Y1527D01*
X468Y1526D02*
X505Y1526D01*
X1168Y1526D02*
X1205Y1526D01*
X466Y1525D02*
X506Y1525D01*
X1166Y1525D02*
X1206Y1525D01*
X465Y1524D02*
X508Y1524D01*
X1165Y1524D02*
X1207Y1524D01*
X464Y1523D02*
X509Y1523D01*
X1164Y1523D02*
X1209Y1523D01*
X462Y1522D02*
X510Y1522D01*
X1162Y1522D02*
X1210Y1522D01*
X461Y1521D02*
X511Y1521D01*
X1161Y1521D02*
X1211Y1521D01*
X460Y1520D02*
X512Y1520D01*
X1160Y1520D02*
X1212Y1520D01*
X459Y1519D02*
X513Y1519D01*
X1159Y1519D02*
X1213Y1519D01*
X458Y1518D02*
X514Y1518D01*
X1158Y1518D02*
X1214Y1518D01*
X457Y1517D02*
X515Y1517D01*
X1157Y1517D02*
X1215Y1517D01*
X457Y1516D02*
X516Y1516D01*
X1157Y1516D02*
X1216Y1516D01*
X456Y1515D02*
X517Y1515D01*
X1156Y1515D02*
X1216Y1515D01*
X455Y1514D02*
X517Y1514D01*
X1155Y1514D02*
X1217Y1514D01*
X454Y1513D02*
X518Y1513D01*
X1154Y1513D02*
X1218Y1513D01*
X454Y1512D02*
X519Y1512D01*
X1154Y1512D02*
X1219Y1512D01*
X453Y1511D02*
X519Y1511D01*
X1153Y1511D02*
X1219Y1511D01*
X452Y1510D02*
X520Y1510D01*
X1152Y1510D02*
X1220Y1510D01*
X452Y1509D02*
X520Y1509D01*
X1152Y1509D02*
X1220Y1509D01*
X451Y1508D02*
X521Y1508D01*
X1151Y1508D02*
X1221Y1508D01*
X451Y1507D02*
X521Y1507D01*
X1151Y1507D02*
X1221Y1507D01*
X450Y1506D02*
X522Y1506D01*
X1150Y1506D02*
X1222Y1506D01*
X450Y1505D02*
X522Y1505D01*
X1150Y1505D02*
X1222Y1505D01*
X450Y1504D02*
X522Y1504D01*
X1150Y1504D02*
X1222Y1504D01*
X449Y1503D02*
X523Y1503D01*
X1149Y1503D02*
X1223Y1503D01*
X449Y1502D02*
X523Y1502D01*
X1149Y1502D02*
X1223Y1502D01*
X449Y1501D02*
X523Y1501D01*
X1149Y1501D02*
X1223Y1501D01*
X448Y1500D02*
X524Y1500D01*
X1148Y1500D02*
X1224Y1500D01*
X448Y1499D02*
X524Y1499D01*
X1148Y1499D02*
X1224Y1499D01*
X448Y1498D02*
X524Y1498D01*
X1148Y1498D02*
X1224Y1498D01*
X448Y1497D02*
X524Y1497D01*
X1148Y1497D02*
X1224Y1497D01*
X448Y1496D02*
X524Y1496D01*
X1148Y1496D02*
X1224Y1496D01*
X448Y1495D02*
X524Y1495D01*
X1148Y1495D02*
X1224Y1495D01*
X448Y1494D02*
X524Y1494D01*
X1147Y1494D02*
X1224Y1494D01*
X448Y1493D02*
X524Y1493D01*
X1147Y1493D02*
X1224Y1493D01*
X448Y1492D02*
X524Y1492D01*
X1147Y1492D02*
X1224Y1492D01*
X448Y1491D02*
X524Y1491D01*
X1147Y1491D02*
X1224Y1491D01*
X448Y1490D02*
X524Y1490D01*
X1148Y1490D02*
X1224Y1490D01*
X448Y1489D02*
X524Y1489D01*
X1148Y1489D02*
X1224Y1489D01*
X448Y1488D02*
X524Y1488D01*
X1148Y1488D02*
X1224Y1488D01*
X448Y1487D02*
X524Y1487D01*
X1148Y1487D02*
X1224Y1487D01*
X448Y1486D02*
X524Y1486D01*
X1148Y1486D02*
X1224Y1486D01*
X448Y1485D02*
X524Y1485D01*
X1148Y1485D02*
X1224Y1485D01*
X449Y1484D02*
X523Y1484D01*
X1149Y1484D02*
X1223Y1484D01*
X449Y1483D02*
X523Y1483D01*
X1149Y1483D02*
X1223Y1483D01*
X449Y1482D02*
X523Y1482D01*
X1149Y1482D02*
X1223Y1482D01*
X450Y1481D02*
X522Y1481D01*
X1150Y1481D02*
X1222Y1481D01*
X450Y1480D02*
X522Y1480D01*
X1150Y1480D02*
X1222Y1480D01*
X450Y1479D02*
X522Y1479D01*
X1150Y1479D02*
X1222Y1479D01*
X451Y1478D02*
X521Y1478D01*
X1151Y1478D02*
X1221Y1478D01*
X451Y1477D02*
X521Y1477D01*
X1151Y1477D02*
X1221Y1477D01*
X452Y1476D02*
X520Y1476D01*
X1152Y1476D02*
X1220Y1476D01*
X452Y1475D02*
X520Y1475D01*
X1152Y1475D02*
X1220Y1475D01*
X453Y1474D02*
X519Y1474D01*
X1153Y1474D02*
X1219Y1474D01*
X454Y1473D02*
X519Y1473D01*
X1154Y1473D02*
X1218Y1473D01*
X454Y1472D02*
X518Y1472D01*
X1154Y1472D02*
X1218Y1472D01*
X455Y1471D02*
X517Y1471D01*
X1155Y1471D02*
X1217Y1471D01*
X456Y1470D02*
X516Y1470D01*
X1156Y1470D02*
X1216Y1470D01*
X457Y1469D02*
X516Y1469D01*
X1157Y1469D02*
X1216Y1469D01*
X457Y1468D02*
X515Y1468D01*
X1157Y1468D02*
X1215Y1468D01*
X458Y1467D02*
X514Y1467D01*
X1158Y1467D02*
X1214Y1467D01*
X459Y1466D02*
X513Y1466D01*
X1159Y1466D02*
X1213Y1466D01*
X460Y1465D02*
X512Y1465D01*
X1160Y1465D02*
X1212Y1465D01*
X461Y1464D02*
X511Y1464D01*
X1161Y1464D02*
X1211Y1464D01*
X463Y1463D02*
X510Y1463D01*
X1163Y1463D02*
X1210Y1463D01*
X464Y1462D02*
X509Y1462D01*
X1164Y1462D02*
X1208Y1462D01*
X465Y1461D02*
X507Y1461D01*
X1165Y1461D02*
X1207Y1461D01*
X467Y1460D02*
X506Y1460D01*
X1167Y1460D02*
X1206Y1460D01*
X468Y1459D02*
X504Y1459D01*
X1168Y1459D02*
X1204Y1459D01*
X470Y1458D02*
X502Y1458D01*
X1170Y1458D02*
X1202Y1458D01*
X472Y1457D02*
X500Y1457D01*
X1172Y1457D02*
X1200Y1457D01*
X475Y1456D02*
X498Y1456D01*
X1175Y1456D02*
X1198Y1456D01*
X478Y1455D02*
X495Y1455D01*
X1178Y1455D02*
X1195Y1455D01*
X483Y1454D02*
X490Y1454D01*
X1182Y1454D02*
X1190Y1454D01*
X480Y1431D02*
X492Y1431D01*
X1180Y1431D02*
X1192Y1431D01*
X476Y1430D02*
X496Y1430D01*
X1176Y1430D02*
X1196Y1430D01*
X474Y1429D02*
X499Y1429D01*
X1174Y1429D02*
X1199Y1429D01*
X471Y1428D02*
X501Y1428D01*
X1171Y1428D02*
X1201Y1428D01*
X470Y1427D02*
X503Y1427D01*
X1169Y1427D02*
X1203Y1427D01*
X468Y1426D02*
X505Y1426D01*
X1168Y1426D02*
X1205Y1426D01*
X466Y1425D02*
X506Y1425D01*
X1166Y1425D02*
X1206Y1425D01*
X465Y1424D02*
X508Y1424D01*
X1165Y1424D02*
X1207Y1424D01*
X464Y1423D02*
X509Y1423D01*
X1164Y1423D02*
X1209Y1423D01*
X462Y1422D02*
X510Y1422D01*
X1162Y1422D02*
X1210Y1422D01*
X461Y1421D02*
X511Y1421D01*
X1161Y1421D02*
X1211Y1421D01*
X460Y1420D02*
X512Y1420D01*
X1160Y1420D02*
X1212Y1420D01*
X459Y1419D02*
X513Y1419D01*
X1159Y1419D02*
X1213Y1419D01*
X458Y1418D02*
X514Y1418D01*
X1158Y1418D02*
X1214Y1418D01*
X457Y1417D02*
X515Y1417D01*
X1157Y1417D02*
X1215Y1417D01*
X457Y1416D02*
X516Y1416D01*
X1156Y1416D02*
X1216Y1416D01*
X456Y1415D02*
X517Y1415D01*
X1156Y1415D02*
X1216Y1415D01*
X455Y1414D02*
X517Y1414D01*
X1155Y1414D02*
X1217Y1414D01*
X454Y1413D02*
X518Y1413D01*
X1154Y1413D02*
X1218Y1413D01*
X454Y1412D02*
X519Y1412D01*
X1154Y1412D02*
X1219Y1412D01*
X453Y1411D02*
X519Y1411D01*
X1153Y1411D02*
X1219Y1411D01*
X452Y1410D02*
X520Y1410D01*
X1152Y1410D02*
X1220Y1410D01*
X452Y1409D02*
X520Y1409D01*
X1152Y1409D02*
X1220Y1409D01*
X451Y1408D02*
X521Y1408D01*
X1151Y1408D02*
X1221Y1408D01*
X451Y1407D02*
X521Y1407D01*
X1151Y1407D02*
X1221Y1407D01*
X450Y1406D02*
X522Y1406D01*
X1150Y1406D02*
X1222Y1406D01*
X450Y1405D02*
X522Y1405D01*
X1150Y1405D02*
X1222Y1405D01*
X450Y1404D02*
X522Y1404D01*
X1150Y1404D02*
X1222Y1404D01*
X449Y1403D02*
X523Y1403D01*
X1149Y1403D02*
X1223Y1403D01*
X449Y1402D02*
X523Y1402D01*
X1149Y1402D02*
X1223Y1402D01*
X449Y1401D02*
X523Y1401D01*
X1149Y1401D02*
X1223Y1401D01*
X448Y1400D02*
X524Y1400D01*
X1148Y1400D02*
X1224Y1400D01*
X448Y1399D02*
X524Y1399D01*
X1148Y1399D02*
X1224Y1399D01*
X448Y1398D02*
X524Y1398D01*
X1148Y1398D02*
X1224Y1398D01*
X448Y1397D02*
X524Y1397D01*
X1148Y1397D02*
X1224Y1397D01*
X448Y1396D02*
X524Y1396D01*
X1148Y1396D02*
X1224Y1396D01*
X448Y1395D02*
X524Y1395D01*
X1148Y1395D02*
X1224Y1395D01*
X448Y1394D02*
X524Y1394D01*
X1147Y1394D02*
X1224Y1394D01*
X448Y1393D02*
X524Y1393D01*
X1147Y1393D02*
X1224Y1393D01*
X448Y1392D02*
X524Y1392D01*
X1147Y1392D02*
X1224Y1392D01*
X448Y1391D02*
X524Y1391D01*
X1147Y1391D02*
X1224Y1391D01*
X448Y1390D02*
X524Y1390D01*
X1148Y1390D02*
X1224Y1390D01*
X448Y1389D02*
X524Y1389D01*
X1148Y1389D02*
X1224Y1389D01*
X448Y1388D02*
X524Y1388D01*
X1148Y1388D02*
X1224Y1388D01*
X448Y1387D02*
X524Y1387D01*
X1148Y1387D02*
X1224Y1387D01*
X448Y1386D02*
X524Y1386D01*
X1148Y1386D02*
X1224Y1386D01*
X448Y1385D02*
X524Y1385D01*
X1148Y1385D02*
X1224Y1385D01*
X449Y1384D02*
X523Y1384D01*
X1149Y1384D02*
X1223Y1384D01*
X449Y1383D02*
X523Y1383D01*
X1149Y1383D02*
X1223Y1383D01*
X449Y1382D02*
X523Y1382D01*
X1149Y1382D02*
X1223Y1382D01*
X450Y1381D02*
X522Y1381D01*
X1150Y1381D02*
X1222Y1381D01*
X450Y1380D02*
X522Y1380D01*
X1150Y1380D02*
X1222Y1380D01*
X450Y1379D02*
X522Y1379D01*
X1150Y1379D02*
X1222Y1379D01*
X451Y1378D02*
X521Y1378D01*
X1151Y1378D02*
X1221Y1378D01*
X451Y1377D02*
X521Y1377D01*
X1151Y1377D02*
X1221Y1377D01*
X452Y1376D02*
X520Y1376D01*
X1152Y1376D02*
X1220Y1376D01*
X452Y1375D02*
X520Y1375D01*
X1152Y1375D02*
X1220Y1375D01*
X453Y1374D02*
X519Y1374D01*
X1153Y1374D02*
X1219Y1374D01*
X454Y1373D02*
X519Y1373D01*
X1154Y1373D02*
X1218Y1373D01*
X454Y1372D02*
X518Y1372D01*
X1154Y1372D02*
X1218Y1372D01*
X455Y1371D02*
X517Y1371D01*
X1155Y1371D02*
X1217Y1371D01*
X456Y1370D02*
X516Y1370D01*
X1156Y1370D02*
X1216Y1370D01*
X457Y1369D02*
X516Y1369D01*
X1157Y1369D02*
X1216Y1369D01*
X457Y1368D02*
X515Y1368D01*
X1157Y1368D02*
X1215Y1368D01*
X458Y1367D02*
X514Y1367D01*
X1158Y1367D02*
X1214Y1367D01*
X459Y1366D02*
X513Y1366D01*
X1159Y1366D02*
X1213Y1366D01*
X460Y1365D02*
X512Y1365D01*
X1160Y1365D02*
X1212Y1365D01*
X461Y1364D02*
X511Y1364D01*
X1161Y1364D02*
X1211Y1364D01*
X463Y1363D02*
X510Y1363D01*
X1163Y1363D02*
X1210Y1363D01*
X464Y1362D02*
X509Y1362D01*
X1164Y1362D02*
X1208Y1362D01*
X465Y1361D02*
X507Y1361D01*
X1165Y1361D02*
X1207Y1361D01*
X467Y1360D02*
X506Y1360D01*
X1167Y1360D02*
X1206Y1360D01*
X468Y1359D02*
X504Y1359D01*
X1168Y1359D02*
X1204Y1359D01*
X470Y1358D02*
X502Y1358D01*
X1170Y1358D02*
X1202Y1358D01*
X472Y1357D02*
X500Y1357D01*
X1172Y1357D02*
X1200Y1357D01*
X475Y1356D02*
X498Y1356D01*
X1175Y1356D02*
X1198Y1356D01*
X478Y1355D02*
X495Y1355D01*
X1178Y1355D02*
X1195Y1355D01*
X483Y1354D02*
X490Y1354D01*
X1183Y1354D02*
X1189Y1354D01*
X480Y1331D02*
X492Y1331D01*
X1180Y1331D02*
X1192Y1331D01*
X476Y1330D02*
X496Y1330D01*
X1176Y1330D02*
X1196Y1330D01*
X474Y1329D02*
X499Y1329D01*
X1174Y1329D02*
X1199Y1329D01*
X471Y1328D02*
X501Y1328D01*
X1171Y1328D02*
X1201Y1328D01*
X470Y1327D02*
X503Y1327D01*
X1169Y1327D02*
X1203Y1327D01*
X468Y1326D02*
X505Y1326D01*
X1168Y1326D02*
X1205Y1326D01*
X466Y1325D02*
X506Y1325D01*
X1166Y1325D02*
X1206Y1325D01*
X465Y1324D02*
X508Y1324D01*
X1165Y1324D02*
X1207Y1324D01*
X464Y1323D02*
X509Y1323D01*
X1164Y1323D02*
X1209Y1323D01*
X462Y1322D02*
X510Y1322D01*
X1162Y1322D02*
X1210Y1322D01*
X461Y1321D02*
X511Y1321D01*
X1161Y1321D02*
X1211Y1321D01*
X460Y1320D02*
X512Y1320D01*
X1160Y1320D02*
X1212Y1320D01*
X459Y1319D02*
X513Y1319D01*
X1159Y1319D02*
X1213Y1319D01*
X458Y1318D02*
X514Y1318D01*
X1158Y1318D02*
X1214Y1318D01*
X457Y1317D02*
X515Y1317D01*
X1157Y1317D02*
X1215Y1317D01*
X457Y1316D02*
X516Y1316D01*
X1156Y1316D02*
X1216Y1316D01*
X456Y1315D02*
X517Y1315D01*
X1156Y1315D02*
X1216Y1315D01*
X455Y1314D02*
X517Y1314D01*
X1155Y1314D02*
X1217Y1314D01*
X454Y1313D02*
X518Y1313D01*
X1154Y1313D02*
X1218Y1313D01*
X454Y1312D02*
X519Y1312D01*
X1154Y1312D02*
X1219Y1312D01*
X453Y1311D02*
X519Y1311D01*
X1153Y1311D02*
X1219Y1311D01*
X452Y1310D02*
X520Y1310D01*
X1152Y1310D02*
X1220Y1310D01*
X452Y1309D02*
X520Y1309D01*
X1152Y1309D02*
X1220Y1309D01*
X451Y1308D02*
X521Y1308D01*
X1151Y1308D02*
X1221Y1308D01*
X451Y1307D02*
X521Y1307D01*
X1151Y1307D02*
X1221Y1307D01*
X450Y1306D02*
X522Y1306D01*
X1150Y1306D02*
X1222Y1306D01*
X450Y1305D02*
X522Y1305D01*
X1150Y1305D02*
X1222Y1305D01*
X450Y1304D02*
X522Y1304D01*
X1150Y1304D02*
X1222Y1304D01*
X449Y1303D02*
X523Y1303D01*
X1149Y1303D02*
X1223Y1303D01*
X449Y1302D02*
X523Y1302D01*
X1149Y1302D02*
X1223Y1302D01*
X449Y1301D02*
X523Y1301D01*
X1149Y1301D02*
X1223Y1301D01*
X448Y1300D02*
X524Y1300D01*
X1148Y1300D02*
X1224Y1300D01*
X448Y1299D02*
X524Y1299D01*
X1148Y1299D02*
X1224Y1299D01*
X448Y1298D02*
X524Y1298D01*
X1148Y1298D02*
X1224Y1298D01*
X448Y1297D02*
X524Y1297D01*
X1148Y1297D02*
X1224Y1297D01*
X448Y1296D02*
X524Y1296D01*
X1148Y1296D02*
X1224Y1296D01*
X448Y1295D02*
X524Y1295D01*
X1148Y1295D02*
X1224Y1295D01*
X448Y1294D02*
X524Y1294D01*
X1147Y1294D02*
X1224Y1294D01*
X448Y1293D02*
X524Y1293D01*
X1147Y1293D02*
X1224Y1293D01*
X448Y1292D02*
X524Y1292D01*
X1147Y1292D02*
X1224Y1292D01*
X448Y1291D02*
X524Y1291D01*
X1147Y1291D02*
X1224Y1291D01*
X448Y1290D02*
X524Y1290D01*
X1148Y1290D02*
X1224Y1290D01*
X448Y1289D02*
X524Y1289D01*
X1148Y1289D02*
X1224Y1289D01*
X448Y1288D02*
X524Y1288D01*
X1148Y1288D02*
X1224Y1288D01*
X448Y1287D02*
X524Y1287D01*
X1148Y1287D02*
X1224Y1287D01*
X448Y1286D02*
X524Y1286D01*
X1148Y1286D02*
X1224Y1286D01*
X448Y1285D02*
X524Y1285D01*
X1148Y1285D02*
X1224Y1285D01*
X449Y1284D02*
X523Y1284D01*
X1149Y1284D02*
X1223Y1284D01*
X449Y1283D02*
X523Y1283D01*
X1149Y1283D02*
X1223Y1283D01*
X449Y1282D02*
X523Y1282D01*
X1149Y1282D02*
X1223Y1282D01*
X450Y1281D02*
X522Y1281D01*
X1150Y1281D02*
X1222Y1281D01*
X450Y1280D02*
X522Y1280D01*
X1150Y1280D02*
X1222Y1280D01*
X450Y1279D02*
X522Y1279D01*
X1150Y1279D02*
X1222Y1279D01*
X451Y1278D02*
X521Y1278D01*
X1151Y1278D02*
X1221Y1278D01*
X451Y1277D02*
X521Y1277D01*
X1151Y1277D02*
X1221Y1277D01*
X452Y1276D02*
X520Y1276D01*
X1152Y1276D02*
X1220Y1276D01*
X452Y1275D02*
X520Y1275D01*
X1152Y1275D02*
X1220Y1275D01*
X453Y1274D02*
X519Y1274D01*
X1153Y1274D02*
X1219Y1274D01*
X454Y1273D02*
X519Y1273D01*
X1154Y1273D02*
X1218Y1273D01*
X454Y1272D02*
X518Y1272D01*
X1154Y1272D02*
X1218Y1272D01*
X455Y1271D02*
X517Y1271D01*
X1155Y1271D02*
X1217Y1271D01*
X456Y1270D02*
X516Y1270D01*
X1156Y1270D02*
X1216Y1270D01*
X457Y1269D02*
X516Y1269D01*
X1157Y1269D02*
X1216Y1269D01*
X457Y1268D02*
X515Y1268D01*
X1157Y1268D02*
X1215Y1268D01*
X458Y1267D02*
X514Y1267D01*
X1158Y1267D02*
X1214Y1267D01*
X459Y1266D02*
X513Y1266D01*
X1159Y1266D02*
X1213Y1266D01*
X460Y1265D02*
X512Y1265D01*
X1160Y1265D02*
X1212Y1265D01*
X461Y1264D02*
X511Y1264D01*
X1161Y1264D02*
X1211Y1264D01*
X463Y1263D02*
X510Y1263D01*
X1163Y1263D02*
X1210Y1263D01*
X464Y1262D02*
X509Y1262D01*
X1164Y1262D02*
X1208Y1262D01*
X465Y1261D02*
X507Y1261D01*
X1165Y1261D02*
X1207Y1261D01*
X467Y1260D02*
X506Y1260D01*
X1167Y1260D02*
X1206Y1260D01*
X468Y1259D02*
X504Y1259D01*
X1168Y1259D02*
X1204Y1259D01*
X470Y1258D02*
X502Y1258D01*
X1170Y1258D02*
X1202Y1258D01*
X472Y1257D02*
X500Y1257D01*
X1172Y1257D02*
X1200Y1257D01*
X475Y1256D02*
X498Y1256D01*
X1175Y1256D02*
X1198Y1256D01*
X478Y1255D02*
X495Y1255D01*
X1178Y1255D02*
X1195Y1255D01*
X483Y1254D02*
X489Y1254D01*
X1183Y1254D02*
X1189Y1254D01*
X480Y1231D02*
X493Y1231D01*
X1180Y1231D02*
X1193Y1231D01*
X476Y1230D02*
X496Y1230D01*
X1176Y1230D02*
X1196Y1230D01*
X474Y1229D02*
X499Y1229D01*
X1173Y1229D02*
X1199Y1229D01*
X471Y1228D02*
X501Y1228D01*
X1171Y1228D02*
X1201Y1228D01*
X470Y1227D02*
X503Y1227D01*
X1169Y1227D02*
X1203Y1227D01*
X468Y1226D02*
X505Y1226D01*
X1168Y1226D02*
X1205Y1226D01*
X466Y1225D02*
X506Y1225D01*
X1166Y1225D02*
X1206Y1225D01*
X465Y1224D02*
X508Y1224D01*
X1165Y1224D02*
X1208Y1224D01*
X464Y1223D02*
X509Y1223D01*
X1164Y1223D02*
X1209Y1223D01*
X462Y1222D02*
X510Y1222D01*
X1162Y1222D02*
X1210Y1222D01*
X461Y1221D02*
X511Y1221D01*
X1161Y1221D02*
X1211Y1221D01*
X460Y1220D02*
X512Y1220D01*
X1160Y1220D02*
X1212Y1220D01*
X459Y1219D02*
X513Y1219D01*
X1159Y1219D02*
X1213Y1219D01*
X458Y1218D02*
X514Y1218D01*
X1158Y1218D02*
X1214Y1218D01*
X457Y1217D02*
X515Y1217D01*
X1157Y1217D02*
X1215Y1217D01*
X457Y1216D02*
X516Y1216D01*
X1156Y1216D02*
X1216Y1216D01*
X456Y1215D02*
X517Y1215D01*
X1156Y1215D02*
X1216Y1215D01*
X455Y1214D02*
X517Y1214D01*
X1155Y1214D02*
X1217Y1214D01*
X454Y1213D02*
X518Y1213D01*
X1154Y1213D02*
X1218Y1213D01*
X454Y1212D02*
X519Y1212D01*
X1154Y1212D02*
X1219Y1212D01*
X453Y1211D02*
X519Y1211D01*
X1153Y1211D02*
X1219Y1211D01*
X452Y1210D02*
X520Y1210D01*
X1152Y1210D02*
X1220Y1210D01*
X452Y1209D02*
X520Y1209D01*
X1152Y1209D02*
X1220Y1209D01*
X451Y1208D02*
X521Y1208D01*
X1151Y1208D02*
X1221Y1208D01*
X451Y1207D02*
X521Y1207D01*
X1151Y1207D02*
X1221Y1207D01*
X450Y1206D02*
X522Y1206D01*
X1150Y1206D02*
X1222Y1206D01*
X450Y1205D02*
X522Y1205D01*
X1150Y1205D02*
X1222Y1205D01*
X450Y1204D02*
X522Y1204D01*
X1150Y1204D02*
X1222Y1204D01*
X449Y1203D02*
X523Y1203D01*
X1149Y1203D02*
X1223Y1203D01*
X449Y1202D02*
X523Y1202D01*
X1149Y1202D02*
X1223Y1202D01*
X449Y1201D02*
X523Y1201D01*
X1149Y1201D02*
X1223Y1201D01*
X448Y1200D02*
X524Y1200D01*
X1148Y1200D02*
X1224Y1200D01*
X448Y1199D02*
X524Y1199D01*
X1148Y1199D02*
X1224Y1199D01*
X448Y1198D02*
X524Y1198D01*
X1148Y1198D02*
X1224Y1198D01*
X448Y1197D02*
X524Y1197D01*
X1148Y1197D02*
X1224Y1197D01*
X448Y1196D02*
X524Y1196D01*
X1148Y1196D02*
X1224Y1196D01*
X448Y1195D02*
X524Y1195D01*
X1148Y1195D02*
X1224Y1195D01*
X448Y1194D02*
X524Y1194D01*
X1147Y1194D02*
X1224Y1194D01*
X448Y1193D02*
X524Y1193D01*
X1147Y1193D02*
X1224Y1193D01*
X448Y1192D02*
X524Y1192D01*
X1147Y1192D02*
X1224Y1192D01*
X448Y1191D02*
X524Y1191D01*
X1147Y1191D02*
X1224Y1191D01*
X448Y1190D02*
X524Y1190D01*
X1148Y1190D02*
X1224Y1190D01*
X448Y1189D02*
X524Y1189D01*
X1148Y1189D02*
X1224Y1189D01*
X448Y1188D02*
X524Y1188D01*
X1148Y1188D02*
X1224Y1188D01*
X448Y1187D02*
X524Y1187D01*
X1148Y1187D02*
X1224Y1187D01*
X448Y1186D02*
X524Y1186D01*
X1148Y1186D02*
X1224Y1186D01*
X448Y1185D02*
X524Y1185D01*
X1148Y1185D02*
X1224Y1185D01*
X449Y1184D02*
X523Y1184D01*
X1149Y1184D02*
X1223Y1184D01*
X449Y1183D02*
X523Y1183D01*
X1149Y1183D02*
X1223Y1183D01*
X449Y1182D02*
X523Y1182D01*
X1149Y1182D02*
X1223Y1182D01*
X450Y1181D02*
X522Y1181D01*
X1150Y1181D02*
X1222Y1181D01*
X450Y1180D02*
X522Y1180D01*
X1150Y1180D02*
X1222Y1180D01*
X450Y1179D02*
X522Y1179D01*
X1150Y1179D02*
X1222Y1179D01*
X451Y1178D02*
X521Y1178D01*
X1151Y1178D02*
X1221Y1178D01*
X451Y1177D02*
X521Y1177D01*
X1151Y1177D02*
X1221Y1177D01*
X452Y1176D02*
X520Y1176D01*
X1152Y1176D02*
X1220Y1176D01*
X452Y1175D02*
X520Y1175D01*
X1152Y1175D02*
X1220Y1175D01*
X453Y1174D02*
X519Y1174D01*
X1153Y1174D02*
X1219Y1174D01*
X454Y1173D02*
X519Y1173D01*
X1154Y1173D02*
X1218Y1173D01*
X454Y1172D02*
X518Y1172D01*
X1154Y1172D02*
X1218Y1172D01*
X455Y1171D02*
X517Y1171D01*
X1155Y1171D02*
X1217Y1171D01*
X456Y1170D02*
X516Y1170D01*
X1156Y1170D02*
X1216Y1170D01*
X457Y1169D02*
X516Y1169D01*
X1157Y1169D02*
X1216Y1169D01*
X457Y1168D02*
X515Y1168D01*
X1157Y1168D02*
X1215Y1168D01*
X458Y1167D02*
X514Y1167D01*
X1158Y1167D02*
X1214Y1167D01*
X459Y1166D02*
X513Y1166D01*
X1159Y1166D02*
X1213Y1166D01*
X460Y1165D02*
X512Y1165D01*
X1160Y1165D02*
X1212Y1165D01*
X461Y1164D02*
X511Y1164D01*
X1161Y1164D02*
X1211Y1164D01*
X463Y1163D02*
X510Y1163D01*
X1163Y1163D02*
X1210Y1163D01*
X464Y1162D02*
X508Y1162D01*
X1164Y1162D02*
X1208Y1162D01*
X465Y1161D02*
X507Y1161D01*
X1165Y1161D02*
X1207Y1161D01*
X467Y1160D02*
X506Y1160D01*
X1167Y1160D02*
X1206Y1160D01*
X468Y1159D02*
X504Y1159D01*
X1168Y1159D02*
X1204Y1159D01*
X470Y1158D02*
X502Y1158D01*
X1170Y1158D02*
X1202Y1158D01*
X472Y1157D02*
X500Y1157D01*
X1172Y1157D02*
X1200Y1157D01*
X475Y1156D02*
X498Y1156D01*
X1175Y1156D02*
X1198Y1156D01*
X478Y1155D02*
X495Y1155D01*
X1178Y1155D02*
X1194Y1155D01*
X483Y1154D02*
X489Y1154D01*
X1183Y1154D02*
X1189Y1154D01*
X480Y1131D02*
X493Y1131D01*
X1180Y1131D02*
X1193Y1131D01*
X476Y1130D02*
X496Y1130D01*
X1176Y1130D02*
X1196Y1130D01*
X474Y1129D02*
X499Y1129D01*
X1173Y1129D02*
X1199Y1129D01*
X471Y1128D02*
X501Y1128D01*
X1171Y1128D02*
X1201Y1128D01*
X469Y1127D02*
X503Y1127D01*
X1169Y1127D02*
X1203Y1127D01*
X468Y1126D02*
X505Y1126D01*
X1168Y1126D02*
X1205Y1126D01*
X466Y1125D02*
X506Y1125D01*
X1166Y1125D02*
X1206Y1125D01*
X465Y1124D02*
X508Y1124D01*
X1165Y1124D02*
X1208Y1124D01*
X464Y1123D02*
X509Y1123D01*
X1164Y1123D02*
X1209Y1123D01*
X462Y1122D02*
X510Y1122D01*
X1162Y1122D02*
X1210Y1122D01*
X461Y1121D02*
X511Y1121D01*
X1161Y1121D02*
X1211Y1121D01*
X460Y1120D02*
X512Y1120D01*
X1160Y1120D02*
X1212Y1120D01*
X459Y1119D02*
X513Y1119D01*
X1159Y1119D02*
X1213Y1119D01*
X458Y1118D02*
X514Y1118D01*
X1158Y1118D02*
X1214Y1118D01*
X457Y1117D02*
X515Y1117D01*
X1157Y1117D02*
X1215Y1117D01*
X457Y1116D02*
X516Y1116D01*
X1156Y1116D02*
X1216Y1116D01*
X456Y1115D02*
X517Y1115D01*
X1156Y1115D02*
X1216Y1115D01*
X455Y1114D02*
X517Y1114D01*
X1155Y1114D02*
X1217Y1114D01*
X454Y1113D02*
X518Y1113D01*
X1154Y1113D02*
X1218Y1113D01*
X454Y1112D02*
X519Y1112D01*
X1154Y1112D02*
X1219Y1112D01*
X453Y1111D02*
X519Y1111D01*
X1153Y1111D02*
X1219Y1111D01*
X452Y1110D02*
X520Y1110D01*
X1152Y1110D02*
X1220Y1110D01*
X452Y1109D02*
X520Y1109D01*
X1152Y1109D02*
X1220Y1109D01*
X451Y1108D02*
X521Y1108D01*
X1151Y1108D02*
X1221Y1108D01*
X451Y1107D02*
X521Y1107D01*
X1151Y1107D02*
X1221Y1107D01*
X450Y1106D02*
X522Y1106D01*
X1150Y1106D02*
X1222Y1106D01*
X450Y1105D02*
X522Y1105D01*
X1150Y1105D02*
X1222Y1105D01*
X450Y1104D02*
X522Y1104D01*
X1150Y1104D02*
X1222Y1104D01*
X449Y1103D02*
X523Y1103D01*
X1149Y1103D02*
X1223Y1103D01*
X449Y1102D02*
X523Y1102D01*
X1149Y1102D02*
X1223Y1102D01*
X449Y1101D02*
X523Y1101D01*
X1149Y1101D02*
X1223Y1101D01*
X448Y1100D02*
X524Y1100D01*
X1148Y1100D02*
X1224Y1100D01*
X448Y1099D02*
X524Y1099D01*
X1148Y1099D02*
X1224Y1099D01*
X448Y1098D02*
X524Y1098D01*
X1148Y1098D02*
X1224Y1098D01*
X448Y1097D02*
X524Y1097D01*
X1148Y1097D02*
X1224Y1097D01*
X448Y1096D02*
X524Y1096D01*
X1148Y1096D02*
X1224Y1096D01*
X448Y1095D02*
X524Y1095D01*
X1148Y1095D02*
X1224Y1095D01*
X448Y1094D02*
X524Y1094D01*
X1147Y1094D02*
X1224Y1094D01*
X447Y1093D02*
X524Y1093D01*
X1147Y1093D02*
X1224Y1093D01*
X448Y1092D02*
X524Y1092D01*
X1147Y1092D02*
X1224Y1092D01*
X448Y1091D02*
X524Y1091D01*
X1147Y1091D02*
X1224Y1091D01*
X448Y1090D02*
X524Y1090D01*
X1148Y1090D02*
X1224Y1090D01*
X448Y1089D02*
X524Y1089D01*
X1148Y1089D02*
X1224Y1089D01*
X448Y1088D02*
X524Y1088D01*
X1148Y1088D02*
X1224Y1088D01*
X448Y1087D02*
X524Y1087D01*
X1148Y1087D02*
X1224Y1087D01*
X448Y1086D02*
X524Y1086D01*
X1148Y1086D02*
X1224Y1086D01*
X448Y1085D02*
X524Y1085D01*
X1148Y1085D02*
X1224Y1085D01*
X449Y1084D02*
X523Y1084D01*
X1149Y1084D02*
X1223Y1084D01*
X449Y1083D02*
X523Y1083D01*
X1149Y1083D02*
X1223Y1083D01*
X449Y1082D02*
X523Y1082D01*
X1149Y1082D02*
X1223Y1082D01*
X450Y1081D02*
X522Y1081D01*
X1150Y1081D02*
X1222Y1081D01*
X450Y1080D02*
X522Y1080D01*
X1150Y1080D02*
X1222Y1080D01*
X450Y1079D02*
X522Y1079D01*
X1150Y1079D02*
X1222Y1079D01*
X451Y1078D02*
X521Y1078D01*
X1151Y1078D02*
X1221Y1078D01*
X451Y1077D02*
X521Y1077D01*
X1151Y1077D02*
X1221Y1077D01*
X452Y1076D02*
X520Y1076D01*
X1152Y1076D02*
X1220Y1076D01*
X452Y1075D02*
X520Y1075D01*
X1152Y1075D02*
X1220Y1075D01*
X453Y1074D02*
X519Y1074D01*
X1153Y1074D02*
X1219Y1074D01*
X454Y1073D02*
X519Y1073D01*
X1154Y1073D02*
X1218Y1073D01*
X454Y1072D02*
X518Y1072D01*
X1154Y1072D02*
X1218Y1072D01*
X455Y1071D02*
X517Y1071D01*
X1155Y1071D02*
X1217Y1071D01*
X456Y1070D02*
X516Y1070D01*
X1156Y1070D02*
X1216Y1070D01*
X457Y1069D02*
X516Y1069D01*
X1157Y1069D02*
X1216Y1069D01*
X457Y1068D02*
X515Y1068D01*
X1157Y1068D02*
X1215Y1068D01*
X458Y1067D02*
X514Y1067D01*
X1158Y1067D02*
X1214Y1067D01*
X459Y1066D02*
X513Y1066D01*
X1159Y1066D02*
X1213Y1066D01*
X460Y1065D02*
X512Y1065D01*
X1160Y1065D02*
X1212Y1065D01*
X462Y1064D02*
X511Y1064D01*
X1161Y1064D02*
X1211Y1064D01*
X463Y1063D02*
X510Y1063D01*
X1163Y1063D02*
X1210Y1063D01*
X464Y1062D02*
X508Y1062D01*
X1164Y1062D02*
X1208Y1062D01*
X465Y1061D02*
X507Y1061D01*
X1165Y1061D02*
X1207Y1061D01*
X467Y1060D02*
X506Y1060D01*
X1167Y1060D02*
X1206Y1060D01*
X468Y1059D02*
X504Y1059D01*
X1168Y1059D02*
X1204Y1059D01*
X470Y1058D02*
X502Y1058D01*
X1170Y1058D02*
X1202Y1058D01*
X472Y1057D02*
X500Y1057D01*
X1172Y1057D02*
X1200Y1057D01*
X475Y1056D02*
X498Y1056D01*
X1175Y1056D02*
X1198Y1056D01*
X478Y1055D02*
X494Y1055D01*
X1178Y1055D02*
X1194Y1055D01*
X483Y1054D02*
X489Y1054D01*
X1183Y1054D02*
X1189Y1054D01*
X480Y1031D02*
X493Y1031D01*
X1180Y1031D02*
X1193Y1031D01*
X476Y1030D02*
X496Y1030D01*
X1176Y1030D02*
X1196Y1030D01*
X473Y1029D02*
X499Y1029D01*
X1173Y1029D02*
X1199Y1029D01*
X471Y1028D02*
X501Y1028D01*
X1171Y1028D02*
X1201Y1028D01*
X469Y1027D02*
X503Y1027D01*
X1169Y1027D02*
X1203Y1027D01*
X468Y1026D02*
X505Y1026D01*
X1168Y1026D02*
X1205Y1026D01*
X466Y1025D02*
X506Y1025D01*
X1166Y1025D02*
X1206Y1025D01*
X465Y1024D02*
X508Y1024D01*
X1165Y1024D02*
X1208Y1024D01*
X464Y1023D02*
X509Y1023D01*
X1163Y1023D02*
X1209Y1023D01*
X462Y1022D02*
X510Y1022D01*
X1162Y1022D02*
X1210Y1022D01*
X461Y1021D02*
X511Y1021D01*
X1161Y1021D02*
X1211Y1021D01*
X460Y1020D02*
X512Y1020D01*
X1160Y1020D02*
X1212Y1020D01*
X459Y1019D02*
X513Y1019D01*
X1159Y1019D02*
X1213Y1019D01*
X458Y1018D02*
X514Y1018D01*
X1158Y1018D02*
X1214Y1018D01*
X457Y1017D02*
X515Y1017D01*
X1157Y1017D02*
X1215Y1017D01*
X456Y1016D02*
X516Y1016D01*
X1156Y1016D02*
X1216Y1016D01*
X456Y1015D02*
X517Y1015D01*
X1156Y1015D02*
X1216Y1015D01*
X455Y1014D02*
X517Y1014D01*
X1155Y1014D02*
X1217Y1014D01*
X454Y1013D02*
X518Y1013D01*
X1154Y1013D02*
X1218Y1013D01*
X454Y1012D02*
X519Y1012D01*
X1154Y1012D02*
X1219Y1012D01*
X453Y1011D02*
X519Y1011D01*
X1153Y1011D02*
X1219Y1011D01*
X452Y1010D02*
X520Y1010D01*
X1152Y1010D02*
X1220Y1010D01*
X452Y1009D02*
X520Y1009D01*
X1152Y1009D02*
X1220Y1009D01*
X451Y1008D02*
X521Y1008D01*
X1151Y1008D02*
X1221Y1008D01*
X451Y1007D02*
X521Y1007D01*
X1151Y1007D02*
X1221Y1007D01*
X450Y1006D02*
X522Y1006D01*
X1150Y1006D02*
X1222Y1006D01*
X450Y1005D02*
X522Y1005D01*
X1150Y1005D02*
X1222Y1005D01*
X450Y1004D02*
X522Y1004D01*
X1150Y1004D02*
X1222Y1004D01*
X449Y1003D02*
X523Y1003D01*
X1149Y1003D02*
X1223Y1003D01*
X449Y1002D02*
X523Y1002D01*
X1149Y1002D02*
X1223Y1002D01*
X449Y1001D02*
X523Y1001D01*
X1149Y1001D02*
X1223Y1001D01*
X448Y1000D02*
X524Y1000D01*
X1148Y1000D02*
X1224Y1000D01*
X448Y999D02*
X524Y999D01*
X1148Y999D02*
X1224Y999D01*
X448Y998D02*
X524Y998D01*
X1148Y998D02*
X1224Y998D01*
X448Y997D02*
X524Y997D01*
X1148Y997D02*
X1224Y997D01*
X448Y996D02*
X524Y996D01*
X1148Y996D02*
X1224Y996D01*
X448Y995D02*
X524Y995D01*
X1148Y995D02*
X1224Y995D01*
X448Y994D02*
X524Y994D01*
X1147Y994D02*
X1224Y994D01*
X447Y993D02*
X524Y993D01*
X1147Y993D02*
X1224Y993D01*
X448Y992D02*
X524Y992D01*
X1147Y992D02*
X1224Y992D01*
X448Y991D02*
X524Y991D01*
X1147Y991D02*
X1224Y991D01*
X448Y990D02*
X524Y990D01*
X1148Y990D02*
X1224Y990D01*
X448Y989D02*
X524Y989D01*
X1148Y989D02*
X1224Y989D01*
X448Y988D02*
X524Y988D01*
X1148Y988D02*
X1224Y988D01*
X448Y987D02*
X524Y987D01*
X1148Y987D02*
X1224Y987D01*
X448Y986D02*
X524Y986D01*
X1148Y986D02*
X1224Y986D01*
X448Y985D02*
X524Y985D01*
X1148Y985D02*
X1224Y985D01*
X449Y984D02*
X523Y984D01*
X1149Y984D02*
X1223Y984D01*
X449Y983D02*
X523Y983D01*
X1149Y983D02*
X1223Y983D01*
X449Y982D02*
X523Y982D01*
X1149Y982D02*
X1223Y982D01*
X450Y981D02*
X522Y981D01*
X1150Y981D02*
X1222Y981D01*
X450Y980D02*
X522Y980D01*
X1150Y980D02*
X1222Y980D01*
X450Y979D02*
X522Y979D01*
X1150Y979D02*
X1222Y979D01*
X451Y978D02*
X521Y978D01*
X1151Y978D02*
X1221Y978D01*
X451Y977D02*
X521Y977D01*
X1151Y977D02*
X1221Y977D01*
X452Y976D02*
X520Y976D01*
X1152Y976D02*
X1220Y976D01*
X452Y975D02*
X520Y975D01*
X1152Y975D02*
X1220Y975D01*
X453Y974D02*
X519Y974D01*
X1153Y974D02*
X1219Y974D01*
X454Y973D02*
X519Y973D01*
X1154Y973D02*
X1218Y973D01*
X454Y972D02*
X518Y972D01*
X1154Y972D02*
X1218Y972D01*
X455Y971D02*
X517Y971D01*
X1155Y971D02*
X1217Y971D01*
X456Y970D02*
X516Y970D01*
X1156Y970D02*
X1216Y970D01*
X457Y969D02*
X516Y969D01*
X1157Y969D02*
X1216Y969D01*
X458Y968D02*
X515Y968D01*
X1157Y968D02*
X1215Y968D01*
X458Y967D02*
X514Y967D01*
X1158Y967D02*
X1214Y967D01*
X459Y966D02*
X513Y966D01*
X1159Y966D02*
X1213Y966D01*
X460Y965D02*
X512Y965D01*
X1160Y965D02*
X1212Y965D01*
X462Y964D02*
X511Y964D01*
X1161Y964D02*
X1211Y964D01*
X463Y963D02*
X510Y963D01*
X1163Y963D02*
X1210Y963D01*
X464Y962D02*
X508Y962D01*
X1164Y962D02*
X1208Y962D01*
X465Y961D02*
X507Y961D01*
X1165Y961D02*
X1207Y961D01*
X467Y960D02*
X506Y960D01*
X1167Y960D02*
X1206Y960D01*
X468Y959D02*
X504Y959D01*
X1168Y959D02*
X1204Y959D01*
X470Y958D02*
X502Y958D01*
X1170Y958D02*
X1202Y958D01*
X472Y957D02*
X500Y957D01*
X1172Y957D02*
X1200Y957D01*
X475Y956D02*
X498Y956D01*
X1175Y956D02*
X1198Y956D01*
X478Y955D02*
X494Y955D01*
X1178Y955D02*
X1194Y955D01*
X483Y954D02*
X489Y954D01*
X1183Y954D02*
X1189Y954D01*
X480Y931D02*
X493Y931D01*
X1179Y931D02*
X1193Y931D01*
X476Y930D02*
X496Y930D01*
X1176Y930D02*
X1196Y930D01*
X473Y929D02*
X499Y929D01*
X1173Y929D02*
X1199Y929D01*
X471Y928D02*
X501Y928D01*
X1171Y928D02*
X1201Y928D01*
X469Y927D02*
X503Y927D01*
X1169Y927D02*
X1203Y927D01*
X468Y926D02*
X505Y926D01*
X1168Y926D02*
X1205Y926D01*
X466Y925D02*
X506Y925D01*
X1166Y925D02*
X1206Y925D01*
X465Y924D02*
X508Y924D01*
X1165Y924D02*
X1208Y924D01*
X464Y923D02*
X509Y923D01*
X1163Y923D02*
X1209Y923D01*
X462Y922D02*
X510Y922D01*
X1162Y922D02*
X1210Y922D01*
X461Y921D02*
X511Y921D01*
X1161Y921D02*
X1211Y921D01*
X460Y920D02*
X512Y920D01*
X1160Y920D02*
X1212Y920D01*
X459Y919D02*
X513Y919D01*
X1159Y919D02*
X1213Y919D01*
X458Y918D02*
X514Y918D01*
X1158Y918D02*
X1214Y918D01*
X457Y917D02*
X515Y917D01*
X1157Y917D02*
X1215Y917D01*
X456Y916D02*
X516Y916D01*
X1156Y916D02*
X1216Y916D01*
X456Y915D02*
X517Y915D01*
X1156Y915D02*
X1217Y915D01*
X455Y914D02*
X517Y914D01*
X1155Y914D02*
X1217Y914D01*
X454Y913D02*
X518Y913D01*
X1154Y913D02*
X1218Y913D01*
X454Y912D02*
X519Y912D01*
X1154Y912D02*
X1219Y912D01*
X453Y911D02*
X519Y911D01*
X1153Y911D02*
X1219Y911D01*
X452Y910D02*
X520Y910D01*
X1152Y910D02*
X1220Y910D01*
X452Y909D02*
X520Y909D01*
X1152Y909D02*
X1220Y909D01*
X451Y908D02*
X521Y908D01*
X1151Y908D02*
X1221Y908D01*
X451Y907D02*
X521Y907D01*
X1151Y907D02*
X1221Y907D01*
X450Y906D02*
X522Y906D01*
X1150Y906D02*
X1222Y906D01*
X450Y905D02*
X522Y905D01*
X1150Y905D02*
X1222Y905D01*
X450Y904D02*
X522Y904D01*
X1150Y904D02*
X1222Y904D01*
X449Y903D02*
X523Y903D01*
X1149Y903D02*
X1223Y903D01*
X449Y902D02*
X523Y902D01*
X1149Y902D02*
X1223Y902D01*
X449Y901D02*
X523Y901D01*
X1149Y901D02*
X1223Y901D01*
X448Y900D02*
X524Y900D01*
X1148Y900D02*
X1224Y900D01*
X448Y899D02*
X524Y899D01*
X1148Y899D02*
X1224Y899D01*
X448Y898D02*
X524Y898D01*
X1148Y898D02*
X1224Y898D01*
X448Y897D02*
X524Y897D01*
X1148Y897D02*
X1224Y897D01*
X448Y896D02*
X524Y896D01*
X1148Y896D02*
X1224Y896D01*
X448Y895D02*
X524Y895D01*
X1148Y895D02*
X1224Y895D01*
X448Y894D02*
X524Y894D01*
X1147Y894D02*
X1224Y894D01*
X447Y893D02*
X524Y893D01*
X1147Y893D02*
X1224Y893D01*
X448Y892D02*
X524Y892D01*
X1147Y892D02*
X1224Y892D01*
X448Y891D02*
X524Y891D01*
X1147Y891D02*
X1224Y891D01*
X448Y890D02*
X524Y890D01*
X1148Y890D02*
X1224Y890D01*
X448Y889D02*
X524Y889D01*
X1148Y889D02*
X1224Y889D01*
X448Y888D02*
X524Y888D01*
X1148Y888D02*
X1224Y888D01*
X448Y887D02*
X524Y887D01*
X1148Y887D02*
X1224Y887D01*
X448Y886D02*
X524Y886D01*
X1148Y886D02*
X1224Y886D01*
X448Y885D02*
X524Y885D01*
X1148Y885D02*
X1224Y885D01*
X449Y884D02*
X523Y884D01*
X1149Y884D02*
X1223Y884D01*
X449Y883D02*
X523Y883D01*
X1149Y883D02*
X1223Y883D01*
X449Y882D02*
X523Y882D01*
X1149Y882D02*
X1223Y882D01*
X450Y881D02*
X522Y881D01*
X1150Y881D02*
X1222Y881D01*
X450Y880D02*
X522Y880D01*
X1150Y880D02*
X1222Y880D01*
X450Y879D02*
X522Y879D01*
X1150Y879D02*
X1222Y879D01*
X451Y878D02*
X521Y878D01*
X1151Y878D02*
X1221Y878D01*
X451Y877D02*
X521Y877D01*
X1151Y877D02*
X1221Y877D01*
X452Y876D02*
X520Y876D01*
X1152Y876D02*
X1220Y876D01*
X452Y875D02*
X520Y875D01*
X1152Y875D02*
X1220Y875D01*
X453Y874D02*
X519Y874D01*
X1153Y874D02*
X1219Y874D01*
X454Y873D02*
X518Y873D01*
X1154Y873D02*
X1218Y873D01*
X454Y872D02*
X518Y872D01*
X1154Y872D02*
X1218Y872D01*
X455Y871D02*
X517Y871D01*
X1155Y871D02*
X1217Y871D01*
X456Y870D02*
X516Y870D01*
X1156Y870D02*
X1216Y870D01*
X457Y869D02*
X516Y869D01*
X1157Y869D02*
X1216Y869D01*
X458Y868D02*
X515Y868D01*
X1157Y868D02*
X1215Y868D01*
X458Y867D02*
X514Y867D01*
X1158Y867D02*
X1214Y867D01*
X459Y866D02*
X513Y866D01*
X1159Y866D02*
X1213Y866D01*
X460Y865D02*
X512Y865D01*
X1160Y865D02*
X1212Y865D01*
X462Y864D02*
X511Y864D01*
X1161Y864D02*
X1211Y864D01*
X463Y863D02*
X510Y863D01*
X1163Y863D02*
X1210Y863D01*
X464Y862D02*
X508Y862D01*
X1164Y862D02*
X1208Y862D01*
X465Y861D02*
X507Y861D01*
X1165Y861D02*
X1207Y861D01*
X467Y860D02*
X506Y860D01*
X1167Y860D02*
X1206Y860D01*
X468Y859D02*
X504Y859D01*
X1168Y859D02*
X1204Y859D01*
X470Y858D02*
X502Y858D01*
X1170Y858D02*
X1202Y858D01*
X472Y857D02*
X500Y857D01*
X1172Y857D02*
X1200Y857D01*
X475Y856D02*
X498Y856D01*
X1175Y856D02*
X1197Y856D01*
X478Y855D02*
X494Y855D01*
X1178Y855D02*
X1194Y855D01*
X483Y854D02*
X489Y854D01*
X1183Y854D02*
X1189Y854D01*
X479Y831D02*
X493Y831D01*
X1179Y831D02*
X1193Y831D01*
X476Y830D02*
X496Y830D01*
X1176Y830D02*
X1196Y830D01*
X473Y829D02*
X499Y829D01*
X1173Y829D02*
X1199Y829D01*
X471Y828D02*
X501Y828D01*
X1171Y828D02*
X1201Y828D01*
X469Y827D02*
X503Y827D01*
X1169Y827D02*
X1203Y827D01*
X468Y826D02*
X505Y826D01*
X1168Y826D02*
X1205Y826D01*
X466Y825D02*
X506Y825D01*
X1166Y825D02*
X1206Y825D01*
X465Y824D02*
X508Y824D01*
X1165Y824D02*
X1208Y824D01*
X464Y823D02*
X509Y823D01*
X1163Y823D02*
X1209Y823D01*
X462Y822D02*
X510Y822D01*
X1162Y822D02*
X1210Y822D01*
X461Y821D02*
X511Y821D01*
X1161Y821D02*
X1211Y821D01*
X460Y820D02*
X512Y820D01*
X1160Y820D02*
X1212Y820D01*
X459Y819D02*
X513Y819D01*
X1159Y819D02*
X1213Y819D01*
X458Y818D02*
X514Y818D01*
X1158Y818D02*
X1214Y818D01*
X457Y817D02*
X515Y817D01*
X1157Y817D02*
X1215Y817D01*
X456Y816D02*
X516Y816D01*
X1156Y816D02*
X1216Y816D01*
X456Y815D02*
X517Y815D01*
X1156Y815D02*
X1217Y815D01*
X455Y814D02*
X517Y814D01*
X1155Y814D02*
X1217Y814D01*
X454Y813D02*
X518Y813D01*
X1154Y813D02*
X1218Y813D01*
X454Y812D02*
X519Y812D01*
X1154Y812D02*
X1219Y812D01*
X453Y811D02*
X519Y811D01*
X1153Y811D02*
X1219Y811D01*
X452Y810D02*
X520Y810D01*
X1152Y810D02*
X1220Y810D01*
X452Y809D02*
X520Y809D01*
X1152Y809D02*
X1220Y809D01*
X451Y808D02*
X521Y808D01*
X1151Y808D02*
X1221Y808D01*
X451Y807D02*
X521Y807D01*
X1151Y807D02*
X1221Y807D01*
X450Y806D02*
X522Y806D01*
X1150Y806D02*
X1222Y806D01*
X450Y805D02*
X522Y805D01*
X1150Y805D02*
X1222Y805D01*
X450Y804D02*
X523Y804D01*
X1150Y804D02*
X1222Y804D01*
X449Y803D02*
X523Y803D01*
X1149Y803D02*
X1223Y803D01*
X449Y802D02*
X523Y802D01*
X1149Y802D02*
X1223Y802D01*
X449Y801D02*
X523Y801D01*
X1149Y801D02*
X1223Y801D01*
X448Y800D02*
X524Y800D01*
X1148Y800D02*
X1224Y800D01*
X448Y799D02*
X524Y799D01*
X1148Y799D02*
X1224Y799D01*
X448Y798D02*
X524Y798D01*
X1148Y798D02*
X1224Y798D01*
X448Y797D02*
X524Y797D01*
X1148Y797D02*
X1224Y797D01*
X448Y796D02*
X524Y796D01*
X1148Y796D02*
X1224Y796D01*
X448Y795D02*
X524Y795D01*
X1148Y795D02*
X1224Y795D01*
X448Y794D02*
X524Y794D01*
X1147Y794D02*
X1224Y794D01*
X447Y793D02*
X524Y793D01*
X1147Y793D02*
X1224Y793D01*
X448Y792D02*
X524Y792D01*
X1147Y792D02*
X1224Y792D01*
X448Y791D02*
X524Y791D01*
X1147Y791D02*
X1224Y791D01*
X448Y790D02*
X524Y790D01*
X1148Y790D02*
X1224Y790D01*
X448Y789D02*
X524Y789D01*
X1148Y789D02*
X1224Y789D01*
X448Y788D02*
X524Y788D01*
X1148Y788D02*
X1224Y788D01*
X448Y787D02*
X524Y787D01*
X1148Y787D02*
X1224Y787D01*
X448Y786D02*
X524Y786D01*
X1148Y786D02*
X1224Y786D01*
X448Y785D02*
X524Y785D01*
X1148Y785D02*
X1224Y785D01*
X449Y784D02*
X523Y784D01*
X1149Y784D02*
X1223Y784D01*
X449Y783D02*
X523Y783D01*
X1149Y783D02*
X1223Y783D01*
X449Y782D02*
X523Y782D01*
X1149Y782D02*
X1223Y782D01*
X450Y781D02*
X522Y781D01*
X1150Y781D02*
X1222Y781D01*
X450Y780D02*
X522Y780D01*
X1150Y780D02*
X1222Y780D01*
X450Y779D02*
X522Y779D01*
X1150Y779D02*
X1222Y779D01*
X451Y778D02*
X521Y778D01*
X1151Y778D02*
X1221Y778D01*
X451Y777D02*
X521Y777D01*
X1151Y777D02*
X1221Y777D01*
X452Y776D02*
X520Y776D01*
X1152Y776D02*
X1220Y776D01*
X452Y775D02*
X520Y775D01*
X1152Y775D02*
X1220Y775D01*
X453Y774D02*
X519Y774D01*
X1153Y774D02*
X1219Y774D01*
X454Y773D02*
X518Y773D01*
X1154Y773D02*
X1218Y773D01*
X454Y772D02*
X518Y772D01*
X1154Y772D02*
X1218Y772D01*
X455Y771D02*
X517Y771D01*
X1155Y771D02*
X1217Y771D01*
X456Y770D02*
X516Y770D01*
X1156Y770D02*
X1216Y770D01*
X457Y769D02*
X516Y769D01*
X1157Y769D02*
X1216Y769D01*
X458Y768D02*
X515Y768D01*
X1157Y768D02*
X1215Y768D01*
X458Y767D02*
X514Y767D01*
X1158Y767D02*
X1214Y767D01*
X459Y766D02*
X513Y766D01*
X1159Y766D02*
X1213Y766D01*
X460Y765D02*
X512Y765D01*
X1160Y765D02*
X1212Y765D01*
X462Y764D02*
X511Y764D01*
X1161Y764D02*
X1211Y764D01*
X463Y763D02*
X510Y763D01*
X1163Y763D02*
X1210Y763D01*
X464Y762D02*
X508Y762D01*
X1164Y762D02*
X1208Y762D01*
X465Y761D02*
X507Y761D01*
X1165Y761D02*
X1207Y761D01*
X467Y760D02*
X506Y760D01*
X1167Y760D02*
X1206Y760D01*
X468Y759D02*
X504Y759D01*
X1168Y759D02*
X1204Y759D01*
X470Y758D02*
X502Y758D01*
X1170Y758D02*
X1202Y758D01*
X472Y757D02*
X500Y757D01*
X1172Y757D02*
X1200Y757D01*
X475Y756D02*
X498Y756D01*
X1175Y756D02*
X1197Y756D01*
X478Y755D02*
X494Y755D01*
X1178Y755D02*
X1194Y755D01*
X483Y754D02*
X489Y754D01*
X1183Y754D02*
X1189Y754D01*
X594Y434D02*
X677Y434D01*
X1294Y434D02*
X1377Y434D01*
X594Y433D02*
X677Y433D01*
X1294Y433D02*
X1377Y433D01*
X594Y432D02*
X677Y432D01*
X1294Y432D02*
X1377Y432D01*
X594Y431D02*
X677Y431D01*
X1294Y431D02*
X1377Y431D01*
X594Y430D02*
X677Y430D01*
X1294Y430D02*
X1377Y430D01*
X594Y429D02*
X677Y429D01*
X1294Y429D02*
X1377Y429D01*
X594Y428D02*
X677Y428D01*
X1294Y428D02*
X1377Y428D01*
X594Y427D02*
X677Y427D01*
X1294Y427D02*
X1377Y427D01*
X594Y426D02*
X677Y426D01*
X1294Y426D02*
X1377Y426D01*
X594Y425D02*
X677Y425D01*
X1294Y425D02*
X1377Y425D01*
X594Y424D02*
X677Y424D01*
X1294Y424D02*
X1377Y424D01*
X594Y423D02*
X677Y423D01*
X1294Y423D02*
X1377Y423D01*
X594Y422D02*
X677Y422D01*
X1294Y422D02*
X1377Y422D01*
X594Y421D02*
X677Y421D01*
X1294Y421D02*
X1377Y421D01*
X594Y420D02*
X677Y420D01*
X1294Y420D02*
X1377Y420D01*
X594Y419D02*
X677Y419D01*
X1294Y419D02*
X1377Y419D01*
X594Y418D02*
X677Y418D01*
X1294Y418D02*
X1377Y418D01*
X594Y417D02*
X677Y417D01*
X1294Y417D02*
X1377Y417D01*
X594Y416D02*
X677Y416D01*
X1294Y416D02*
X1377Y416D01*
X594Y415D02*
X677Y415D01*
X1294Y415D02*
X1377Y415D01*
X594Y414D02*
X677Y414D01*
X1294Y414D02*
X1377Y414D01*
X594Y413D02*
X677Y413D01*
X1294Y413D02*
X1377Y413D01*
X594Y412D02*
X677Y412D01*
X1294Y412D02*
X1377Y412D01*
X594Y411D02*
X677Y411D01*
X1294Y411D02*
X1377Y411D01*
X594Y410D02*
X677Y410D01*
X1294Y410D02*
X1377Y410D01*
X594Y409D02*
X677Y409D01*
X1294Y409D02*
X1377Y409D01*
X594Y408D02*
X677Y408D01*
X1294Y408D02*
X1377Y408D01*
X594Y407D02*
X631Y407D01*
X641Y407D02*
X677Y407D01*
X1294Y407D02*
X1331Y407D01*
X1341Y407D02*
X1377Y407D01*
X594Y406D02*
X628Y406D01*
X644Y406D02*
X677Y406D01*
X1294Y406D02*
X1328Y406D01*
X1344Y406D02*
X1377Y406D01*
X594Y405D02*
X627Y405D01*
X645Y405D02*
X677Y405D01*
X1294Y405D02*
X1327Y405D01*
X1345Y405D02*
X1377Y405D01*
X594Y404D02*
X625Y404D01*
X647Y404D02*
X677Y404D01*
X1294Y404D02*
X1325Y404D01*
X1347Y404D02*
X1377Y404D01*
X594Y403D02*
X624Y403D01*
X648Y403D02*
X677Y403D01*
X1294Y403D02*
X1324Y403D01*
X1348Y403D02*
X1377Y403D01*
X594Y402D02*
X624Y402D01*
X648Y402D02*
X677Y402D01*
X1294Y402D02*
X1323Y402D01*
X1348Y402D02*
X1377Y402D01*
X594Y401D02*
X623Y401D01*
X649Y401D02*
X677Y401D01*
X1294Y401D02*
X1323Y401D01*
X1349Y401D02*
X1377Y401D01*
X594Y400D02*
X622Y400D01*
X650Y400D02*
X677Y400D01*
X1294Y400D02*
X1322Y400D01*
X1350Y400D02*
X1377Y400D01*
X594Y399D02*
X622Y399D01*
X650Y399D02*
X677Y399D01*
X1294Y399D02*
X1322Y399D01*
X1350Y399D02*
X1377Y399D01*
X594Y398D02*
X622Y398D01*
X650Y398D02*
X677Y398D01*
X1294Y398D02*
X1321Y398D01*
X1350Y398D02*
X1377Y398D01*
X594Y397D02*
X621Y397D01*
X651Y397D02*
X677Y397D01*
X1294Y397D02*
X1321Y397D01*
X1351Y397D02*
X1377Y397D01*
X594Y396D02*
X621Y396D01*
X651Y396D02*
X677Y396D01*
X1294Y396D02*
X1321Y396D01*
X1351Y396D02*
X1377Y396D01*
X594Y395D02*
X621Y395D01*
X651Y395D02*
X677Y395D01*
X1294Y395D02*
X1321Y395D01*
X1351Y395D02*
X1377Y395D01*
X594Y394D02*
X621Y394D01*
X651Y394D02*
X677Y394D01*
X1294Y394D02*
X1321Y394D01*
X1351Y394D02*
X1377Y394D01*
X594Y393D02*
X621Y393D01*
X651Y393D02*
X677Y393D01*
X1294Y393D02*
X1321Y393D01*
X1351Y393D02*
X1377Y393D01*
X594Y392D02*
X621Y392D01*
X651Y392D02*
X677Y392D01*
X1294Y392D02*
X1321Y392D01*
X1351Y392D02*
X1377Y392D01*
X594Y391D02*
X621Y391D01*
X651Y391D02*
X677Y391D01*
X1294Y391D02*
X1321Y391D01*
X1351Y391D02*
X1377Y391D01*
X594Y390D02*
X621Y390D01*
X651Y390D02*
X677Y390D01*
X1294Y390D02*
X1321Y390D01*
X1351Y390D02*
X1377Y390D01*
X594Y389D02*
X621Y389D01*
X651Y389D02*
X677Y389D01*
X1294Y389D02*
X1321Y389D01*
X1351Y389D02*
X1377Y389D01*
X594Y388D02*
X621Y388D01*
X650Y388D02*
X677Y388D01*
X1294Y388D02*
X1321Y388D01*
X1350Y388D02*
X1377Y388D01*
X594Y387D02*
X622Y387D01*
X650Y387D02*
X677Y387D01*
X1294Y387D02*
X1322Y387D01*
X1350Y387D02*
X1377Y387D01*
X594Y386D02*
X622Y386D01*
X650Y386D02*
X677Y386D01*
X1294Y386D02*
X1322Y386D01*
X1350Y386D02*
X1377Y386D01*
X594Y385D02*
X623Y385D01*
X649Y385D02*
X677Y385D01*
X1294Y385D02*
X1323Y385D01*
X1349Y385D02*
X1377Y385D01*
X594Y384D02*
X623Y384D01*
X649Y384D02*
X677Y384D01*
X1294Y384D02*
X1323Y384D01*
X1349Y384D02*
X1377Y384D01*
X594Y383D02*
X624Y383D01*
X648Y383D02*
X677Y383D01*
X1294Y383D02*
X1324Y383D01*
X1348Y383D02*
X1377Y383D01*
X594Y382D02*
X625Y382D01*
X647Y382D02*
X677Y382D01*
X1294Y382D02*
X1325Y382D01*
X1347Y382D02*
X1377Y382D01*
X594Y381D02*
X626Y381D01*
X646Y381D02*
X677Y381D01*
X1294Y381D02*
X1326Y381D01*
X1346Y381D02*
X1377Y381D01*
X594Y380D02*
X628Y380D01*
X644Y380D02*
X677Y380D01*
X1294Y380D02*
X1328Y380D01*
X1344Y380D02*
X1377Y380D01*
X594Y379D02*
X630Y379D01*
X642Y379D02*
X677Y379D01*
X1294Y379D02*
X1330Y379D01*
X1342Y379D02*
X1377Y379D01*
X594Y378D02*
X677Y378D01*
X1294Y378D02*
X1377Y378D01*
X594Y377D02*
X677Y377D01*
X1294Y377D02*
X1377Y377D01*
X594Y376D02*
X677Y376D01*
X1294Y376D02*
X1377Y376D01*
X594Y375D02*
X677Y375D01*
X1294Y375D02*
X1377Y375D01*
X594Y374D02*
X677Y374D01*
X1294Y374D02*
X1377Y374D01*
X594Y373D02*
X677Y373D01*
X1294Y373D02*
X1377Y373D01*
X594Y372D02*
X677Y372D01*
X1294Y372D02*
X1377Y372D01*
X594Y371D02*
X677Y371D01*
X1294Y371D02*
X1377Y371D01*
X594Y370D02*
X677Y370D01*
X1294Y370D02*
X1377Y370D01*
X594Y369D02*
X677Y369D01*
X1294Y369D02*
X1377Y369D01*
X594Y368D02*
X677Y368D01*
X1294Y368D02*
X1377Y368D01*
X594Y367D02*
X677Y367D01*
X1294Y367D02*
X1377Y367D01*
X594Y366D02*
X677Y366D01*
X1294Y366D02*
X1377Y366D01*
X594Y365D02*
X677Y365D01*
X1294Y365D02*
X1377Y365D01*
X594Y364D02*
X677Y364D01*
X1294Y364D02*
X1377Y364D01*
X594Y363D02*
X677Y363D01*
X1294Y363D02*
X1377Y363D01*
X594Y362D02*
X677Y362D01*
X1294Y362D02*
X1377Y362D01*
X594Y361D02*
X677Y361D01*
X1294Y361D02*
X1377Y361D01*
X594Y360D02*
X677Y360D01*
X1294Y360D02*
X1377Y360D01*
X594Y359D02*
X677Y359D01*
X1294Y359D02*
X1377Y359D01*
X594Y358D02*
X677Y358D01*
X1294Y358D02*
X1377Y358D01*
X594Y357D02*
X677Y357D01*
X1294Y357D02*
X1377Y357D01*
X594Y356D02*
X677Y356D01*
X1294Y356D02*
X1377Y356D01*
X594Y355D02*
X677Y355D01*
X1294Y355D02*
X1377Y355D01*
X594Y354D02*
X677Y354D01*
X1294Y354D02*
X1377Y354D01*
X594Y353D02*
X677Y353D01*
X1294Y353D02*
X1377Y353D01*
X594Y352D02*
X677Y352D01*
X1294Y352D02*
X1377Y352D01*
X595Y351D02*
X677Y351D01*
X1295Y351D02*
X1377Y351D01*
D02*
G04 End of Mask0*
M02*