; NON-PLATED HOLES START AT T1
; THROUGH (PLATED) HOLES START AT T100
M48
INCH
T1C0.165354
T2C0.125984
T100C0.038000
T101C0.036000
T102C0.035000
T103C0.039370
%
T1
X019865Y019924
X001865Y019924
X019865Y001924
X001865Y001924
T2
X010365Y001424
X017365Y001424
X012865Y001424
X005865Y001424
T100
X011865Y007924
X004865Y015924
X004865Y008924
X011865Y011924
X011865Y008924
X004865Y013924
X004865Y016924
X011865Y012924
X004865Y014924
X011865Y017924
X004865Y011924
X011865Y010924
X011865Y018924
X004865Y012924
X004865Y009924
X011865Y015924
X011865Y009924
X004865Y017924
X011865Y013924
X011865Y016924
X004865Y010924
X004865Y018924
X004865Y007924
X011865Y014924
T101
X011865Y011924
X011865Y008924
X004865Y009924
X011865Y017924
X011865Y010924
X004865Y008924
X011865Y016924
X004865Y011924
X004865Y017924
X004865Y010924
X004865Y016924
X011865Y014924
X011865Y007924
X004865Y007924
X011865Y015924
X004865Y014924
X004865Y015924
X011865Y013924
X011865Y012924
X011865Y018924
X004865Y013924
X004865Y012924
X004865Y018924
X011865Y009924
T102
X013865Y008924
X013865Y011924
X015865Y008924
X015865Y011924
X014865Y018924
X013865Y014924
X014865Y008924
X014865Y011924
X016865Y011924
X016865Y008924
X013865Y018924
X014865Y014924
T103
X016365Y003924
X013865Y004924
X009365Y003924
X014365Y003924
X007865Y004924
X008365Y003924
X015365Y003924
X006865Y004924
X016865Y015924
X013365Y003924
X016865Y013924
X016865Y016924
X007365Y003924
X016865Y004924
X006365Y003924
X016865Y014924
X009865Y004924
X014865Y004924
X008865Y004924
X015865Y004924
T00
M30
