G04 MADE WITH FRITZING*
G04 WWW.FRITZING.ORG*
G04 DOUBLE SIDED*
G04 HOLES PLATED*
G04 CONTOUR ON CENTER OF CONTOUR VECTOR*
%ASAXBY*%
%FSLAX23Y23*%
%MOIN*%
%OFA0B0*%
%SFA1.0B1.0*%
%ADD10C,0.075000*%
%ADD11C,0.074000*%
%ADD12C,0.068000*%
%ADD13C,0.079370*%
%ADD14C,0.078000*%
%ADD15R,0.075000X0.075000*%
%ADD16C,0.024000*%
%ADD17R,0.001000X0.001000*%
%LNCOPPER0*%
G90*
G70*
G54D10*
X1471Y1307D03*
X1471Y784D03*
X346Y2047D03*
X1487Y1492D03*
X1487Y1892D03*
X1687Y1192D03*
X1687Y892D03*
X1587Y1192D03*
X1587Y892D03*
X1487Y1192D03*
X1487Y892D03*
X1387Y1192D03*
X1387Y892D03*
X1387Y1492D03*
X1387Y1892D03*
G54D11*
X1687Y492D03*
X1637Y392D03*
X1587Y492D03*
X1487Y492D03*
X1387Y492D03*
X1537Y392D03*
X1437Y392D03*
X1337Y392D03*
X987Y492D03*
X937Y392D03*
X887Y492D03*
X787Y492D03*
X687Y492D03*
X837Y392D03*
X737Y392D03*
X637Y392D03*
G54D12*
X1187Y992D03*
X1187Y1092D03*
X1187Y892D03*
X1187Y792D03*
X1187Y1192D03*
X1187Y1292D03*
X1187Y1392D03*
X1187Y1492D03*
X1187Y1592D03*
X1187Y1692D03*
X1187Y1792D03*
X1187Y1892D03*
X487Y1092D03*
X487Y992D03*
X487Y892D03*
X487Y792D03*
X487Y1192D03*
X487Y1292D03*
X487Y1392D03*
X487Y1492D03*
X487Y1692D03*
X487Y1592D03*
X487Y1792D03*
X487Y1892D03*
G54D13*
X1687Y1692D03*
X1687Y1592D03*
X1687Y1492D03*
X1687Y1392D03*
G54D14*
X1187Y1892D03*
X1187Y1792D03*
X1187Y1692D03*
X1187Y1592D03*
X1187Y1492D03*
X1187Y1392D03*
X1187Y1292D03*
X1187Y1192D03*
X1187Y1092D03*
X1187Y992D03*
X1187Y892D03*
X1187Y792D03*
X487Y1892D03*
X487Y1792D03*
X487Y1692D03*
X487Y1592D03*
X487Y1492D03*
X487Y1392D03*
X487Y1292D03*
X487Y1192D03*
X487Y1092D03*
X487Y992D03*
X487Y892D03*
X487Y792D03*
G54D15*
X1687Y1192D03*
G54D16*
X1687Y1723D02*
X1687Y1993D01*
D02*
X1687Y1993D02*
X1587Y2093D01*
D02*
X1187Y2091D02*
X687Y2091D01*
D02*
X687Y2091D02*
X508Y1914D01*
D02*
X1587Y2093D02*
X1187Y2091D01*
D02*
X1387Y1221D02*
X1387Y1464D01*
D02*
X1488Y1392D02*
X1587Y1292D01*
D02*
X1587Y1292D02*
X1587Y1221D01*
D02*
X1487Y1464D02*
X1488Y1392D01*
D02*
X1376Y866D02*
X1386Y892D01*
D02*
X1587Y793D02*
X1587Y864D01*
D02*
X1386Y693D02*
X1386Y693D01*
D02*
X1488Y691D02*
X1587Y793D01*
D02*
X1386Y693D02*
X1488Y691D01*
D02*
X1386Y892D02*
X1386Y693D01*
D02*
X1450Y365D02*
X1487Y293D01*
D02*
X1487Y293D02*
X1187Y293D01*
D02*
X1386Y693D02*
X1386Y892D01*
D02*
X1187Y293D02*
X1386Y693D01*
D02*
X751Y365D02*
X787Y293D01*
D02*
X787Y293D02*
X1187Y293D01*
G36*
X1426Y1470D02*
X1426Y1466D01*
X1424Y1466D01*
X1424Y1464D01*
X1422Y1464D01*
X1422Y1462D01*
X1420Y1462D01*
X1420Y1460D01*
X1418Y1460D01*
X1418Y1458D01*
X1416Y1458D01*
X1416Y1456D01*
X1414Y1456D01*
X1414Y1454D01*
X1412Y1454D01*
X1412Y1452D01*
X1408Y1452D01*
X1408Y1240D01*
X1494Y1240D01*
X1494Y1238D01*
X1500Y1238D01*
X1500Y1236D01*
X1504Y1236D01*
X1504Y1234D01*
X1508Y1234D01*
X1508Y1232D01*
X1512Y1232D01*
X1512Y1230D01*
X1514Y1230D01*
X1514Y1228D01*
X1516Y1228D01*
X1516Y1226D01*
X1518Y1226D01*
X1518Y1224D01*
X1520Y1224D01*
X1520Y1222D01*
X1522Y1222D01*
X1522Y1220D01*
X1524Y1220D01*
X1524Y1218D01*
X1526Y1218D01*
X1526Y1214D01*
X1546Y1214D01*
X1546Y1216D01*
X1548Y1216D01*
X1548Y1220D01*
X1550Y1220D01*
X1550Y1222D01*
X1552Y1222D01*
X1552Y1224D01*
X1554Y1224D01*
X1554Y1226D01*
X1556Y1226D01*
X1556Y1228D01*
X1558Y1228D01*
X1558Y1230D01*
X1562Y1230D01*
X1562Y1232D01*
X1564Y1232D01*
X1564Y1262D01*
X1566Y1262D01*
X1566Y1284D01*
X1564Y1284D01*
X1564Y1286D01*
X1562Y1286D01*
X1562Y1288D01*
X1560Y1288D01*
X1560Y1290D01*
X1558Y1290D01*
X1558Y1292D01*
X1556Y1292D01*
X1556Y1294D01*
X1554Y1294D01*
X1554Y1296D01*
X1552Y1296D01*
X1552Y1298D01*
X1550Y1298D01*
X1550Y1300D01*
X1548Y1300D01*
X1548Y1302D01*
X1546Y1302D01*
X1546Y1304D01*
X1544Y1304D01*
X1544Y1306D01*
X1542Y1306D01*
X1542Y1308D01*
X1540Y1308D01*
X1540Y1310D01*
X1538Y1310D01*
X1538Y1312D01*
X1536Y1312D01*
X1536Y1314D01*
X1534Y1314D01*
X1534Y1316D01*
X1532Y1316D01*
X1532Y1318D01*
X1530Y1318D01*
X1530Y1320D01*
X1528Y1320D01*
X1528Y1322D01*
X1526Y1322D01*
X1526Y1324D01*
X1524Y1324D01*
X1524Y1326D01*
X1522Y1326D01*
X1522Y1328D01*
X1520Y1328D01*
X1520Y1330D01*
X1518Y1330D01*
X1518Y1332D01*
X1516Y1332D01*
X1516Y1334D01*
X1514Y1334D01*
X1514Y1336D01*
X1512Y1336D01*
X1512Y1338D01*
X1510Y1338D01*
X1510Y1340D01*
X1508Y1340D01*
X1508Y1342D01*
X1506Y1342D01*
X1506Y1344D01*
X1504Y1344D01*
X1504Y1346D01*
X1502Y1346D01*
X1502Y1348D01*
X1500Y1348D01*
X1500Y1350D01*
X1498Y1350D01*
X1498Y1352D01*
X1496Y1352D01*
X1496Y1354D01*
X1494Y1354D01*
X1494Y1356D01*
X1492Y1356D01*
X1492Y1358D01*
X1490Y1358D01*
X1490Y1360D01*
X1488Y1360D01*
X1488Y1362D01*
X1486Y1362D01*
X1486Y1364D01*
X1484Y1364D01*
X1484Y1366D01*
X1482Y1366D01*
X1482Y1368D01*
X1480Y1368D01*
X1480Y1370D01*
X1478Y1370D01*
X1478Y1372D01*
X1476Y1372D01*
X1476Y1374D01*
X1474Y1374D01*
X1474Y1376D01*
X1472Y1376D01*
X1472Y1378D01*
X1470Y1378D01*
X1470Y1380D01*
X1468Y1380D01*
X1468Y1384D01*
X1466Y1384D01*
X1466Y1442D01*
X1464Y1442D01*
X1464Y1452D01*
X1462Y1452D01*
X1462Y1454D01*
X1460Y1454D01*
X1460Y1456D01*
X1456Y1456D01*
X1456Y1458D01*
X1454Y1458D01*
X1454Y1460D01*
X1452Y1460D01*
X1452Y1462D01*
X1450Y1462D01*
X1450Y1466D01*
X1448Y1466D01*
X1448Y1468D01*
X1446Y1468D01*
X1446Y1470D01*
X1426Y1470D01*
G37*
D02*
G36*
X1408Y1240D02*
X1408Y1232D01*
X1412Y1232D01*
X1412Y1230D01*
X1414Y1230D01*
X1414Y1228D01*
X1416Y1228D01*
X1416Y1226D01*
X1418Y1226D01*
X1418Y1224D01*
X1420Y1224D01*
X1420Y1222D01*
X1422Y1222D01*
X1422Y1220D01*
X1424Y1220D01*
X1424Y1218D01*
X1426Y1218D01*
X1426Y1214D01*
X1446Y1214D01*
X1446Y1216D01*
X1448Y1216D01*
X1448Y1220D01*
X1450Y1220D01*
X1450Y1222D01*
X1452Y1222D01*
X1452Y1224D01*
X1454Y1224D01*
X1454Y1226D01*
X1456Y1226D01*
X1456Y1228D01*
X1458Y1228D01*
X1458Y1230D01*
X1462Y1230D01*
X1462Y1232D01*
X1464Y1232D01*
X1464Y1234D01*
X1468Y1234D01*
X1468Y1236D01*
X1472Y1236D01*
X1472Y1238D01*
X1480Y1238D01*
X1480Y1240D01*
X1408Y1240D01*
G37*
D02*
G36*
X1426Y870D02*
X1426Y866D01*
X1424Y866D01*
X1424Y864D01*
X1422Y864D01*
X1422Y862D01*
X1420Y862D01*
X1420Y860D01*
X1418Y860D01*
X1418Y858D01*
X1416Y858D01*
X1416Y856D01*
X1414Y856D01*
X1414Y854D01*
X1412Y854D01*
X1412Y852D01*
X1408Y852D01*
X1408Y844D01*
X1482Y844D01*
X1482Y846D01*
X1474Y846D01*
X1474Y848D01*
X1468Y848D01*
X1468Y850D01*
X1466Y850D01*
X1466Y852D01*
X1462Y852D01*
X1462Y854D01*
X1460Y854D01*
X1460Y856D01*
X1456Y856D01*
X1456Y858D01*
X1454Y858D01*
X1454Y860D01*
X1452Y860D01*
X1452Y862D01*
X1450Y862D01*
X1450Y866D01*
X1448Y866D01*
X1448Y868D01*
X1446Y868D01*
X1446Y870D01*
X1426Y870D01*
G37*
D02*
G36*
X1526Y870D02*
X1526Y866D01*
X1524Y866D01*
X1524Y864D01*
X1522Y864D01*
X1522Y862D01*
X1520Y862D01*
X1520Y860D01*
X1518Y860D01*
X1518Y858D01*
X1516Y858D01*
X1516Y856D01*
X1514Y856D01*
X1514Y854D01*
X1512Y854D01*
X1512Y852D01*
X1508Y852D01*
X1508Y850D01*
X1504Y850D01*
X1504Y848D01*
X1500Y848D01*
X1500Y846D01*
X1492Y846D01*
X1492Y844D01*
X1564Y844D01*
X1564Y852D01*
X1562Y852D01*
X1562Y854D01*
X1560Y854D01*
X1560Y856D01*
X1556Y856D01*
X1556Y858D01*
X1554Y858D01*
X1554Y860D01*
X1552Y860D01*
X1552Y862D01*
X1550Y862D01*
X1550Y866D01*
X1548Y866D01*
X1548Y868D01*
X1546Y868D01*
X1546Y870D01*
X1526Y870D01*
G37*
D02*
G36*
X1408Y844D02*
X1408Y842D01*
X1564Y842D01*
X1564Y844D01*
X1408Y844D01*
G37*
D02*
G36*
X1408Y844D02*
X1408Y842D01*
X1564Y842D01*
X1564Y844D01*
X1408Y844D01*
G37*
D02*
G36*
X1408Y842D02*
X1408Y714D01*
X1480Y714D01*
X1480Y716D01*
X1482Y716D01*
X1482Y718D01*
X1484Y718D01*
X1484Y720D01*
X1486Y720D01*
X1486Y722D01*
X1488Y722D01*
X1488Y724D01*
X1490Y724D01*
X1490Y726D01*
X1492Y726D01*
X1492Y728D01*
X1494Y728D01*
X1494Y730D01*
X1496Y730D01*
X1496Y732D01*
X1498Y732D01*
X1498Y734D01*
X1500Y734D01*
X1500Y736D01*
X1502Y736D01*
X1502Y738D01*
X1504Y738D01*
X1504Y740D01*
X1506Y740D01*
X1506Y742D01*
X1508Y742D01*
X1508Y744D01*
X1510Y744D01*
X1510Y746D01*
X1512Y746D01*
X1512Y748D01*
X1514Y748D01*
X1514Y750D01*
X1516Y750D01*
X1516Y752D01*
X1518Y752D01*
X1518Y754D01*
X1520Y754D01*
X1520Y756D01*
X1522Y756D01*
X1522Y758D01*
X1524Y758D01*
X1524Y760D01*
X1526Y760D01*
X1526Y762D01*
X1528Y762D01*
X1528Y764D01*
X1530Y764D01*
X1530Y766D01*
X1532Y766D01*
X1532Y768D01*
X1534Y768D01*
X1534Y770D01*
X1536Y770D01*
X1536Y774D01*
X1538Y774D01*
X1538Y776D01*
X1540Y776D01*
X1540Y778D01*
X1542Y778D01*
X1542Y780D01*
X1544Y780D01*
X1544Y782D01*
X1546Y782D01*
X1546Y784D01*
X1548Y784D01*
X1548Y786D01*
X1550Y786D01*
X1550Y788D01*
X1552Y788D01*
X1552Y790D01*
X1554Y790D01*
X1554Y792D01*
X1556Y792D01*
X1556Y794D01*
X1558Y794D01*
X1558Y796D01*
X1560Y796D01*
X1560Y798D01*
X1562Y798D01*
X1562Y800D01*
X1564Y800D01*
X1564Y802D01*
X1566Y802D01*
X1566Y826D01*
X1564Y826D01*
X1564Y842D01*
X1408Y842D01*
G37*
D02*
G36*
X704Y554D02*
X704Y534D01*
X708Y534D01*
X708Y532D01*
X710Y532D01*
X710Y530D01*
X714Y530D01*
X714Y528D01*
X716Y528D01*
X716Y526D01*
X718Y526D01*
X718Y524D01*
X720Y524D01*
X720Y522D01*
X722Y522D01*
X722Y520D01*
X724Y520D01*
X724Y518D01*
X726Y518D01*
X726Y514D01*
X746Y514D01*
X746Y516D01*
X748Y516D01*
X748Y518D01*
X750Y518D01*
X750Y520D01*
X752Y520D01*
X752Y524D01*
X754Y524D01*
X754Y526D01*
X758Y526D01*
X758Y528D01*
X760Y528D01*
X760Y530D01*
X762Y530D01*
X762Y532D01*
X766Y532D01*
X766Y534D01*
X770Y534D01*
X770Y554D01*
X704Y554D01*
G37*
D02*
G36*
X804Y554D02*
X804Y534D01*
X808Y534D01*
X808Y532D01*
X810Y532D01*
X810Y530D01*
X814Y530D01*
X814Y528D01*
X816Y528D01*
X816Y526D01*
X818Y526D01*
X818Y524D01*
X820Y524D01*
X820Y522D01*
X822Y522D01*
X822Y520D01*
X824Y520D01*
X824Y518D01*
X826Y518D01*
X826Y514D01*
X846Y514D01*
X846Y516D01*
X848Y516D01*
X848Y518D01*
X850Y518D01*
X850Y520D01*
X852Y520D01*
X852Y524D01*
X854Y524D01*
X854Y526D01*
X858Y526D01*
X858Y528D01*
X860Y528D01*
X860Y530D01*
X862Y530D01*
X862Y532D01*
X866Y532D01*
X866Y534D01*
X870Y534D01*
X870Y554D01*
X804Y554D01*
G37*
D02*
G36*
X904Y554D02*
X904Y534D01*
X908Y534D01*
X908Y532D01*
X910Y532D01*
X910Y530D01*
X914Y530D01*
X914Y528D01*
X916Y528D01*
X916Y526D01*
X918Y526D01*
X918Y524D01*
X920Y524D01*
X920Y522D01*
X922Y522D01*
X922Y520D01*
X924Y520D01*
X924Y518D01*
X926Y518D01*
X926Y514D01*
X946Y514D01*
X946Y516D01*
X948Y516D01*
X948Y518D01*
X950Y518D01*
X950Y520D01*
X952Y520D01*
X952Y524D01*
X954Y524D01*
X954Y526D01*
X958Y526D01*
X958Y528D01*
X960Y528D01*
X960Y530D01*
X962Y530D01*
X962Y532D01*
X966Y532D01*
X966Y534D01*
X970Y534D01*
X970Y554D01*
X904Y554D01*
G37*
D02*
G36*
X1270Y412D02*
X1270Y408D01*
X1268Y408D01*
X1268Y404D01*
X1266Y404D01*
X1266Y400D01*
X1264Y400D01*
X1264Y396D01*
X1262Y396D01*
X1262Y392D01*
X1260Y392D01*
X1260Y388D01*
X1258Y388D01*
X1258Y384D01*
X1256Y384D01*
X1256Y380D01*
X1254Y380D01*
X1254Y376D01*
X1252Y376D01*
X1252Y372D01*
X1250Y372D01*
X1250Y368D01*
X1248Y368D01*
X1248Y364D01*
X1246Y364D01*
X1246Y360D01*
X1244Y360D01*
X1244Y356D01*
X1242Y356D01*
X1242Y352D01*
X1240Y352D01*
X1240Y346D01*
X1290Y346D01*
X1290Y412D01*
X1270Y412D01*
G37*
D02*
G36*
X1384Y362D02*
X1384Y346D01*
X1426Y346D01*
X1426Y348D01*
X1420Y348D01*
X1420Y350D01*
X1416Y350D01*
X1416Y352D01*
X1412Y352D01*
X1412Y354D01*
X1410Y354D01*
X1410Y356D01*
X1408Y356D01*
X1408Y358D01*
X1406Y358D01*
X1406Y360D01*
X1404Y360D01*
X1404Y362D01*
X1384Y362D01*
G37*
D02*
G36*
X1238Y346D02*
X1238Y344D01*
X1436Y344D01*
X1436Y346D01*
X1238Y346D01*
G37*
D02*
G36*
X1238Y346D02*
X1238Y344D01*
X1436Y344D01*
X1436Y346D01*
X1238Y346D01*
G37*
D02*
G36*
X1238Y344D02*
X1238Y342D01*
X1236Y342D01*
X1236Y338D01*
X1234Y338D01*
X1234Y334D01*
X1232Y334D01*
X1232Y314D01*
X1442Y314D01*
X1442Y334D01*
X1440Y334D01*
X1440Y338D01*
X1438Y338D01*
X1438Y342D01*
X1436Y342D01*
X1436Y344D01*
X1238Y344D01*
G37*
D02*
G36*
X40Y2158D02*
X40Y2114D01*
X1596Y2114D01*
X1596Y2112D01*
X1600Y2112D01*
X1600Y2110D01*
X1602Y2110D01*
X1602Y2108D01*
X1604Y2108D01*
X1604Y2106D01*
X1606Y2106D01*
X1606Y2104D01*
X1608Y2104D01*
X1608Y2102D01*
X1610Y2102D01*
X1610Y2100D01*
X1612Y2100D01*
X1612Y2098D01*
X1614Y2098D01*
X1614Y2096D01*
X1616Y2096D01*
X1616Y2094D01*
X1618Y2094D01*
X1618Y2092D01*
X1620Y2092D01*
X1620Y2090D01*
X1622Y2090D01*
X1622Y2088D01*
X1624Y2088D01*
X1624Y2086D01*
X1626Y2086D01*
X1626Y2084D01*
X2004Y2084D01*
X2004Y2082D01*
X2012Y2082D01*
X2012Y2080D01*
X2018Y2080D01*
X2018Y2078D01*
X2022Y2078D01*
X2022Y2076D01*
X2028Y2076D01*
X2028Y2074D01*
X2030Y2074D01*
X2030Y2072D01*
X2034Y2072D01*
X2034Y2070D01*
X2038Y2070D01*
X2038Y2068D01*
X2040Y2068D01*
X2040Y2066D01*
X2042Y2066D01*
X2042Y2064D01*
X2046Y2064D01*
X2046Y2062D01*
X2048Y2062D01*
X2048Y2060D01*
X2050Y2060D01*
X2050Y2058D01*
X2052Y2058D01*
X2052Y2056D01*
X2054Y2056D01*
X2054Y2054D01*
X2056Y2054D01*
X2056Y2052D01*
X2058Y2052D01*
X2058Y2048D01*
X2060Y2048D01*
X2060Y2046D01*
X2062Y2046D01*
X2062Y2044D01*
X2064Y2044D01*
X2064Y2040D01*
X2066Y2040D01*
X2066Y2038D01*
X2068Y2038D01*
X2068Y2034D01*
X2070Y2034D01*
X2070Y2030D01*
X2072Y2030D01*
X2072Y2024D01*
X2074Y2024D01*
X2074Y2018D01*
X2076Y2018D01*
X2076Y2012D01*
X2078Y2012D01*
X2078Y1998D01*
X2080Y1998D01*
X2080Y1986D01*
X2078Y1986D01*
X2078Y1972D01*
X2076Y1972D01*
X2076Y1966D01*
X2074Y1966D01*
X2074Y1960D01*
X2072Y1960D01*
X2072Y1956D01*
X2070Y1956D01*
X2070Y1950D01*
X2068Y1950D01*
X2068Y1948D01*
X2066Y1948D01*
X2066Y1944D01*
X2064Y1944D01*
X2064Y1940D01*
X2062Y1940D01*
X2062Y1938D01*
X2060Y1938D01*
X2060Y1936D01*
X2058Y1936D01*
X2058Y1934D01*
X2056Y1934D01*
X2056Y1930D01*
X2054Y1930D01*
X2054Y1928D01*
X2052Y1928D01*
X2052Y1926D01*
X2050Y1926D01*
X2050Y1924D01*
X2048Y1924D01*
X2048Y1922D01*
X2044Y1922D01*
X2044Y1920D01*
X2042Y1920D01*
X2042Y1918D01*
X2040Y1918D01*
X2040Y1916D01*
X2036Y1916D01*
X2036Y1914D01*
X2034Y1914D01*
X2034Y1912D01*
X2030Y1912D01*
X2030Y1910D01*
X2026Y1910D01*
X2026Y1908D01*
X2022Y1908D01*
X2022Y1906D01*
X2018Y1906D01*
X2018Y1904D01*
X2012Y1904D01*
X2012Y1902D01*
X2002Y1902D01*
X2002Y1900D01*
X2140Y1900D01*
X2140Y2158D01*
X40Y2158D01*
G37*
D02*
G36*
X40Y2114D02*
X40Y2084D01*
X204Y2084D01*
X204Y2082D01*
X212Y2082D01*
X212Y2080D01*
X218Y2080D01*
X218Y2078D01*
X222Y2078D01*
X222Y2076D01*
X228Y2076D01*
X228Y2074D01*
X230Y2074D01*
X230Y2072D01*
X234Y2072D01*
X234Y2070D01*
X238Y2070D01*
X238Y2068D01*
X240Y2068D01*
X240Y2066D01*
X242Y2066D01*
X242Y2064D01*
X246Y2064D01*
X246Y2062D01*
X248Y2062D01*
X248Y2060D01*
X250Y2060D01*
X250Y2058D01*
X252Y2058D01*
X252Y2056D01*
X254Y2056D01*
X254Y2054D01*
X256Y2054D01*
X256Y2052D01*
X258Y2052D01*
X258Y2048D01*
X260Y2048D01*
X260Y2046D01*
X262Y2046D01*
X262Y2044D01*
X264Y2044D01*
X264Y2040D01*
X266Y2040D01*
X266Y2038D01*
X268Y2038D01*
X268Y2034D01*
X270Y2034D01*
X270Y2030D01*
X272Y2030D01*
X272Y2024D01*
X274Y2024D01*
X274Y2018D01*
X276Y2018D01*
X276Y2012D01*
X278Y2012D01*
X278Y1998D01*
X280Y1998D01*
X280Y1986D01*
X278Y1986D01*
X278Y1972D01*
X276Y1972D01*
X276Y1966D01*
X274Y1966D01*
X274Y1960D01*
X272Y1960D01*
X272Y1956D01*
X270Y1956D01*
X270Y1952D01*
X268Y1952D01*
X268Y1948D01*
X266Y1948D01*
X266Y1944D01*
X264Y1944D01*
X264Y1940D01*
X262Y1940D01*
X262Y1938D01*
X260Y1938D01*
X260Y1936D01*
X258Y1936D01*
X258Y1934D01*
X256Y1934D01*
X256Y1930D01*
X254Y1930D01*
X254Y1928D01*
X252Y1928D01*
X252Y1926D01*
X250Y1926D01*
X250Y1924D01*
X248Y1924D01*
X248Y1922D01*
X244Y1922D01*
X244Y1920D01*
X242Y1920D01*
X242Y1918D01*
X240Y1918D01*
X240Y1916D01*
X236Y1916D01*
X236Y1914D01*
X234Y1914D01*
X234Y1912D01*
X230Y1912D01*
X230Y1910D01*
X226Y1910D01*
X226Y1908D01*
X222Y1908D01*
X222Y1906D01*
X218Y1906D01*
X218Y1904D01*
X210Y1904D01*
X210Y1902D01*
X202Y1902D01*
X202Y1900D01*
X438Y1900D01*
X438Y1902D01*
X440Y1902D01*
X440Y1908D01*
X442Y1908D01*
X442Y1912D01*
X444Y1912D01*
X444Y1916D01*
X446Y1916D01*
X446Y1918D01*
X448Y1918D01*
X448Y1922D01*
X450Y1922D01*
X450Y1924D01*
X452Y1924D01*
X452Y1926D01*
X454Y1926D01*
X454Y1928D01*
X456Y1928D01*
X456Y1930D01*
X458Y1930D01*
X458Y1932D01*
X462Y1932D01*
X462Y1934D01*
X464Y1934D01*
X464Y1936D01*
X468Y1936D01*
X468Y1938D01*
X474Y1938D01*
X474Y1940D01*
X484Y1940D01*
X484Y1942D01*
X506Y1942D01*
X506Y1944D01*
X508Y1944D01*
X508Y1946D01*
X510Y1946D01*
X510Y1948D01*
X512Y1948D01*
X512Y1950D01*
X514Y1950D01*
X514Y1952D01*
X516Y1952D01*
X516Y1954D01*
X518Y1954D01*
X518Y1956D01*
X520Y1956D01*
X520Y1958D01*
X522Y1958D01*
X522Y1960D01*
X524Y1960D01*
X524Y1962D01*
X526Y1962D01*
X526Y1964D01*
X528Y1964D01*
X528Y1966D01*
X530Y1966D01*
X530Y1968D01*
X532Y1968D01*
X532Y1970D01*
X534Y1970D01*
X534Y1972D01*
X536Y1972D01*
X536Y1974D01*
X538Y1974D01*
X538Y1976D01*
X540Y1976D01*
X540Y1978D01*
X542Y1978D01*
X542Y1980D01*
X544Y1980D01*
X544Y1982D01*
X546Y1982D01*
X546Y1984D01*
X548Y1984D01*
X548Y1986D01*
X550Y1986D01*
X550Y1988D01*
X552Y1988D01*
X552Y1990D01*
X554Y1990D01*
X554Y1992D01*
X556Y1992D01*
X556Y1994D01*
X558Y1994D01*
X558Y1996D01*
X560Y1996D01*
X560Y1998D01*
X562Y1998D01*
X562Y2000D01*
X564Y2000D01*
X564Y2002D01*
X566Y2002D01*
X566Y2004D01*
X568Y2004D01*
X568Y2006D01*
X570Y2006D01*
X570Y2008D01*
X572Y2008D01*
X572Y2010D01*
X574Y2010D01*
X574Y2012D01*
X576Y2012D01*
X576Y2014D01*
X580Y2014D01*
X580Y2016D01*
X582Y2016D01*
X582Y2018D01*
X584Y2018D01*
X584Y2020D01*
X586Y2020D01*
X586Y2022D01*
X588Y2022D01*
X588Y2024D01*
X590Y2024D01*
X590Y2026D01*
X592Y2026D01*
X592Y2028D01*
X594Y2028D01*
X594Y2030D01*
X596Y2030D01*
X596Y2032D01*
X598Y2032D01*
X598Y2034D01*
X600Y2034D01*
X600Y2036D01*
X602Y2036D01*
X602Y2038D01*
X604Y2038D01*
X604Y2040D01*
X606Y2040D01*
X606Y2042D01*
X608Y2042D01*
X608Y2044D01*
X610Y2044D01*
X610Y2046D01*
X612Y2046D01*
X612Y2048D01*
X614Y2048D01*
X614Y2050D01*
X616Y2050D01*
X616Y2052D01*
X618Y2052D01*
X618Y2054D01*
X620Y2054D01*
X620Y2056D01*
X622Y2056D01*
X622Y2058D01*
X624Y2058D01*
X624Y2060D01*
X626Y2060D01*
X626Y2062D01*
X628Y2062D01*
X628Y2064D01*
X630Y2064D01*
X630Y2066D01*
X632Y2066D01*
X632Y2068D01*
X634Y2068D01*
X634Y2070D01*
X636Y2070D01*
X636Y2072D01*
X638Y2072D01*
X638Y2074D01*
X640Y2074D01*
X640Y2076D01*
X642Y2076D01*
X642Y2078D01*
X644Y2078D01*
X644Y2080D01*
X646Y2080D01*
X646Y2082D01*
X648Y2082D01*
X648Y2084D01*
X650Y2084D01*
X650Y2086D01*
X652Y2086D01*
X652Y2088D01*
X654Y2088D01*
X654Y2090D01*
X656Y2090D01*
X656Y2092D01*
X658Y2092D01*
X658Y2094D01*
X660Y2094D01*
X660Y2096D01*
X662Y2096D01*
X662Y2098D01*
X664Y2098D01*
X664Y2100D01*
X666Y2100D01*
X666Y2102D01*
X668Y2102D01*
X668Y2104D01*
X670Y2104D01*
X670Y2106D01*
X672Y2106D01*
X672Y2108D01*
X674Y2108D01*
X674Y2110D01*
X678Y2110D01*
X678Y2112D01*
X684Y2112D01*
X684Y2114D01*
X40Y2114D01*
G37*
D02*
G36*
X40Y2084D02*
X40Y1900D01*
X170Y1900D01*
X170Y1902D01*
X162Y1902D01*
X162Y1904D01*
X156Y1904D01*
X156Y1906D01*
X150Y1906D01*
X150Y1908D01*
X146Y1908D01*
X146Y1910D01*
X142Y1910D01*
X142Y1912D01*
X140Y1912D01*
X140Y1914D01*
X136Y1914D01*
X136Y1916D01*
X134Y1916D01*
X134Y1918D01*
X130Y1918D01*
X130Y1920D01*
X128Y1920D01*
X128Y1922D01*
X126Y1922D01*
X126Y1924D01*
X124Y1924D01*
X124Y1926D01*
X122Y1926D01*
X122Y1928D01*
X120Y1928D01*
X120Y1930D01*
X118Y1930D01*
X118Y1932D01*
X116Y1932D01*
X116Y1934D01*
X114Y1934D01*
X114Y1936D01*
X112Y1936D01*
X112Y1940D01*
X110Y1940D01*
X110Y1942D01*
X108Y1942D01*
X108Y1946D01*
X106Y1946D01*
X106Y1950D01*
X104Y1950D01*
X104Y1954D01*
X102Y1954D01*
X102Y1958D01*
X100Y1958D01*
X100Y1962D01*
X98Y1962D01*
X98Y1968D01*
X96Y1968D01*
X96Y1978D01*
X94Y1978D01*
X94Y2006D01*
X96Y2006D01*
X96Y2016D01*
X98Y2016D01*
X98Y2022D01*
X100Y2022D01*
X100Y2026D01*
X102Y2026D01*
X102Y2032D01*
X104Y2032D01*
X104Y2036D01*
X106Y2036D01*
X106Y2038D01*
X108Y2038D01*
X108Y2042D01*
X110Y2042D01*
X110Y2044D01*
X112Y2044D01*
X112Y2048D01*
X114Y2048D01*
X114Y2050D01*
X116Y2050D01*
X116Y2052D01*
X118Y2052D01*
X118Y2054D01*
X120Y2054D01*
X120Y2056D01*
X122Y2056D01*
X122Y2058D01*
X124Y2058D01*
X124Y2060D01*
X126Y2060D01*
X126Y2062D01*
X128Y2062D01*
X128Y2064D01*
X130Y2064D01*
X130Y2066D01*
X132Y2066D01*
X132Y2068D01*
X136Y2068D01*
X136Y2070D01*
X138Y2070D01*
X138Y2072D01*
X142Y2072D01*
X142Y2074D01*
X146Y2074D01*
X146Y2076D01*
X150Y2076D01*
X150Y2078D01*
X156Y2078D01*
X156Y2080D01*
X160Y2080D01*
X160Y2082D01*
X168Y2082D01*
X168Y2084D01*
X40Y2084D01*
G37*
D02*
G36*
X1628Y2084D02*
X1628Y2082D01*
X1630Y2082D01*
X1630Y2080D01*
X1632Y2080D01*
X1632Y2078D01*
X1634Y2078D01*
X1634Y2076D01*
X1636Y2076D01*
X1636Y2074D01*
X1638Y2074D01*
X1638Y2072D01*
X1640Y2072D01*
X1640Y2070D01*
X1642Y2070D01*
X1642Y2068D01*
X1644Y2068D01*
X1644Y2066D01*
X1646Y2066D01*
X1646Y2064D01*
X1648Y2064D01*
X1648Y2062D01*
X1650Y2062D01*
X1650Y2060D01*
X1652Y2060D01*
X1652Y2058D01*
X1654Y2058D01*
X1654Y2056D01*
X1656Y2056D01*
X1656Y2054D01*
X1658Y2054D01*
X1658Y2052D01*
X1660Y2052D01*
X1660Y2050D01*
X1662Y2050D01*
X1662Y2048D01*
X1664Y2048D01*
X1664Y2046D01*
X1666Y2046D01*
X1666Y2044D01*
X1668Y2044D01*
X1668Y2042D01*
X1670Y2042D01*
X1670Y2040D01*
X1672Y2040D01*
X1672Y2038D01*
X1674Y2038D01*
X1674Y2036D01*
X1676Y2036D01*
X1676Y2034D01*
X1678Y2034D01*
X1678Y2032D01*
X1680Y2032D01*
X1680Y2030D01*
X1682Y2030D01*
X1682Y2028D01*
X1684Y2028D01*
X1684Y2026D01*
X1686Y2026D01*
X1686Y2024D01*
X1688Y2024D01*
X1688Y2022D01*
X1690Y2022D01*
X1690Y2020D01*
X1692Y2020D01*
X1692Y2018D01*
X1694Y2018D01*
X1694Y2016D01*
X1696Y2016D01*
X1696Y2014D01*
X1698Y2014D01*
X1698Y2012D01*
X1700Y2012D01*
X1700Y2010D01*
X1702Y2010D01*
X1702Y2008D01*
X1704Y2008D01*
X1704Y2006D01*
X1706Y2006D01*
X1706Y2002D01*
X1708Y2002D01*
X1708Y1900D01*
X1970Y1900D01*
X1970Y1902D01*
X1962Y1902D01*
X1962Y1904D01*
X1956Y1904D01*
X1956Y1906D01*
X1950Y1906D01*
X1950Y1908D01*
X1946Y1908D01*
X1946Y1910D01*
X1942Y1910D01*
X1942Y1912D01*
X1940Y1912D01*
X1940Y1914D01*
X1936Y1914D01*
X1936Y1916D01*
X1934Y1916D01*
X1934Y1918D01*
X1930Y1918D01*
X1930Y1920D01*
X1928Y1920D01*
X1928Y1922D01*
X1926Y1922D01*
X1926Y1924D01*
X1924Y1924D01*
X1924Y1926D01*
X1922Y1926D01*
X1922Y1928D01*
X1920Y1928D01*
X1920Y1930D01*
X1918Y1930D01*
X1918Y1932D01*
X1916Y1932D01*
X1916Y1934D01*
X1914Y1934D01*
X1914Y1936D01*
X1912Y1936D01*
X1912Y1940D01*
X1910Y1940D01*
X1910Y1942D01*
X1908Y1942D01*
X1908Y1946D01*
X1906Y1946D01*
X1906Y1950D01*
X1904Y1950D01*
X1904Y1954D01*
X1902Y1954D01*
X1902Y1958D01*
X1900Y1958D01*
X1900Y1962D01*
X1898Y1962D01*
X1898Y1968D01*
X1896Y1968D01*
X1896Y1978D01*
X1894Y1978D01*
X1894Y2006D01*
X1896Y2006D01*
X1896Y2016D01*
X1898Y2016D01*
X1898Y2022D01*
X1900Y2022D01*
X1900Y2026D01*
X1902Y2026D01*
X1902Y2032D01*
X1904Y2032D01*
X1904Y2036D01*
X1906Y2036D01*
X1906Y2038D01*
X1908Y2038D01*
X1908Y2042D01*
X1910Y2042D01*
X1910Y2044D01*
X1912Y2044D01*
X1912Y2048D01*
X1914Y2048D01*
X1914Y2050D01*
X1916Y2050D01*
X1916Y2052D01*
X1918Y2052D01*
X1918Y2054D01*
X1920Y2054D01*
X1920Y2056D01*
X1922Y2056D01*
X1922Y2058D01*
X1924Y2058D01*
X1924Y2060D01*
X1926Y2060D01*
X1926Y2062D01*
X1928Y2062D01*
X1928Y2064D01*
X1930Y2064D01*
X1930Y2066D01*
X1932Y2066D01*
X1932Y2068D01*
X1936Y2068D01*
X1936Y2070D01*
X1938Y2070D01*
X1938Y2072D01*
X1942Y2072D01*
X1942Y2074D01*
X1946Y2074D01*
X1946Y2076D01*
X1950Y2076D01*
X1950Y2078D01*
X1956Y2078D01*
X1956Y2080D01*
X1960Y2080D01*
X1960Y2082D01*
X1968Y2082D01*
X1968Y2084D01*
X1628Y2084D01*
G37*
D02*
G36*
X696Y2070D02*
X696Y2068D01*
X694Y2068D01*
X694Y2066D01*
X692Y2066D01*
X692Y2064D01*
X690Y2064D01*
X690Y2062D01*
X688Y2062D01*
X688Y2060D01*
X686Y2060D01*
X686Y2058D01*
X684Y2058D01*
X684Y2056D01*
X682Y2056D01*
X682Y2054D01*
X680Y2054D01*
X680Y2052D01*
X678Y2052D01*
X678Y2050D01*
X676Y2050D01*
X676Y2048D01*
X674Y2048D01*
X674Y2046D01*
X672Y2046D01*
X672Y2044D01*
X670Y2044D01*
X670Y2042D01*
X668Y2042D01*
X668Y2040D01*
X666Y2040D01*
X666Y2038D01*
X664Y2038D01*
X664Y2036D01*
X662Y2036D01*
X662Y2034D01*
X660Y2034D01*
X660Y2032D01*
X658Y2032D01*
X658Y2030D01*
X656Y2030D01*
X656Y2028D01*
X654Y2028D01*
X654Y2026D01*
X652Y2026D01*
X652Y2024D01*
X650Y2024D01*
X650Y2022D01*
X648Y2022D01*
X648Y2020D01*
X646Y2020D01*
X646Y2018D01*
X644Y2018D01*
X644Y2016D01*
X642Y2016D01*
X642Y2014D01*
X640Y2014D01*
X640Y2012D01*
X638Y2012D01*
X638Y2010D01*
X636Y2010D01*
X636Y2008D01*
X634Y2008D01*
X634Y2006D01*
X632Y2006D01*
X632Y2004D01*
X630Y2004D01*
X630Y2002D01*
X628Y2002D01*
X628Y2000D01*
X626Y2000D01*
X626Y1998D01*
X624Y1998D01*
X624Y1996D01*
X622Y1996D01*
X622Y1994D01*
X620Y1994D01*
X620Y1992D01*
X618Y1992D01*
X618Y1990D01*
X616Y1990D01*
X616Y1988D01*
X614Y1988D01*
X614Y1986D01*
X612Y1986D01*
X612Y1984D01*
X610Y1984D01*
X610Y1982D01*
X608Y1982D01*
X608Y1980D01*
X606Y1980D01*
X606Y1978D01*
X604Y1978D01*
X604Y1976D01*
X602Y1976D01*
X602Y1974D01*
X600Y1974D01*
X600Y1972D01*
X598Y1972D01*
X598Y1970D01*
X596Y1970D01*
X596Y1968D01*
X594Y1968D01*
X594Y1966D01*
X592Y1966D01*
X592Y1964D01*
X590Y1964D01*
X590Y1962D01*
X588Y1962D01*
X588Y1960D01*
X586Y1960D01*
X586Y1958D01*
X584Y1958D01*
X584Y1956D01*
X582Y1956D01*
X582Y1954D01*
X580Y1954D01*
X580Y1952D01*
X578Y1952D01*
X578Y1950D01*
X576Y1950D01*
X576Y1948D01*
X572Y1948D01*
X572Y1946D01*
X570Y1946D01*
X570Y1944D01*
X568Y1944D01*
X568Y1942D01*
X1190Y1942D01*
X1190Y1940D01*
X1494Y1940D01*
X1494Y1938D01*
X1500Y1938D01*
X1500Y1936D01*
X1504Y1936D01*
X1504Y1934D01*
X1508Y1934D01*
X1508Y1932D01*
X1512Y1932D01*
X1512Y1930D01*
X1514Y1930D01*
X1514Y1928D01*
X1516Y1928D01*
X1516Y1926D01*
X1518Y1926D01*
X1518Y1924D01*
X1520Y1924D01*
X1520Y1922D01*
X1522Y1922D01*
X1522Y1920D01*
X1524Y1920D01*
X1524Y1918D01*
X1526Y1918D01*
X1526Y1914D01*
X1528Y1914D01*
X1528Y1912D01*
X1530Y1912D01*
X1530Y1906D01*
X1532Y1906D01*
X1532Y1900D01*
X1534Y1900D01*
X1534Y1884D01*
X1532Y1884D01*
X1532Y1878D01*
X1530Y1878D01*
X1530Y1874D01*
X1528Y1874D01*
X1528Y1870D01*
X1526Y1870D01*
X1526Y1866D01*
X1524Y1866D01*
X1524Y1864D01*
X1522Y1864D01*
X1522Y1862D01*
X1520Y1862D01*
X1520Y1860D01*
X1518Y1860D01*
X1518Y1858D01*
X1516Y1858D01*
X1516Y1856D01*
X1514Y1856D01*
X1514Y1854D01*
X1512Y1854D01*
X1512Y1852D01*
X1508Y1852D01*
X1508Y1850D01*
X1504Y1850D01*
X1504Y1848D01*
X1500Y1848D01*
X1500Y1846D01*
X1492Y1846D01*
X1492Y1844D01*
X1664Y1844D01*
X1664Y1986D01*
X1662Y1986D01*
X1662Y1988D01*
X1660Y1988D01*
X1660Y1990D01*
X1658Y1990D01*
X1658Y1992D01*
X1656Y1992D01*
X1656Y1994D01*
X1654Y1994D01*
X1654Y1996D01*
X1652Y1996D01*
X1652Y1998D01*
X1650Y1998D01*
X1650Y2000D01*
X1648Y2000D01*
X1648Y2002D01*
X1646Y2002D01*
X1646Y2004D01*
X1644Y2004D01*
X1644Y2006D01*
X1642Y2006D01*
X1642Y2008D01*
X1640Y2008D01*
X1640Y2010D01*
X1638Y2010D01*
X1638Y2012D01*
X1636Y2012D01*
X1636Y2014D01*
X1634Y2014D01*
X1634Y2016D01*
X1632Y2016D01*
X1632Y2018D01*
X1630Y2018D01*
X1630Y2020D01*
X1628Y2020D01*
X1628Y2022D01*
X1626Y2022D01*
X1626Y2024D01*
X1624Y2024D01*
X1624Y2026D01*
X1622Y2026D01*
X1622Y2028D01*
X1620Y2028D01*
X1620Y2030D01*
X1618Y2030D01*
X1618Y2032D01*
X1616Y2032D01*
X1616Y2034D01*
X1614Y2034D01*
X1614Y2036D01*
X1612Y2036D01*
X1612Y2038D01*
X1610Y2038D01*
X1610Y2040D01*
X1608Y2040D01*
X1608Y2042D01*
X1606Y2042D01*
X1606Y2044D01*
X1604Y2044D01*
X1604Y2046D01*
X1602Y2046D01*
X1602Y2048D01*
X1600Y2048D01*
X1600Y2050D01*
X1598Y2050D01*
X1598Y2052D01*
X1596Y2052D01*
X1596Y2054D01*
X1594Y2054D01*
X1594Y2056D01*
X1592Y2056D01*
X1592Y2058D01*
X1590Y2058D01*
X1590Y2060D01*
X1588Y2060D01*
X1588Y2062D01*
X1586Y2062D01*
X1586Y2064D01*
X1584Y2064D01*
X1584Y2066D01*
X1582Y2066D01*
X1582Y2068D01*
X1580Y2068D01*
X1580Y2070D01*
X696Y2070D01*
G37*
D02*
G36*
X566Y1942D02*
X566Y1940D01*
X564Y1940D01*
X564Y1938D01*
X562Y1938D01*
X562Y1936D01*
X560Y1936D01*
X560Y1934D01*
X558Y1934D01*
X558Y1932D01*
X556Y1932D01*
X556Y1930D01*
X554Y1930D01*
X554Y1928D01*
X552Y1928D01*
X552Y1926D01*
X550Y1926D01*
X550Y1924D01*
X548Y1924D01*
X548Y1922D01*
X546Y1922D01*
X546Y1920D01*
X544Y1920D01*
X544Y1918D01*
X542Y1918D01*
X542Y1916D01*
X540Y1916D01*
X540Y1914D01*
X538Y1914D01*
X538Y1912D01*
X536Y1912D01*
X536Y1886D01*
X534Y1886D01*
X534Y1878D01*
X532Y1878D01*
X532Y1874D01*
X530Y1874D01*
X530Y1870D01*
X528Y1870D01*
X528Y1866D01*
X526Y1866D01*
X526Y1864D01*
X524Y1864D01*
X524Y1862D01*
X522Y1862D01*
X522Y1860D01*
X520Y1860D01*
X520Y1858D01*
X518Y1858D01*
X518Y1856D01*
X516Y1856D01*
X516Y1854D01*
X514Y1854D01*
X514Y1852D01*
X512Y1852D01*
X512Y1832D01*
X514Y1832D01*
X514Y1830D01*
X516Y1830D01*
X516Y1828D01*
X518Y1828D01*
X518Y1826D01*
X520Y1826D01*
X520Y1824D01*
X522Y1824D01*
X522Y1822D01*
X524Y1822D01*
X524Y1820D01*
X526Y1820D01*
X526Y1818D01*
X528Y1818D01*
X528Y1814D01*
X530Y1814D01*
X530Y1810D01*
X532Y1810D01*
X532Y1806D01*
X534Y1806D01*
X534Y1798D01*
X536Y1798D01*
X536Y1786D01*
X534Y1786D01*
X534Y1778D01*
X532Y1778D01*
X532Y1774D01*
X530Y1774D01*
X530Y1770D01*
X528Y1770D01*
X528Y1766D01*
X526Y1766D01*
X526Y1764D01*
X524Y1764D01*
X524Y1762D01*
X522Y1762D01*
X522Y1760D01*
X520Y1760D01*
X520Y1758D01*
X518Y1758D01*
X518Y1756D01*
X516Y1756D01*
X516Y1754D01*
X514Y1754D01*
X514Y1752D01*
X512Y1752D01*
X512Y1732D01*
X514Y1732D01*
X514Y1730D01*
X516Y1730D01*
X516Y1728D01*
X518Y1728D01*
X518Y1726D01*
X520Y1726D01*
X520Y1724D01*
X522Y1724D01*
X522Y1722D01*
X524Y1722D01*
X524Y1720D01*
X526Y1720D01*
X526Y1718D01*
X528Y1718D01*
X528Y1714D01*
X530Y1714D01*
X530Y1710D01*
X532Y1710D01*
X532Y1706D01*
X534Y1706D01*
X534Y1698D01*
X536Y1698D01*
X536Y1686D01*
X534Y1686D01*
X534Y1678D01*
X532Y1678D01*
X532Y1674D01*
X530Y1674D01*
X530Y1670D01*
X528Y1670D01*
X528Y1666D01*
X526Y1666D01*
X526Y1664D01*
X524Y1664D01*
X524Y1662D01*
X522Y1662D01*
X522Y1660D01*
X520Y1660D01*
X520Y1658D01*
X518Y1658D01*
X518Y1656D01*
X516Y1656D01*
X516Y1654D01*
X514Y1654D01*
X514Y1652D01*
X512Y1652D01*
X512Y1632D01*
X514Y1632D01*
X514Y1630D01*
X516Y1630D01*
X516Y1628D01*
X518Y1628D01*
X518Y1626D01*
X520Y1626D01*
X520Y1624D01*
X522Y1624D01*
X522Y1622D01*
X524Y1622D01*
X524Y1620D01*
X526Y1620D01*
X526Y1618D01*
X528Y1618D01*
X528Y1614D01*
X530Y1614D01*
X530Y1610D01*
X532Y1610D01*
X532Y1606D01*
X534Y1606D01*
X534Y1598D01*
X536Y1598D01*
X536Y1586D01*
X534Y1586D01*
X534Y1578D01*
X532Y1578D01*
X532Y1574D01*
X530Y1574D01*
X530Y1570D01*
X528Y1570D01*
X528Y1566D01*
X526Y1566D01*
X526Y1564D01*
X524Y1564D01*
X524Y1562D01*
X522Y1562D01*
X522Y1560D01*
X520Y1560D01*
X520Y1558D01*
X518Y1558D01*
X518Y1556D01*
X516Y1556D01*
X516Y1554D01*
X514Y1554D01*
X514Y1552D01*
X512Y1552D01*
X512Y1532D01*
X514Y1532D01*
X514Y1530D01*
X516Y1530D01*
X516Y1528D01*
X518Y1528D01*
X518Y1526D01*
X520Y1526D01*
X520Y1524D01*
X522Y1524D01*
X522Y1522D01*
X524Y1522D01*
X524Y1520D01*
X526Y1520D01*
X526Y1518D01*
X528Y1518D01*
X528Y1514D01*
X530Y1514D01*
X530Y1510D01*
X532Y1510D01*
X532Y1506D01*
X534Y1506D01*
X534Y1498D01*
X536Y1498D01*
X536Y1486D01*
X534Y1486D01*
X534Y1478D01*
X532Y1478D01*
X532Y1474D01*
X530Y1474D01*
X530Y1470D01*
X528Y1470D01*
X528Y1466D01*
X526Y1466D01*
X526Y1464D01*
X524Y1464D01*
X524Y1462D01*
X522Y1462D01*
X522Y1460D01*
X520Y1460D01*
X520Y1458D01*
X518Y1458D01*
X518Y1456D01*
X516Y1456D01*
X516Y1454D01*
X514Y1454D01*
X514Y1452D01*
X512Y1452D01*
X512Y1432D01*
X514Y1432D01*
X514Y1430D01*
X516Y1430D01*
X516Y1428D01*
X518Y1428D01*
X518Y1426D01*
X520Y1426D01*
X520Y1424D01*
X522Y1424D01*
X522Y1422D01*
X524Y1422D01*
X524Y1420D01*
X526Y1420D01*
X526Y1418D01*
X528Y1418D01*
X528Y1414D01*
X530Y1414D01*
X530Y1410D01*
X532Y1410D01*
X532Y1406D01*
X534Y1406D01*
X534Y1398D01*
X536Y1398D01*
X536Y1386D01*
X534Y1386D01*
X534Y1378D01*
X532Y1378D01*
X532Y1374D01*
X530Y1374D01*
X530Y1370D01*
X528Y1370D01*
X528Y1366D01*
X526Y1366D01*
X526Y1364D01*
X524Y1364D01*
X524Y1362D01*
X522Y1362D01*
X522Y1360D01*
X520Y1360D01*
X520Y1358D01*
X518Y1358D01*
X518Y1356D01*
X516Y1356D01*
X516Y1354D01*
X514Y1354D01*
X514Y1352D01*
X512Y1352D01*
X512Y1332D01*
X514Y1332D01*
X514Y1330D01*
X516Y1330D01*
X516Y1328D01*
X518Y1328D01*
X518Y1326D01*
X520Y1326D01*
X520Y1324D01*
X522Y1324D01*
X522Y1322D01*
X524Y1322D01*
X524Y1320D01*
X526Y1320D01*
X526Y1318D01*
X528Y1318D01*
X528Y1314D01*
X530Y1314D01*
X530Y1310D01*
X532Y1310D01*
X532Y1306D01*
X534Y1306D01*
X534Y1298D01*
X536Y1298D01*
X536Y1286D01*
X534Y1286D01*
X534Y1278D01*
X532Y1278D01*
X532Y1274D01*
X530Y1274D01*
X530Y1270D01*
X528Y1270D01*
X528Y1266D01*
X526Y1266D01*
X526Y1264D01*
X524Y1264D01*
X524Y1262D01*
X522Y1262D01*
X522Y1260D01*
X520Y1260D01*
X520Y1258D01*
X518Y1258D01*
X518Y1256D01*
X516Y1256D01*
X516Y1254D01*
X514Y1254D01*
X514Y1252D01*
X512Y1252D01*
X512Y1232D01*
X514Y1232D01*
X514Y1230D01*
X516Y1230D01*
X516Y1228D01*
X518Y1228D01*
X518Y1226D01*
X520Y1226D01*
X520Y1224D01*
X522Y1224D01*
X522Y1222D01*
X524Y1222D01*
X524Y1220D01*
X1148Y1220D01*
X1148Y1222D01*
X1150Y1222D01*
X1150Y1224D01*
X1152Y1224D01*
X1152Y1226D01*
X1154Y1226D01*
X1154Y1228D01*
X1156Y1228D01*
X1156Y1230D01*
X1158Y1230D01*
X1158Y1232D01*
X1162Y1232D01*
X1162Y1252D01*
X1160Y1252D01*
X1160Y1254D01*
X1156Y1254D01*
X1156Y1256D01*
X1154Y1256D01*
X1154Y1258D01*
X1152Y1258D01*
X1152Y1260D01*
X1150Y1260D01*
X1150Y1262D01*
X1148Y1262D01*
X1148Y1266D01*
X1146Y1266D01*
X1146Y1268D01*
X1144Y1268D01*
X1144Y1272D01*
X1142Y1272D01*
X1142Y1276D01*
X1140Y1276D01*
X1140Y1282D01*
X1138Y1282D01*
X1138Y1302D01*
X1140Y1302D01*
X1140Y1308D01*
X1142Y1308D01*
X1142Y1312D01*
X1144Y1312D01*
X1144Y1316D01*
X1146Y1316D01*
X1146Y1318D01*
X1148Y1318D01*
X1148Y1322D01*
X1150Y1322D01*
X1150Y1324D01*
X1152Y1324D01*
X1152Y1326D01*
X1154Y1326D01*
X1154Y1328D01*
X1156Y1328D01*
X1156Y1330D01*
X1158Y1330D01*
X1158Y1332D01*
X1162Y1332D01*
X1162Y1352D01*
X1160Y1352D01*
X1160Y1354D01*
X1156Y1354D01*
X1156Y1356D01*
X1154Y1356D01*
X1154Y1358D01*
X1152Y1358D01*
X1152Y1360D01*
X1150Y1360D01*
X1150Y1362D01*
X1148Y1362D01*
X1148Y1366D01*
X1146Y1366D01*
X1146Y1368D01*
X1144Y1368D01*
X1144Y1372D01*
X1142Y1372D01*
X1142Y1376D01*
X1140Y1376D01*
X1140Y1382D01*
X1138Y1382D01*
X1138Y1402D01*
X1140Y1402D01*
X1140Y1408D01*
X1142Y1408D01*
X1142Y1412D01*
X1144Y1412D01*
X1144Y1416D01*
X1146Y1416D01*
X1146Y1418D01*
X1148Y1418D01*
X1148Y1422D01*
X1150Y1422D01*
X1150Y1424D01*
X1152Y1424D01*
X1152Y1426D01*
X1154Y1426D01*
X1154Y1428D01*
X1156Y1428D01*
X1156Y1430D01*
X1158Y1430D01*
X1158Y1432D01*
X1162Y1432D01*
X1162Y1452D01*
X1160Y1452D01*
X1160Y1454D01*
X1156Y1454D01*
X1156Y1456D01*
X1154Y1456D01*
X1154Y1458D01*
X1152Y1458D01*
X1152Y1460D01*
X1150Y1460D01*
X1150Y1462D01*
X1148Y1462D01*
X1148Y1466D01*
X1146Y1466D01*
X1146Y1468D01*
X1144Y1468D01*
X1144Y1472D01*
X1142Y1472D01*
X1142Y1476D01*
X1140Y1476D01*
X1140Y1482D01*
X1138Y1482D01*
X1138Y1502D01*
X1140Y1502D01*
X1140Y1508D01*
X1142Y1508D01*
X1142Y1512D01*
X1144Y1512D01*
X1144Y1516D01*
X1146Y1516D01*
X1146Y1518D01*
X1148Y1518D01*
X1148Y1522D01*
X1150Y1522D01*
X1150Y1524D01*
X1152Y1524D01*
X1152Y1526D01*
X1154Y1526D01*
X1154Y1528D01*
X1156Y1528D01*
X1156Y1530D01*
X1158Y1530D01*
X1158Y1532D01*
X1162Y1532D01*
X1162Y1552D01*
X1160Y1552D01*
X1160Y1554D01*
X1156Y1554D01*
X1156Y1556D01*
X1154Y1556D01*
X1154Y1558D01*
X1152Y1558D01*
X1152Y1560D01*
X1150Y1560D01*
X1150Y1562D01*
X1148Y1562D01*
X1148Y1566D01*
X1146Y1566D01*
X1146Y1568D01*
X1144Y1568D01*
X1144Y1572D01*
X1142Y1572D01*
X1142Y1576D01*
X1140Y1576D01*
X1140Y1582D01*
X1138Y1582D01*
X1138Y1602D01*
X1140Y1602D01*
X1140Y1608D01*
X1142Y1608D01*
X1142Y1612D01*
X1144Y1612D01*
X1144Y1616D01*
X1146Y1616D01*
X1146Y1618D01*
X1148Y1618D01*
X1148Y1622D01*
X1150Y1622D01*
X1150Y1624D01*
X1152Y1624D01*
X1152Y1626D01*
X1154Y1626D01*
X1154Y1628D01*
X1156Y1628D01*
X1156Y1630D01*
X1158Y1630D01*
X1158Y1632D01*
X1162Y1632D01*
X1162Y1652D01*
X1160Y1652D01*
X1160Y1654D01*
X1156Y1654D01*
X1156Y1656D01*
X1154Y1656D01*
X1154Y1658D01*
X1152Y1658D01*
X1152Y1660D01*
X1150Y1660D01*
X1150Y1662D01*
X1148Y1662D01*
X1148Y1666D01*
X1146Y1666D01*
X1146Y1668D01*
X1144Y1668D01*
X1144Y1672D01*
X1142Y1672D01*
X1142Y1676D01*
X1140Y1676D01*
X1140Y1682D01*
X1138Y1682D01*
X1138Y1702D01*
X1140Y1702D01*
X1140Y1708D01*
X1142Y1708D01*
X1142Y1712D01*
X1144Y1712D01*
X1144Y1716D01*
X1146Y1716D01*
X1146Y1718D01*
X1148Y1718D01*
X1148Y1722D01*
X1150Y1722D01*
X1150Y1724D01*
X1152Y1724D01*
X1152Y1726D01*
X1154Y1726D01*
X1154Y1728D01*
X1156Y1728D01*
X1156Y1730D01*
X1158Y1730D01*
X1158Y1732D01*
X1162Y1732D01*
X1162Y1752D01*
X1160Y1752D01*
X1160Y1754D01*
X1156Y1754D01*
X1156Y1756D01*
X1154Y1756D01*
X1154Y1758D01*
X1152Y1758D01*
X1152Y1760D01*
X1150Y1760D01*
X1150Y1762D01*
X1148Y1762D01*
X1148Y1766D01*
X1146Y1766D01*
X1146Y1768D01*
X1144Y1768D01*
X1144Y1772D01*
X1142Y1772D01*
X1142Y1776D01*
X1140Y1776D01*
X1140Y1782D01*
X1138Y1782D01*
X1138Y1802D01*
X1140Y1802D01*
X1140Y1808D01*
X1142Y1808D01*
X1142Y1812D01*
X1144Y1812D01*
X1144Y1816D01*
X1146Y1816D01*
X1146Y1818D01*
X1148Y1818D01*
X1148Y1822D01*
X1150Y1822D01*
X1150Y1824D01*
X1152Y1824D01*
X1152Y1826D01*
X1154Y1826D01*
X1154Y1828D01*
X1156Y1828D01*
X1156Y1830D01*
X1158Y1830D01*
X1158Y1832D01*
X1162Y1832D01*
X1162Y1852D01*
X1160Y1852D01*
X1160Y1854D01*
X1156Y1854D01*
X1156Y1856D01*
X1154Y1856D01*
X1154Y1858D01*
X1152Y1858D01*
X1152Y1860D01*
X1150Y1860D01*
X1150Y1862D01*
X1148Y1862D01*
X1148Y1866D01*
X1146Y1866D01*
X1146Y1868D01*
X1144Y1868D01*
X1144Y1872D01*
X1142Y1872D01*
X1142Y1876D01*
X1140Y1876D01*
X1140Y1882D01*
X1138Y1882D01*
X1138Y1902D01*
X1140Y1902D01*
X1140Y1908D01*
X1142Y1908D01*
X1142Y1912D01*
X1144Y1912D01*
X1144Y1916D01*
X1146Y1916D01*
X1146Y1918D01*
X1148Y1918D01*
X1148Y1922D01*
X1150Y1922D01*
X1150Y1924D01*
X1152Y1924D01*
X1152Y1926D01*
X1154Y1926D01*
X1154Y1928D01*
X1156Y1928D01*
X1156Y1930D01*
X1158Y1930D01*
X1158Y1932D01*
X1162Y1932D01*
X1162Y1934D01*
X1164Y1934D01*
X1164Y1936D01*
X1168Y1936D01*
X1168Y1938D01*
X1174Y1938D01*
X1174Y1940D01*
X1184Y1940D01*
X1184Y1942D01*
X566Y1942D01*
G37*
D02*
G36*
X1200Y1940D02*
X1200Y1938D01*
X1204Y1938D01*
X1204Y1936D01*
X1208Y1936D01*
X1208Y1934D01*
X1212Y1934D01*
X1212Y1932D01*
X1214Y1932D01*
X1214Y1930D01*
X1216Y1930D01*
X1216Y1928D01*
X1218Y1928D01*
X1218Y1926D01*
X1220Y1926D01*
X1220Y1924D01*
X1222Y1924D01*
X1222Y1922D01*
X1224Y1922D01*
X1224Y1920D01*
X1226Y1920D01*
X1226Y1918D01*
X1228Y1918D01*
X1228Y1914D01*
X1230Y1914D01*
X1230Y1910D01*
X1232Y1910D01*
X1232Y1906D01*
X1234Y1906D01*
X1234Y1898D01*
X1236Y1898D01*
X1236Y1886D01*
X1234Y1886D01*
X1234Y1878D01*
X1232Y1878D01*
X1232Y1874D01*
X1230Y1874D01*
X1230Y1870D01*
X1228Y1870D01*
X1228Y1866D01*
X1226Y1866D01*
X1226Y1864D01*
X1224Y1864D01*
X1224Y1862D01*
X1222Y1862D01*
X1222Y1860D01*
X1220Y1860D01*
X1220Y1858D01*
X1218Y1858D01*
X1218Y1856D01*
X1216Y1856D01*
X1216Y1854D01*
X1214Y1854D01*
X1214Y1852D01*
X1212Y1852D01*
X1212Y1844D01*
X1382Y1844D01*
X1382Y1846D01*
X1374Y1846D01*
X1374Y1848D01*
X1368Y1848D01*
X1368Y1850D01*
X1366Y1850D01*
X1366Y1852D01*
X1362Y1852D01*
X1362Y1854D01*
X1360Y1854D01*
X1360Y1856D01*
X1356Y1856D01*
X1356Y1858D01*
X1354Y1858D01*
X1354Y1860D01*
X1352Y1860D01*
X1352Y1862D01*
X1350Y1862D01*
X1350Y1866D01*
X1348Y1866D01*
X1348Y1868D01*
X1346Y1868D01*
X1346Y1872D01*
X1344Y1872D01*
X1344Y1876D01*
X1342Y1876D01*
X1342Y1880D01*
X1340Y1880D01*
X1340Y1904D01*
X1342Y1904D01*
X1342Y1910D01*
X1344Y1910D01*
X1344Y1914D01*
X1346Y1914D01*
X1346Y1916D01*
X1348Y1916D01*
X1348Y1920D01*
X1350Y1920D01*
X1350Y1922D01*
X1352Y1922D01*
X1352Y1924D01*
X1354Y1924D01*
X1354Y1926D01*
X1356Y1926D01*
X1356Y1928D01*
X1358Y1928D01*
X1358Y1930D01*
X1362Y1930D01*
X1362Y1932D01*
X1364Y1932D01*
X1364Y1934D01*
X1368Y1934D01*
X1368Y1936D01*
X1372Y1936D01*
X1372Y1938D01*
X1380Y1938D01*
X1380Y1940D01*
X1200Y1940D01*
G37*
D02*
G36*
X1394Y1940D02*
X1394Y1938D01*
X1400Y1938D01*
X1400Y1936D01*
X1404Y1936D01*
X1404Y1934D01*
X1408Y1934D01*
X1408Y1932D01*
X1412Y1932D01*
X1412Y1930D01*
X1414Y1930D01*
X1414Y1928D01*
X1416Y1928D01*
X1416Y1926D01*
X1418Y1926D01*
X1418Y1924D01*
X1420Y1924D01*
X1420Y1922D01*
X1422Y1922D01*
X1422Y1920D01*
X1424Y1920D01*
X1424Y1918D01*
X1426Y1918D01*
X1426Y1914D01*
X1446Y1914D01*
X1446Y1916D01*
X1448Y1916D01*
X1448Y1920D01*
X1450Y1920D01*
X1450Y1922D01*
X1452Y1922D01*
X1452Y1924D01*
X1454Y1924D01*
X1454Y1926D01*
X1456Y1926D01*
X1456Y1928D01*
X1458Y1928D01*
X1458Y1930D01*
X1462Y1930D01*
X1462Y1932D01*
X1464Y1932D01*
X1464Y1934D01*
X1468Y1934D01*
X1468Y1936D01*
X1472Y1936D01*
X1472Y1938D01*
X1480Y1938D01*
X1480Y1940D01*
X1394Y1940D01*
G37*
D02*
G36*
X40Y1900D02*
X40Y1898D01*
X438Y1898D01*
X438Y1900D01*
X40Y1900D01*
G37*
D02*
G36*
X40Y1900D02*
X40Y1898D01*
X438Y1898D01*
X438Y1900D01*
X40Y1900D01*
G37*
D02*
G36*
X1708Y1900D02*
X1708Y1898D01*
X2140Y1898D01*
X2140Y1900D01*
X1708Y1900D01*
G37*
D02*
G36*
X1708Y1900D02*
X1708Y1898D01*
X2140Y1898D01*
X2140Y1900D01*
X1708Y1900D01*
G37*
D02*
G36*
X40Y1898D02*
X40Y744D01*
X474Y744D01*
X474Y746D01*
X470Y746D01*
X470Y748D01*
X466Y748D01*
X466Y750D01*
X462Y750D01*
X462Y752D01*
X460Y752D01*
X460Y754D01*
X456Y754D01*
X456Y756D01*
X454Y756D01*
X454Y758D01*
X452Y758D01*
X452Y760D01*
X450Y760D01*
X450Y762D01*
X448Y762D01*
X448Y766D01*
X446Y766D01*
X446Y768D01*
X444Y768D01*
X444Y772D01*
X442Y772D01*
X442Y776D01*
X440Y776D01*
X440Y782D01*
X438Y782D01*
X438Y802D01*
X440Y802D01*
X440Y808D01*
X442Y808D01*
X442Y812D01*
X444Y812D01*
X444Y816D01*
X446Y816D01*
X446Y818D01*
X448Y818D01*
X448Y822D01*
X450Y822D01*
X450Y824D01*
X452Y824D01*
X452Y826D01*
X454Y826D01*
X454Y828D01*
X456Y828D01*
X456Y830D01*
X458Y830D01*
X458Y832D01*
X462Y832D01*
X462Y852D01*
X460Y852D01*
X460Y854D01*
X456Y854D01*
X456Y856D01*
X454Y856D01*
X454Y858D01*
X452Y858D01*
X452Y860D01*
X450Y860D01*
X450Y862D01*
X448Y862D01*
X448Y866D01*
X446Y866D01*
X446Y868D01*
X444Y868D01*
X444Y872D01*
X442Y872D01*
X442Y876D01*
X440Y876D01*
X440Y882D01*
X438Y882D01*
X438Y902D01*
X440Y902D01*
X440Y908D01*
X442Y908D01*
X442Y912D01*
X444Y912D01*
X444Y916D01*
X446Y916D01*
X446Y918D01*
X448Y918D01*
X448Y922D01*
X450Y922D01*
X450Y924D01*
X452Y924D01*
X452Y926D01*
X454Y926D01*
X454Y928D01*
X456Y928D01*
X456Y930D01*
X458Y930D01*
X458Y932D01*
X462Y932D01*
X462Y952D01*
X460Y952D01*
X460Y954D01*
X456Y954D01*
X456Y956D01*
X454Y956D01*
X454Y958D01*
X452Y958D01*
X452Y960D01*
X450Y960D01*
X450Y962D01*
X448Y962D01*
X448Y966D01*
X446Y966D01*
X446Y968D01*
X444Y968D01*
X444Y972D01*
X442Y972D01*
X442Y976D01*
X440Y976D01*
X440Y982D01*
X438Y982D01*
X438Y1002D01*
X440Y1002D01*
X440Y1008D01*
X442Y1008D01*
X442Y1012D01*
X444Y1012D01*
X444Y1016D01*
X446Y1016D01*
X446Y1018D01*
X448Y1018D01*
X448Y1022D01*
X450Y1022D01*
X450Y1024D01*
X452Y1024D01*
X452Y1026D01*
X454Y1026D01*
X454Y1028D01*
X456Y1028D01*
X456Y1030D01*
X458Y1030D01*
X458Y1032D01*
X462Y1032D01*
X462Y1052D01*
X460Y1052D01*
X460Y1054D01*
X456Y1054D01*
X456Y1056D01*
X454Y1056D01*
X454Y1058D01*
X452Y1058D01*
X452Y1060D01*
X450Y1060D01*
X450Y1062D01*
X448Y1062D01*
X448Y1066D01*
X446Y1066D01*
X446Y1068D01*
X444Y1068D01*
X444Y1072D01*
X442Y1072D01*
X442Y1076D01*
X440Y1076D01*
X440Y1082D01*
X438Y1082D01*
X438Y1102D01*
X440Y1102D01*
X440Y1108D01*
X442Y1108D01*
X442Y1112D01*
X444Y1112D01*
X444Y1116D01*
X446Y1116D01*
X446Y1118D01*
X448Y1118D01*
X448Y1122D01*
X450Y1122D01*
X450Y1124D01*
X452Y1124D01*
X452Y1126D01*
X454Y1126D01*
X454Y1128D01*
X456Y1128D01*
X456Y1130D01*
X458Y1130D01*
X458Y1132D01*
X462Y1132D01*
X462Y1152D01*
X460Y1152D01*
X460Y1154D01*
X456Y1154D01*
X456Y1156D01*
X454Y1156D01*
X454Y1158D01*
X452Y1158D01*
X452Y1160D01*
X450Y1160D01*
X450Y1162D01*
X448Y1162D01*
X448Y1166D01*
X446Y1166D01*
X446Y1168D01*
X444Y1168D01*
X444Y1172D01*
X442Y1172D01*
X442Y1176D01*
X440Y1176D01*
X440Y1182D01*
X438Y1182D01*
X438Y1202D01*
X440Y1202D01*
X440Y1208D01*
X442Y1208D01*
X442Y1212D01*
X444Y1212D01*
X444Y1216D01*
X446Y1216D01*
X446Y1218D01*
X448Y1218D01*
X448Y1222D01*
X450Y1222D01*
X450Y1224D01*
X452Y1224D01*
X452Y1226D01*
X454Y1226D01*
X454Y1228D01*
X456Y1228D01*
X456Y1230D01*
X458Y1230D01*
X458Y1232D01*
X462Y1232D01*
X462Y1252D01*
X460Y1252D01*
X460Y1254D01*
X456Y1254D01*
X456Y1256D01*
X454Y1256D01*
X454Y1258D01*
X452Y1258D01*
X452Y1260D01*
X450Y1260D01*
X450Y1262D01*
X448Y1262D01*
X448Y1266D01*
X446Y1266D01*
X446Y1268D01*
X444Y1268D01*
X444Y1272D01*
X442Y1272D01*
X442Y1276D01*
X440Y1276D01*
X440Y1282D01*
X438Y1282D01*
X438Y1302D01*
X440Y1302D01*
X440Y1308D01*
X442Y1308D01*
X442Y1312D01*
X444Y1312D01*
X444Y1316D01*
X446Y1316D01*
X446Y1318D01*
X448Y1318D01*
X448Y1322D01*
X450Y1322D01*
X450Y1324D01*
X452Y1324D01*
X452Y1326D01*
X454Y1326D01*
X454Y1328D01*
X456Y1328D01*
X456Y1330D01*
X458Y1330D01*
X458Y1332D01*
X462Y1332D01*
X462Y1352D01*
X460Y1352D01*
X460Y1354D01*
X456Y1354D01*
X456Y1356D01*
X454Y1356D01*
X454Y1358D01*
X452Y1358D01*
X452Y1360D01*
X450Y1360D01*
X450Y1362D01*
X448Y1362D01*
X448Y1366D01*
X446Y1366D01*
X446Y1368D01*
X444Y1368D01*
X444Y1372D01*
X442Y1372D01*
X442Y1376D01*
X440Y1376D01*
X440Y1382D01*
X438Y1382D01*
X438Y1402D01*
X440Y1402D01*
X440Y1408D01*
X442Y1408D01*
X442Y1412D01*
X444Y1412D01*
X444Y1416D01*
X446Y1416D01*
X446Y1418D01*
X448Y1418D01*
X448Y1422D01*
X450Y1422D01*
X450Y1424D01*
X452Y1424D01*
X452Y1426D01*
X454Y1426D01*
X454Y1428D01*
X456Y1428D01*
X456Y1430D01*
X458Y1430D01*
X458Y1432D01*
X462Y1432D01*
X462Y1452D01*
X460Y1452D01*
X460Y1454D01*
X456Y1454D01*
X456Y1456D01*
X454Y1456D01*
X454Y1458D01*
X452Y1458D01*
X452Y1460D01*
X450Y1460D01*
X450Y1462D01*
X448Y1462D01*
X448Y1466D01*
X446Y1466D01*
X446Y1468D01*
X444Y1468D01*
X444Y1472D01*
X442Y1472D01*
X442Y1476D01*
X440Y1476D01*
X440Y1482D01*
X438Y1482D01*
X438Y1502D01*
X440Y1502D01*
X440Y1508D01*
X442Y1508D01*
X442Y1512D01*
X444Y1512D01*
X444Y1516D01*
X446Y1516D01*
X446Y1518D01*
X448Y1518D01*
X448Y1522D01*
X450Y1522D01*
X450Y1524D01*
X452Y1524D01*
X452Y1526D01*
X454Y1526D01*
X454Y1528D01*
X456Y1528D01*
X456Y1530D01*
X458Y1530D01*
X458Y1532D01*
X462Y1532D01*
X462Y1552D01*
X460Y1552D01*
X460Y1554D01*
X456Y1554D01*
X456Y1556D01*
X454Y1556D01*
X454Y1558D01*
X452Y1558D01*
X452Y1560D01*
X450Y1560D01*
X450Y1562D01*
X448Y1562D01*
X448Y1566D01*
X446Y1566D01*
X446Y1568D01*
X444Y1568D01*
X444Y1572D01*
X442Y1572D01*
X442Y1576D01*
X440Y1576D01*
X440Y1582D01*
X438Y1582D01*
X438Y1602D01*
X440Y1602D01*
X440Y1608D01*
X442Y1608D01*
X442Y1612D01*
X444Y1612D01*
X444Y1616D01*
X446Y1616D01*
X446Y1618D01*
X448Y1618D01*
X448Y1622D01*
X450Y1622D01*
X450Y1624D01*
X452Y1624D01*
X452Y1626D01*
X454Y1626D01*
X454Y1628D01*
X456Y1628D01*
X456Y1630D01*
X458Y1630D01*
X458Y1632D01*
X462Y1632D01*
X462Y1652D01*
X460Y1652D01*
X460Y1654D01*
X456Y1654D01*
X456Y1656D01*
X454Y1656D01*
X454Y1658D01*
X452Y1658D01*
X452Y1660D01*
X450Y1660D01*
X450Y1662D01*
X448Y1662D01*
X448Y1666D01*
X446Y1666D01*
X446Y1668D01*
X444Y1668D01*
X444Y1672D01*
X442Y1672D01*
X442Y1676D01*
X440Y1676D01*
X440Y1682D01*
X438Y1682D01*
X438Y1702D01*
X440Y1702D01*
X440Y1708D01*
X442Y1708D01*
X442Y1712D01*
X444Y1712D01*
X444Y1716D01*
X446Y1716D01*
X446Y1718D01*
X448Y1718D01*
X448Y1722D01*
X450Y1722D01*
X450Y1724D01*
X452Y1724D01*
X452Y1726D01*
X454Y1726D01*
X454Y1728D01*
X456Y1728D01*
X456Y1730D01*
X458Y1730D01*
X458Y1732D01*
X462Y1732D01*
X462Y1752D01*
X460Y1752D01*
X460Y1754D01*
X456Y1754D01*
X456Y1756D01*
X454Y1756D01*
X454Y1758D01*
X452Y1758D01*
X452Y1760D01*
X450Y1760D01*
X450Y1762D01*
X448Y1762D01*
X448Y1766D01*
X446Y1766D01*
X446Y1768D01*
X444Y1768D01*
X444Y1772D01*
X442Y1772D01*
X442Y1776D01*
X440Y1776D01*
X440Y1782D01*
X438Y1782D01*
X438Y1802D01*
X440Y1802D01*
X440Y1808D01*
X442Y1808D01*
X442Y1812D01*
X444Y1812D01*
X444Y1816D01*
X446Y1816D01*
X446Y1818D01*
X448Y1818D01*
X448Y1822D01*
X450Y1822D01*
X450Y1824D01*
X452Y1824D01*
X452Y1826D01*
X454Y1826D01*
X454Y1828D01*
X456Y1828D01*
X456Y1830D01*
X458Y1830D01*
X458Y1832D01*
X462Y1832D01*
X462Y1852D01*
X460Y1852D01*
X460Y1854D01*
X456Y1854D01*
X456Y1856D01*
X454Y1856D01*
X454Y1858D01*
X452Y1858D01*
X452Y1860D01*
X450Y1860D01*
X450Y1862D01*
X448Y1862D01*
X448Y1866D01*
X446Y1866D01*
X446Y1868D01*
X444Y1868D01*
X444Y1872D01*
X442Y1872D01*
X442Y1876D01*
X440Y1876D01*
X440Y1882D01*
X438Y1882D01*
X438Y1898D01*
X40Y1898D01*
G37*
D02*
G36*
X1708Y1898D02*
X1708Y1736D01*
X1710Y1736D01*
X1710Y1734D01*
X1712Y1734D01*
X1712Y1732D01*
X1716Y1732D01*
X1716Y1730D01*
X1718Y1730D01*
X1718Y1728D01*
X1720Y1728D01*
X1720Y1726D01*
X1722Y1726D01*
X1722Y1724D01*
X1724Y1724D01*
X1724Y1722D01*
X1726Y1722D01*
X1726Y1718D01*
X1728Y1718D01*
X1728Y1716D01*
X1730Y1716D01*
X1730Y1712D01*
X1732Y1712D01*
X1732Y1708D01*
X1734Y1708D01*
X1734Y1702D01*
X1736Y1702D01*
X1736Y1682D01*
X1734Y1682D01*
X1734Y1676D01*
X1732Y1676D01*
X1732Y1672D01*
X1730Y1672D01*
X1730Y1668D01*
X1728Y1668D01*
X1728Y1666D01*
X1726Y1666D01*
X1726Y1662D01*
X1724Y1662D01*
X1724Y1660D01*
X1722Y1660D01*
X1722Y1658D01*
X1720Y1658D01*
X1720Y1656D01*
X1718Y1656D01*
X1718Y1654D01*
X1714Y1654D01*
X1714Y1652D01*
X1712Y1652D01*
X1712Y1632D01*
X1716Y1632D01*
X1716Y1630D01*
X1718Y1630D01*
X1718Y1628D01*
X1720Y1628D01*
X1720Y1626D01*
X1722Y1626D01*
X1722Y1624D01*
X1724Y1624D01*
X1724Y1622D01*
X1726Y1622D01*
X1726Y1618D01*
X1728Y1618D01*
X1728Y1616D01*
X1730Y1616D01*
X1730Y1612D01*
X1732Y1612D01*
X1732Y1608D01*
X1734Y1608D01*
X1734Y1602D01*
X1736Y1602D01*
X1736Y1582D01*
X1734Y1582D01*
X1734Y1576D01*
X1732Y1576D01*
X1732Y1572D01*
X1730Y1572D01*
X1730Y1568D01*
X1728Y1568D01*
X1728Y1566D01*
X1726Y1566D01*
X1726Y1562D01*
X1724Y1562D01*
X1724Y1560D01*
X1722Y1560D01*
X1722Y1558D01*
X1720Y1558D01*
X1720Y1556D01*
X1718Y1556D01*
X1718Y1554D01*
X1714Y1554D01*
X1714Y1552D01*
X1712Y1552D01*
X1712Y1532D01*
X1716Y1532D01*
X1716Y1530D01*
X1718Y1530D01*
X1718Y1528D01*
X1720Y1528D01*
X1720Y1526D01*
X1722Y1526D01*
X1722Y1524D01*
X1724Y1524D01*
X1724Y1522D01*
X1726Y1522D01*
X1726Y1518D01*
X1728Y1518D01*
X1728Y1516D01*
X1730Y1516D01*
X1730Y1512D01*
X1732Y1512D01*
X1732Y1508D01*
X1734Y1508D01*
X1734Y1502D01*
X1736Y1502D01*
X1736Y1482D01*
X1734Y1482D01*
X1734Y1476D01*
X1732Y1476D01*
X1732Y1472D01*
X1730Y1472D01*
X1730Y1468D01*
X1728Y1468D01*
X1728Y1466D01*
X1726Y1466D01*
X1726Y1462D01*
X1724Y1462D01*
X1724Y1460D01*
X1722Y1460D01*
X1722Y1458D01*
X1720Y1458D01*
X1720Y1456D01*
X1718Y1456D01*
X1718Y1454D01*
X1714Y1454D01*
X1714Y1452D01*
X1712Y1452D01*
X1712Y1432D01*
X1716Y1432D01*
X1716Y1430D01*
X1718Y1430D01*
X1718Y1428D01*
X1720Y1428D01*
X1720Y1426D01*
X1722Y1426D01*
X1722Y1424D01*
X1724Y1424D01*
X1724Y1422D01*
X1726Y1422D01*
X1726Y1418D01*
X1728Y1418D01*
X1728Y1416D01*
X1730Y1416D01*
X1730Y1412D01*
X1732Y1412D01*
X1732Y1408D01*
X1734Y1408D01*
X1734Y1402D01*
X1736Y1402D01*
X1736Y1382D01*
X1734Y1382D01*
X1734Y1376D01*
X1732Y1376D01*
X1732Y1372D01*
X1730Y1372D01*
X1730Y1368D01*
X1728Y1368D01*
X1728Y1366D01*
X1726Y1366D01*
X1726Y1362D01*
X1724Y1362D01*
X1724Y1360D01*
X1722Y1360D01*
X1722Y1358D01*
X1720Y1358D01*
X1720Y1356D01*
X1718Y1356D01*
X1718Y1354D01*
X1714Y1354D01*
X1714Y1352D01*
X1712Y1352D01*
X1712Y1350D01*
X1708Y1350D01*
X1708Y1348D01*
X1706Y1348D01*
X1706Y1346D01*
X1700Y1346D01*
X1700Y1344D01*
X1692Y1344D01*
X1692Y1342D01*
X2140Y1342D01*
X2140Y1898D01*
X1708Y1898D01*
G37*
D02*
G36*
X1426Y1870D02*
X1426Y1866D01*
X1424Y1866D01*
X1424Y1864D01*
X1422Y1864D01*
X1422Y1862D01*
X1420Y1862D01*
X1420Y1860D01*
X1418Y1860D01*
X1418Y1858D01*
X1416Y1858D01*
X1416Y1856D01*
X1414Y1856D01*
X1414Y1854D01*
X1412Y1854D01*
X1412Y1852D01*
X1408Y1852D01*
X1408Y1850D01*
X1404Y1850D01*
X1404Y1848D01*
X1400Y1848D01*
X1400Y1846D01*
X1392Y1846D01*
X1392Y1844D01*
X1482Y1844D01*
X1482Y1846D01*
X1474Y1846D01*
X1474Y1848D01*
X1468Y1848D01*
X1468Y1850D01*
X1466Y1850D01*
X1466Y1852D01*
X1462Y1852D01*
X1462Y1854D01*
X1460Y1854D01*
X1460Y1856D01*
X1456Y1856D01*
X1456Y1858D01*
X1454Y1858D01*
X1454Y1860D01*
X1452Y1860D01*
X1452Y1862D01*
X1450Y1862D01*
X1450Y1866D01*
X1448Y1866D01*
X1448Y1868D01*
X1446Y1868D01*
X1446Y1870D01*
X1426Y1870D01*
G37*
D02*
G36*
X1212Y1844D02*
X1212Y1842D01*
X1664Y1842D01*
X1664Y1844D01*
X1212Y1844D01*
G37*
D02*
G36*
X1212Y1844D02*
X1212Y1842D01*
X1664Y1842D01*
X1664Y1844D01*
X1212Y1844D01*
G37*
D02*
G36*
X1212Y1844D02*
X1212Y1842D01*
X1664Y1842D01*
X1664Y1844D01*
X1212Y1844D01*
G37*
D02*
G36*
X1212Y1842D02*
X1212Y1832D01*
X1214Y1832D01*
X1214Y1830D01*
X1216Y1830D01*
X1216Y1828D01*
X1218Y1828D01*
X1218Y1826D01*
X1220Y1826D01*
X1220Y1824D01*
X1222Y1824D01*
X1222Y1822D01*
X1224Y1822D01*
X1224Y1820D01*
X1226Y1820D01*
X1226Y1818D01*
X1228Y1818D01*
X1228Y1814D01*
X1230Y1814D01*
X1230Y1810D01*
X1232Y1810D01*
X1232Y1806D01*
X1234Y1806D01*
X1234Y1798D01*
X1236Y1798D01*
X1236Y1786D01*
X1234Y1786D01*
X1234Y1778D01*
X1232Y1778D01*
X1232Y1774D01*
X1230Y1774D01*
X1230Y1770D01*
X1228Y1770D01*
X1228Y1766D01*
X1226Y1766D01*
X1226Y1764D01*
X1224Y1764D01*
X1224Y1762D01*
X1222Y1762D01*
X1222Y1760D01*
X1220Y1760D01*
X1220Y1758D01*
X1218Y1758D01*
X1218Y1756D01*
X1216Y1756D01*
X1216Y1754D01*
X1214Y1754D01*
X1214Y1752D01*
X1212Y1752D01*
X1212Y1732D01*
X1214Y1732D01*
X1214Y1730D01*
X1216Y1730D01*
X1216Y1728D01*
X1218Y1728D01*
X1218Y1726D01*
X1220Y1726D01*
X1220Y1724D01*
X1222Y1724D01*
X1222Y1722D01*
X1224Y1722D01*
X1224Y1720D01*
X1226Y1720D01*
X1226Y1718D01*
X1228Y1718D01*
X1228Y1714D01*
X1230Y1714D01*
X1230Y1710D01*
X1232Y1710D01*
X1232Y1706D01*
X1234Y1706D01*
X1234Y1698D01*
X1236Y1698D01*
X1236Y1686D01*
X1234Y1686D01*
X1234Y1678D01*
X1232Y1678D01*
X1232Y1674D01*
X1230Y1674D01*
X1230Y1670D01*
X1228Y1670D01*
X1228Y1666D01*
X1226Y1666D01*
X1226Y1664D01*
X1224Y1664D01*
X1224Y1662D01*
X1222Y1662D01*
X1222Y1660D01*
X1220Y1660D01*
X1220Y1658D01*
X1218Y1658D01*
X1218Y1656D01*
X1216Y1656D01*
X1216Y1654D01*
X1214Y1654D01*
X1214Y1652D01*
X1212Y1652D01*
X1212Y1632D01*
X1214Y1632D01*
X1214Y1630D01*
X1216Y1630D01*
X1216Y1628D01*
X1218Y1628D01*
X1218Y1626D01*
X1220Y1626D01*
X1220Y1624D01*
X1222Y1624D01*
X1222Y1622D01*
X1224Y1622D01*
X1224Y1620D01*
X1226Y1620D01*
X1226Y1618D01*
X1228Y1618D01*
X1228Y1614D01*
X1230Y1614D01*
X1230Y1610D01*
X1232Y1610D01*
X1232Y1606D01*
X1234Y1606D01*
X1234Y1598D01*
X1236Y1598D01*
X1236Y1586D01*
X1234Y1586D01*
X1234Y1578D01*
X1232Y1578D01*
X1232Y1574D01*
X1230Y1574D01*
X1230Y1570D01*
X1228Y1570D01*
X1228Y1566D01*
X1226Y1566D01*
X1226Y1564D01*
X1224Y1564D01*
X1224Y1562D01*
X1222Y1562D01*
X1222Y1560D01*
X1220Y1560D01*
X1220Y1558D01*
X1218Y1558D01*
X1218Y1556D01*
X1216Y1556D01*
X1216Y1554D01*
X1214Y1554D01*
X1214Y1552D01*
X1212Y1552D01*
X1212Y1540D01*
X1494Y1540D01*
X1494Y1538D01*
X1500Y1538D01*
X1500Y1536D01*
X1504Y1536D01*
X1504Y1534D01*
X1508Y1534D01*
X1508Y1532D01*
X1512Y1532D01*
X1512Y1530D01*
X1514Y1530D01*
X1514Y1528D01*
X1516Y1528D01*
X1516Y1526D01*
X1518Y1526D01*
X1518Y1524D01*
X1520Y1524D01*
X1520Y1522D01*
X1522Y1522D01*
X1522Y1520D01*
X1524Y1520D01*
X1524Y1518D01*
X1526Y1518D01*
X1526Y1514D01*
X1528Y1514D01*
X1528Y1512D01*
X1530Y1512D01*
X1530Y1506D01*
X1532Y1506D01*
X1532Y1500D01*
X1534Y1500D01*
X1534Y1484D01*
X1532Y1484D01*
X1532Y1478D01*
X1530Y1478D01*
X1530Y1474D01*
X1528Y1474D01*
X1528Y1470D01*
X1526Y1470D01*
X1526Y1466D01*
X1524Y1466D01*
X1524Y1464D01*
X1522Y1464D01*
X1522Y1462D01*
X1520Y1462D01*
X1520Y1460D01*
X1518Y1460D01*
X1518Y1458D01*
X1516Y1458D01*
X1516Y1456D01*
X1514Y1456D01*
X1514Y1454D01*
X1512Y1454D01*
X1512Y1452D01*
X1510Y1452D01*
X1510Y1400D01*
X1512Y1400D01*
X1512Y1398D01*
X1514Y1398D01*
X1514Y1396D01*
X1516Y1396D01*
X1516Y1394D01*
X1518Y1394D01*
X1518Y1392D01*
X1520Y1392D01*
X1520Y1390D01*
X1522Y1390D01*
X1522Y1388D01*
X1524Y1388D01*
X1524Y1386D01*
X1526Y1386D01*
X1526Y1384D01*
X1528Y1384D01*
X1528Y1382D01*
X1530Y1382D01*
X1530Y1380D01*
X1532Y1380D01*
X1532Y1378D01*
X1534Y1378D01*
X1534Y1376D01*
X1536Y1376D01*
X1536Y1374D01*
X1538Y1374D01*
X1538Y1372D01*
X1540Y1372D01*
X1540Y1370D01*
X1542Y1370D01*
X1542Y1368D01*
X1544Y1368D01*
X1544Y1366D01*
X1546Y1366D01*
X1546Y1364D01*
X1548Y1364D01*
X1548Y1362D01*
X1550Y1362D01*
X1550Y1360D01*
X1552Y1360D01*
X1552Y1358D01*
X1554Y1358D01*
X1554Y1356D01*
X1556Y1356D01*
X1556Y1354D01*
X1558Y1354D01*
X1558Y1352D01*
X1560Y1352D01*
X1560Y1350D01*
X1562Y1350D01*
X1562Y1348D01*
X1564Y1348D01*
X1564Y1346D01*
X1566Y1346D01*
X1566Y1344D01*
X1568Y1344D01*
X1568Y1342D01*
X1680Y1342D01*
X1680Y1344D01*
X1672Y1344D01*
X1672Y1346D01*
X1668Y1346D01*
X1668Y1348D01*
X1664Y1348D01*
X1664Y1350D01*
X1660Y1350D01*
X1660Y1352D01*
X1658Y1352D01*
X1658Y1354D01*
X1656Y1354D01*
X1656Y1356D01*
X1654Y1356D01*
X1654Y1358D01*
X1652Y1358D01*
X1652Y1360D01*
X1650Y1360D01*
X1650Y1362D01*
X1648Y1362D01*
X1648Y1364D01*
X1646Y1364D01*
X1646Y1368D01*
X1644Y1368D01*
X1644Y1370D01*
X1642Y1370D01*
X1642Y1374D01*
X1640Y1374D01*
X1640Y1380D01*
X1638Y1380D01*
X1638Y1388D01*
X1636Y1388D01*
X1636Y1396D01*
X1638Y1396D01*
X1638Y1406D01*
X1640Y1406D01*
X1640Y1410D01*
X1642Y1410D01*
X1642Y1414D01*
X1644Y1414D01*
X1644Y1418D01*
X1646Y1418D01*
X1646Y1420D01*
X1648Y1420D01*
X1648Y1422D01*
X1650Y1422D01*
X1650Y1424D01*
X1652Y1424D01*
X1652Y1426D01*
X1654Y1426D01*
X1654Y1428D01*
X1656Y1428D01*
X1656Y1430D01*
X1658Y1430D01*
X1658Y1432D01*
X1660Y1432D01*
X1660Y1452D01*
X1658Y1452D01*
X1658Y1454D01*
X1656Y1454D01*
X1656Y1456D01*
X1654Y1456D01*
X1654Y1458D01*
X1652Y1458D01*
X1652Y1460D01*
X1650Y1460D01*
X1650Y1462D01*
X1648Y1462D01*
X1648Y1464D01*
X1646Y1464D01*
X1646Y1468D01*
X1644Y1468D01*
X1644Y1470D01*
X1642Y1470D01*
X1642Y1474D01*
X1640Y1474D01*
X1640Y1480D01*
X1638Y1480D01*
X1638Y1488D01*
X1636Y1488D01*
X1636Y1496D01*
X1638Y1496D01*
X1638Y1506D01*
X1640Y1506D01*
X1640Y1510D01*
X1642Y1510D01*
X1642Y1514D01*
X1644Y1514D01*
X1644Y1518D01*
X1646Y1518D01*
X1646Y1520D01*
X1648Y1520D01*
X1648Y1522D01*
X1650Y1522D01*
X1650Y1524D01*
X1652Y1524D01*
X1652Y1526D01*
X1654Y1526D01*
X1654Y1528D01*
X1656Y1528D01*
X1656Y1530D01*
X1658Y1530D01*
X1658Y1532D01*
X1660Y1532D01*
X1660Y1552D01*
X1658Y1552D01*
X1658Y1554D01*
X1656Y1554D01*
X1656Y1556D01*
X1654Y1556D01*
X1654Y1558D01*
X1652Y1558D01*
X1652Y1560D01*
X1650Y1560D01*
X1650Y1562D01*
X1648Y1562D01*
X1648Y1564D01*
X1646Y1564D01*
X1646Y1568D01*
X1644Y1568D01*
X1644Y1570D01*
X1642Y1570D01*
X1642Y1574D01*
X1640Y1574D01*
X1640Y1580D01*
X1638Y1580D01*
X1638Y1588D01*
X1636Y1588D01*
X1636Y1596D01*
X1638Y1596D01*
X1638Y1606D01*
X1640Y1606D01*
X1640Y1610D01*
X1642Y1610D01*
X1642Y1614D01*
X1644Y1614D01*
X1644Y1618D01*
X1646Y1618D01*
X1646Y1620D01*
X1648Y1620D01*
X1648Y1622D01*
X1650Y1622D01*
X1650Y1624D01*
X1652Y1624D01*
X1652Y1626D01*
X1654Y1626D01*
X1654Y1628D01*
X1656Y1628D01*
X1656Y1630D01*
X1658Y1630D01*
X1658Y1632D01*
X1660Y1632D01*
X1660Y1652D01*
X1658Y1652D01*
X1658Y1654D01*
X1656Y1654D01*
X1656Y1656D01*
X1654Y1656D01*
X1654Y1658D01*
X1652Y1658D01*
X1652Y1660D01*
X1650Y1660D01*
X1650Y1662D01*
X1648Y1662D01*
X1648Y1664D01*
X1646Y1664D01*
X1646Y1668D01*
X1644Y1668D01*
X1644Y1670D01*
X1642Y1670D01*
X1642Y1674D01*
X1640Y1674D01*
X1640Y1680D01*
X1638Y1680D01*
X1638Y1688D01*
X1636Y1688D01*
X1636Y1696D01*
X1638Y1696D01*
X1638Y1706D01*
X1640Y1706D01*
X1640Y1710D01*
X1642Y1710D01*
X1642Y1714D01*
X1644Y1714D01*
X1644Y1718D01*
X1646Y1718D01*
X1646Y1720D01*
X1648Y1720D01*
X1648Y1722D01*
X1650Y1722D01*
X1650Y1724D01*
X1652Y1724D01*
X1652Y1726D01*
X1654Y1726D01*
X1654Y1728D01*
X1656Y1728D01*
X1656Y1730D01*
X1658Y1730D01*
X1658Y1732D01*
X1660Y1732D01*
X1660Y1734D01*
X1664Y1734D01*
X1664Y1842D01*
X1212Y1842D01*
G37*
D02*
G36*
X1212Y1540D02*
X1212Y1532D01*
X1214Y1532D01*
X1214Y1530D01*
X1216Y1530D01*
X1216Y1528D01*
X1218Y1528D01*
X1218Y1526D01*
X1220Y1526D01*
X1220Y1524D01*
X1222Y1524D01*
X1222Y1522D01*
X1224Y1522D01*
X1224Y1520D01*
X1226Y1520D01*
X1226Y1518D01*
X1228Y1518D01*
X1228Y1514D01*
X1230Y1514D01*
X1230Y1510D01*
X1232Y1510D01*
X1232Y1506D01*
X1234Y1506D01*
X1234Y1498D01*
X1236Y1498D01*
X1236Y1486D01*
X1234Y1486D01*
X1234Y1478D01*
X1232Y1478D01*
X1232Y1474D01*
X1230Y1474D01*
X1230Y1470D01*
X1228Y1470D01*
X1228Y1466D01*
X1226Y1466D01*
X1226Y1464D01*
X1224Y1464D01*
X1224Y1462D01*
X1222Y1462D01*
X1222Y1460D01*
X1220Y1460D01*
X1220Y1458D01*
X1218Y1458D01*
X1218Y1456D01*
X1216Y1456D01*
X1216Y1454D01*
X1214Y1454D01*
X1214Y1452D01*
X1212Y1452D01*
X1212Y1432D01*
X1214Y1432D01*
X1214Y1430D01*
X1216Y1430D01*
X1216Y1428D01*
X1218Y1428D01*
X1218Y1426D01*
X1220Y1426D01*
X1220Y1424D01*
X1222Y1424D01*
X1222Y1422D01*
X1224Y1422D01*
X1224Y1420D01*
X1226Y1420D01*
X1226Y1418D01*
X1228Y1418D01*
X1228Y1414D01*
X1230Y1414D01*
X1230Y1410D01*
X1232Y1410D01*
X1232Y1406D01*
X1234Y1406D01*
X1234Y1398D01*
X1236Y1398D01*
X1236Y1386D01*
X1234Y1386D01*
X1234Y1378D01*
X1232Y1378D01*
X1232Y1374D01*
X1230Y1374D01*
X1230Y1370D01*
X1228Y1370D01*
X1228Y1366D01*
X1226Y1366D01*
X1226Y1364D01*
X1224Y1364D01*
X1224Y1362D01*
X1222Y1362D01*
X1222Y1360D01*
X1220Y1360D01*
X1220Y1358D01*
X1218Y1358D01*
X1218Y1356D01*
X1216Y1356D01*
X1216Y1354D01*
X1214Y1354D01*
X1214Y1352D01*
X1212Y1352D01*
X1212Y1332D01*
X1214Y1332D01*
X1214Y1330D01*
X1216Y1330D01*
X1216Y1328D01*
X1218Y1328D01*
X1218Y1326D01*
X1220Y1326D01*
X1220Y1324D01*
X1222Y1324D01*
X1222Y1322D01*
X1224Y1322D01*
X1224Y1320D01*
X1226Y1320D01*
X1226Y1318D01*
X1228Y1318D01*
X1228Y1314D01*
X1230Y1314D01*
X1230Y1310D01*
X1232Y1310D01*
X1232Y1306D01*
X1234Y1306D01*
X1234Y1298D01*
X1236Y1298D01*
X1236Y1286D01*
X1234Y1286D01*
X1234Y1278D01*
X1232Y1278D01*
X1232Y1274D01*
X1230Y1274D01*
X1230Y1270D01*
X1228Y1270D01*
X1228Y1266D01*
X1226Y1266D01*
X1226Y1264D01*
X1224Y1264D01*
X1224Y1262D01*
X1222Y1262D01*
X1222Y1260D01*
X1220Y1260D01*
X1220Y1258D01*
X1218Y1258D01*
X1218Y1256D01*
X1216Y1256D01*
X1216Y1254D01*
X1214Y1254D01*
X1214Y1252D01*
X1212Y1252D01*
X1212Y1232D01*
X1214Y1232D01*
X1214Y1230D01*
X1216Y1230D01*
X1216Y1228D01*
X1218Y1228D01*
X1218Y1226D01*
X1220Y1226D01*
X1220Y1224D01*
X1222Y1224D01*
X1222Y1222D01*
X1224Y1222D01*
X1224Y1220D01*
X1226Y1220D01*
X1226Y1218D01*
X1228Y1218D01*
X1228Y1214D01*
X1230Y1214D01*
X1230Y1210D01*
X1232Y1210D01*
X1232Y1206D01*
X1234Y1206D01*
X1234Y1198D01*
X1236Y1198D01*
X1236Y1186D01*
X1234Y1186D01*
X1234Y1178D01*
X1232Y1178D01*
X1232Y1174D01*
X1230Y1174D01*
X1230Y1170D01*
X1228Y1170D01*
X1228Y1166D01*
X1226Y1166D01*
X1226Y1164D01*
X1224Y1164D01*
X1224Y1162D01*
X1222Y1162D01*
X1222Y1160D01*
X1220Y1160D01*
X1220Y1158D01*
X1218Y1158D01*
X1218Y1156D01*
X1216Y1156D01*
X1216Y1154D01*
X1214Y1154D01*
X1214Y1152D01*
X1212Y1152D01*
X1212Y1144D01*
X1382Y1144D01*
X1382Y1146D01*
X1374Y1146D01*
X1374Y1148D01*
X1368Y1148D01*
X1368Y1150D01*
X1366Y1150D01*
X1366Y1152D01*
X1362Y1152D01*
X1362Y1154D01*
X1360Y1154D01*
X1360Y1156D01*
X1356Y1156D01*
X1356Y1158D01*
X1354Y1158D01*
X1354Y1160D01*
X1352Y1160D01*
X1352Y1162D01*
X1350Y1162D01*
X1350Y1166D01*
X1348Y1166D01*
X1348Y1168D01*
X1346Y1168D01*
X1346Y1172D01*
X1344Y1172D01*
X1344Y1176D01*
X1342Y1176D01*
X1342Y1180D01*
X1340Y1180D01*
X1340Y1204D01*
X1342Y1204D01*
X1342Y1210D01*
X1344Y1210D01*
X1344Y1214D01*
X1346Y1214D01*
X1346Y1216D01*
X1348Y1216D01*
X1348Y1220D01*
X1350Y1220D01*
X1350Y1222D01*
X1352Y1222D01*
X1352Y1224D01*
X1354Y1224D01*
X1354Y1226D01*
X1356Y1226D01*
X1356Y1228D01*
X1358Y1228D01*
X1358Y1230D01*
X1362Y1230D01*
X1362Y1232D01*
X1364Y1232D01*
X1364Y1452D01*
X1362Y1452D01*
X1362Y1454D01*
X1360Y1454D01*
X1360Y1456D01*
X1356Y1456D01*
X1356Y1458D01*
X1354Y1458D01*
X1354Y1460D01*
X1352Y1460D01*
X1352Y1462D01*
X1350Y1462D01*
X1350Y1466D01*
X1348Y1466D01*
X1348Y1468D01*
X1346Y1468D01*
X1346Y1472D01*
X1344Y1472D01*
X1344Y1476D01*
X1342Y1476D01*
X1342Y1480D01*
X1340Y1480D01*
X1340Y1504D01*
X1342Y1504D01*
X1342Y1510D01*
X1344Y1510D01*
X1344Y1514D01*
X1346Y1514D01*
X1346Y1516D01*
X1348Y1516D01*
X1348Y1520D01*
X1350Y1520D01*
X1350Y1522D01*
X1352Y1522D01*
X1352Y1524D01*
X1354Y1524D01*
X1354Y1526D01*
X1356Y1526D01*
X1356Y1528D01*
X1358Y1528D01*
X1358Y1530D01*
X1362Y1530D01*
X1362Y1532D01*
X1364Y1532D01*
X1364Y1534D01*
X1368Y1534D01*
X1368Y1536D01*
X1372Y1536D01*
X1372Y1538D01*
X1380Y1538D01*
X1380Y1540D01*
X1212Y1540D01*
G37*
D02*
G36*
X1394Y1540D02*
X1394Y1538D01*
X1400Y1538D01*
X1400Y1536D01*
X1404Y1536D01*
X1404Y1534D01*
X1408Y1534D01*
X1408Y1532D01*
X1412Y1532D01*
X1412Y1530D01*
X1414Y1530D01*
X1414Y1528D01*
X1416Y1528D01*
X1416Y1526D01*
X1418Y1526D01*
X1418Y1524D01*
X1420Y1524D01*
X1420Y1522D01*
X1422Y1522D01*
X1422Y1520D01*
X1424Y1520D01*
X1424Y1518D01*
X1426Y1518D01*
X1426Y1514D01*
X1446Y1514D01*
X1446Y1516D01*
X1448Y1516D01*
X1448Y1520D01*
X1450Y1520D01*
X1450Y1522D01*
X1452Y1522D01*
X1452Y1524D01*
X1454Y1524D01*
X1454Y1526D01*
X1456Y1526D01*
X1456Y1528D01*
X1458Y1528D01*
X1458Y1530D01*
X1462Y1530D01*
X1462Y1532D01*
X1464Y1532D01*
X1464Y1534D01*
X1468Y1534D01*
X1468Y1536D01*
X1472Y1536D01*
X1472Y1538D01*
X1480Y1538D01*
X1480Y1540D01*
X1394Y1540D01*
G37*
D02*
G36*
X1570Y1342D02*
X1570Y1340D01*
X2140Y1340D01*
X2140Y1342D01*
X1570Y1342D01*
G37*
D02*
G36*
X1570Y1342D02*
X1570Y1340D01*
X2140Y1340D01*
X2140Y1342D01*
X1570Y1342D01*
G37*
D02*
G36*
X1572Y1340D02*
X1572Y1338D01*
X1574Y1338D01*
X1574Y1336D01*
X1576Y1336D01*
X1576Y1334D01*
X1578Y1334D01*
X1578Y1332D01*
X1580Y1332D01*
X1580Y1330D01*
X1582Y1330D01*
X1582Y1328D01*
X1584Y1328D01*
X1584Y1326D01*
X1586Y1326D01*
X1586Y1324D01*
X1588Y1324D01*
X1588Y1322D01*
X1590Y1322D01*
X1590Y1320D01*
X1592Y1320D01*
X1592Y1318D01*
X1594Y1318D01*
X1594Y1316D01*
X1596Y1316D01*
X1596Y1314D01*
X1598Y1314D01*
X1598Y1312D01*
X1600Y1312D01*
X1600Y1310D01*
X1602Y1310D01*
X1602Y1308D01*
X1604Y1308D01*
X1604Y1306D01*
X1606Y1306D01*
X1606Y1302D01*
X1608Y1302D01*
X1608Y1296D01*
X1610Y1296D01*
X1610Y1260D01*
X1608Y1260D01*
X1608Y1240D01*
X1734Y1240D01*
X1734Y1144D01*
X2140Y1144D01*
X2140Y1340D01*
X1572Y1340D01*
G37*
D02*
G36*
X1608Y1240D02*
X1608Y1232D01*
X1612Y1232D01*
X1612Y1230D01*
X1614Y1230D01*
X1614Y1228D01*
X1616Y1228D01*
X1616Y1226D01*
X1618Y1226D01*
X1618Y1224D01*
X1620Y1224D01*
X1620Y1222D01*
X1640Y1222D01*
X1640Y1240D01*
X1608Y1240D01*
G37*
D02*
G36*
X1426Y1170D02*
X1426Y1166D01*
X1424Y1166D01*
X1424Y1164D01*
X1422Y1164D01*
X1422Y1162D01*
X1420Y1162D01*
X1420Y1160D01*
X1418Y1160D01*
X1418Y1158D01*
X1416Y1158D01*
X1416Y1156D01*
X1414Y1156D01*
X1414Y1154D01*
X1412Y1154D01*
X1412Y1152D01*
X1408Y1152D01*
X1408Y1150D01*
X1404Y1150D01*
X1404Y1148D01*
X1400Y1148D01*
X1400Y1146D01*
X1392Y1146D01*
X1392Y1144D01*
X1482Y1144D01*
X1482Y1146D01*
X1474Y1146D01*
X1474Y1148D01*
X1468Y1148D01*
X1468Y1150D01*
X1466Y1150D01*
X1466Y1152D01*
X1462Y1152D01*
X1462Y1154D01*
X1460Y1154D01*
X1460Y1156D01*
X1456Y1156D01*
X1456Y1158D01*
X1454Y1158D01*
X1454Y1160D01*
X1452Y1160D01*
X1452Y1162D01*
X1450Y1162D01*
X1450Y1166D01*
X1448Y1166D01*
X1448Y1168D01*
X1446Y1168D01*
X1446Y1170D01*
X1426Y1170D01*
G37*
D02*
G36*
X1526Y1170D02*
X1526Y1166D01*
X1524Y1166D01*
X1524Y1164D01*
X1522Y1164D01*
X1522Y1162D01*
X1520Y1162D01*
X1520Y1160D01*
X1518Y1160D01*
X1518Y1158D01*
X1516Y1158D01*
X1516Y1156D01*
X1514Y1156D01*
X1514Y1154D01*
X1512Y1154D01*
X1512Y1152D01*
X1508Y1152D01*
X1508Y1150D01*
X1504Y1150D01*
X1504Y1148D01*
X1500Y1148D01*
X1500Y1146D01*
X1492Y1146D01*
X1492Y1144D01*
X1582Y1144D01*
X1582Y1146D01*
X1574Y1146D01*
X1574Y1148D01*
X1568Y1148D01*
X1568Y1150D01*
X1566Y1150D01*
X1566Y1152D01*
X1562Y1152D01*
X1562Y1154D01*
X1560Y1154D01*
X1560Y1156D01*
X1556Y1156D01*
X1556Y1158D01*
X1554Y1158D01*
X1554Y1160D01*
X1552Y1160D01*
X1552Y1162D01*
X1550Y1162D01*
X1550Y1166D01*
X1548Y1166D01*
X1548Y1168D01*
X1546Y1168D01*
X1546Y1170D01*
X1526Y1170D01*
G37*
D02*
G36*
X1620Y1162D02*
X1620Y1160D01*
X1618Y1160D01*
X1618Y1158D01*
X1616Y1158D01*
X1616Y1156D01*
X1614Y1156D01*
X1614Y1154D01*
X1612Y1154D01*
X1612Y1152D01*
X1608Y1152D01*
X1608Y1150D01*
X1604Y1150D01*
X1604Y1148D01*
X1600Y1148D01*
X1600Y1146D01*
X1592Y1146D01*
X1592Y1144D01*
X1640Y1144D01*
X1640Y1162D01*
X1620Y1162D01*
G37*
D02*
G36*
X1212Y1144D02*
X1212Y1142D01*
X2140Y1142D01*
X2140Y1144D01*
X1212Y1144D01*
G37*
D02*
G36*
X1212Y1144D02*
X1212Y1142D01*
X2140Y1142D01*
X2140Y1144D01*
X1212Y1144D01*
G37*
D02*
G36*
X1212Y1144D02*
X1212Y1142D01*
X2140Y1142D01*
X2140Y1144D01*
X1212Y1144D01*
G37*
D02*
G36*
X1212Y1144D02*
X1212Y1142D01*
X2140Y1142D01*
X2140Y1144D01*
X1212Y1144D01*
G37*
D02*
G36*
X1212Y1144D02*
X1212Y1142D01*
X2140Y1142D01*
X2140Y1144D01*
X1212Y1144D01*
G37*
D02*
G36*
X1212Y1142D02*
X1212Y1132D01*
X1214Y1132D01*
X1214Y1130D01*
X1216Y1130D01*
X1216Y1128D01*
X1218Y1128D01*
X1218Y1126D01*
X1220Y1126D01*
X1220Y1124D01*
X1222Y1124D01*
X1222Y1122D01*
X1224Y1122D01*
X1224Y1120D01*
X1226Y1120D01*
X1226Y1118D01*
X1228Y1118D01*
X1228Y1114D01*
X1230Y1114D01*
X1230Y1110D01*
X1232Y1110D01*
X1232Y1106D01*
X1234Y1106D01*
X1234Y1098D01*
X1236Y1098D01*
X1236Y1086D01*
X1234Y1086D01*
X1234Y1078D01*
X1232Y1078D01*
X1232Y1074D01*
X1230Y1074D01*
X1230Y1070D01*
X1228Y1070D01*
X1228Y1066D01*
X1226Y1066D01*
X1226Y1064D01*
X1224Y1064D01*
X1224Y1062D01*
X1222Y1062D01*
X1222Y1060D01*
X1220Y1060D01*
X1220Y1058D01*
X1218Y1058D01*
X1218Y1056D01*
X1216Y1056D01*
X1216Y1054D01*
X1214Y1054D01*
X1214Y1052D01*
X1212Y1052D01*
X1212Y1032D01*
X1214Y1032D01*
X1214Y1030D01*
X1216Y1030D01*
X1216Y1028D01*
X1218Y1028D01*
X1218Y1026D01*
X1220Y1026D01*
X1220Y1024D01*
X1222Y1024D01*
X1222Y1022D01*
X1224Y1022D01*
X1224Y1020D01*
X1226Y1020D01*
X1226Y1018D01*
X1228Y1018D01*
X1228Y1014D01*
X1230Y1014D01*
X1230Y1010D01*
X1232Y1010D01*
X1232Y1006D01*
X1234Y1006D01*
X1234Y998D01*
X1236Y998D01*
X1236Y986D01*
X1234Y986D01*
X1234Y978D01*
X1232Y978D01*
X1232Y974D01*
X1230Y974D01*
X1230Y970D01*
X1228Y970D01*
X1228Y966D01*
X1226Y966D01*
X1226Y964D01*
X1224Y964D01*
X1224Y962D01*
X1222Y962D01*
X1222Y960D01*
X1220Y960D01*
X1220Y958D01*
X1218Y958D01*
X1218Y956D01*
X1216Y956D01*
X1216Y954D01*
X1214Y954D01*
X1214Y952D01*
X1212Y952D01*
X1212Y940D01*
X1694Y940D01*
X1694Y938D01*
X1700Y938D01*
X1700Y936D01*
X1704Y936D01*
X1704Y934D01*
X1708Y934D01*
X1708Y932D01*
X1712Y932D01*
X1712Y930D01*
X1714Y930D01*
X1714Y928D01*
X1716Y928D01*
X1716Y926D01*
X1718Y926D01*
X1718Y924D01*
X1720Y924D01*
X1720Y922D01*
X1722Y922D01*
X1722Y920D01*
X1724Y920D01*
X1724Y918D01*
X1726Y918D01*
X1726Y914D01*
X1728Y914D01*
X1728Y912D01*
X1730Y912D01*
X1730Y906D01*
X1732Y906D01*
X1732Y900D01*
X1734Y900D01*
X1734Y884D01*
X1732Y884D01*
X1732Y878D01*
X1730Y878D01*
X1730Y874D01*
X1728Y874D01*
X1728Y870D01*
X1726Y870D01*
X1726Y866D01*
X1724Y866D01*
X1724Y864D01*
X1722Y864D01*
X1722Y862D01*
X1720Y862D01*
X1720Y860D01*
X1718Y860D01*
X1718Y858D01*
X1716Y858D01*
X1716Y856D01*
X1714Y856D01*
X1714Y854D01*
X1712Y854D01*
X1712Y852D01*
X1708Y852D01*
X1708Y850D01*
X1704Y850D01*
X1704Y848D01*
X1700Y848D01*
X1700Y846D01*
X1692Y846D01*
X1692Y844D01*
X2140Y844D01*
X2140Y1142D01*
X1212Y1142D01*
G37*
D02*
G36*
X1212Y940D02*
X1212Y932D01*
X1214Y932D01*
X1214Y930D01*
X1216Y930D01*
X1216Y928D01*
X1218Y928D01*
X1218Y926D01*
X1220Y926D01*
X1220Y924D01*
X1222Y924D01*
X1222Y922D01*
X1224Y922D01*
X1224Y920D01*
X1226Y920D01*
X1226Y918D01*
X1228Y918D01*
X1228Y914D01*
X1230Y914D01*
X1230Y910D01*
X1232Y910D01*
X1232Y906D01*
X1234Y906D01*
X1234Y898D01*
X1236Y898D01*
X1236Y886D01*
X1234Y886D01*
X1234Y878D01*
X1232Y878D01*
X1232Y874D01*
X1230Y874D01*
X1230Y870D01*
X1228Y870D01*
X1228Y866D01*
X1226Y866D01*
X1226Y864D01*
X1224Y864D01*
X1224Y862D01*
X1222Y862D01*
X1222Y860D01*
X1220Y860D01*
X1220Y858D01*
X1218Y858D01*
X1218Y856D01*
X1216Y856D01*
X1216Y854D01*
X1214Y854D01*
X1214Y852D01*
X1212Y852D01*
X1212Y832D01*
X1214Y832D01*
X1214Y830D01*
X1216Y830D01*
X1216Y828D01*
X1218Y828D01*
X1218Y826D01*
X1220Y826D01*
X1220Y824D01*
X1222Y824D01*
X1222Y822D01*
X1224Y822D01*
X1224Y820D01*
X1226Y820D01*
X1226Y818D01*
X1228Y818D01*
X1228Y814D01*
X1230Y814D01*
X1230Y810D01*
X1232Y810D01*
X1232Y806D01*
X1234Y806D01*
X1234Y798D01*
X1236Y798D01*
X1236Y786D01*
X1234Y786D01*
X1234Y778D01*
X1232Y778D01*
X1232Y774D01*
X1230Y774D01*
X1230Y770D01*
X1228Y770D01*
X1228Y766D01*
X1226Y766D01*
X1226Y764D01*
X1224Y764D01*
X1224Y762D01*
X1222Y762D01*
X1222Y760D01*
X1220Y760D01*
X1220Y758D01*
X1218Y758D01*
X1218Y756D01*
X1216Y756D01*
X1216Y754D01*
X1214Y754D01*
X1214Y752D01*
X1210Y752D01*
X1210Y750D01*
X1208Y750D01*
X1208Y748D01*
X1204Y748D01*
X1204Y746D01*
X1198Y746D01*
X1198Y744D01*
X1364Y744D01*
X1364Y848D01*
X1362Y848D01*
X1362Y850D01*
X1360Y850D01*
X1360Y852D01*
X1358Y852D01*
X1358Y856D01*
X1356Y856D01*
X1356Y858D01*
X1354Y858D01*
X1354Y860D01*
X1352Y860D01*
X1352Y862D01*
X1350Y862D01*
X1350Y866D01*
X1348Y866D01*
X1348Y868D01*
X1346Y868D01*
X1346Y872D01*
X1344Y872D01*
X1344Y876D01*
X1342Y876D01*
X1342Y880D01*
X1340Y880D01*
X1340Y904D01*
X1342Y904D01*
X1342Y910D01*
X1344Y910D01*
X1344Y914D01*
X1346Y914D01*
X1346Y916D01*
X1348Y916D01*
X1348Y920D01*
X1350Y920D01*
X1350Y922D01*
X1352Y922D01*
X1352Y924D01*
X1354Y924D01*
X1354Y926D01*
X1356Y926D01*
X1356Y928D01*
X1358Y928D01*
X1358Y930D01*
X1362Y930D01*
X1362Y932D01*
X1364Y932D01*
X1364Y934D01*
X1368Y934D01*
X1368Y936D01*
X1372Y936D01*
X1372Y938D01*
X1380Y938D01*
X1380Y940D01*
X1212Y940D01*
G37*
D02*
G36*
X1394Y940D02*
X1394Y938D01*
X1400Y938D01*
X1400Y936D01*
X1404Y936D01*
X1404Y934D01*
X1408Y934D01*
X1408Y932D01*
X1412Y932D01*
X1412Y930D01*
X1414Y930D01*
X1414Y928D01*
X1416Y928D01*
X1416Y926D01*
X1418Y926D01*
X1418Y924D01*
X1420Y924D01*
X1420Y922D01*
X1422Y922D01*
X1422Y920D01*
X1424Y920D01*
X1424Y918D01*
X1426Y918D01*
X1426Y914D01*
X1446Y914D01*
X1446Y916D01*
X1448Y916D01*
X1448Y920D01*
X1450Y920D01*
X1450Y922D01*
X1452Y922D01*
X1452Y924D01*
X1454Y924D01*
X1454Y926D01*
X1456Y926D01*
X1456Y928D01*
X1458Y928D01*
X1458Y930D01*
X1462Y930D01*
X1462Y932D01*
X1464Y932D01*
X1464Y934D01*
X1468Y934D01*
X1468Y936D01*
X1472Y936D01*
X1472Y938D01*
X1480Y938D01*
X1480Y940D01*
X1394Y940D01*
G37*
D02*
G36*
X1494Y940D02*
X1494Y938D01*
X1500Y938D01*
X1500Y936D01*
X1504Y936D01*
X1504Y934D01*
X1508Y934D01*
X1508Y932D01*
X1512Y932D01*
X1512Y930D01*
X1514Y930D01*
X1514Y928D01*
X1516Y928D01*
X1516Y926D01*
X1518Y926D01*
X1518Y924D01*
X1520Y924D01*
X1520Y922D01*
X1522Y922D01*
X1522Y920D01*
X1524Y920D01*
X1524Y918D01*
X1526Y918D01*
X1526Y914D01*
X1546Y914D01*
X1546Y916D01*
X1548Y916D01*
X1548Y920D01*
X1550Y920D01*
X1550Y922D01*
X1552Y922D01*
X1552Y924D01*
X1554Y924D01*
X1554Y926D01*
X1556Y926D01*
X1556Y928D01*
X1558Y928D01*
X1558Y930D01*
X1562Y930D01*
X1562Y932D01*
X1564Y932D01*
X1564Y934D01*
X1568Y934D01*
X1568Y936D01*
X1572Y936D01*
X1572Y938D01*
X1580Y938D01*
X1580Y940D01*
X1494Y940D01*
G37*
D02*
G36*
X1594Y940D02*
X1594Y938D01*
X1600Y938D01*
X1600Y936D01*
X1604Y936D01*
X1604Y934D01*
X1608Y934D01*
X1608Y932D01*
X1612Y932D01*
X1612Y930D01*
X1614Y930D01*
X1614Y928D01*
X1616Y928D01*
X1616Y926D01*
X1618Y926D01*
X1618Y924D01*
X1620Y924D01*
X1620Y922D01*
X1622Y922D01*
X1622Y920D01*
X1624Y920D01*
X1624Y918D01*
X1626Y918D01*
X1626Y914D01*
X1646Y914D01*
X1646Y916D01*
X1648Y916D01*
X1648Y920D01*
X1650Y920D01*
X1650Y922D01*
X1652Y922D01*
X1652Y924D01*
X1654Y924D01*
X1654Y926D01*
X1656Y926D01*
X1656Y928D01*
X1658Y928D01*
X1658Y930D01*
X1662Y930D01*
X1662Y932D01*
X1664Y932D01*
X1664Y934D01*
X1668Y934D01*
X1668Y936D01*
X1672Y936D01*
X1672Y938D01*
X1680Y938D01*
X1680Y940D01*
X1594Y940D01*
G37*
D02*
G36*
X1626Y870D02*
X1626Y866D01*
X1624Y866D01*
X1624Y864D01*
X1622Y864D01*
X1622Y862D01*
X1620Y862D01*
X1620Y860D01*
X1618Y860D01*
X1618Y858D01*
X1616Y858D01*
X1616Y856D01*
X1614Y856D01*
X1614Y854D01*
X1612Y854D01*
X1612Y852D01*
X1608Y852D01*
X1608Y844D01*
X1682Y844D01*
X1682Y846D01*
X1674Y846D01*
X1674Y848D01*
X1668Y848D01*
X1668Y850D01*
X1666Y850D01*
X1666Y852D01*
X1662Y852D01*
X1662Y854D01*
X1660Y854D01*
X1660Y856D01*
X1656Y856D01*
X1656Y858D01*
X1654Y858D01*
X1654Y860D01*
X1652Y860D01*
X1652Y862D01*
X1650Y862D01*
X1650Y866D01*
X1648Y866D01*
X1648Y868D01*
X1646Y868D01*
X1646Y870D01*
X1626Y870D01*
G37*
D02*
G36*
X1608Y844D02*
X1608Y842D01*
X2140Y842D01*
X2140Y844D01*
X1608Y844D01*
G37*
D02*
G36*
X1608Y844D02*
X1608Y842D01*
X2140Y842D01*
X2140Y844D01*
X1608Y844D01*
G37*
D02*
G36*
X1608Y842D02*
X1608Y828D01*
X1610Y828D01*
X1610Y790D01*
X1608Y790D01*
X1608Y784D01*
X1606Y784D01*
X1606Y780D01*
X1604Y780D01*
X1604Y778D01*
X1602Y778D01*
X1602Y776D01*
X1600Y776D01*
X1600Y774D01*
X1598Y774D01*
X1598Y772D01*
X1596Y772D01*
X1596Y770D01*
X1594Y770D01*
X1594Y768D01*
X1592Y768D01*
X1592Y766D01*
X1590Y766D01*
X1590Y764D01*
X1588Y764D01*
X1588Y762D01*
X1586Y762D01*
X1586Y760D01*
X1584Y760D01*
X1584Y758D01*
X1582Y758D01*
X1582Y756D01*
X1580Y756D01*
X1580Y754D01*
X1578Y754D01*
X1578Y752D01*
X1576Y752D01*
X1576Y748D01*
X1574Y748D01*
X1574Y746D01*
X1572Y746D01*
X1572Y744D01*
X1570Y744D01*
X1570Y742D01*
X1568Y742D01*
X1568Y740D01*
X1566Y740D01*
X1566Y738D01*
X1564Y738D01*
X1564Y736D01*
X1562Y736D01*
X1562Y734D01*
X1560Y734D01*
X1560Y732D01*
X1558Y732D01*
X1558Y730D01*
X1556Y730D01*
X1556Y728D01*
X1554Y728D01*
X1554Y726D01*
X1552Y726D01*
X1552Y724D01*
X1550Y724D01*
X1550Y722D01*
X1548Y722D01*
X1548Y720D01*
X1546Y720D01*
X1546Y718D01*
X1544Y718D01*
X1544Y716D01*
X1542Y716D01*
X1542Y714D01*
X1540Y714D01*
X1540Y712D01*
X1538Y712D01*
X1538Y710D01*
X1536Y710D01*
X1536Y708D01*
X1534Y708D01*
X1534Y706D01*
X1532Y706D01*
X1532Y704D01*
X1530Y704D01*
X1530Y702D01*
X1528Y702D01*
X1528Y700D01*
X1526Y700D01*
X1526Y698D01*
X1524Y698D01*
X1524Y696D01*
X1522Y696D01*
X1522Y694D01*
X1520Y694D01*
X1520Y692D01*
X1518Y692D01*
X1518Y690D01*
X1516Y690D01*
X1516Y688D01*
X1514Y688D01*
X1514Y686D01*
X1512Y686D01*
X1512Y684D01*
X1510Y684D01*
X1510Y682D01*
X1508Y682D01*
X1508Y680D01*
X1506Y680D01*
X1506Y678D01*
X1504Y678D01*
X1504Y676D01*
X1502Y676D01*
X1502Y674D01*
X1500Y674D01*
X1500Y672D01*
X1496Y672D01*
X1496Y670D01*
X1490Y670D01*
X1490Y668D01*
X2140Y668D01*
X2140Y842D01*
X1608Y842D01*
G37*
D02*
G36*
X1150Y748D02*
X1150Y744D01*
X1174Y744D01*
X1174Y746D01*
X1170Y746D01*
X1170Y748D01*
X1150Y748D01*
G37*
D02*
G36*
X498Y746D02*
X498Y744D01*
X520Y744D01*
X520Y746D01*
X498Y746D01*
G37*
D02*
G36*
X40Y744D02*
X40Y742D01*
X520Y742D01*
X520Y744D01*
X40Y744D01*
G37*
D02*
G36*
X40Y744D02*
X40Y742D01*
X520Y742D01*
X520Y744D01*
X40Y744D01*
G37*
D02*
G36*
X1150Y744D02*
X1150Y742D01*
X1364Y742D01*
X1364Y744D01*
X1150Y744D01*
G37*
D02*
G36*
X1150Y744D02*
X1150Y742D01*
X1364Y742D01*
X1364Y744D01*
X1150Y744D01*
G37*
D02*
G36*
X40Y742D02*
X40Y346D01*
X590Y346D01*
X590Y440D01*
X656Y440D01*
X656Y460D01*
X654Y460D01*
X654Y462D01*
X652Y462D01*
X652Y464D01*
X650Y464D01*
X650Y466D01*
X648Y466D01*
X648Y468D01*
X646Y468D01*
X646Y472D01*
X644Y472D01*
X644Y476D01*
X642Y476D01*
X642Y482D01*
X640Y482D01*
X640Y502D01*
X642Y502D01*
X642Y508D01*
X644Y508D01*
X644Y512D01*
X646Y512D01*
X646Y516D01*
X648Y516D01*
X648Y518D01*
X650Y518D01*
X650Y520D01*
X652Y520D01*
X652Y524D01*
X654Y524D01*
X654Y526D01*
X658Y526D01*
X658Y528D01*
X660Y528D01*
X660Y530D01*
X662Y530D01*
X662Y532D01*
X666Y532D01*
X666Y534D01*
X670Y534D01*
X670Y554D01*
X520Y554D01*
X520Y742D01*
X40Y742D01*
G37*
D02*
G36*
X1150Y742D02*
X1150Y554D01*
X1004Y554D01*
X1004Y534D01*
X1008Y534D01*
X1008Y532D01*
X1010Y532D01*
X1010Y530D01*
X1014Y530D01*
X1014Y528D01*
X1016Y528D01*
X1016Y526D01*
X1018Y526D01*
X1018Y524D01*
X1020Y524D01*
X1020Y522D01*
X1022Y522D01*
X1022Y520D01*
X1024Y520D01*
X1024Y518D01*
X1026Y518D01*
X1026Y514D01*
X1028Y514D01*
X1028Y510D01*
X1030Y510D01*
X1030Y506D01*
X1032Y506D01*
X1032Y498D01*
X1034Y498D01*
X1034Y486D01*
X1032Y486D01*
X1032Y478D01*
X1030Y478D01*
X1030Y474D01*
X1028Y474D01*
X1028Y470D01*
X1026Y470D01*
X1026Y468D01*
X1024Y468D01*
X1024Y464D01*
X1022Y464D01*
X1022Y462D01*
X1020Y462D01*
X1020Y460D01*
X1018Y460D01*
X1018Y458D01*
X1016Y458D01*
X1016Y456D01*
X1014Y456D01*
X1014Y454D01*
X1010Y454D01*
X1010Y452D01*
X1008Y452D01*
X1008Y450D01*
X1004Y450D01*
X1004Y448D01*
X998Y448D01*
X998Y446D01*
X1240Y446D01*
X1240Y450D01*
X1242Y450D01*
X1242Y454D01*
X1244Y454D01*
X1244Y458D01*
X1246Y458D01*
X1246Y462D01*
X1248Y462D01*
X1248Y466D01*
X1250Y466D01*
X1250Y470D01*
X1252Y470D01*
X1252Y474D01*
X1254Y474D01*
X1254Y478D01*
X1256Y478D01*
X1256Y482D01*
X1258Y482D01*
X1258Y486D01*
X1260Y486D01*
X1260Y490D01*
X1262Y490D01*
X1262Y494D01*
X1264Y494D01*
X1264Y498D01*
X1266Y498D01*
X1266Y502D01*
X1268Y502D01*
X1268Y506D01*
X1270Y506D01*
X1270Y510D01*
X1272Y510D01*
X1272Y514D01*
X1274Y514D01*
X1274Y518D01*
X1276Y518D01*
X1276Y522D01*
X1278Y522D01*
X1278Y526D01*
X1280Y526D01*
X1280Y530D01*
X1282Y530D01*
X1282Y534D01*
X1284Y534D01*
X1284Y538D01*
X1286Y538D01*
X1286Y542D01*
X1288Y542D01*
X1288Y546D01*
X1290Y546D01*
X1290Y550D01*
X1292Y550D01*
X1292Y554D01*
X1294Y554D01*
X1294Y558D01*
X1296Y558D01*
X1296Y562D01*
X1298Y562D01*
X1298Y566D01*
X1300Y566D01*
X1300Y570D01*
X1302Y570D01*
X1302Y574D01*
X1304Y574D01*
X1304Y578D01*
X1306Y578D01*
X1306Y582D01*
X1308Y582D01*
X1308Y586D01*
X1310Y586D01*
X1310Y590D01*
X1312Y590D01*
X1312Y594D01*
X1314Y594D01*
X1314Y598D01*
X1316Y598D01*
X1316Y602D01*
X1318Y602D01*
X1318Y606D01*
X1320Y606D01*
X1320Y610D01*
X1322Y610D01*
X1322Y614D01*
X1324Y614D01*
X1324Y618D01*
X1326Y618D01*
X1326Y622D01*
X1328Y622D01*
X1328Y626D01*
X1330Y626D01*
X1330Y630D01*
X1332Y630D01*
X1332Y634D01*
X1334Y634D01*
X1334Y638D01*
X1336Y638D01*
X1336Y642D01*
X1338Y642D01*
X1338Y646D01*
X1340Y646D01*
X1340Y650D01*
X1342Y650D01*
X1342Y654D01*
X1344Y654D01*
X1344Y658D01*
X1346Y658D01*
X1346Y662D01*
X1348Y662D01*
X1348Y668D01*
X1350Y668D01*
X1350Y672D01*
X1352Y672D01*
X1352Y676D01*
X1354Y676D01*
X1354Y680D01*
X1356Y680D01*
X1356Y684D01*
X1358Y684D01*
X1358Y688D01*
X1360Y688D01*
X1360Y692D01*
X1362Y692D01*
X1362Y696D01*
X1364Y696D01*
X1364Y742D01*
X1150Y742D01*
G37*
D02*
G36*
X1400Y670D02*
X1400Y668D01*
X1480Y668D01*
X1480Y670D01*
X1400Y670D01*
G37*
D02*
G36*
X1398Y668D02*
X1398Y666D01*
X2140Y666D01*
X2140Y668D01*
X1398Y668D01*
G37*
D02*
G36*
X1398Y668D02*
X1398Y666D01*
X2140Y666D01*
X2140Y668D01*
X1398Y668D01*
G37*
D02*
G36*
X1398Y666D02*
X1398Y664D01*
X1396Y664D01*
X1396Y660D01*
X1394Y660D01*
X1394Y656D01*
X1392Y656D01*
X1392Y652D01*
X1390Y652D01*
X1390Y648D01*
X1388Y648D01*
X1388Y644D01*
X1386Y644D01*
X1386Y640D01*
X1384Y640D01*
X1384Y636D01*
X1382Y636D01*
X1382Y632D01*
X1380Y632D01*
X1380Y628D01*
X1378Y628D01*
X1378Y624D01*
X1376Y624D01*
X1376Y620D01*
X1374Y620D01*
X1374Y616D01*
X1372Y616D01*
X1372Y612D01*
X1370Y612D01*
X1370Y608D01*
X1368Y608D01*
X1368Y604D01*
X1366Y604D01*
X1366Y600D01*
X1364Y600D01*
X1364Y596D01*
X1362Y596D01*
X1362Y592D01*
X1360Y592D01*
X1360Y588D01*
X1358Y588D01*
X1358Y584D01*
X1356Y584D01*
X1356Y580D01*
X1354Y580D01*
X1354Y576D01*
X1352Y576D01*
X1352Y572D01*
X1350Y572D01*
X1350Y568D01*
X1348Y568D01*
X1348Y564D01*
X1346Y564D01*
X1346Y560D01*
X1344Y560D01*
X1344Y556D01*
X1342Y556D01*
X1342Y552D01*
X1340Y552D01*
X1340Y548D01*
X1338Y548D01*
X1338Y544D01*
X1336Y544D01*
X1336Y540D01*
X1690Y540D01*
X1690Y538D01*
X1700Y538D01*
X1700Y536D01*
X1704Y536D01*
X1704Y534D01*
X1708Y534D01*
X1708Y532D01*
X1710Y532D01*
X1710Y530D01*
X1714Y530D01*
X1714Y528D01*
X1716Y528D01*
X1716Y526D01*
X1718Y526D01*
X1718Y524D01*
X1720Y524D01*
X1720Y522D01*
X1722Y522D01*
X1722Y520D01*
X1724Y520D01*
X1724Y518D01*
X1726Y518D01*
X1726Y514D01*
X1728Y514D01*
X1728Y510D01*
X1730Y510D01*
X1730Y506D01*
X1732Y506D01*
X1732Y498D01*
X1734Y498D01*
X1734Y486D01*
X1732Y486D01*
X1732Y478D01*
X1730Y478D01*
X1730Y474D01*
X1728Y474D01*
X1728Y470D01*
X1726Y470D01*
X1726Y468D01*
X1724Y468D01*
X1724Y464D01*
X1722Y464D01*
X1722Y462D01*
X1720Y462D01*
X1720Y460D01*
X1718Y460D01*
X1718Y458D01*
X1716Y458D01*
X1716Y456D01*
X1714Y456D01*
X1714Y454D01*
X1710Y454D01*
X1710Y452D01*
X1708Y452D01*
X1708Y450D01*
X1704Y450D01*
X1704Y448D01*
X1698Y448D01*
X1698Y446D01*
X2140Y446D01*
X2140Y666D01*
X1398Y666D01*
G37*
D02*
G36*
X1334Y540D02*
X1334Y536D01*
X1332Y536D01*
X1332Y532D01*
X1330Y532D01*
X1330Y528D01*
X1328Y528D01*
X1328Y524D01*
X1326Y524D01*
X1326Y520D01*
X1324Y520D01*
X1324Y516D01*
X1322Y516D01*
X1322Y512D01*
X1320Y512D01*
X1320Y508D01*
X1318Y508D01*
X1318Y504D01*
X1316Y504D01*
X1316Y500D01*
X1314Y500D01*
X1314Y496D01*
X1312Y496D01*
X1312Y492D01*
X1310Y492D01*
X1310Y488D01*
X1308Y488D01*
X1308Y484D01*
X1306Y484D01*
X1306Y480D01*
X1304Y480D01*
X1304Y476D01*
X1302Y476D01*
X1302Y472D01*
X1300Y472D01*
X1300Y468D01*
X1298Y468D01*
X1298Y464D01*
X1296Y464D01*
X1296Y460D01*
X1294Y460D01*
X1294Y440D01*
X1356Y440D01*
X1356Y460D01*
X1354Y460D01*
X1354Y462D01*
X1352Y462D01*
X1352Y464D01*
X1350Y464D01*
X1350Y466D01*
X1348Y466D01*
X1348Y468D01*
X1346Y468D01*
X1346Y472D01*
X1344Y472D01*
X1344Y476D01*
X1342Y476D01*
X1342Y482D01*
X1340Y482D01*
X1340Y502D01*
X1342Y502D01*
X1342Y508D01*
X1344Y508D01*
X1344Y512D01*
X1346Y512D01*
X1346Y516D01*
X1348Y516D01*
X1348Y518D01*
X1350Y518D01*
X1350Y520D01*
X1352Y520D01*
X1352Y524D01*
X1354Y524D01*
X1354Y526D01*
X1358Y526D01*
X1358Y528D01*
X1360Y528D01*
X1360Y530D01*
X1362Y530D01*
X1362Y532D01*
X1366Y532D01*
X1366Y534D01*
X1370Y534D01*
X1370Y536D01*
X1374Y536D01*
X1374Y538D01*
X1384Y538D01*
X1384Y540D01*
X1334Y540D01*
G37*
D02*
G36*
X1390Y540D02*
X1390Y538D01*
X1400Y538D01*
X1400Y536D01*
X1404Y536D01*
X1404Y534D01*
X1408Y534D01*
X1408Y532D01*
X1410Y532D01*
X1410Y530D01*
X1414Y530D01*
X1414Y528D01*
X1416Y528D01*
X1416Y526D01*
X1418Y526D01*
X1418Y524D01*
X1420Y524D01*
X1420Y522D01*
X1422Y522D01*
X1422Y520D01*
X1424Y520D01*
X1424Y518D01*
X1426Y518D01*
X1426Y514D01*
X1446Y514D01*
X1446Y516D01*
X1448Y516D01*
X1448Y518D01*
X1450Y518D01*
X1450Y520D01*
X1452Y520D01*
X1452Y524D01*
X1454Y524D01*
X1454Y526D01*
X1458Y526D01*
X1458Y528D01*
X1460Y528D01*
X1460Y530D01*
X1462Y530D01*
X1462Y532D01*
X1466Y532D01*
X1466Y534D01*
X1470Y534D01*
X1470Y536D01*
X1474Y536D01*
X1474Y538D01*
X1484Y538D01*
X1484Y540D01*
X1390Y540D01*
G37*
D02*
G36*
X1490Y540D02*
X1490Y538D01*
X1500Y538D01*
X1500Y536D01*
X1504Y536D01*
X1504Y534D01*
X1508Y534D01*
X1508Y532D01*
X1510Y532D01*
X1510Y530D01*
X1514Y530D01*
X1514Y528D01*
X1516Y528D01*
X1516Y526D01*
X1518Y526D01*
X1518Y524D01*
X1520Y524D01*
X1520Y522D01*
X1522Y522D01*
X1522Y520D01*
X1524Y520D01*
X1524Y518D01*
X1526Y518D01*
X1526Y514D01*
X1546Y514D01*
X1546Y516D01*
X1548Y516D01*
X1548Y518D01*
X1550Y518D01*
X1550Y520D01*
X1552Y520D01*
X1552Y524D01*
X1554Y524D01*
X1554Y526D01*
X1558Y526D01*
X1558Y528D01*
X1560Y528D01*
X1560Y530D01*
X1562Y530D01*
X1562Y532D01*
X1566Y532D01*
X1566Y534D01*
X1570Y534D01*
X1570Y536D01*
X1574Y536D01*
X1574Y538D01*
X1584Y538D01*
X1584Y540D01*
X1490Y540D01*
G37*
D02*
G36*
X1590Y540D02*
X1590Y538D01*
X1600Y538D01*
X1600Y536D01*
X1604Y536D01*
X1604Y534D01*
X1608Y534D01*
X1608Y532D01*
X1610Y532D01*
X1610Y530D01*
X1614Y530D01*
X1614Y528D01*
X1616Y528D01*
X1616Y526D01*
X1618Y526D01*
X1618Y524D01*
X1620Y524D01*
X1620Y522D01*
X1622Y522D01*
X1622Y520D01*
X1624Y520D01*
X1624Y518D01*
X1626Y518D01*
X1626Y514D01*
X1646Y514D01*
X1646Y516D01*
X1648Y516D01*
X1648Y518D01*
X1650Y518D01*
X1650Y520D01*
X1652Y520D01*
X1652Y524D01*
X1654Y524D01*
X1654Y526D01*
X1658Y526D01*
X1658Y528D01*
X1660Y528D01*
X1660Y530D01*
X1662Y530D01*
X1662Y532D01*
X1666Y532D01*
X1666Y534D01*
X1670Y534D01*
X1670Y536D01*
X1674Y536D01*
X1674Y538D01*
X1684Y538D01*
X1684Y540D01*
X1590Y540D01*
G37*
D02*
G36*
X726Y470D02*
X726Y468D01*
X724Y468D01*
X724Y464D01*
X722Y464D01*
X722Y462D01*
X720Y462D01*
X720Y460D01*
X718Y460D01*
X718Y458D01*
X716Y458D01*
X716Y456D01*
X714Y456D01*
X714Y454D01*
X710Y454D01*
X710Y452D01*
X708Y452D01*
X708Y450D01*
X704Y450D01*
X704Y448D01*
X698Y448D01*
X698Y446D01*
X776Y446D01*
X776Y448D01*
X770Y448D01*
X770Y450D01*
X766Y450D01*
X766Y452D01*
X762Y452D01*
X762Y454D01*
X760Y454D01*
X760Y456D01*
X758Y456D01*
X758Y458D01*
X756Y458D01*
X756Y460D01*
X754Y460D01*
X754Y462D01*
X752Y462D01*
X752Y464D01*
X750Y464D01*
X750Y466D01*
X748Y466D01*
X748Y468D01*
X746Y468D01*
X746Y470D01*
X726Y470D01*
G37*
D02*
G36*
X826Y470D02*
X826Y468D01*
X824Y468D01*
X824Y464D01*
X822Y464D01*
X822Y462D01*
X820Y462D01*
X820Y460D01*
X818Y460D01*
X818Y458D01*
X816Y458D01*
X816Y456D01*
X814Y456D01*
X814Y454D01*
X810Y454D01*
X810Y452D01*
X808Y452D01*
X808Y450D01*
X804Y450D01*
X804Y448D01*
X798Y448D01*
X798Y446D01*
X876Y446D01*
X876Y448D01*
X870Y448D01*
X870Y450D01*
X866Y450D01*
X866Y452D01*
X862Y452D01*
X862Y454D01*
X860Y454D01*
X860Y456D01*
X858Y456D01*
X858Y458D01*
X856Y458D01*
X856Y460D01*
X854Y460D01*
X854Y462D01*
X852Y462D01*
X852Y464D01*
X850Y464D01*
X850Y466D01*
X848Y466D01*
X848Y468D01*
X846Y468D01*
X846Y470D01*
X826Y470D01*
G37*
D02*
G36*
X926Y470D02*
X926Y468D01*
X924Y468D01*
X924Y464D01*
X922Y464D01*
X922Y462D01*
X920Y462D01*
X920Y460D01*
X918Y460D01*
X918Y458D01*
X916Y458D01*
X916Y456D01*
X914Y456D01*
X914Y454D01*
X910Y454D01*
X910Y452D01*
X908Y452D01*
X908Y450D01*
X904Y450D01*
X904Y448D01*
X898Y448D01*
X898Y446D01*
X976Y446D01*
X976Y448D01*
X970Y448D01*
X970Y450D01*
X966Y450D01*
X966Y452D01*
X962Y452D01*
X962Y454D01*
X960Y454D01*
X960Y456D01*
X958Y456D01*
X958Y458D01*
X956Y458D01*
X956Y460D01*
X954Y460D01*
X954Y462D01*
X952Y462D01*
X952Y464D01*
X950Y464D01*
X950Y466D01*
X948Y466D01*
X948Y468D01*
X946Y468D01*
X946Y470D01*
X926Y470D01*
G37*
D02*
G36*
X1426Y470D02*
X1426Y468D01*
X1424Y468D01*
X1424Y464D01*
X1422Y464D01*
X1422Y462D01*
X1420Y462D01*
X1420Y460D01*
X1418Y460D01*
X1418Y458D01*
X1416Y458D01*
X1416Y456D01*
X1414Y456D01*
X1414Y454D01*
X1410Y454D01*
X1410Y452D01*
X1408Y452D01*
X1408Y450D01*
X1404Y450D01*
X1404Y448D01*
X1398Y448D01*
X1398Y446D01*
X1476Y446D01*
X1476Y448D01*
X1470Y448D01*
X1470Y450D01*
X1466Y450D01*
X1466Y452D01*
X1462Y452D01*
X1462Y454D01*
X1460Y454D01*
X1460Y456D01*
X1458Y456D01*
X1458Y458D01*
X1456Y458D01*
X1456Y460D01*
X1454Y460D01*
X1454Y462D01*
X1452Y462D01*
X1452Y464D01*
X1450Y464D01*
X1450Y466D01*
X1448Y466D01*
X1448Y468D01*
X1446Y468D01*
X1446Y470D01*
X1426Y470D01*
G37*
D02*
G36*
X1526Y470D02*
X1526Y468D01*
X1524Y468D01*
X1524Y464D01*
X1522Y464D01*
X1522Y462D01*
X1520Y462D01*
X1520Y460D01*
X1518Y460D01*
X1518Y458D01*
X1516Y458D01*
X1516Y456D01*
X1514Y456D01*
X1514Y454D01*
X1510Y454D01*
X1510Y452D01*
X1508Y452D01*
X1508Y450D01*
X1504Y450D01*
X1504Y448D01*
X1498Y448D01*
X1498Y446D01*
X1576Y446D01*
X1576Y448D01*
X1570Y448D01*
X1570Y450D01*
X1566Y450D01*
X1566Y452D01*
X1562Y452D01*
X1562Y454D01*
X1560Y454D01*
X1560Y456D01*
X1558Y456D01*
X1558Y458D01*
X1556Y458D01*
X1556Y460D01*
X1554Y460D01*
X1554Y462D01*
X1552Y462D01*
X1552Y464D01*
X1550Y464D01*
X1550Y466D01*
X1548Y466D01*
X1548Y468D01*
X1546Y468D01*
X1546Y470D01*
X1526Y470D01*
G37*
D02*
G36*
X1626Y470D02*
X1626Y468D01*
X1624Y468D01*
X1624Y464D01*
X1622Y464D01*
X1622Y462D01*
X1620Y462D01*
X1620Y460D01*
X1618Y460D01*
X1618Y458D01*
X1616Y458D01*
X1616Y456D01*
X1614Y456D01*
X1614Y454D01*
X1610Y454D01*
X1610Y452D01*
X1608Y452D01*
X1608Y450D01*
X1604Y450D01*
X1604Y448D01*
X1598Y448D01*
X1598Y446D01*
X1676Y446D01*
X1676Y448D01*
X1670Y448D01*
X1670Y450D01*
X1666Y450D01*
X1666Y452D01*
X1662Y452D01*
X1662Y454D01*
X1660Y454D01*
X1660Y456D01*
X1658Y456D01*
X1658Y458D01*
X1656Y458D01*
X1656Y460D01*
X1654Y460D01*
X1654Y462D01*
X1652Y462D01*
X1652Y464D01*
X1650Y464D01*
X1650Y466D01*
X1648Y466D01*
X1648Y468D01*
X1646Y468D01*
X1646Y470D01*
X1626Y470D01*
G37*
D02*
G36*
X684Y446D02*
X684Y444D01*
X1238Y444D01*
X1238Y446D01*
X684Y446D01*
G37*
D02*
G36*
X684Y446D02*
X684Y444D01*
X1238Y444D01*
X1238Y446D01*
X684Y446D01*
G37*
D02*
G36*
X684Y446D02*
X684Y444D01*
X1238Y444D01*
X1238Y446D01*
X684Y446D01*
G37*
D02*
G36*
X684Y446D02*
X684Y444D01*
X1238Y444D01*
X1238Y446D01*
X684Y446D01*
G37*
D02*
G36*
X1384Y446D02*
X1384Y444D01*
X2140Y444D01*
X2140Y446D01*
X1384Y446D01*
G37*
D02*
G36*
X1384Y446D02*
X1384Y444D01*
X2140Y444D01*
X2140Y446D01*
X1384Y446D01*
G37*
D02*
G36*
X1384Y446D02*
X1384Y444D01*
X2140Y444D01*
X2140Y446D01*
X1384Y446D01*
G37*
D02*
G36*
X1384Y446D02*
X1384Y444D01*
X2140Y444D01*
X2140Y446D01*
X1384Y446D01*
G37*
D02*
G36*
X684Y444D02*
X684Y440D01*
X940Y440D01*
X940Y438D01*
X950Y438D01*
X950Y436D01*
X954Y436D01*
X954Y434D01*
X958Y434D01*
X958Y432D01*
X960Y432D01*
X960Y430D01*
X964Y430D01*
X964Y428D01*
X966Y428D01*
X966Y426D01*
X968Y426D01*
X968Y424D01*
X970Y424D01*
X970Y422D01*
X972Y422D01*
X972Y420D01*
X974Y420D01*
X974Y418D01*
X976Y418D01*
X976Y414D01*
X978Y414D01*
X978Y410D01*
X980Y410D01*
X980Y406D01*
X982Y406D01*
X982Y398D01*
X984Y398D01*
X984Y386D01*
X982Y386D01*
X982Y378D01*
X980Y378D01*
X980Y374D01*
X978Y374D01*
X978Y370D01*
X976Y370D01*
X976Y368D01*
X974Y368D01*
X974Y364D01*
X972Y364D01*
X972Y362D01*
X970Y362D01*
X970Y360D01*
X968Y360D01*
X968Y358D01*
X966Y358D01*
X966Y356D01*
X964Y356D01*
X964Y354D01*
X960Y354D01*
X960Y352D01*
X958Y352D01*
X958Y350D01*
X954Y350D01*
X954Y348D01*
X948Y348D01*
X948Y346D01*
X1190Y346D01*
X1190Y350D01*
X1192Y350D01*
X1192Y354D01*
X1194Y354D01*
X1194Y358D01*
X1196Y358D01*
X1196Y362D01*
X1198Y362D01*
X1198Y366D01*
X1200Y366D01*
X1200Y370D01*
X1202Y370D01*
X1202Y374D01*
X1204Y374D01*
X1204Y378D01*
X1206Y378D01*
X1206Y382D01*
X1208Y382D01*
X1208Y386D01*
X1210Y386D01*
X1210Y390D01*
X1212Y390D01*
X1212Y394D01*
X1214Y394D01*
X1214Y398D01*
X1216Y398D01*
X1216Y402D01*
X1218Y402D01*
X1218Y406D01*
X1220Y406D01*
X1220Y410D01*
X1222Y410D01*
X1222Y414D01*
X1224Y414D01*
X1224Y418D01*
X1226Y418D01*
X1226Y422D01*
X1228Y422D01*
X1228Y426D01*
X1230Y426D01*
X1230Y430D01*
X1232Y430D01*
X1232Y434D01*
X1234Y434D01*
X1234Y438D01*
X1236Y438D01*
X1236Y442D01*
X1238Y442D01*
X1238Y444D01*
X684Y444D01*
G37*
D02*
G36*
X1384Y444D02*
X1384Y440D01*
X1640Y440D01*
X1640Y438D01*
X1650Y438D01*
X1650Y436D01*
X1654Y436D01*
X1654Y434D01*
X1658Y434D01*
X1658Y432D01*
X1660Y432D01*
X1660Y430D01*
X1664Y430D01*
X1664Y428D01*
X1666Y428D01*
X1666Y426D01*
X1668Y426D01*
X1668Y424D01*
X1670Y424D01*
X1670Y422D01*
X1672Y422D01*
X1672Y420D01*
X1674Y420D01*
X1674Y418D01*
X1676Y418D01*
X1676Y414D01*
X1678Y414D01*
X1678Y410D01*
X1680Y410D01*
X1680Y406D01*
X1682Y406D01*
X1682Y398D01*
X1684Y398D01*
X1684Y386D01*
X1682Y386D01*
X1682Y378D01*
X1680Y378D01*
X1680Y374D01*
X1678Y374D01*
X1678Y370D01*
X1676Y370D01*
X1676Y368D01*
X1674Y368D01*
X1674Y364D01*
X1672Y364D01*
X1672Y362D01*
X1670Y362D01*
X1670Y360D01*
X1668Y360D01*
X1668Y358D01*
X1666Y358D01*
X1666Y356D01*
X1664Y356D01*
X1664Y354D01*
X1660Y354D01*
X1660Y352D01*
X1658Y352D01*
X1658Y350D01*
X1654Y350D01*
X1654Y348D01*
X1648Y348D01*
X1648Y346D01*
X2140Y346D01*
X2140Y444D01*
X1384Y444D01*
G37*
D02*
G36*
X684Y440D02*
X684Y424D01*
X704Y424D01*
X704Y426D01*
X708Y426D01*
X708Y428D01*
X710Y428D01*
X710Y430D01*
X712Y430D01*
X712Y432D01*
X716Y432D01*
X716Y434D01*
X720Y434D01*
X720Y436D01*
X724Y436D01*
X724Y438D01*
X734Y438D01*
X734Y440D01*
X684Y440D01*
G37*
D02*
G36*
X740Y440D02*
X740Y438D01*
X750Y438D01*
X750Y436D01*
X754Y436D01*
X754Y434D01*
X758Y434D01*
X758Y432D01*
X760Y432D01*
X760Y430D01*
X764Y430D01*
X764Y428D01*
X766Y428D01*
X766Y426D01*
X768Y426D01*
X768Y424D01*
X770Y424D01*
X770Y422D01*
X772Y422D01*
X772Y420D01*
X774Y420D01*
X774Y418D01*
X776Y418D01*
X776Y414D01*
X796Y414D01*
X796Y416D01*
X798Y416D01*
X798Y418D01*
X800Y418D01*
X800Y420D01*
X802Y420D01*
X802Y424D01*
X804Y424D01*
X804Y426D01*
X808Y426D01*
X808Y428D01*
X810Y428D01*
X810Y430D01*
X812Y430D01*
X812Y432D01*
X816Y432D01*
X816Y434D01*
X820Y434D01*
X820Y436D01*
X824Y436D01*
X824Y438D01*
X834Y438D01*
X834Y440D01*
X740Y440D01*
G37*
D02*
G36*
X840Y440D02*
X840Y438D01*
X850Y438D01*
X850Y436D01*
X854Y436D01*
X854Y434D01*
X858Y434D01*
X858Y432D01*
X860Y432D01*
X860Y430D01*
X864Y430D01*
X864Y428D01*
X866Y428D01*
X866Y426D01*
X868Y426D01*
X868Y424D01*
X870Y424D01*
X870Y422D01*
X872Y422D01*
X872Y420D01*
X874Y420D01*
X874Y418D01*
X876Y418D01*
X876Y414D01*
X896Y414D01*
X896Y416D01*
X898Y416D01*
X898Y418D01*
X900Y418D01*
X900Y420D01*
X902Y420D01*
X902Y424D01*
X904Y424D01*
X904Y426D01*
X908Y426D01*
X908Y428D01*
X910Y428D01*
X910Y430D01*
X912Y430D01*
X912Y432D01*
X916Y432D01*
X916Y434D01*
X920Y434D01*
X920Y436D01*
X924Y436D01*
X924Y438D01*
X934Y438D01*
X934Y440D01*
X840Y440D01*
G37*
D02*
G36*
X1384Y440D02*
X1384Y424D01*
X1404Y424D01*
X1404Y426D01*
X1408Y426D01*
X1408Y428D01*
X1410Y428D01*
X1410Y430D01*
X1412Y430D01*
X1412Y432D01*
X1416Y432D01*
X1416Y434D01*
X1420Y434D01*
X1420Y436D01*
X1424Y436D01*
X1424Y438D01*
X1434Y438D01*
X1434Y440D01*
X1384Y440D01*
G37*
D02*
G36*
X1440Y440D02*
X1440Y438D01*
X1450Y438D01*
X1450Y436D01*
X1454Y436D01*
X1454Y434D01*
X1458Y434D01*
X1458Y432D01*
X1460Y432D01*
X1460Y430D01*
X1464Y430D01*
X1464Y428D01*
X1466Y428D01*
X1466Y426D01*
X1468Y426D01*
X1468Y424D01*
X1470Y424D01*
X1470Y422D01*
X1472Y422D01*
X1472Y420D01*
X1474Y420D01*
X1474Y418D01*
X1476Y418D01*
X1476Y414D01*
X1496Y414D01*
X1496Y416D01*
X1498Y416D01*
X1498Y418D01*
X1500Y418D01*
X1500Y420D01*
X1502Y420D01*
X1502Y424D01*
X1504Y424D01*
X1504Y426D01*
X1508Y426D01*
X1508Y428D01*
X1510Y428D01*
X1510Y430D01*
X1512Y430D01*
X1512Y432D01*
X1516Y432D01*
X1516Y434D01*
X1520Y434D01*
X1520Y436D01*
X1524Y436D01*
X1524Y438D01*
X1534Y438D01*
X1534Y440D01*
X1440Y440D01*
G37*
D02*
G36*
X1540Y440D02*
X1540Y438D01*
X1550Y438D01*
X1550Y436D01*
X1554Y436D01*
X1554Y434D01*
X1558Y434D01*
X1558Y432D01*
X1560Y432D01*
X1560Y430D01*
X1564Y430D01*
X1564Y428D01*
X1566Y428D01*
X1566Y426D01*
X1568Y426D01*
X1568Y424D01*
X1570Y424D01*
X1570Y422D01*
X1572Y422D01*
X1572Y420D01*
X1574Y420D01*
X1574Y418D01*
X1576Y418D01*
X1576Y414D01*
X1596Y414D01*
X1596Y416D01*
X1598Y416D01*
X1598Y418D01*
X1600Y418D01*
X1600Y420D01*
X1602Y420D01*
X1602Y424D01*
X1604Y424D01*
X1604Y426D01*
X1608Y426D01*
X1608Y428D01*
X1610Y428D01*
X1610Y430D01*
X1612Y430D01*
X1612Y432D01*
X1616Y432D01*
X1616Y434D01*
X1620Y434D01*
X1620Y436D01*
X1624Y436D01*
X1624Y438D01*
X1634Y438D01*
X1634Y440D01*
X1540Y440D01*
G37*
D02*
G36*
X876Y370D02*
X876Y368D01*
X874Y368D01*
X874Y364D01*
X872Y364D01*
X872Y362D01*
X870Y362D01*
X870Y360D01*
X868Y360D01*
X868Y358D01*
X866Y358D01*
X866Y356D01*
X864Y356D01*
X864Y354D01*
X860Y354D01*
X860Y352D01*
X858Y352D01*
X858Y350D01*
X854Y350D01*
X854Y348D01*
X848Y348D01*
X848Y346D01*
X926Y346D01*
X926Y348D01*
X920Y348D01*
X920Y350D01*
X916Y350D01*
X916Y352D01*
X912Y352D01*
X912Y354D01*
X910Y354D01*
X910Y356D01*
X908Y356D01*
X908Y358D01*
X906Y358D01*
X906Y360D01*
X904Y360D01*
X904Y362D01*
X902Y362D01*
X902Y364D01*
X900Y364D01*
X900Y366D01*
X898Y366D01*
X898Y368D01*
X896Y368D01*
X896Y370D01*
X876Y370D01*
G37*
D02*
G36*
X1576Y370D02*
X1576Y368D01*
X1574Y368D01*
X1574Y364D01*
X1572Y364D01*
X1572Y362D01*
X1570Y362D01*
X1570Y360D01*
X1568Y360D01*
X1568Y358D01*
X1566Y358D01*
X1566Y356D01*
X1564Y356D01*
X1564Y354D01*
X1560Y354D01*
X1560Y352D01*
X1558Y352D01*
X1558Y350D01*
X1554Y350D01*
X1554Y348D01*
X1548Y348D01*
X1548Y346D01*
X1626Y346D01*
X1626Y348D01*
X1620Y348D01*
X1620Y350D01*
X1616Y350D01*
X1616Y352D01*
X1612Y352D01*
X1612Y354D01*
X1610Y354D01*
X1610Y356D01*
X1608Y356D01*
X1608Y358D01*
X1606Y358D01*
X1606Y360D01*
X1604Y360D01*
X1604Y362D01*
X1602Y362D01*
X1602Y364D01*
X1600Y364D01*
X1600Y366D01*
X1598Y366D01*
X1598Y368D01*
X1596Y368D01*
X1596Y370D01*
X1576Y370D01*
G37*
D02*
G36*
X780Y366D02*
X780Y354D01*
X782Y354D01*
X782Y350D01*
X784Y350D01*
X784Y346D01*
X826Y346D01*
X826Y348D01*
X820Y348D01*
X820Y350D01*
X816Y350D01*
X816Y352D01*
X812Y352D01*
X812Y354D01*
X810Y354D01*
X810Y356D01*
X808Y356D01*
X808Y358D01*
X806Y358D01*
X806Y360D01*
X804Y360D01*
X804Y362D01*
X802Y362D01*
X802Y364D01*
X800Y364D01*
X800Y366D01*
X780Y366D01*
G37*
D02*
G36*
X1480Y366D02*
X1480Y352D01*
X1482Y352D01*
X1482Y348D01*
X1484Y348D01*
X1484Y346D01*
X1526Y346D01*
X1526Y348D01*
X1520Y348D01*
X1520Y350D01*
X1516Y350D01*
X1516Y352D01*
X1512Y352D01*
X1512Y354D01*
X1510Y354D01*
X1510Y356D01*
X1508Y356D01*
X1508Y358D01*
X1506Y358D01*
X1506Y360D01*
X1504Y360D01*
X1504Y362D01*
X1502Y362D01*
X1502Y364D01*
X1500Y364D01*
X1500Y366D01*
X1480Y366D01*
G37*
D02*
G36*
X684Y362D02*
X684Y346D01*
X726Y346D01*
X726Y348D01*
X720Y348D01*
X720Y350D01*
X716Y350D01*
X716Y352D01*
X712Y352D01*
X712Y354D01*
X710Y354D01*
X710Y356D01*
X708Y356D01*
X708Y358D01*
X706Y358D01*
X706Y360D01*
X704Y360D01*
X704Y362D01*
X684Y362D01*
G37*
D02*
G36*
X40Y346D02*
X40Y344D01*
X736Y344D01*
X736Y346D01*
X40Y346D01*
G37*
D02*
G36*
X40Y346D02*
X40Y344D01*
X736Y344D01*
X736Y346D01*
X40Y346D01*
G37*
D02*
G36*
X786Y346D02*
X786Y344D01*
X1188Y344D01*
X1188Y346D01*
X786Y346D01*
G37*
D02*
G36*
X786Y346D02*
X786Y344D01*
X1188Y344D01*
X1188Y346D01*
X786Y346D01*
G37*
D02*
G36*
X786Y346D02*
X786Y344D01*
X1188Y344D01*
X1188Y346D01*
X786Y346D01*
G37*
D02*
G36*
X1484Y346D02*
X1484Y344D01*
X2140Y344D01*
X2140Y346D01*
X1484Y346D01*
G37*
D02*
G36*
X1484Y346D02*
X1484Y344D01*
X2140Y344D01*
X2140Y346D01*
X1484Y346D01*
G37*
D02*
G36*
X1484Y346D02*
X1484Y344D01*
X2140Y344D01*
X2140Y346D01*
X1484Y346D01*
G37*
D02*
G36*
X40Y344D02*
X40Y284D01*
X204Y284D01*
X204Y282D01*
X212Y282D01*
X212Y280D01*
X218Y280D01*
X218Y278D01*
X222Y278D01*
X222Y276D01*
X226Y276D01*
X226Y274D01*
X230Y274D01*
X230Y272D01*
X234Y272D01*
X234Y270D01*
X782Y270D01*
X782Y272D01*
X778Y272D01*
X778Y274D01*
X774Y274D01*
X774Y276D01*
X772Y276D01*
X772Y278D01*
X770Y278D01*
X770Y280D01*
X768Y280D01*
X768Y284D01*
X766Y284D01*
X766Y288D01*
X764Y288D01*
X764Y292D01*
X762Y292D01*
X762Y296D01*
X760Y296D01*
X760Y300D01*
X758Y300D01*
X758Y304D01*
X756Y304D01*
X756Y308D01*
X754Y308D01*
X754Y312D01*
X752Y312D01*
X752Y316D01*
X750Y316D01*
X750Y320D01*
X748Y320D01*
X748Y324D01*
X746Y324D01*
X746Y328D01*
X744Y328D01*
X744Y332D01*
X742Y332D01*
X742Y334D01*
X740Y334D01*
X740Y338D01*
X738Y338D01*
X738Y342D01*
X736Y342D01*
X736Y344D01*
X40Y344D01*
G37*
D02*
G36*
X786Y344D02*
X786Y342D01*
X788Y342D01*
X788Y338D01*
X790Y338D01*
X790Y334D01*
X792Y334D01*
X792Y330D01*
X794Y330D01*
X794Y326D01*
X796Y326D01*
X796Y322D01*
X798Y322D01*
X798Y318D01*
X800Y318D01*
X800Y314D01*
X1174Y314D01*
X1174Y318D01*
X1176Y318D01*
X1176Y322D01*
X1178Y322D01*
X1178Y326D01*
X1180Y326D01*
X1180Y330D01*
X1182Y330D01*
X1182Y334D01*
X1184Y334D01*
X1184Y338D01*
X1186Y338D01*
X1186Y342D01*
X1188Y342D01*
X1188Y344D01*
X786Y344D01*
G37*
D02*
G36*
X1486Y344D02*
X1486Y340D01*
X1488Y340D01*
X1488Y336D01*
X1490Y336D01*
X1490Y332D01*
X1492Y332D01*
X1492Y330D01*
X1494Y330D01*
X1494Y326D01*
X1496Y326D01*
X1496Y322D01*
X1498Y322D01*
X1498Y318D01*
X1500Y318D01*
X1500Y314D01*
X1502Y314D01*
X1502Y310D01*
X1504Y310D01*
X1504Y306D01*
X1506Y306D01*
X1506Y302D01*
X1508Y302D01*
X1508Y284D01*
X2004Y284D01*
X2004Y282D01*
X2012Y282D01*
X2012Y280D01*
X2018Y280D01*
X2018Y278D01*
X2022Y278D01*
X2022Y276D01*
X2028Y276D01*
X2028Y274D01*
X2030Y274D01*
X2030Y272D01*
X2034Y272D01*
X2034Y270D01*
X2038Y270D01*
X2038Y268D01*
X2040Y268D01*
X2040Y266D01*
X2042Y266D01*
X2042Y264D01*
X2046Y264D01*
X2046Y262D01*
X2048Y262D01*
X2048Y260D01*
X2050Y260D01*
X2050Y258D01*
X2052Y258D01*
X2052Y256D01*
X2054Y256D01*
X2054Y254D01*
X2056Y254D01*
X2056Y252D01*
X2058Y252D01*
X2058Y248D01*
X2060Y248D01*
X2060Y246D01*
X2062Y246D01*
X2062Y244D01*
X2064Y244D01*
X2064Y240D01*
X2066Y240D01*
X2066Y238D01*
X2068Y238D01*
X2068Y234D01*
X2070Y234D01*
X2070Y230D01*
X2072Y230D01*
X2072Y224D01*
X2074Y224D01*
X2074Y218D01*
X2076Y218D01*
X2076Y212D01*
X2078Y212D01*
X2078Y198D01*
X2080Y198D01*
X2080Y186D01*
X2078Y186D01*
X2078Y172D01*
X2076Y172D01*
X2076Y166D01*
X2074Y166D01*
X2074Y160D01*
X2072Y160D01*
X2072Y156D01*
X2070Y156D01*
X2070Y150D01*
X2068Y150D01*
X2068Y148D01*
X2066Y148D01*
X2066Y144D01*
X2064Y144D01*
X2064Y140D01*
X2062Y140D01*
X2062Y138D01*
X2060Y138D01*
X2060Y136D01*
X2058Y136D01*
X2058Y134D01*
X2056Y134D01*
X2056Y130D01*
X2054Y130D01*
X2054Y128D01*
X2052Y128D01*
X2052Y126D01*
X2050Y126D01*
X2050Y124D01*
X2048Y124D01*
X2048Y122D01*
X2044Y122D01*
X2044Y120D01*
X2042Y120D01*
X2042Y118D01*
X2040Y118D01*
X2040Y116D01*
X2036Y116D01*
X2036Y114D01*
X2034Y114D01*
X2034Y112D01*
X2030Y112D01*
X2030Y110D01*
X2026Y110D01*
X2026Y108D01*
X2022Y108D01*
X2022Y106D01*
X2018Y106D01*
X2018Y104D01*
X2012Y104D01*
X2012Y102D01*
X2002Y102D01*
X2002Y100D01*
X2140Y100D01*
X2140Y344D01*
X1486Y344D01*
G37*
D02*
G36*
X40Y284D02*
X40Y100D01*
X170Y100D01*
X170Y102D01*
X162Y102D01*
X162Y104D01*
X156Y104D01*
X156Y106D01*
X150Y106D01*
X150Y108D01*
X146Y108D01*
X146Y110D01*
X142Y110D01*
X142Y112D01*
X140Y112D01*
X140Y114D01*
X136Y114D01*
X136Y116D01*
X134Y116D01*
X134Y118D01*
X130Y118D01*
X130Y120D01*
X128Y120D01*
X128Y122D01*
X126Y122D01*
X126Y124D01*
X124Y124D01*
X124Y126D01*
X122Y126D01*
X122Y128D01*
X120Y128D01*
X120Y130D01*
X118Y130D01*
X118Y132D01*
X116Y132D01*
X116Y134D01*
X114Y134D01*
X114Y136D01*
X112Y136D01*
X112Y140D01*
X110Y140D01*
X110Y142D01*
X108Y142D01*
X108Y146D01*
X106Y146D01*
X106Y150D01*
X104Y150D01*
X104Y154D01*
X102Y154D01*
X102Y158D01*
X100Y158D01*
X100Y162D01*
X98Y162D01*
X98Y168D01*
X96Y168D01*
X96Y178D01*
X94Y178D01*
X94Y206D01*
X96Y206D01*
X96Y216D01*
X98Y216D01*
X98Y222D01*
X100Y222D01*
X100Y226D01*
X102Y226D01*
X102Y232D01*
X104Y232D01*
X104Y236D01*
X106Y236D01*
X106Y238D01*
X108Y238D01*
X108Y242D01*
X110Y242D01*
X110Y244D01*
X112Y244D01*
X112Y248D01*
X114Y248D01*
X114Y250D01*
X116Y250D01*
X116Y252D01*
X118Y252D01*
X118Y254D01*
X120Y254D01*
X120Y256D01*
X122Y256D01*
X122Y258D01*
X124Y258D01*
X124Y260D01*
X126Y260D01*
X126Y262D01*
X128Y262D01*
X128Y264D01*
X130Y264D01*
X130Y266D01*
X134Y266D01*
X134Y268D01*
X136Y268D01*
X136Y270D01*
X138Y270D01*
X138Y272D01*
X142Y272D01*
X142Y274D01*
X146Y274D01*
X146Y276D01*
X150Y276D01*
X150Y278D01*
X156Y278D01*
X156Y280D01*
X160Y280D01*
X160Y282D01*
X168Y282D01*
X168Y284D01*
X40Y284D01*
G37*
D02*
G36*
X1506Y284D02*
X1506Y280D01*
X1504Y280D01*
X1504Y278D01*
X1502Y278D01*
X1502Y276D01*
X1500Y276D01*
X1500Y274D01*
X1496Y274D01*
X1496Y272D01*
X1492Y272D01*
X1492Y270D01*
X1938Y270D01*
X1938Y272D01*
X1942Y272D01*
X1942Y274D01*
X1946Y274D01*
X1946Y276D01*
X1950Y276D01*
X1950Y278D01*
X1956Y278D01*
X1956Y280D01*
X1960Y280D01*
X1960Y282D01*
X1968Y282D01*
X1968Y284D01*
X1506Y284D01*
G37*
D02*
G36*
X238Y270D02*
X238Y268D01*
X1936Y268D01*
X1936Y270D01*
X238Y270D01*
G37*
D02*
G36*
X238Y270D02*
X238Y268D01*
X1936Y268D01*
X1936Y270D01*
X238Y270D01*
G37*
D02*
G36*
X240Y268D02*
X240Y266D01*
X242Y266D01*
X242Y264D01*
X246Y264D01*
X246Y262D01*
X248Y262D01*
X248Y260D01*
X250Y260D01*
X250Y258D01*
X252Y258D01*
X252Y256D01*
X254Y256D01*
X254Y254D01*
X256Y254D01*
X256Y252D01*
X258Y252D01*
X258Y248D01*
X260Y248D01*
X260Y246D01*
X262Y246D01*
X262Y244D01*
X264Y244D01*
X264Y240D01*
X266Y240D01*
X266Y238D01*
X268Y238D01*
X268Y234D01*
X270Y234D01*
X270Y230D01*
X272Y230D01*
X272Y224D01*
X274Y224D01*
X274Y218D01*
X276Y218D01*
X276Y216D01*
X1742Y216D01*
X1742Y214D01*
X1754Y214D01*
X1754Y212D01*
X1760Y212D01*
X1760Y210D01*
X1764Y210D01*
X1764Y208D01*
X1768Y208D01*
X1768Y206D01*
X1772Y206D01*
X1772Y204D01*
X1776Y204D01*
X1776Y202D01*
X1778Y202D01*
X1778Y200D01*
X1782Y200D01*
X1782Y198D01*
X1784Y198D01*
X1784Y196D01*
X1786Y196D01*
X1786Y194D01*
X1788Y194D01*
X1788Y192D01*
X1790Y192D01*
X1790Y190D01*
X1792Y190D01*
X1792Y188D01*
X1794Y188D01*
X1794Y184D01*
X1796Y184D01*
X1796Y182D01*
X1798Y182D01*
X1798Y178D01*
X1800Y178D01*
X1800Y176D01*
X1802Y176D01*
X1802Y172D01*
X1804Y172D01*
X1804Y166D01*
X1806Y166D01*
X1806Y160D01*
X1808Y160D01*
X1808Y150D01*
X1810Y150D01*
X1810Y134D01*
X1808Y134D01*
X1808Y124D01*
X1806Y124D01*
X1806Y118D01*
X1804Y118D01*
X1804Y114D01*
X1802Y114D01*
X1802Y110D01*
X1800Y110D01*
X1800Y106D01*
X1798Y106D01*
X1798Y102D01*
X1796Y102D01*
X1796Y100D01*
X1970Y100D01*
X1970Y102D01*
X1962Y102D01*
X1962Y104D01*
X1956Y104D01*
X1956Y106D01*
X1950Y106D01*
X1950Y108D01*
X1946Y108D01*
X1946Y110D01*
X1942Y110D01*
X1942Y112D01*
X1940Y112D01*
X1940Y114D01*
X1936Y114D01*
X1936Y116D01*
X1934Y116D01*
X1934Y118D01*
X1930Y118D01*
X1930Y120D01*
X1928Y120D01*
X1928Y122D01*
X1926Y122D01*
X1926Y124D01*
X1924Y124D01*
X1924Y126D01*
X1922Y126D01*
X1922Y128D01*
X1920Y128D01*
X1920Y130D01*
X1918Y130D01*
X1918Y132D01*
X1916Y132D01*
X1916Y134D01*
X1914Y134D01*
X1914Y136D01*
X1912Y136D01*
X1912Y140D01*
X1910Y140D01*
X1910Y142D01*
X1908Y142D01*
X1908Y146D01*
X1906Y146D01*
X1906Y150D01*
X1904Y150D01*
X1904Y154D01*
X1902Y154D01*
X1902Y158D01*
X1900Y158D01*
X1900Y162D01*
X1898Y162D01*
X1898Y168D01*
X1896Y168D01*
X1896Y178D01*
X1894Y178D01*
X1894Y206D01*
X1896Y206D01*
X1896Y216D01*
X1898Y216D01*
X1898Y222D01*
X1900Y222D01*
X1900Y226D01*
X1902Y226D01*
X1902Y232D01*
X1904Y232D01*
X1904Y236D01*
X1906Y236D01*
X1906Y238D01*
X1908Y238D01*
X1908Y242D01*
X1910Y242D01*
X1910Y244D01*
X1912Y244D01*
X1912Y248D01*
X1914Y248D01*
X1914Y250D01*
X1916Y250D01*
X1916Y252D01*
X1918Y252D01*
X1918Y254D01*
X1920Y254D01*
X1920Y256D01*
X1922Y256D01*
X1922Y258D01*
X1924Y258D01*
X1924Y260D01*
X1926Y260D01*
X1926Y262D01*
X1928Y262D01*
X1928Y264D01*
X1930Y264D01*
X1930Y266D01*
X1934Y266D01*
X1934Y268D01*
X240Y268D01*
G37*
D02*
G36*
X276Y216D02*
X276Y212D01*
X278Y212D01*
X278Y198D01*
X280Y198D01*
X280Y186D01*
X278Y186D01*
X278Y172D01*
X276Y172D01*
X276Y166D01*
X274Y166D01*
X274Y160D01*
X272Y160D01*
X272Y156D01*
X270Y156D01*
X270Y150D01*
X268Y150D01*
X268Y148D01*
X266Y148D01*
X266Y144D01*
X264Y144D01*
X264Y140D01*
X262Y140D01*
X262Y138D01*
X260Y138D01*
X260Y136D01*
X258Y136D01*
X258Y134D01*
X256Y134D01*
X256Y130D01*
X254Y130D01*
X254Y128D01*
X252Y128D01*
X252Y126D01*
X250Y126D01*
X250Y124D01*
X248Y124D01*
X248Y122D01*
X244Y122D01*
X244Y120D01*
X242Y120D01*
X242Y118D01*
X240Y118D01*
X240Y116D01*
X236Y116D01*
X236Y114D01*
X234Y114D01*
X234Y112D01*
X230Y112D01*
X230Y110D01*
X226Y110D01*
X226Y108D01*
X222Y108D01*
X222Y106D01*
X218Y106D01*
X218Y104D01*
X212Y104D01*
X212Y102D01*
X202Y102D01*
X202Y100D01*
X528Y100D01*
X528Y102D01*
X526Y102D01*
X526Y104D01*
X524Y104D01*
X524Y108D01*
X522Y108D01*
X522Y112D01*
X520Y112D01*
X520Y116D01*
X518Y116D01*
X518Y120D01*
X516Y120D01*
X516Y128D01*
X514Y128D01*
X514Y156D01*
X516Y156D01*
X516Y164D01*
X518Y164D01*
X518Y168D01*
X520Y168D01*
X520Y174D01*
X522Y174D01*
X522Y178D01*
X524Y178D01*
X524Y180D01*
X526Y180D01*
X526Y184D01*
X528Y184D01*
X528Y186D01*
X530Y186D01*
X530Y188D01*
X532Y188D01*
X532Y190D01*
X534Y190D01*
X534Y192D01*
X536Y192D01*
X536Y194D01*
X538Y194D01*
X538Y196D01*
X540Y196D01*
X540Y198D01*
X542Y198D01*
X542Y200D01*
X544Y200D01*
X544Y202D01*
X548Y202D01*
X548Y204D01*
X550Y204D01*
X550Y206D01*
X554Y206D01*
X554Y208D01*
X558Y208D01*
X558Y210D01*
X564Y210D01*
X564Y212D01*
X570Y212D01*
X570Y214D01*
X582Y214D01*
X582Y216D01*
X276Y216D01*
G37*
D02*
G36*
X592Y216D02*
X592Y214D01*
X604Y214D01*
X604Y212D01*
X610Y212D01*
X610Y210D01*
X614Y210D01*
X614Y208D01*
X618Y208D01*
X618Y206D01*
X622Y206D01*
X622Y204D01*
X626Y204D01*
X626Y202D01*
X628Y202D01*
X628Y200D01*
X632Y200D01*
X632Y198D01*
X634Y198D01*
X634Y196D01*
X636Y196D01*
X636Y194D01*
X638Y194D01*
X638Y192D01*
X640Y192D01*
X640Y190D01*
X642Y190D01*
X642Y188D01*
X644Y188D01*
X644Y184D01*
X646Y184D01*
X646Y182D01*
X648Y182D01*
X648Y178D01*
X650Y178D01*
X650Y176D01*
X652Y176D01*
X652Y172D01*
X654Y172D01*
X654Y166D01*
X656Y166D01*
X656Y160D01*
X658Y160D01*
X658Y150D01*
X660Y150D01*
X660Y134D01*
X658Y134D01*
X658Y124D01*
X656Y124D01*
X656Y118D01*
X654Y118D01*
X654Y114D01*
X652Y114D01*
X652Y110D01*
X650Y110D01*
X650Y106D01*
X648Y106D01*
X648Y102D01*
X646Y102D01*
X646Y100D01*
X644Y100D01*
X644Y98D01*
X642Y98D01*
X642Y94D01*
X640Y94D01*
X640Y92D01*
X638Y92D01*
X638Y90D01*
X636Y90D01*
X636Y88D01*
X634Y88D01*
X634Y86D01*
X630Y86D01*
X630Y84D01*
X628Y84D01*
X628Y82D01*
X626Y82D01*
X626Y80D01*
X622Y80D01*
X622Y78D01*
X618Y78D01*
X618Y76D01*
X614Y76D01*
X614Y74D01*
X608Y74D01*
X608Y72D01*
X602Y72D01*
X602Y70D01*
X1020Y70D01*
X1020Y72D01*
X1014Y72D01*
X1014Y74D01*
X1008Y74D01*
X1008Y76D01*
X1004Y76D01*
X1004Y78D01*
X1002Y78D01*
X1002Y80D01*
X998Y80D01*
X998Y82D01*
X994Y82D01*
X994Y84D01*
X992Y84D01*
X992Y86D01*
X990Y86D01*
X990Y88D01*
X988Y88D01*
X988Y90D01*
X986Y90D01*
X986Y92D01*
X984Y92D01*
X984Y94D01*
X982Y94D01*
X982Y96D01*
X980Y96D01*
X980Y98D01*
X978Y98D01*
X978Y102D01*
X976Y102D01*
X976Y104D01*
X974Y104D01*
X974Y108D01*
X972Y108D01*
X972Y112D01*
X970Y112D01*
X970Y116D01*
X968Y116D01*
X968Y120D01*
X966Y120D01*
X966Y128D01*
X964Y128D01*
X964Y156D01*
X966Y156D01*
X966Y164D01*
X968Y164D01*
X968Y168D01*
X970Y168D01*
X970Y174D01*
X972Y174D01*
X972Y178D01*
X974Y178D01*
X974Y180D01*
X976Y180D01*
X976Y184D01*
X978Y184D01*
X978Y186D01*
X980Y186D01*
X980Y188D01*
X982Y188D01*
X982Y190D01*
X984Y190D01*
X984Y192D01*
X986Y192D01*
X986Y194D01*
X988Y194D01*
X988Y196D01*
X990Y196D01*
X990Y198D01*
X992Y198D01*
X992Y200D01*
X994Y200D01*
X994Y202D01*
X998Y202D01*
X998Y204D01*
X1000Y204D01*
X1000Y206D01*
X1004Y206D01*
X1004Y208D01*
X1008Y208D01*
X1008Y210D01*
X1014Y210D01*
X1014Y212D01*
X1020Y212D01*
X1020Y214D01*
X1032Y214D01*
X1032Y216D01*
X592Y216D01*
G37*
D02*
G36*
X1042Y216D02*
X1042Y214D01*
X1054Y214D01*
X1054Y212D01*
X1060Y212D01*
X1060Y210D01*
X1064Y210D01*
X1064Y208D01*
X1068Y208D01*
X1068Y206D01*
X1072Y206D01*
X1072Y204D01*
X1076Y204D01*
X1076Y202D01*
X1078Y202D01*
X1078Y200D01*
X1082Y200D01*
X1082Y198D01*
X1084Y198D01*
X1084Y196D01*
X1086Y196D01*
X1086Y194D01*
X1088Y194D01*
X1088Y192D01*
X1090Y192D01*
X1090Y190D01*
X1092Y190D01*
X1092Y188D01*
X1094Y188D01*
X1094Y184D01*
X1096Y184D01*
X1096Y182D01*
X1098Y182D01*
X1098Y178D01*
X1100Y178D01*
X1100Y176D01*
X1102Y176D01*
X1102Y172D01*
X1104Y172D01*
X1104Y166D01*
X1106Y166D01*
X1106Y160D01*
X1108Y160D01*
X1108Y150D01*
X1110Y150D01*
X1110Y134D01*
X1108Y134D01*
X1108Y124D01*
X1106Y124D01*
X1106Y118D01*
X1104Y118D01*
X1104Y114D01*
X1102Y114D01*
X1102Y110D01*
X1100Y110D01*
X1100Y106D01*
X1098Y106D01*
X1098Y102D01*
X1096Y102D01*
X1096Y100D01*
X1094Y100D01*
X1094Y98D01*
X1092Y98D01*
X1092Y94D01*
X1090Y94D01*
X1090Y92D01*
X1088Y92D01*
X1088Y90D01*
X1086Y90D01*
X1086Y88D01*
X1084Y88D01*
X1084Y86D01*
X1080Y86D01*
X1080Y84D01*
X1078Y84D01*
X1078Y82D01*
X1076Y82D01*
X1076Y80D01*
X1072Y80D01*
X1072Y78D01*
X1068Y78D01*
X1068Y76D01*
X1064Y76D01*
X1064Y74D01*
X1058Y74D01*
X1058Y72D01*
X1052Y72D01*
X1052Y70D01*
X1270Y70D01*
X1270Y72D01*
X1264Y72D01*
X1264Y74D01*
X1258Y74D01*
X1258Y76D01*
X1254Y76D01*
X1254Y78D01*
X1252Y78D01*
X1252Y80D01*
X1248Y80D01*
X1248Y82D01*
X1244Y82D01*
X1244Y84D01*
X1242Y84D01*
X1242Y86D01*
X1240Y86D01*
X1240Y88D01*
X1238Y88D01*
X1238Y90D01*
X1236Y90D01*
X1236Y92D01*
X1234Y92D01*
X1234Y94D01*
X1232Y94D01*
X1232Y96D01*
X1230Y96D01*
X1230Y98D01*
X1228Y98D01*
X1228Y102D01*
X1226Y102D01*
X1226Y104D01*
X1224Y104D01*
X1224Y108D01*
X1222Y108D01*
X1222Y112D01*
X1220Y112D01*
X1220Y116D01*
X1218Y116D01*
X1218Y120D01*
X1216Y120D01*
X1216Y128D01*
X1214Y128D01*
X1214Y156D01*
X1216Y156D01*
X1216Y164D01*
X1218Y164D01*
X1218Y168D01*
X1220Y168D01*
X1220Y174D01*
X1222Y174D01*
X1222Y178D01*
X1224Y178D01*
X1224Y180D01*
X1226Y180D01*
X1226Y184D01*
X1228Y184D01*
X1228Y186D01*
X1230Y186D01*
X1230Y188D01*
X1232Y188D01*
X1232Y190D01*
X1234Y190D01*
X1234Y192D01*
X1236Y192D01*
X1236Y194D01*
X1238Y194D01*
X1238Y196D01*
X1240Y196D01*
X1240Y198D01*
X1242Y198D01*
X1242Y200D01*
X1244Y200D01*
X1244Y202D01*
X1248Y202D01*
X1248Y204D01*
X1250Y204D01*
X1250Y206D01*
X1254Y206D01*
X1254Y208D01*
X1258Y208D01*
X1258Y210D01*
X1264Y210D01*
X1264Y212D01*
X1270Y212D01*
X1270Y214D01*
X1282Y214D01*
X1282Y216D01*
X1042Y216D01*
G37*
D02*
G36*
X1292Y216D02*
X1292Y214D01*
X1304Y214D01*
X1304Y212D01*
X1310Y212D01*
X1310Y210D01*
X1314Y210D01*
X1314Y208D01*
X1318Y208D01*
X1318Y206D01*
X1322Y206D01*
X1322Y204D01*
X1326Y204D01*
X1326Y202D01*
X1328Y202D01*
X1328Y200D01*
X1332Y200D01*
X1332Y198D01*
X1334Y198D01*
X1334Y196D01*
X1336Y196D01*
X1336Y194D01*
X1338Y194D01*
X1338Y192D01*
X1340Y192D01*
X1340Y190D01*
X1342Y190D01*
X1342Y188D01*
X1344Y188D01*
X1344Y184D01*
X1346Y184D01*
X1346Y182D01*
X1348Y182D01*
X1348Y178D01*
X1350Y178D01*
X1350Y176D01*
X1352Y176D01*
X1352Y172D01*
X1354Y172D01*
X1354Y166D01*
X1356Y166D01*
X1356Y160D01*
X1358Y160D01*
X1358Y150D01*
X1360Y150D01*
X1360Y134D01*
X1358Y134D01*
X1358Y124D01*
X1356Y124D01*
X1356Y118D01*
X1354Y118D01*
X1354Y114D01*
X1352Y114D01*
X1352Y110D01*
X1350Y110D01*
X1350Y106D01*
X1348Y106D01*
X1348Y102D01*
X1346Y102D01*
X1346Y100D01*
X1344Y100D01*
X1344Y98D01*
X1342Y98D01*
X1342Y94D01*
X1340Y94D01*
X1340Y92D01*
X1338Y92D01*
X1338Y90D01*
X1336Y90D01*
X1336Y88D01*
X1334Y88D01*
X1334Y86D01*
X1330Y86D01*
X1330Y84D01*
X1328Y84D01*
X1328Y82D01*
X1326Y82D01*
X1326Y80D01*
X1322Y80D01*
X1322Y78D01*
X1318Y78D01*
X1318Y76D01*
X1314Y76D01*
X1314Y74D01*
X1308Y74D01*
X1308Y72D01*
X1302Y72D01*
X1302Y70D01*
X1720Y70D01*
X1720Y72D01*
X1714Y72D01*
X1714Y74D01*
X1708Y74D01*
X1708Y76D01*
X1704Y76D01*
X1704Y78D01*
X1702Y78D01*
X1702Y80D01*
X1698Y80D01*
X1698Y82D01*
X1694Y82D01*
X1694Y84D01*
X1692Y84D01*
X1692Y86D01*
X1690Y86D01*
X1690Y88D01*
X1688Y88D01*
X1688Y90D01*
X1686Y90D01*
X1686Y92D01*
X1684Y92D01*
X1684Y94D01*
X1682Y94D01*
X1682Y96D01*
X1680Y96D01*
X1680Y98D01*
X1678Y98D01*
X1678Y102D01*
X1676Y102D01*
X1676Y104D01*
X1674Y104D01*
X1674Y108D01*
X1672Y108D01*
X1672Y112D01*
X1670Y112D01*
X1670Y116D01*
X1668Y116D01*
X1668Y120D01*
X1666Y120D01*
X1666Y128D01*
X1664Y128D01*
X1664Y156D01*
X1666Y156D01*
X1666Y164D01*
X1668Y164D01*
X1668Y168D01*
X1670Y168D01*
X1670Y174D01*
X1672Y174D01*
X1672Y178D01*
X1674Y178D01*
X1674Y180D01*
X1676Y180D01*
X1676Y184D01*
X1678Y184D01*
X1678Y186D01*
X1680Y186D01*
X1680Y188D01*
X1682Y188D01*
X1682Y190D01*
X1684Y190D01*
X1684Y192D01*
X1686Y192D01*
X1686Y194D01*
X1688Y194D01*
X1688Y196D01*
X1690Y196D01*
X1690Y198D01*
X1692Y198D01*
X1692Y200D01*
X1694Y200D01*
X1694Y202D01*
X1698Y202D01*
X1698Y204D01*
X1700Y204D01*
X1700Y206D01*
X1704Y206D01*
X1704Y208D01*
X1708Y208D01*
X1708Y210D01*
X1714Y210D01*
X1714Y212D01*
X1720Y212D01*
X1720Y214D01*
X1732Y214D01*
X1732Y216D01*
X1292Y216D01*
G37*
D02*
G36*
X40Y100D02*
X40Y98D01*
X528Y98D01*
X528Y100D01*
X40Y100D01*
G37*
D02*
G36*
X40Y100D02*
X40Y98D01*
X528Y98D01*
X528Y100D01*
X40Y100D01*
G37*
D02*
G36*
X1794Y100D02*
X1794Y98D01*
X2140Y98D01*
X2140Y100D01*
X1794Y100D01*
G37*
D02*
G36*
X1794Y100D02*
X1794Y98D01*
X2140Y98D01*
X2140Y100D01*
X1794Y100D01*
G37*
D02*
G36*
X40Y98D02*
X40Y70D01*
X570Y70D01*
X570Y72D01*
X564Y72D01*
X564Y74D01*
X558Y74D01*
X558Y76D01*
X554Y76D01*
X554Y78D01*
X552Y78D01*
X552Y80D01*
X548Y80D01*
X548Y82D01*
X544Y82D01*
X544Y84D01*
X542Y84D01*
X542Y86D01*
X540Y86D01*
X540Y88D01*
X538Y88D01*
X538Y90D01*
X536Y90D01*
X536Y92D01*
X534Y92D01*
X534Y94D01*
X532Y94D01*
X532Y96D01*
X530Y96D01*
X530Y98D01*
X40Y98D01*
G37*
D02*
G36*
X1792Y98D02*
X1792Y94D01*
X1790Y94D01*
X1790Y92D01*
X1788Y92D01*
X1788Y90D01*
X1786Y90D01*
X1786Y88D01*
X1784Y88D01*
X1784Y86D01*
X1780Y86D01*
X1780Y84D01*
X1778Y84D01*
X1778Y82D01*
X1776Y82D01*
X1776Y80D01*
X1772Y80D01*
X1772Y78D01*
X1768Y78D01*
X1768Y76D01*
X1764Y76D01*
X1764Y74D01*
X1758Y74D01*
X1758Y72D01*
X1752Y72D01*
X1752Y70D01*
X2140Y70D01*
X2140Y98D01*
X1792Y98D01*
G37*
D02*
G36*
X40Y70D02*
X40Y68D01*
X2140Y68D01*
X2140Y70D01*
X40Y70D01*
G37*
D02*
G36*
X40Y70D02*
X40Y68D01*
X2140Y68D01*
X2140Y70D01*
X40Y70D01*
G37*
D02*
G36*
X40Y70D02*
X40Y68D01*
X2140Y68D01*
X2140Y70D01*
X40Y70D01*
G37*
D02*
G36*
X40Y70D02*
X40Y68D01*
X2140Y68D01*
X2140Y70D01*
X40Y70D01*
G37*
D02*
G36*
X40Y70D02*
X40Y68D01*
X2140Y68D01*
X2140Y70D01*
X40Y70D01*
G37*
D02*
G36*
X40Y68D02*
X40Y40D01*
X2140Y40D01*
X2140Y68D01*
X40Y68D01*
G37*
D02*
G36*
X1467Y1944D02*
X1504Y1944D01*
X1504Y1912D01*
X1467Y1912D01*
X1467Y1944D01*
G37*
D02*
G36*
X1467Y1878D02*
X1504Y1878D01*
X1504Y1844D01*
X1467Y1844D01*
X1467Y1878D01*
G37*
D02*
G36*
X1502Y1913D02*
X1534Y1913D01*
X1534Y1876D01*
X1502Y1876D01*
X1502Y1913D01*
G37*
D02*
G36*
X1367Y1944D02*
X1404Y1944D01*
X1404Y1912D01*
X1367Y1912D01*
X1367Y1944D01*
G37*
D02*
G36*
X1367Y1878D02*
X1404Y1878D01*
X1404Y1844D01*
X1367Y1844D01*
X1367Y1878D01*
G37*
D02*
G36*
X1336Y1913D02*
X1368Y1913D01*
X1368Y1876D01*
X1336Y1876D01*
X1336Y1913D01*
G37*
D02*
G36*
X1666Y1376D02*
X1705Y1376D01*
X1705Y1342D01*
X1666Y1342D01*
X1666Y1376D01*
G37*
D02*
G36*
X1632Y1414D02*
X1666Y1414D01*
X1666Y1375D01*
X1632Y1375D01*
X1632Y1414D01*
G37*
D02*
G36*
X1704Y1414D02*
X1736Y1414D01*
X1736Y1375D01*
X1704Y1375D01*
X1704Y1414D01*
G37*
D02*
G36*
X434Y1814D02*
X466Y1814D01*
X466Y1775D01*
X434Y1775D01*
X434Y1814D01*
G37*
D02*
G36*
X504Y1814D02*
X536Y1814D01*
X536Y1775D01*
X504Y1775D01*
X504Y1814D01*
G37*
D02*
G36*
X1134Y1614D02*
X1166Y1614D01*
X1166Y1575D01*
X1134Y1575D01*
X1134Y1614D01*
G37*
D02*
G36*
X1204Y1614D02*
X1236Y1614D01*
X1236Y1575D01*
X1204Y1575D01*
X1204Y1614D01*
G37*
D02*
G54D17*
X480Y1926D02*
X492Y1926D01*
X1180Y1926D02*
X1192Y1926D01*
X477Y1925D02*
X496Y1925D01*
X1177Y1925D02*
X1195Y1925D01*
X474Y1924D02*
X498Y1924D01*
X1174Y1924D02*
X1198Y1924D01*
X472Y1923D02*
X500Y1923D01*
X1172Y1923D02*
X1200Y1923D01*
X470Y1922D02*
X502Y1922D01*
X1170Y1922D02*
X1202Y1922D01*
X469Y1921D02*
X504Y1921D01*
X1169Y1921D02*
X1204Y1921D01*
X467Y1920D02*
X505Y1920D01*
X1167Y1920D02*
X1205Y1920D01*
X466Y1919D02*
X506Y1919D01*
X1166Y1919D02*
X1206Y1919D01*
X465Y1918D02*
X507Y1918D01*
X1165Y1918D02*
X1207Y1918D01*
X464Y1917D02*
X509Y1917D01*
X1164Y1917D02*
X1208Y1917D01*
X463Y1916D02*
X510Y1916D01*
X1163Y1916D02*
X1209Y1916D01*
X462Y1915D02*
X510Y1915D01*
X1162Y1915D02*
X1210Y1915D01*
X461Y1914D02*
X511Y1914D01*
X1161Y1914D02*
X1211Y1914D01*
X460Y1913D02*
X512Y1913D01*
X1160Y1913D02*
X1212Y1913D01*
X459Y1912D02*
X513Y1912D01*
X1159Y1912D02*
X1213Y1912D01*
X459Y1911D02*
X514Y1911D01*
X1159Y1911D02*
X1214Y1911D01*
X458Y1910D02*
X480Y1910D01*
X492Y1910D02*
X514Y1910D01*
X1158Y1910D02*
X1180Y1910D01*
X1192Y1910D02*
X1214Y1910D01*
X457Y1909D02*
X477Y1909D01*
X495Y1909D02*
X515Y1909D01*
X1157Y1909D02*
X1177Y1909D01*
X1195Y1909D02*
X1215Y1909D01*
X457Y1908D02*
X475Y1908D01*
X497Y1908D02*
X515Y1908D01*
X1157Y1908D02*
X1175Y1908D01*
X1197Y1908D02*
X1215Y1908D01*
X456Y1907D02*
X474Y1907D01*
X498Y1907D02*
X516Y1907D01*
X1156Y1907D02*
X1174Y1907D01*
X1198Y1907D02*
X1216Y1907D01*
X456Y1906D02*
X473Y1906D01*
X500Y1906D02*
X516Y1906D01*
X1156Y1906D02*
X1173Y1906D01*
X1199Y1906D02*
X1216Y1906D01*
X455Y1905D02*
X472Y1905D01*
X500Y1905D02*
X517Y1905D01*
X1155Y1905D02*
X1172Y1905D01*
X1200Y1905D02*
X1217Y1905D01*
X455Y1904D02*
X471Y1904D01*
X501Y1904D02*
X517Y1904D01*
X1155Y1904D02*
X1171Y1904D01*
X1201Y1904D02*
X1217Y1904D01*
X454Y1903D02*
X470Y1903D01*
X502Y1903D02*
X518Y1903D01*
X1154Y1903D02*
X1170Y1903D01*
X1202Y1903D02*
X1218Y1903D01*
X454Y1902D02*
X470Y1902D01*
X502Y1902D02*
X518Y1902D01*
X1154Y1902D02*
X1170Y1902D01*
X1202Y1902D02*
X1218Y1902D01*
X454Y1901D02*
X469Y1901D01*
X503Y1901D02*
X518Y1901D01*
X1154Y1901D02*
X1169Y1901D01*
X1203Y1901D02*
X1218Y1901D01*
X453Y1900D02*
X469Y1900D01*
X503Y1900D02*
X519Y1900D01*
X1153Y1900D02*
X1169Y1900D01*
X1203Y1900D02*
X1219Y1900D01*
X453Y1899D02*
X468Y1899D01*
X504Y1899D02*
X519Y1899D01*
X1153Y1899D02*
X1168Y1899D01*
X1204Y1899D02*
X1219Y1899D01*
X453Y1898D02*
X468Y1898D01*
X504Y1898D02*
X519Y1898D01*
X1153Y1898D02*
X1168Y1898D01*
X1204Y1898D02*
X1219Y1898D01*
X453Y1897D02*
X468Y1897D01*
X504Y1897D02*
X519Y1897D01*
X1153Y1897D02*
X1168Y1897D01*
X1204Y1897D02*
X1219Y1897D01*
X453Y1896D02*
X468Y1896D01*
X504Y1896D02*
X519Y1896D01*
X1153Y1896D02*
X1168Y1896D01*
X1204Y1896D02*
X1219Y1896D01*
X453Y1895D02*
X468Y1895D01*
X504Y1895D02*
X519Y1895D01*
X1153Y1895D02*
X1168Y1895D01*
X1204Y1895D02*
X1219Y1895D01*
X453Y1894D02*
X468Y1894D01*
X504Y1894D02*
X519Y1894D01*
X1152Y1894D02*
X1167Y1894D01*
X1204Y1894D02*
X1219Y1894D01*
X453Y1893D02*
X468Y1893D01*
X504Y1893D02*
X519Y1893D01*
X1152Y1893D02*
X1167Y1893D01*
X1204Y1893D02*
X1219Y1893D01*
X453Y1892D02*
X468Y1892D01*
X504Y1892D02*
X519Y1892D01*
X1152Y1892D02*
X1167Y1892D01*
X1204Y1892D02*
X1219Y1892D01*
X453Y1891D02*
X468Y1891D01*
X504Y1891D02*
X519Y1891D01*
X1152Y1891D02*
X1167Y1891D01*
X1204Y1891D02*
X1219Y1891D01*
X453Y1890D02*
X468Y1890D01*
X504Y1890D02*
X519Y1890D01*
X1153Y1890D02*
X1168Y1890D01*
X1204Y1890D02*
X1219Y1890D01*
X453Y1889D02*
X468Y1889D01*
X504Y1889D02*
X519Y1889D01*
X1153Y1889D02*
X1168Y1889D01*
X1204Y1889D02*
X1219Y1889D01*
X453Y1888D02*
X468Y1888D01*
X504Y1888D02*
X519Y1888D01*
X1153Y1888D02*
X1168Y1888D01*
X1204Y1888D02*
X1219Y1888D01*
X453Y1887D02*
X468Y1887D01*
X504Y1887D02*
X519Y1887D01*
X1153Y1887D02*
X1168Y1887D01*
X1204Y1887D02*
X1219Y1887D01*
X453Y1886D02*
X468Y1886D01*
X504Y1886D02*
X519Y1886D01*
X1153Y1886D02*
X1168Y1886D01*
X1204Y1886D02*
X1219Y1886D01*
X453Y1885D02*
X469Y1885D01*
X503Y1885D02*
X519Y1885D01*
X1153Y1885D02*
X1169Y1885D01*
X1203Y1885D02*
X1219Y1885D01*
X454Y1884D02*
X469Y1884D01*
X503Y1884D02*
X518Y1884D01*
X1154Y1884D02*
X1169Y1884D01*
X1203Y1884D02*
X1218Y1884D01*
X454Y1883D02*
X470Y1883D01*
X502Y1883D02*
X518Y1883D01*
X1154Y1883D02*
X1170Y1883D01*
X1202Y1883D02*
X1218Y1883D01*
X454Y1882D02*
X470Y1882D01*
X502Y1882D02*
X518Y1882D01*
X1154Y1882D02*
X1170Y1882D01*
X1202Y1882D02*
X1218Y1882D01*
X455Y1881D02*
X471Y1881D01*
X501Y1881D02*
X517Y1881D01*
X1155Y1881D02*
X1171Y1881D01*
X1201Y1881D02*
X1217Y1881D01*
X455Y1880D02*
X472Y1880D01*
X501Y1880D02*
X517Y1880D01*
X1155Y1880D02*
X1172Y1880D01*
X1200Y1880D02*
X1217Y1880D01*
X456Y1879D02*
X473Y1879D01*
X500Y1879D02*
X516Y1879D01*
X1156Y1879D02*
X1173Y1879D01*
X1199Y1879D02*
X1216Y1879D01*
X456Y1878D02*
X474Y1878D01*
X498Y1878D02*
X516Y1878D01*
X1156Y1878D02*
X1174Y1878D01*
X1198Y1878D02*
X1216Y1878D01*
X457Y1877D02*
X476Y1877D01*
X497Y1877D02*
X515Y1877D01*
X1157Y1877D02*
X1176Y1877D01*
X1197Y1877D02*
X1215Y1877D01*
X457Y1876D02*
X478Y1876D01*
X495Y1876D02*
X515Y1876D01*
X1157Y1876D02*
X1178Y1876D01*
X1195Y1876D02*
X1215Y1876D01*
X458Y1875D02*
X482Y1875D01*
X491Y1875D02*
X514Y1875D01*
X1158Y1875D02*
X1182Y1875D01*
X1191Y1875D02*
X1214Y1875D01*
X459Y1874D02*
X514Y1874D01*
X1159Y1874D02*
X1214Y1874D01*
X459Y1873D02*
X513Y1873D01*
X1159Y1873D02*
X1213Y1873D01*
X460Y1872D02*
X512Y1872D01*
X1160Y1872D02*
X1212Y1872D01*
X461Y1871D02*
X511Y1871D01*
X1161Y1871D02*
X1211Y1871D01*
X462Y1870D02*
X510Y1870D01*
X1162Y1870D02*
X1210Y1870D01*
X463Y1869D02*
X510Y1869D01*
X1163Y1869D02*
X1209Y1869D01*
X464Y1868D02*
X509Y1868D01*
X1164Y1868D02*
X1208Y1868D01*
X465Y1867D02*
X507Y1867D01*
X1165Y1867D02*
X1207Y1867D01*
X466Y1866D02*
X506Y1866D01*
X1166Y1866D02*
X1206Y1866D01*
X468Y1865D02*
X505Y1865D01*
X1168Y1865D02*
X1205Y1865D01*
X469Y1864D02*
X503Y1864D01*
X1169Y1864D02*
X1203Y1864D01*
X471Y1863D02*
X502Y1863D01*
X1171Y1863D02*
X1202Y1863D01*
X473Y1862D02*
X500Y1862D01*
X1173Y1862D02*
X1200Y1862D01*
X475Y1861D02*
X497Y1861D01*
X1175Y1861D02*
X1197Y1861D01*
X478Y1860D02*
X495Y1860D01*
X1178Y1860D02*
X1195Y1860D01*
X482Y1859D02*
X490Y1859D01*
X1182Y1859D02*
X1190Y1859D01*
X480Y1826D02*
X492Y1826D01*
X1180Y1826D02*
X1192Y1826D01*
X477Y1825D02*
X496Y1825D01*
X1177Y1825D02*
X1196Y1825D01*
X474Y1824D02*
X498Y1824D01*
X1174Y1824D02*
X1198Y1824D01*
X472Y1823D02*
X500Y1823D01*
X1172Y1823D02*
X1200Y1823D01*
X470Y1822D02*
X502Y1822D01*
X1170Y1822D02*
X1202Y1822D01*
X469Y1821D02*
X504Y1821D01*
X1169Y1821D02*
X1204Y1821D01*
X467Y1820D02*
X505Y1820D01*
X1167Y1820D02*
X1205Y1820D01*
X466Y1819D02*
X506Y1819D01*
X1166Y1819D02*
X1206Y1819D01*
X465Y1818D02*
X507Y1818D01*
X1165Y1818D02*
X1207Y1818D01*
X464Y1817D02*
X509Y1817D01*
X1164Y1817D02*
X1208Y1817D01*
X463Y1816D02*
X510Y1816D01*
X1163Y1816D02*
X1209Y1816D01*
X462Y1815D02*
X510Y1815D01*
X1162Y1815D02*
X1210Y1815D01*
X461Y1814D02*
X511Y1814D01*
X1161Y1814D02*
X1211Y1814D01*
X460Y1813D02*
X512Y1813D01*
X1160Y1813D02*
X1212Y1813D01*
X459Y1812D02*
X513Y1812D01*
X1159Y1812D02*
X1213Y1812D01*
X459Y1811D02*
X514Y1811D01*
X1159Y1811D02*
X1214Y1811D01*
X458Y1810D02*
X480Y1810D01*
X492Y1810D02*
X514Y1810D01*
X1158Y1810D02*
X1180Y1810D01*
X1192Y1810D02*
X1214Y1810D01*
X457Y1809D02*
X477Y1809D01*
X495Y1809D02*
X515Y1809D01*
X1157Y1809D02*
X1177Y1809D01*
X1195Y1809D02*
X1215Y1809D01*
X457Y1808D02*
X475Y1808D01*
X497Y1808D02*
X515Y1808D01*
X1157Y1808D02*
X1175Y1808D01*
X1197Y1808D02*
X1215Y1808D01*
X456Y1807D02*
X474Y1807D01*
X498Y1807D02*
X516Y1807D01*
X1156Y1807D02*
X1174Y1807D01*
X1198Y1807D02*
X1216Y1807D01*
X456Y1806D02*
X473Y1806D01*
X500Y1806D02*
X516Y1806D01*
X1156Y1806D02*
X1173Y1806D01*
X1200Y1806D02*
X1216Y1806D01*
X455Y1805D02*
X472Y1805D01*
X500Y1805D02*
X517Y1805D01*
X1155Y1805D02*
X1172Y1805D01*
X1200Y1805D02*
X1217Y1805D01*
X455Y1804D02*
X471Y1804D01*
X501Y1804D02*
X517Y1804D01*
X1155Y1804D02*
X1171Y1804D01*
X1201Y1804D02*
X1217Y1804D01*
X454Y1803D02*
X470Y1803D01*
X502Y1803D02*
X518Y1803D01*
X1154Y1803D02*
X1170Y1803D01*
X1202Y1803D02*
X1218Y1803D01*
X454Y1802D02*
X470Y1802D01*
X502Y1802D02*
X518Y1802D01*
X1154Y1802D02*
X1170Y1802D01*
X1202Y1802D02*
X1218Y1802D01*
X454Y1801D02*
X469Y1801D01*
X503Y1801D02*
X518Y1801D01*
X1154Y1801D02*
X1169Y1801D01*
X1203Y1801D02*
X1218Y1801D01*
X453Y1800D02*
X469Y1800D01*
X503Y1800D02*
X519Y1800D01*
X1153Y1800D02*
X1169Y1800D01*
X1203Y1800D02*
X1219Y1800D01*
X453Y1799D02*
X468Y1799D01*
X504Y1799D02*
X519Y1799D01*
X1153Y1799D02*
X1168Y1799D01*
X1204Y1799D02*
X1219Y1799D01*
X453Y1798D02*
X468Y1798D01*
X504Y1798D02*
X519Y1798D01*
X1153Y1798D02*
X1168Y1798D01*
X1204Y1798D02*
X1219Y1798D01*
X453Y1797D02*
X468Y1797D01*
X504Y1797D02*
X519Y1797D01*
X1153Y1797D02*
X1168Y1797D01*
X1204Y1797D02*
X1219Y1797D01*
X453Y1796D02*
X468Y1796D01*
X504Y1796D02*
X519Y1796D01*
X1153Y1796D02*
X1168Y1796D01*
X1204Y1796D02*
X1219Y1796D01*
X453Y1795D02*
X468Y1795D01*
X504Y1795D02*
X519Y1795D01*
X1153Y1795D02*
X1168Y1795D01*
X1204Y1795D02*
X1219Y1795D01*
X453Y1794D02*
X468Y1794D01*
X504Y1794D02*
X519Y1794D01*
X1152Y1794D02*
X1167Y1794D01*
X1204Y1794D02*
X1219Y1794D01*
X453Y1793D02*
X468Y1793D01*
X504Y1793D02*
X519Y1793D01*
X1152Y1793D02*
X1167Y1793D01*
X1204Y1793D02*
X1219Y1793D01*
X453Y1792D02*
X468Y1792D01*
X504Y1792D02*
X519Y1792D01*
X1152Y1792D02*
X1167Y1792D01*
X1204Y1792D02*
X1219Y1792D01*
X453Y1791D02*
X468Y1791D01*
X504Y1791D02*
X519Y1791D01*
X1152Y1791D02*
X1167Y1791D01*
X1204Y1791D02*
X1219Y1791D01*
X453Y1790D02*
X468Y1790D01*
X504Y1790D02*
X519Y1790D01*
X1153Y1790D02*
X1168Y1790D01*
X1204Y1790D02*
X1219Y1790D01*
X453Y1789D02*
X468Y1789D01*
X504Y1789D02*
X519Y1789D01*
X1153Y1789D02*
X1168Y1789D01*
X1204Y1789D02*
X1219Y1789D01*
X453Y1788D02*
X468Y1788D01*
X504Y1788D02*
X519Y1788D01*
X1153Y1788D02*
X1168Y1788D01*
X1204Y1788D02*
X1219Y1788D01*
X453Y1787D02*
X468Y1787D01*
X504Y1787D02*
X519Y1787D01*
X1153Y1787D02*
X1168Y1787D01*
X1204Y1787D02*
X1219Y1787D01*
X453Y1786D02*
X468Y1786D01*
X504Y1786D02*
X519Y1786D01*
X1153Y1786D02*
X1168Y1786D01*
X1204Y1786D02*
X1219Y1786D01*
X453Y1785D02*
X469Y1785D01*
X503Y1785D02*
X519Y1785D01*
X1153Y1785D02*
X1169Y1785D01*
X1203Y1785D02*
X1218Y1785D01*
X454Y1784D02*
X469Y1784D01*
X503Y1784D02*
X518Y1784D01*
X1154Y1784D02*
X1169Y1784D01*
X1203Y1784D02*
X1218Y1784D01*
X454Y1783D02*
X470Y1783D01*
X502Y1783D02*
X518Y1783D01*
X1154Y1783D02*
X1170Y1783D01*
X1202Y1783D02*
X1218Y1783D01*
X454Y1782D02*
X470Y1782D01*
X502Y1782D02*
X518Y1782D01*
X1154Y1782D02*
X1170Y1782D01*
X1202Y1782D02*
X1218Y1782D01*
X455Y1781D02*
X471Y1781D01*
X501Y1781D02*
X517Y1781D01*
X1155Y1781D02*
X1171Y1781D01*
X1201Y1781D02*
X1217Y1781D01*
X455Y1780D02*
X472Y1780D01*
X500Y1780D02*
X517Y1780D01*
X1155Y1780D02*
X1172Y1780D01*
X1200Y1780D02*
X1217Y1780D01*
X456Y1779D02*
X473Y1779D01*
X500Y1779D02*
X516Y1779D01*
X1156Y1779D02*
X1173Y1779D01*
X1199Y1779D02*
X1216Y1779D01*
X456Y1778D02*
X474Y1778D01*
X498Y1778D02*
X516Y1778D01*
X1156Y1778D02*
X1174Y1778D01*
X1198Y1778D02*
X1216Y1778D01*
X457Y1777D02*
X476Y1777D01*
X497Y1777D02*
X515Y1777D01*
X1157Y1777D02*
X1176Y1777D01*
X1197Y1777D02*
X1215Y1777D01*
X457Y1776D02*
X478Y1776D01*
X495Y1776D02*
X515Y1776D01*
X1157Y1776D02*
X1178Y1776D01*
X1194Y1776D02*
X1215Y1776D01*
X458Y1775D02*
X482Y1775D01*
X491Y1775D02*
X514Y1775D01*
X1158Y1775D02*
X1182Y1775D01*
X1191Y1775D02*
X1214Y1775D01*
X459Y1774D02*
X514Y1774D01*
X1159Y1774D02*
X1214Y1774D01*
X459Y1773D02*
X513Y1773D01*
X1159Y1773D02*
X1213Y1773D01*
X460Y1772D02*
X512Y1772D01*
X1160Y1772D02*
X1212Y1772D01*
X461Y1771D02*
X511Y1771D01*
X1161Y1771D02*
X1211Y1771D01*
X462Y1770D02*
X510Y1770D01*
X1162Y1770D02*
X1210Y1770D01*
X463Y1769D02*
X510Y1769D01*
X1163Y1769D02*
X1209Y1769D01*
X464Y1768D02*
X508Y1768D01*
X1164Y1768D02*
X1208Y1768D01*
X465Y1767D02*
X507Y1767D01*
X1165Y1767D02*
X1207Y1767D01*
X466Y1766D02*
X506Y1766D01*
X1166Y1766D02*
X1206Y1766D01*
X468Y1765D02*
X505Y1765D01*
X1168Y1765D02*
X1205Y1765D01*
X469Y1764D02*
X503Y1764D01*
X1169Y1764D02*
X1203Y1764D01*
X471Y1763D02*
X502Y1763D01*
X1171Y1763D02*
X1202Y1763D01*
X473Y1762D02*
X500Y1762D01*
X1173Y1762D02*
X1200Y1762D01*
X475Y1761D02*
X497Y1761D01*
X1175Y1761D02*
X1197Y1761D01*
X478Y1760D02*
X494Y1760D01*
X1178Y1760D02*
X1194Y1760D01*
X482Y1759D02*
X490Y1759D01*
X1182Y1759D02*
X1190Y1759D01*
X480Y1726D02*
X492Y1726D01*
X1180Y1726D02*
X1192Y1726D01*
X477Y1725D02*
X496Y1725D01*
X1177Y1725D02*
X1196Y1725D01*
X474Y1724D02*
X498Y1724D01*
X1174Y1724D02*
X1198Y1724D01*
X472Y1723D02*
X500Y1723D01*
X1172Y1723D02*
X1200Y1723D01*
X470Y1722D02*
X502Y1722D01*
X1170Y1722D02*
X1202Y1722D01*
X469Y1721D02*
X504Y1721D01*
X1169Y1721D02*
X1204Y1721D01*
X467Y1720D02*
X505Y1720D01*
X1167Y1720D02*
X1205Y1720D01*
X466Y1719D02*
X506Y1719D01*
X1166Y1719D02*
X1206Y1719D01*
X465Y1718D02*
X507Y1718D01*
X1165Y1718D02*
X1207Y1718D01*
X464Y1717D02*
X509Y1717D01*
X1164Y1717D02*
X1208Y1717D01*
X463Y1716D02*
X510Y1716D01*
X1163Y1716D02*
X1209Y1716D01*
X462Y1715D02*
X510Y1715D01*
X1162Y1715D02*
X1210Y1715D01*
X461Y1714D02*
X511Y1714D01*
X1161Y1714D02*
X1211Y1714D01*
X460Y1713D02*
X512Y1713D01*
X1160Y1713D02*
X1212Y1713D01*
X459Y1712D02*
X513Y1712D01*
X1159Y1712D02*
X1213Y1712D01*
X459Y1711D02*
X514Y1711D01*
X1159Y1711D02*
X1214Y1711D01*
X458Y1710D02*
X480Y1710D01*
X492Y1710D02*
X514Y1710D01*
X1158Y1710D02*
X1180Y1710D01*
X1192Y1710D02*
X1214Y1710D01*
X457Y1709D02*
X477Y1709D01*
X495Y1709D02*
X515Y1709D01*
X1157Y1709D02*
X1177Y1709D01*
X1195Y1709D02*
X1215Y1709D01*
X457Y1708D02*
X475Y1708D01*
X497Y1708D02*
X515Y1708D01*
X1157Y1708D02*
X1175Y1708D01*
X1197Y1708D02*
X1215Y1708D01*
X456Y1707D02*
X474Y1707D01*
X498Y1707D02*
X516Y1707D01*
X1156Y1707D02*
X1174Y1707D01*
X1198Y1707D02*
X1216Y1707D01*
X456Y1706D02*
X473Y1706D01*
X500Y1706D02*
X516Y1706D01*
X1156Y1706D02*
X1173Y1706D01*
X1200Y1706D02*
X1216Y1706D01*
X455Y1705D02*
X472Y1705D01*
X501Y1705D02*
X517Y1705D01*
X1155Y1705D02*
X1172Y1705D01*
X1200Y1705D02*
X1217Y1705D01*
X455Y1704D02*
X471Y1704D01*
X501Y1704D02*
X517Y1704D01*
X1155Y1704D02*
X1171Y1704D01*
X1201Y1704D02*
X1217Y1704D01*
X454Y1703D02*
X470Y1703D01*
X502Y1703D02*
X518Y1703D01*
X1154Y1703D02*
X1170Y1703D01*
X1202Y1703D02*
X1218Y1703D01*
X454Y1702D02*
X470Y1702D01*
X502Y1702D02*
X518Y1702D01*
X1154Y1702D02*
X1170Y1702D01*
X1202Y1702D02*
X1218Y1702D01*
X454Y1701D02*
X469Y1701D01*
X503Y1701D02*
X518Y1701D01*
X1154Y1701D02*
X1169Y1701D01*
X1203Y1701D02*
X1218Y1701D01*
X453Y1700D02*
X469Y1700D01*
X503Y1700D02*
X519Y1700D01*
X1153Y1700D02*
X1169Y1700D01*
X1203Y1700D02*
X1219Y1700D01*
X453Y1699D02*
X468Y1699D01*
X504Y1699D02*
X519Y1699D01*
X1153Y1699D02*
X1168Y1699D01*
X1204Y1699D02*
X1219Y1699D01*
X453Y1698D02*
X468Y1698D01*
X504Y1698D02*
X519Y1698D01*
X1153Y1698D02*
X1168Y1698D01*
X1204Y1698D02*
X1219Y1698D01*
X453Y1697D02*
X468Y1697D01*
X504Y1697D02*
X519Y1697D01*
X1153Y1697D02*
X1168Y1697D01*
X1204Y1697D02*
X1219Y1697D01*
X453Y1696D02*
X468Y1696D01*
X504Y1696D02*
X519Y1696D01*
X1153Y1696D02*
X1168Y1696D01*
X1204Y1696D02*
X1219Y1696D01*
X453Y1695D02*
X468Y1695D01*
X504Y1695D02*
X519Y1695D01*
X1153Y1695D02*
X1168Y1695D01*
X1204Y1695D02*
X1219Y1695D01*
X453Y1694D02*
X468Y1694D01*
X504Y1694D02*
X519Y1694D01*
X1152Y1694D02*
X1167Y1694D01*
X1204Y1694D02*
X1219Y1694D01*
X453Y1693D02*
X468Y1693D01*
X504Y1693D02*
X519Y1693D01*
X1152Y1693D02*
X1167Y1693D01*
X1204Y1693D02*
X1219Y1693D01*
X453Y1692D02*
X468Y1692D01*
X504Y1692D02*
X519Y1692D01*
X1152Y1692D02*
X1167Y1692D01*
X1204Y1692D02*
X1219Y1692D01*
X453Y1691D02*
X468Y1691D01*
X504Y1691D02*
X519Y1691D01*
X1152Y1691D02*
X1167Y1691D01*
X1204Y1691D02*
X1219Y1691D01*
X453Y1690D02*
X468Y1690D01*
X504Y1690D02*
X519Y1690D01*
X1153Y1690D02*
X1168Y1690D01*
X1204Y1690D02*
X1219Y1690D01*
X453Y1689D02*
X468Y1689D01*
X504Y1689D02*
X519Y1689D01*
X1153Y1689D02*
X1168Y1689D01*
X1204Y1689D02*
X1219Y1689D01*
X453Y1688D02*
X468Y1688D01*
X504Y1688D02*
X519Y1688D01*
X1153Y1688D02*
X1168Y1688D01*
X1204Y1688D02*
X1219Y1688D01*
X453Y1687D02*
X468Y1687D01*
X504Y1687D02*
X519Y1687D01*
X1153Y1687D02*
X1168Y1687D01*
X1204Y1687D02*
X1219Y1687D01*
X453Y1686D02*
X468Y1686D01*
X504Y1686D02*
X519Y1686D01*
X1153Y1686D02*
X1168Y1686D01*
X1204Y1686D02*
X1219Y1686D01*
X453Y1685D02*
X469Y1685D01*
X503Y1685D02*
X519Y1685D01*
X1153Y1685D02*
X1169Y1685D01*
X1203Y1685D02*
X1218Y1685D01*
X454Y1684D02*
X469Y1684D01*
X503Y1684D02*
X518Y1684D01*
X1154Y1684D02*
X1169Y1684D01*
X1203Y1684D02*
X1218Y1684D01*
X454Y1683D02*
X470Y1683D01*
X502Y1683D02*
X518Y1683D01*
X1154Y1683D02*
X1170Y1683D01*
X1202Y1683D02*
X1218Y1683D01*
X454Y1682D02*
X470Y1682D01*
X502Y1682D02*
X518Y1682D01*
X1154Y1682D02*
X1170Y1682D01*
X1202Y1682D02*
X1218Y1682D01*
X455Y1681D02*
X471Y1681D01*
X501Y1681D02*
X517Y1681D01*
X1155Y1681D02*
X1171Y1681D01*
X1201Y1681D02*
X1217Y1681D01*
X455Y1680D02*
X472Y1680D01*
X500Y1680D02*
X517Y1680D01*
X1155Y1680D02*
X1172Y1680D01*
X1200Y1680D02*
X1217Y1680D01*
X456Y1679D02*
X473Y1679D01*
X500Y1679D02*
X516Y1679D01*
X1156Y1679D02*
X1173Y1679D01*
X1199Y1679D02*
X1216Y1679D01*
X456Y1678D02*
X474Y1678D01*
X498Y1678D02*
X516Y1678D01*
X1156Y1678D02*
X1174Y1678D01*
X1198Y1678D02*
X1216Y1678D01*
X457Y1677D02*
X476Y1677D01*
X497Y1677D02*
X515Y1677D01*
X1157Y1677D02*
X1176Y1677D01*
X1197Y1677D02*
X1215Y1677D01*
X457Y1676D02*
X478Y1676D01*
X495Y1676D02*
X515Y1676D01*
X1157Y1676D02*
X1178Y1676D01*
X1194Y1676D02*
X1215Y1676D01*
X458Y1675D02*
X482Y1675D01*
X491Y1675D02*
X514Y1675D01*
X1158Y1675D02*
X1182Y1675D01*
X1191Y1675D02*
X1214Y1675D01*
X459Y1674D02*
X514Y1674D01*
X1159Y1674D02*
X1214Y1674D01*
X459Y1673D02*
X513Y1673D01*
X1159Y1673D02*
X1213Y1673D01*
X460Y1672D02*
X512Y1672D01*
X1160Y1672D02*
X1212Y1672D01*
X461Y1671D02*
X511Y1671D01*
X1161Y1671D02*
X1211Y1671D01*
X462Y1670D02*
X510Y1670D01*
X1162Y1670D02*
X1210Y1670D01*
X463Y1669D02*
X510Y1669D01*
X1163Y1669D02*
X1209Y1669D01*
X464Y1668D02*
X508Y1668D01*
X1164Y1668D02*
X1208Y1668D01*
X465Y1667D02*
X507Y1667D01*
X1165Y1667D02*
X1207Y1667D01*
X466Y1666D02*
X506Y1666D01*
X1166Y1666D02*
X1206Y1666D01*
X468Y1665D02*
X505Y1665D01*
X1168Y1665D02*
X1205Y1665D01*
X469Y1664D02*
X503Y1664D01*
X1169Y1664D02*
X1203Y1664D01*
X471Y1663D02*
X502Y1663D01*
X1171Y1663D02*
X1202Y1663D01*
X473Y1662D02*
X500Y1662D01*
X1173Y1662D02*
X1200Y1662D01*
X475Y1661D02*
X497Y1661D01*
X1175Y1661D02*
X1197Y1661D01*
X478Y1660D02*
X494Y1660D01*
X1178Y1660D02*
X1194Y1660D01*
X483Y1659D02*
X490Y1659D01*
X1182Y1659D02*
X1190Y1659D01*
X480Y1626D02*
X492Y1626D01*
X1180Y1626D02*
X1192Y1626D01*
X477Y1625D02*
X496Y1625D01*
X1177Y1625D02*
X1196Y1625D01*
X474Y1624D02*
X498Y1624D01*
X1174Y1624D02*
X1198Y1624D01*
X472Y1623D02*
X500Y1623D01*
X1172Y1623D02*
X1200Y1623D01*
X470Y1622D02*
X502Y1622D01*
X1170Y1622D02*
X1202Y1622D01*
X469Y1621D02*
X504Y1621D01*
X1169Y1621D02*
X1204Y1621D01*
X467Y1620D02*
X505Y1620D01*
X1167Y1620D02*
X1205Y1620D01*
X466Y1619D02*
X506Y1619D01*
X1166Y1619D02*
X1206Y1619D01*
X465Y1618D02*
X507Y1618D01*
X1165Y1618D02*
X1207Y1618D01*
X464Y1617D02*
X509Y1617D01*
X1164Y1617D02*
X1209Y1617D01*
X463Y1616D02*
X510Y1616D01*
X1163Y1616D02*
X1210Y1616D01*
X462Y1615D02*
X510Y1615D01*
X1162Y1615D02*
X1210Y1615D01*
X461Y1614D02*
X511Y1614D01*
X1161Y1614D02*
X1211Y1614D01*
X460Y1613D02*
X512Y1613D01*
X1160Y1613D02*
X1212Y1613D01*
X459Y1612D02*
X513Y1612D01*
X1159Y1612D02*
X1213Y1612D01*
X459Y1611D02*
X514Y1611D01*
X1159Y1611D02*
X1214Y1611D01*
X458Y1610D02*
X480Y1610D01*
X492Y1610D02*
X514Y1610D01*
X1158Y1610D02*
X1180Y1610D01*
X1192Y1610D02*
X1214Y1610D01*
X457Y1609D02*
X477Y1609D01*
X495Y1609D02*
X515Y1609D01*
X1157Y1609D02*
X1177Y1609D01*
X1195Y1609D02*
X1215Y1609D01*
X457Y1608D02*
X475Y1608D01*
X497Y1608D02*
X515Y1608D01*
X1157Y1608D02*
X1175Y1608D01*
X1197Y1608D02*
X1215Y1608D01*
X456Y1607D02*
X474Y1607D01*
X498Y1607D02*
X516Y1607D01*
X1156Y1607D02*
X1174Y1607D01*
X1198Y1607D02*
X1216Y1607D01*
X456Y1606D02*
X473Y1606D01*
X500Y1606D02*
X516Y1606D01*
X1156Y1606D02*
X1173Y1606D01*
X1200Y1606D02*
X1216Y1606D01*
X455Y1605D02*
X472Y1605D01*
X501Y1605D02*
X517Y1605D01*
X1155Y1605D02*
X1172Y1605D01*
X1200Y1605D02*
X1217Y1605D01*
X455Y1604D02*
X471Y1604D01*
X501Y1604D02*
X517Y1604D01*
X1155Y1604D02*
X1171Y1604D01*
X1201Y1604D02*
X1217Y1604D01*
X454Y1603D02*
X470Y1603D01*
X502Y1603D02*
X518Y1603D01*
X1154Y1603D02*
X1170Y1603D01*
X1202Y1603D02*
X1218Y1603D01*
X454Y1602D02*
X470Y1602D01*
X502Y1602D02*
X518Y1602D01*
X1154Y1602D02*
X1170Y1602D01*
X1202Y1602D02*
X1218Y1602D01*
X454Y1601D02*
X469Y1601D01*
X503Y1601D02*
X518Y1601D01*
X1154Y1601D02*
X1169Y1601D01*
X1203Y1601D02*
X1218Y1601D01*
X453Y1600D02*
X469Y1600D01*
X503Y1600D02*
X519Y1600D01*
X1153Y1600D02*
X1169Y1600D01*
X1203Y1600D02*
X1219Y1600D01*
X453Y1599D02*
X468Y1599D01*
X504Y1599D02*
X519Y1599D01*
X1153Y1599D02*
X1168Y1599D01*
X1204Y1599D02*
X1219Y1599D01*
X453Y1598D02*
X468Y1598D01*
X504Y1598D02*
X519Y1598D01*
X1153Y1598D02*
X1168Y1598D01*
X1204Y1598D02*
X1219Y1598D01*
X453Y1597D02*
X468Y1597D01*
X504Y1597D02*
X519Y1597D01*
X1153Y1597D02*
X1168Y1597D01*
X1204Y1597D02*
X1219Y1597D01*
X453Y1596D02*
X468Y1596D01*
X504Y1596D02*
X519Y1596D01*
X1153Y1596D02*
X1168Y1596D01*
X1204Y1596D02*
X1219Y1596D01*
X453Y1595D02*
X468Y1595D01*
X504Y1595D02*
X519Y1595D01*
X1153Y1595D02*
X1168Y1595D01*
X1204Y1595D02*
X1219Y1595D01*
X453Y1594D02*
X468Y1594D01*
X504Y1594D02*
X519Y1594D01*
X1152Y1594D02*
X1167Y1594D01*
X1204Y1594D02*
X1219Y1594D01*
X453Y1593D02*
X468Y1593D01*
X504Y1593D02*
X519Y1593D01*
X1152Y1593D02*
X1167Y1593D01*
X1204Y1593D02*
X1219Y1593D01*
X453Y1592D02*
X468Y1592D01*
X504Y1592D02*
X519Y1592D01*
X1152Y1592D02*
X1167Y1592D01*
X1204Y1592D02*
X1219Y1592D01*
X453Y1591D02*
X468Y1591D01*
X504Y1591D02*
X519Y1591D01*
X1152Y1591D02*
X1167Y1591D01*
X1204Y1591D02*
X1219Y1591D01*
X453Y1590D02*
X468Y1590D01*
X504Y1590D02*
X519Y1590D01*
X1153Y1590D02*
X1168Y1590D01*
X1204Y1590D02*
X1219Y1590D01*
X453Y1589D02*
X468Y1589D01*
X504Y1589D02*
X519Y1589D01*
X1153Y1589D02*
X1168Y1589D01*
X1204Y1589D02*
X1219Y1589D01*
X453Y1588D02*
X468Y1588D01*
X504Y1588D02*
X519Y1588D01*
X1153Y1588D02*
X1168Y1588D01*
X1204Y1588D02*
X1219Y1588D01*
X453Y1587D02*
X468Y1587D01*
X504Y1587D02*
X519Y1587D01*
X1153Y1587D02*
X1168Y1587D01*
X1204Y1587D02*
X1219Y1587D01*
X453Y1586D02*
X468Y1586D01*
X504Y1586D02*
X519Y1586D01*
X1153Y1586D02*
X1168Y1586D01*
X1204Y1586D02*
X1219Y1586D01*
X453Y1585D02*
X469Y1585D01*
X503Y1585D02*
X519Y1585D01*
X1153Y1585D02*
X1169Y1585D01*
X1203Y1585D02*
X1218Y1585D01*
X454Y1584D02*
X469Y1584D01*
X503Y1584D02*
X518Y1584D01*
X1154Y1584D02*
X1169Y1584D01*
X1203Y1584D02*
X1218Y1584D01*
X454Y1583D02*
X470Y1583D01*
X502Y1583D02*
X518Y1583D01*
X1154Y1583D02*
X1170Y1583D01*
X1202Y1583D02*
X1218Y1583D01*
X454Y1582D02*
X470Y1582D01*
X502Y1582D02*
X518Y1582D01*
X1154Y1582D02*
X1170Y1582D01*
X1202Y1582D02*
X1218Y1582D01*
X455Y1581D02*
X471Y1581D01*
X501Y1581D02*
X517Y1581D01*
X1155Y1581D02*
X1171Y1581D01*
X1201Y1581D02*
X1217Y1581D01*
X455Y1580D02*
X472Y1580D01*
X500Y1580D02*
X517Y1580D01*
X1155Y1580D02*
X1172Y1580D01*
X1200Y1580D02*
X1217Y1580D01*
X456Y1579D02*
X473Y1579D01*
X500Y1579D02*
X516Y1579D01*
X1156Y1579D02*
X1173Y1579D01*
X1199Y1579D02*
X1216Y1579D01*
X456Y1578D02*
X474Y1578D01*
X498Y1578D02*
X516Y1578D01*
X1156Y1578D02*
X1174Y1578D01*
X1198Y1578D02*
X1216Y1578D01*
X457Y1577D02*
X476Y1577D01*
X497Y1577D02*
X515Y1577D01*
X1157Y1577D02*
X1176Y1577D01*
X1197Y1577D02*
X1215Y1577D01*
X457Y1576D02*
X478Y1576D01*
X495Y1576D02*
X515Y1576D01*
X1157Y1576D02*
X1178Y1576D01*
X1194Y1576D02*
X1215Y1576D01*
X458Y1575D02*
X482Y1575D01*
X490Y1575D02*
X514Y1575D01*
X1158Y1575D02*
X1182Y1575D01*
X1190Y1575D02*
X1214Y1575D01*
X459Y1574D02*
X514Y1574D01*
X1159Y1574D02*
X1214Y1574D01*
X459Y1573D02*
X513Y1573D01*
X1159Y1573D02*
X1213Y1573D01*
X460Y1572D02*
X512Y1572D01*
X1160Y1572D02*
X1212Y1572D01*
X461Y1571D02*
X511Y1571D01*
X1161Y1571D02*
X1211Y1571D01*
X462Y1570D02*
X510Y1570D01*
X1162Y1570D02*
X1210Y1570D01*
X463Y1569D02*
X510Y1569D01*
X1163Y1569D02*
X1209Y1569D01*
X464Y1568D02*
X508Y1568D01*
X1164Y1568D02*
X1208Y1568D01*
X465Y1567D02*
X507Y1567D01*
X1165Y1567D02*
X1207Y1567D01*
X466Y1566D02*
X506Y1566D01*
X1166Y1566D02*
X1206Y1566D01*
X468Y1565D02*
X505Y1565D01*
X1168Y1565D02*
X1205Y1565D01*
X469Y1564D02*
X503Y1564D01*
X1169Y1564D02*
X1203Y1564D01*
X471Y1563D02*
X502Y1563D01*
X1171Y1563D02*
X1202Y1563D01*
X473Y1562D02*
X500Y1562D01*
X1173Y1562D02*
X1200Y1562D01*
X475Y1561D02*
X497Y1561D01*
X1175Y1561D02*
X1197Y1561D01*
X478Y1560D02*
X494Y1560D01*
X1178Y1560D02*
X1194Y1560D01*
X483Y1559D02*
X490Y1559D01*
X1182Y1559D02*
X1190Y1559D01*
X480Y1526D02*
X492Y1526D01*
X1180Y1526D02*
X1192Y1526D01*
X477Y1525D02*
X496Y1525D01*
X1177Y1525D02*
X1196Y1525D01*
X474Y1524D02*
X498Y1524D01*
X1174Y1524D02*
X1198Y1524D01*
X472Y1523D02*
X500Y1523D01*
X1172Y1523D02*
X1200Y1523D01*
X470Y1522D02*
X502Y1522D01*
X1170Y1522D02*
X1202Y1522D01*
X469Y1521D02*
X504Y1521D01*
X1169Y1521D02*
X1204Y1521D01*
X467Y1520D02*
X505Y1520D01*
X1167Y1520D02*
X1205Y1520D01*
X466Y1519D02*
X506Y1519D01*
X1166Y1519D02*
X1206Y1519D01*
X465Y1518D02*
X508Y1518D01*
X1165Y1518D02*
X1207Y1518D01*
X464Y1517D02*
X509Y1517D01*
X1164Y1517D02*
X1209Y1517D01*
X463Y1516D02*
X510Y1516D01*
X1163Y1516D02*
X1210Y1516D01*
X462Y1515D02*
X511Y1515D01*
X1162Y1515D02*
X1210Y1515D01*
X461Y1514D02*
X511Y1514D01*
X1161Y1514D02*
X1211Y1514D01*
X460Y1513D02*
X512Y1513D01*
X1160Y1513D02*
X1212Y1513D01*
X459Y1512D02*
X513Y1512D01*
X1159Y1512D02*
X1213Y1512D01*
X459Y1511D02*
X514Y1511D01*
X1159Y1511D02*
X1214Y1511D01*
X458Y1510D02*
X480Y1510D01*
X492Y1510D02*
X514Y1510D01*
X1158Y1510D02*
X1180Y1510D01*
X1192Y1510D02*
X1214Y1510D01*
X457Y1509D02*
X477Y1509D01*
X495Y1509D02*
X515Y1509D01*
X1157Y1509D02*
X1177Y1509D01*
X1195Y1509D02*
X1215Y1509D01*
X457Y1508D02*
X475Y1508D01*
X497Y1508D02*
X515Y1508D01*
X1157Y1508D02*
X1175Y1508D01*
X1197Y1508D02*
X1215Y1508D01*
X456Y1507D02*
X474Y1507D01*
X498Y1507D02*
X516Y1507D01*
X1156Y1507D02*
X1174Y1507D01*
X1198Y1507D02*
X1216Y1507D01*
X456Y1506D02*
X473Y1506D01*
X500Y1506D02*
X516Y1506D01*
X1156Y1506D02*
X1173Y1506D01*
X1200Y1506D02*
X1216Y1506D01*
X455Y1505D02*
X472Y1505D01*
X501Y1505D02*
X517Y1505D01*
X1155Y1505D02*
X1172Y1505D01*
X1200Y1505D02*
X1217Y1505D01*
X455Y1504D02*
X471Y1504D01*
X501Y1504D02*
X517Y1504D01*
X1155Y1504D02*
X1171Y1504D01*
X1201Y1504D02*
X1217Y1504D01*
X454Y1503D02*
X470Y1503D01*
X502Y1503D02*
X518Y1503D01*
X1154Y1503D02*
X1170Y1503D01*
X1202Y1503D02*
X1218Y1503D01*
X454Y1502D02*
X470Y1502D01*
X502Y1502D02*
X518Y1502D01*
X1154Y1502D02*
X1170Y1502D01*
X1202Y1502D02*
X1218Y1502D01*
X454Y1501D02*
X469Y1501D01*
X503Y1501D02*
X518Y1501D01*
X1154Y1501D02*
X1169Y1501D01*
X1203Y1501D02*
X1218Y1501D01*
X453Y1500D02*
X469Y1500D01*
X503Y1500D02*
X519Y1500D01*
X1153Y1500D02*
X1169Y1500D01*
X1203Y1500D02*
X1219Y1500D01*
X453Y1499D02*
X468Y1499D01*
X504Y1499D02*
X519Y1499D01*
X1153Y1499D02*
X1168Y1499D01*
X1204Y1499D02*
X1219Y1499D01*
X453Y1498D02*
X468Y1498D01*
X504Y1498D02*
X519Y1498D01*
X1153Y1498D02*
X1168Y1498D01*
X1204Y1498D02*
X1219Y1498D01*
X453Y1497D02*
X468Y1497D01*
X504Y1497D02*
X519Y1497D01*
X1153Y1497D02*
X1168Y1497D01*
X1204Y1497D02*
X1219Y1497D01*
X453Y1496D02*
X468Y1496D01*
X504Y1496D02*
X519Y1496D01*
X1153Y1496D02*
X1168Y1496D01*
X1204Y1496D02*
X1219Y1496D01*
X453Y1495D02*
X468Y1495D01*
X504Y1495D02*
X519Y1495D01*
X1153Y1495D02*
X1168Y1495D01*
X1204Y1495D02*
X1219Y1495D01*
X453Y1494D02*
X468Y1494D01*
X504Y1494D02*
X519Y1494D01*
X1152Y1494D02*
X1167Y1494D01*
X1204Y1494D02*
X1219Y1494D01*
X453Y1493D02*
X468Y1493D01*
X504Y1493D02*
X519Y1493D01*
X1152Y1493D02*
X1167Y1493D01*
X1204Y1493D02*
X1219Y1493D01*
X453Y1492D02*
X468Y1492D01*
X504Y1492D02*
X519Y1492D01*
X1152Y1492D02*
X1167Y1492D01*
X1204Y1492D02*
X1219Y1492D01*
X453Y1491D02*
X468Y1491D01*
X504Y1491D02*
X519Y1491D01*
X1152Y1491D02*
X1167Y1491D01*
X1204Y1491D02*
X1219Y1491D01*
X453Y1490D02*
X468Y1490D01*
X504Y1490D02*
X519Y1490D01*
X1153Y1490D02*
X1168Y1490D01*
X1204Y1490D02*
X1219Y1490D01*
X453Y1489D02*
X468Y1489D01*
X504Y1489D02*
X519Y1489D01*
X1153Y1489D02*
X1168Y1489D01*
X1204Y1489D02*
X1219Y1489D01*
X453Y1488D02*
X468Y1488D01*
X504Y1488D02*
X519Y1488D01*
X1153Y1488D02*
X1168Y1488D01*
X1204Y1488D02*
X1219Y1488D01*
X453Y1487D02*
X468Y1487D01*
X504Y1487D02*
X519Y1487D01*
X1153Y1487D02*
X1168Y1487D01*
X1204Y1487D02*
X1219Y1487D01*
X453Y1486D02*
X468Y1486D01*
X504Y1486D02*
X519Y1486D01*
X1153Y1486D02*
X1168Y1486D01*
X1204Y1486D02*
X1219Y1486D01*
X453Y1485D02*
X469Y1485D01*
X503Y1485D02*
X519Y1485D01*
X1153Y1485D02*
X1169Y1485D01*
X1203Y1485D02*
X1218Y1485D01*
X454Y1484D02*
X469Y1484D01*
X503Y1484D02*
X518Y1484D01*
X1154Y1484D02*
X1169Y1484D01*
X1203Y1484D02*
X1218Y1484D01*
X454Y1483D02*
X470Y1483D01*
X502Y1483D02*
X518Y1483D01*
X1154Y1483D02*
X1170Y1483D01*
X1202Y1483D02*
X1218Y1483D01*
X454Y1482D02*
X470Y1482D01*
X502Y1482D02*
X518Y1482D01*
X1154Y1482D02*
X1170Y1482D01*
X1202Y1482D02*
X1218Y1482D01*
X455Y1481D02*
X471Y1481D01*
X501Y1481D02*
X517Y1481D01*
X1155Y1481D02*
X1171Y1481D01*
X1201Y1481D02*
X1217Y1481D01*
X455Y1480D02*
X472Y1480D01*
X500Y1480D02*
X517Y1480D01*
X1155Y1480D02*
X1172Y1480D01*
X1200Y1480D02*
X1217Y1480D01*
X456Y1479D02*
X473Y1479D01*
X499Y1479D02*
X516Y1479D01*
X1156Y1479D02*
X1173Y1479D01*
X1199Y1479D02*
X1216Y1479D01*
X456Y1478D02*
X474Y1478D01*
X498Y1478D02*
X516Y1478D01*
X1156Y1478D02*
X1174Y1478D01*
X1198Y1478D02*
X1216Y1478D01*
X457Y1477D02*
X476Y1477D01*
X497Y1477D02*
X515Y1477D01*
X1157Y1477D02*
X1176Y1477D01*
X1197Y1477D02*
X1215Y1477D01*
X457Y1476D02*
X478Y1476D01*
X494Y1476D02*
X515Y1476D01*
X1157Y1476D02*
X1178Y1476D01*
X1194Y1476D02*
X1215Y1476D01*
X458Y1475D02*
X482Y1475D01*
X490Y1475D02*
X514Y1475D01*
X1158Y1475D02*
X1182Y1475D01*
X1190Y1475D02*
X1214Y1475D01*
X459Y1474D02*
X514Y1474D01*
X1159Y1474D02*
X1214Y1474D01*
X459Y1473D02*
X513Y1473D01*
X1159Y1473D02*
X1213Y1473D01*
X460Y1472D02*
X512Y1472D01*
X1160Y1472D02*
X1212Y1472D01*
X461Y1471D02*
X511Y1471D01*
X1161Y1471D02*
X1211Y1471D01*
X462Y1470D02*
X510Y1470D01*
X1162Y1470D02*
X1210Y1470D01*
X463Y1469D02*
X509Y1469D01*
X1163Y1469D02*
X1209Y1469D01*
X464Y1468D02*
X508Y1468D01*
X1164Y1468D02*
X1208Y1468D01*
X465Y1467D02*
X507Y1467D01*
X1165Y1467D02*
X1207Y1467D01*
X466Y1466D02*
X506Y1466D01*
X1166Y1466D02*
X1206Y1466D01*
X468Y1465D02*
X505Y1465D01*
X1168Y1465D02*
X1205Y1465D01*
X469Y1464D02*
X503Y1464D01*
X1169Y1464D02*
X1203Y1464D01*
X471Y1463D02*
X502Y1463D01*
X1171Y1463D02*
X1202Y1463D01*
X473Y1462D02*
X500Y1462D01*
X1173Y1462D02*
X1200Y1462D01*
X475Y1461D02*
X497Y1461D01*
X1175Y1461D02*
X1197Y1461D01*
X478Y1460D02*
X494Y1460D01*
X1178Y1460D02*
X1194Y1460D01*
X483Y1459D02*
X490Y1459D01*
X1183Y1459D02*
X1189Y1459D01*
X480Y1426D02*
X492Y1426D01*
X1180Y1426D02*
X1192Y1426D01*
X477Y1425D02*
X496Y1425D01*
X1177Y1425D02*
X1196Y1425D01*
X474Y1424D02*
X498Y1424D01*
X1174Y1424D02*
X1198Y1424D01*
X472Y1423D02*
X500Y1423D01*
X1172Y1423D02*
X1200Y1423D01*
X470Y1422D02*
X502Y1422D01*
X1170Y1422D02*
X1202Y1422D01*
X469Y1421D02*
X504Y1421D01*
X1169Y1421D02*
X1204Y1421D01*
X467Y1420D02*
X505Y1420D01*
X1167Y1420D02*
X1205Y1420D01*
X466Y1419D02*
X506Y1419D01*
X1166Y1419D02*
X1206Y1419D01*
X465Y1418D02*
X508Y1418D01*
X1165Y1418D02*
X1207Y1418D01*
X464Y1417D02*
X509Y1417D01*
X1164Y1417D02*
X1209Y1417D01*
X463Y1416D02*
X510Y1416D01*
X1163Y1416D02*
X1210Y1416D01*
X462Y1415D02*
X511Y1415D01*
X1162Y1415D02*
X1210Y1415D01*
X461Y1414D02*
X511Y1414D01*
X1161Y1414D02*
X1211Y1414D01*
X460Y1413D02*
X512Y1413D01*
X1160Y1413D02*
X1212Y1413D01*
X459Y1412D02*
X513Y1412D01*
X1159Y1412D02*
X1213Y1412D01*
X459Y1411D02*
X514Y1411D01*
X1159Y1411D02*
X1214Y1411D01*
X458Y1410D02*
X480Y1410D01*
X492Y1410D02*
X514Y1410D01*
X1158Y1410D02*
X1180Y1410D01*
X1192Y1410D02*
X1214Y1410D01*
X457Y1409D02*
X477Y1409D01*
X495Y1409D02*
X515Y1409D01*
X1157Y1409D02*
X1177Y1409D01*
X1195Y1409D02*
X1215Y1409D01*
X457Y1408D02*
X475Y1408D01*
X497Y1408D02*
X515Y1408D01*
X1157Y1408D02*
X1175Y1408D01*
X1197Y1408D02*
X1215Y1408D01*
X456Y1407D02*
X474Y1407D01*
X499Y1407D02*
X516Y1407D01*
X1156Y1407D02*
X1174Y1407D01*
X1198Y1407D02*
X1216Y1407D01*
X456Y1406D02*
X473Y1406D01*
X500Y1406D02*
X516Y1406D01*
X1156Y1406D02*
X1173Y1406D01*
X1200Y1406D02*
X1216Y1406D01*
X455Y1405D02*
X472Y1405D01*
X501Y1405D02*
X517Y1405D01*
X1155Y1405D02*
X1172Y1405D01*
X1200Y1405D02*
X1217Y1405D01*
X455Y1404D02*
X471Y1404D01*
X501Y1404D02*
X517Y1404D01*
X1155Y1404D02*
X1171Y1404D01*
X1201Y1404D02*
X1217Y1404D01*
X454Y1403D02*
X470Y1403D01*
X502Y1403D02*
X518Y1403D01*
X1154Y1403D02*
X1170Y1403D01*
X1202Y1403D02*
X1218Y1403D01*
X454Y1402D02*
X470Y1402D01*
X502Y1402D02*
X518Y1402D01*
X1154Y1402D02*
X1170Y1402D01*
X1202Y1402D02*
X1218Y1402D01*
X454Y1401D02*
X469Y1401D01*
X503Y1401D02*
X518Y1401D01*
X1154Y1401D02*
X1169Y1401D01*
X1203Y1401D02*
X1218Y1401D01*
X453Y1400D02*
X469Y1400D01*
X503Y1400D02*
X519Y1400D01*
X1153Y1400D02*
X1169Y1400D01*
X1203Y1400D02*
X1219Y1400D01*
X453Y1399D02*
X468Y1399D01*
X504Y1399D02*
X519Y1399D01*
X1153Y1399D02*
X1168Y1399D01*
X1204Y1399D02*
X1219Y1399D01*
X453Y1398D02*
X468Y1398D01*
X504Y1398D02*
X519Y1398D01*
X1153Y1398D02*
X1168Y1398D01*
X1204Y1398D02*
X1219Y1398D01*
X453Y1397D02*
X468Y1397D01*
X504Y1397D02*
X519Y1397D01*
X1153Y1397D02*
X1168Y1397D01*
X1204Y1397D02*
X1219Y1397D01*
X453Y1396D02*
X468Y1396D01*
X504Y1396D02*
X519Y1396D01*
X1153Y1396D02*
X1168Y1396D01*
X1204Y1396D02*
X1219Y1396D01*
X453Y1395D02*
X468Y1395D01*
X504Y1395D02*
X519Y1395D01*
X1153Y1395D02*
X1168Y1395D01*
X1204Y1395D02*
X1219Y1395D01*
X453Y1394D02*
X468Y1394D01*
X504Y1394D02*
X519Y1394D01*
X1152Y1394D02*
X1167Y1394D01*
X1204Y1394D02*
X1219Y1394D01*
X453Y1393D02*
X468Y1393D01*
X504Y1393D02*
X519Y1393D01*
X1152Y1393D02*
X1167Y1393D01*
X1204Y1393D02*
X1219Y1393D01*
X453Y1392D02*
X468Y1392D01*
X504Y1392D02*
X519Y1392D01*
X1152Y1392D02*
X1167Y1392D01*
X1204Y1392D02*
X1219Y1392D01*
X453Y1391D02*
X468Y1391D01*
X504Y1391D02*
X519Y1391D01*
X1153Y1391D02*
X1167Y1391D01*
X1204Y1391D02*
X1219Y1391D01*
X453Y1390D02*
X468Y1390D01*
X504Y1390D02*
X519Y1390D01*
X1153Y1390D02*
X1168Y1390D01*
X1204Y1390D02*
X1219Y1390D01*
X453Y1389D02*
X468Y1389D01*
X504Y1389D02*
X519Y1389D01*
X1153Y1389D02*
X1168Y1389D01*
X1204Y1389D02*
X1219Y1389D01*
X453Y1388D02*
X468Y1388D01*
X504Y1388D02*
X519Y1388D01*
X1153Y1388D02*
X1168Y1388D01*
X1204Y1388D02*
X1219Y1388D01*
X453Y1387D02*
X468Y1387D01*
X504Y1387D02*
X519Y1387D01*
X1153Y1387D02*
X1168Y1387D01*
X1204Y1387D02*
X1219Y1387D01*
X453Y1386D02*
X468Y1386D01*
X504Y1386D02*
X519Y1386D01*
X1153Y1386D02*
X1168Y1386D01*
X1204Y1386D02*
X1219Y1386D01*
X453Y1385D02*
X469Y1385D01*
X503Y1385D02*
X519Y1385D01*
X1153Y1385D02*
X1169Y1385D01*
X1203Y1385D02*
X1218Y1385D01*
X454Y1384D02*
X469Y1384D01*
X503Y1384D02*
X518Y1384D01*
X1154Y1384D02*
X1169Y1384D01*
X1203Y1384D02*
X1218Y1384D01*
X454Y1383D02*
X470Y1383D01*
X502Y1383D02*
X518Y1383D01*
X1154Y1383D02*
X1170Y1383D01*
X1202Y1383D02*
X1218Y1383D01*
X454Y1382D02*
X470Y1382D01*
X502Y1382D02*
X518Y1382D01*
X1154Y1382D02*
X1170Y1382D01*
X1202Y1382D02*
X1218Y1382D01*
X455Y1381D02*
X471Y1381D01*
X501Y1381D02*
X517Y1381D01*
X1155Y1381D02*
X1171Y1381D01*
X1201Y1381D02*
X1217Y1381D01*
X455Y1380D02*
X472Y1380D01*
X500Y1380D02*
X517Y1380D01*
X1155Y1380D02*
X1172Y1380D01*
X1200Y1380D02*
X1217Y1380D01*
X456Y1379D02*
X473Y1379D01*
X499Y1379D02*
X516Y1379D01*
X1156Y1379D02*
X1173Y1379D01*
X1199Y1379D02*
X1216Y1379D01*
X456Y1378D02*
X474Y1378D01*
X498Y1378D02*
X516Y1378D01*
X1156Y1378D02*
X1174Y1378D01*
X1198Y1378D02*
X1216Y1378D01*
X457Y1377D02*
X476Y1377D01*
X497Y1377D02*
X515Y1377D01*
X1157Y1377D02*
X1176Y1377D01*
X1197Y1377D02*
X1215Y1377D01*
X457Y1376D02*
X478Y1376D01*
X494Y1376D02*
X515Y1376D01*
X1157Y1376D02*
X1178Y1376D01*
X1194Y1376D02*
X1215Y1376D01*
X458Y1375D02*
X482Y1375D01*
X490Y1375D02*
X514Y1375D01*
X1158Y1375D02*
X1182Y1375D01*
X1190Y1375D02*
X1214Y1375D01*
X459Y1374D02*
X514Y1374D01*
X1159Y1374D02*
X1214Y1374D01*
X459Y1373D02*
X513Y1373D01*
X1159Y1373D02*
X1213Y1373D01*
X460Y1372D02*
X512Y1372D01*
X1160Y1372D02*
X1212Y1372D01*
X461Y1371D02*
X511Y1371D01*
X1161Y1371D02*
X1211Y1371D01*
X462Y1370D02*
X510Y1370D01*
X1162Y1370D02*
X1210Y1370D01*
X463Y1369D02*
X509Y1369D01*
X1163Y1369D02*
X1209Y1369D01*
X464Y1368D02*
X508Y1368D01*
X1164Y1368D02*
X1208Y1368D01*
X465Y1367D02*
X507Y1367D01*
X1165Y1367D02*
X1207Y1367D01*
X466Y1366D02*
X506Y1366D01*
X1166Y1366D02*
X1206Y1366D01*
X468Y1365D02*
X505Y1365D01*
X1168Y1365D02*
X1205Y1365D01*
X469Y1364D02*
X503Y1364D01*
X1169Y1364D02*
X1203Y1364D01*
X471Y1363D02*
X502Y1363D01*
X1171Y1363D02*
X1202Y1363D01*
X473Y1362D02*
X500Y1362D01*
X1173Y1362D02*
X1200Y1362D01*
X475Y1361D02*
X497Y1361D01*
X1175Y1361D02*
X1197Y1361D01*
X478Y1360D02*
X494Y1360D01*
X1178Y1360D02*
X1194Y1360D01*
X483Y1359D02*
X489Y1359D01*
X1183Y1359D02*
X1189Y1359D01*
X480Y1326D02*
X492Y1326D01*
X1180Y1326D02*
X1192Y1326D01*
X477Y1325D02*
X496Y1325D01*
X1177Y1325D02*
X1196Y1325D01*
X474Y1324D02*
X498Y1324D01*
X1174Y1324D02*
X1198Y1324D01*
X472Y1323D02*
X500Y1323D01*
X1172Y1323D02*
X1200Y1323D01*
X470Y1322D02*
X502Y1322D01*
X1170Y1322D02*
X1202Y1322D01*
X469Y1321D02*
X504Y1321D01*
X1169Y1321D02*
X1204Y1321D01*
X467Y1320D02*
X505Y1320D01*
X1167Y1320D02*
X1205Y1320D01*
X466Y1319D02*
X506Y1319D01*
X1166Y1319D02*
X1206Y1319D01*
X465Y1318D02*
X508Y1318D01*
X1165Y1318D02*
X1207Y1318D01*
X464Y1317D02*
X509Y1317D01*
X1164Y1317D02*
X1209Y1317D01*
X463Y1316D02*
X510Y1316D01*
X1163Y1316D02*
X1210Y1316D01*
X462Y1315D02*
X511Y1315D01*
X1162Y1315D02*
X1210Y1315D01*
X461Y1314D02*
X511Y1314D01*
X1161Y1314D02*
X1211Y1314D01*
X460Y1313D02*
X512Y1313D01*
X1160Y1313D02*
X1212Y1313D01*
X459Y1312D02*
X513Y1312D01*
X1159Y1312D02*
X1213Y1312D01*
X459Y1311D02*
X514Y1311D01*
X1159Y1311D02*
X1214Y1311D01*
X458Y1310D02*
X480Y1310D01*
X493Y1310D02*
X514Y1310D01*
X1158Y1310D02*
X1180Y1310D01*
X1192Y1310D02*
X1214Y1310D01*
X457Y1309D02*
X477Y1309D01*
X495Y1309D02*
X515Y1309D01*
X1157Y1309D02*
X1177Y1309D01*
X1195Y1309D02*
X1215Y1309D01*
X457Y1308D02*
X475Y1308D01*
X497Y1308D02*
X515Y1308D01*
X1157Y1308D02*
X1175Y1308D01*
X1197Y1308D02*
X1215Y1308D01*
X456Y1307D02*
X474Y1307D01*
X499Y1307D02*
X516Y1307D01*
X1156Y1307D02*
X1174Y1307D01*
X1198Y1307D02*
X1216Y1307D01*
X456Y1306D02*
X473Y1306D01*
X500Y1306D02*
X516Y1306D01*
X1156Y1306D02*
X1173Y1306D01*
X1200Y1306D02*
X1216Y1306D01*
X455Y1305D02*
X472Y1305D01*
X501Y1305D02*
X517Y1305D01*
X1155Y1305D02*
X1172Y1305D01*
X1200Y1305D02*
X1217Y1305D01*
X455Y1304D02*
X471Y1304D01*
X501Y1304D02*
X517Y1304D01*
X1155Y1304D02*
X1171Y1304D01*
X1201Y1304D02*
X1217Y1304D01*
X454Y1303D02*
X470Y1303D01*
X502Y1303D02*
X518Y1303D01*
X1154Y1303D02*
X1170Y1303D01*
X1202Y1303D02*
X1218Y1303D01*
X454Y1302D02*
X470Y1302D01*
X503Y1302D02*
X518Y1302D01*
X1154Y1302D02*
X1170Y1302D01*
X1202Y1302D02*
X1218Y1302D01*
X454Y1301D02*
X469Y1301D01*
X503Y1301D02*
X518Y1301D01*
X1154Y1301D02*
X1169Y1301D01*
X1203Y1301D02*
X1218Y1301D01*
X453Y1300D02*
X469Y1300D01*
X503Y1300D02*
X519Y1300D01*
X1153Y1300D02*
X1169Y1300D01*
X1203Y1300D02*
X1219Y1300D01*
X453Y1299D02*
X468Y1299D01*
X504Y1299D02*
X519Y1299D01*
X1153Y1299D02*
X1168Y1299D01*
X1204Y1299D02*
X1219Y1299D01*
X453Y1298D02*
X468Y1298D01*
X504Y1298D02*
X519Y1298D01*
X1153Y1298D02*
X1168Y1298D01*
X1204Y1298D02*
X1219Y1298D01*
X453Y1297D02*
X468Y1297D01*
X504Y1297D02*
X519Y1297D01*
X1153Y1297D02*
X1168Y1297D01*
X1204Y1297D02*
X1219Y1297D01*
X453Y1296D02*
X468Y1296D01*
X504Y1296D02*
X519Y1296D01*
X1153Y1296D02*
X1168Y1296D01*
X1204Y1296D02*
X1219Y1296D01*
X453Y1295D02*
X468Y1295D01*
X504Y1295D02*
X519Y1295D01*
X1153Y1295D02*
X1168Y1295D01*
X1204Y1295D02*
X1219Y1295D01*
X453Y1294D02*
X468Y1294D01*
X504Y1294D02*
X519Y1294D01*
X1152Y1294D02*
X1167Y1294D01*
X1204Y1294D02*
X1219Y1294D01*
X453Y1293D02*
X468Y1293D01*
X504Y1293D02*
X519Y1293D01*
X1152Y1293D02*
X1167Y1293D01*
X1204Y1293D02*
X1219Y1293D01*
X453Y1292D02*
X468Y1292D01*
X504Y1292D02*
X519Y1292D01*
X1152Y1292D02*
X1167Y1292D01*
X1204Y1292D02*
X1219Y1292D01*
X453Y1291D02*
X468Y1291D01*
X504Y1291D02*
X519Y1291D01*
X1153Y1291D02*
X1167Y1291D01*
X1204Y1291D02*
X1219Y1291D01*
X453Y1290D02*
X468Y1290D01*
X504Y1290D02*
X519Y1290D01*
X1153Y1290D02*
X1168Y1290D01*
X1204Y1290D02*
X1219Y1290D01*
X453Y1289D02*
X468Y1289D01*
X504Y1289D02*
X519Y1289D01*
X1153Y1289D02*
X1168Y1289D01*
X1204Y1289D02*
X1219Y1289D01*
X453Y1288D02*
X468Y1288D01*
X504Y1288D02*
X519Y1288D01*
X1153Y1288D02*
X1168Y1288D01*
X1204Y1288D02*
X1219Y1288D01*
X453Y1287D02*
X468Y1287D01*
X504Y1287D02*
X519Y1287D01*
X1153Y1287D02*
X1168Y1287D01*
X1204Y1287D02*
X1219Y1287D01*
X453Y1286D02*
X468Y1286D01*
X504Y1286D02*
X519Y1286D01*
X1153Y1286D02*
X1168Y1286D01*
X1204Y1286D02*
X1219Y1286D01*
X453Y1285D02*
X469Y1285D01*
X503Y1285D02*
X519Y1285D01*
X1153Y1285D02*
X1169Y1285D01*
X1203Y1285D02*
X1218Y1285D01*
X454Y1284D02*
X469Y1284D01*
X503Y1284D02*
X518Y1284D01*
X1154Y1284D02*
X1169Y1284D01*
X1203Y1284D02*
X1218Y1284D01*
X454Y1283D02*
X470Y1283D01*
X502Y1283D02*
X518Y1283D01*
X1154Y1283D02*
X1170Y1283D01*
X1202Y1283D02*
X1218Y1283D01*
X454Y1282D02*
X470Y1282D01*
X502Y1282D02*
X518Y1282D01*
X1154Y1282D02*
X1170Y1282D01*
X1202Y1282D02*
X1218Y1282D01*
X455Y1281D02*
X471Y1281D01*
X501Y1281D02*
X517Y1281D01*
X1155Y1281D02*
X1171Y1281D01*
X1201Y1281D02*
X1217Y1281D01*
X455Y1280D02*
X472Y1280D01*
X500Y1280D02*
X517Y1280D01*
X1155Y1280D02*
X1172Y1280D01*
X1200Y1280D02*
X1217Y1280D01*
X456Y1279D02*
X473Y1279D01*
X499Y1279D02*
X516Y1279D01*
X1156Y1279D02*
X1173Y1279D01*
X1199Y1279D02*
X1216Y1279D01*
X456Y1278D02*
X474Y1278D01*
X498Y1278D02*
X516Y1278D01*
X1156Y1278D02*
X1174Y1278D01*
X1198Y1278D02*
X1216Y1278D01*
X457Y1277D02*
X476Y1277D01*
X497Y1277D02*
X515Y1277D01*
X1157Y1277D02*
X1176Y1277D01*
X1197Y1277D02*
X1215Y1277D01*
X457Y1276D02*
X478Y1276D01*
X494Y1276D02*
X515Y1276D01*
X1157Y1276D02*
X1178Y1276D01*
X1194Y1276D02*
X1215Y1276D01*
X458Y1275D02*
X482Y1275D01*
X490Y1275D02*
X514Y1275D01*
X1158Y1275D02*
X1182Y1275D01*
X1190Y1275D02*
X1214Y1275D01*
X459Y1274D02*
X514Y1274D01*
X1159Y1274D02*
X1214Y1274D01*
X459Y1273D02*
X513Y1273D01*
X1159Y1273D02*
X1213Y1273D01*
X460Y1272D02*
X512Y1272D01*
X1160Y1272D02*
X1212Y1272D01*
X461Y1271D02*
X511Y1271D01*
X1161Y1271D02*
X1211Y1271D01*
X462Y1270D02*
X510Y1270D01*
X1162Y1270D02*
X1210Y1270D01*
X463Y1269D02*
X509Y1269D01*
X1163Y1269D02*
X1209Y1269D01*
X464Y1268D02*
X508Y1268D01*
X1164Y1268D02*
X1208Y1268D01*
X465Y1267D02*
X507Y1267D01*
X1165Y1267D02*
X1207Y1267D01*
X466Y1266D02*
X506Y1266D01*
X1166Y1266D02*
X1206Y1266D01*
X468Y1265D02*
X505Y1265D01*
X1168Y1265D02*
X1205Y1265D01*
X469Y1264D02*
X503Y1264D01*
X1169Y1264D02*
X1203Y1264D01*
X471Y1263D02*
X502Y1263D01*
X1171Y1263D02*
X1201Y1263D01*
X473Y1262D02*
X500Y1262D01*
X1173Y1262D02*
X1200Y1262D01*
X475Y1261D02*
X497Y1261D01*
X1175Y1261D02*
X1197Y1261D01*
X478Y1260D02*
X494Y1260D01*
X1178Y1260D02*
X1194Y1260D01*
X483Y1259D02*
X489Y1259D01*
X1183Y1259D02*
X1189Y1259D01*
X480Y1226D02*
X492Y1226D01*
X1180Y1226D02*
X1192Y1226D01*
X477Y1225D02*
X496Y1225D01*
X1177Y1225D02*
X1196Y1225D01*
X474Y1224D02*
X498Y1224D01*
X1174Y1224D02*
X1198Y1224D01*
X472Y1223D02*
X500Y1223D01*
X1172Y1223D02*
X1200Y1223D01*
X470Y1222D02*
X502Y1222D01*
X1170Y1222D02*
X1202Y1222D01*
X469Y1221D02*
X504Y1221D01*
X1169Y1221D02*
X1204Y1221D01*
X467Y1220D02*
X505Y1220D01*
X1167Y1220D02*
X1205Y1220D01*
X466Y1219D02*
X506Y1219D01*
X1166Y1219D02*
X1206Y1219D01*
X465Y1218D02*
X508Y1218D01*
X1165Y1218D02*
X1207Y1218D01*
X464Y1217D02*
X509Y1217D01*
X1164Y1217D02*
X1209Y1217D01*
X463Y1216D02*
X510Y1216D01*
X1163Y1216D02*
X1210Y1216D01*
X462Y1215D02*
X511Y1215D01*
X1162Y1215D02*
X1210Y1215D01*
X461Y1214D02*
X511Y1214D01*
X1161Y1214D02*
X1211Y1214D01*
X460Y1213D02*
X512Y1213D01*
X1160Y1213D02*
X1212Y1213D01*
X459Y1212D02*
X513Y1212D01*
X1159Y1212D02*
X1213Y1212D01*
X459Y1211D02*
X514Y1211D01*
X1159Y1211D02*
X1214Y1211D01*
X458Y1210D02*
X480Y1210D01*
X493Y1210D02*
X514Y1210D01*
X1158Y1210D02*
X1180Y1210D01*
X1192Y1210D02*
X1214Y1210D01*
X457Y1209D02*
X477Y1209D01*
X495Y1209D02*
X515Y1209D01*
X1157Y1209D02*
X1177Y1209D01*
X1195Y1209D02*
X1215Y1209D01*
X457Y1208D02*
X475Y1208D01*
X497Y1208D02*
X515Y1208D01*
X1157Y1208D02*
X1175Y1208D01*
X1197Y1208D02*
X1215Y1208D01*
X456Y1207D02*
X474Y1207D01*
X499Y1207D02*
X516Y1207D01*
X1156Y1207D02*
X1174Y1207D01*
X1198Y1207D02*
X1216Y1207D01*
X456Y1206D02*
X473Y1206D01*
X500Y1206D02*
X516Y1206D01*
X1156Y1206D02*
X1173Y1206D01*
X1200Y1206D02*
X1216Y1206D01*
X455Y1205D02*
X472Y1205D01*
X501Y1205D02*
X517Y1205D01*
X1155Y1205D02*
X1172Y1205D01*
X1201Y1205D02*
X1217Y1205D01*
X455Y1204D02*
X471Y1204D01*
X501Y1204D02*
X517Y1204D01*
X1155Y1204D02*
X1171Y1204D01*
X1201Y1204D02*
X1217Y1204D01*
X454Y1203D02*
X470Y1203D01*
X502Y1203D02*
X518Y1203D01*
X1154Y1203D02*
X1170Y1203D01*
X1202Y1203D02*
X1218Y1203D01*
X454Y1202D02*
X470Y1202D01*
X503Y1202D02*
X518Y1202D01*
X1154Y1202D02*
X1170Y1202D01*
X1202Y1202D02*
X1218Y1202D01*
X454Y1201D02*
X469Y1201D01*
X503Y1201D02*
X518Y1201D01*
X1154Y1201D02*
X1169Y1201D01*
X1203Y1201D02*
X1218Y1201D01*
X453Y1200D02*
X469Y1200D01*
X503Y1200D02*
X519Y1200D01*
X1153Y1200D02*
X1169Y1200D01*
X1203Y1200D02*
X1219Y1200D01*
X453Y1199D02*
X468Y1199D01*
X504Y1199D02*
X519Y1199D01*
X1153Y1199D02*
X1168Y1199D01*
X1204Y1199D02*
X1219Y1199D01*
X453Y1198D02*
X468Y1198D01*
X504Y1198D02*
X519Y1198D01*
X1153Y1198D02*
X1168Y1198D01*
X1204Y1198D02*
X1219Y1198D01*
X453Y1197D02*
X468Y1197D01*
X504Y1197D02*
X519Y1197D01*
X1153Y1197D02*
X1168Y1197D01*
X1204Y1197D02*
X1219Y1197D01*
X453Y1196D02*
X468Y1196D01*
X504Y1196D02*
X519Y1196D01*
X1153Y1196D02*
X1168Y1196D01*
X1204Y1196D02*
X1219Y1196D01*
X453Y1195D02*
X468Y1195D01*
X504Y1195D02*
X519Y1195D01*
X1153Y1195D02*
X1168Y1195D01*
X1204Y1195D02*
X1219Y1195D01*
X453Y1194D02*
X468Y1194D01*
X504Y1194D02*
X519Y1194D01*
X1152Y1194D02*
X1167Y1194D01*
X1204Y1194D02*
X1219Y1194D01*
X453Y1193D02*
X468Y1193D01*
X504Y1193D02*
X519Y1193D01*
X1152Y1193D02*
X1167Y1193D01*
X1204Y1193D02*
X1219Y1193D01*
X453Y1192D02*
X468Y1192D01*
X504Y1192D02*
X519Y1192D01*
X1152Y1192D02*
X1167Y1192D01*
X1204Y1192D02*
X1219Y1192D01*
X453Y1191D02*
X468Y1191D01*
X504Y1191D02*
X519Y1191D01*
X1153Y1191D02*
X1167Y1191D01*
X1204Y1191D02*
X1219Y1191D01*
X453Y1190D02*
X468Y1190D01*
X504Y1190D02*
X519Y1190D01*
X1153Y1190D02*
X1168Y1190D01*
X1204Y1190D02*
X1219Y1190D01*
X453Y1189D02*
X468Y1189D01*
X504Y1189D02*
X519Y1189D01*
X1153Y1189D02*
X1168Y1189D01*
X1204Y1189D02*
X1219Y1189D01*
X453Y1188D02*
X468Y1188D01*
X504Y1188D02*
X519Y1188D01*
X1153Y1188D02*
X1168Y1188D01*
X1204Y1188D02*
X1219Y1188D01*
X453Y1187D02*
X468Y1187D01*
X504Y1187D02*
X519Y1187D01*
X1153Y1187D02*
X1168Y1187D01*
X1204Y1187D02*
X1219Y1187D01*
X453Y1186D02*
X468Y1186D01*
X504Y1186D02*
X519Y1186D01*
X1153Y1186D02*
X1168Y1186D01*
X1204Y1186D02*
X1219Y1186D01*
X453Y1185D02*
X469Y1185D01*
X503Y1185D02*
X519Y1185D01*
X1153Y1185D02*
X1169Y1185D01*
X1203Y1185D02*
X1218Y1185D01*
X454Y1184D02*
X469Y1184D01*
X503Y1184D02*
X518Y1184D01*
X1154Y1184D02*
X1169Y1184D01*
X1203Y1184D02*
X1218Y1184D01*
X454Y1183D02*
X470Y1183D01*
X502Y1183D02*
X518Y1183D01*
X1154Y1183D02*
X1170Y1183D01*
X1202Y1183D02*
X1218Y1183D01*
X454Y1182D02*
X470Y1182D01*
X502Y1182D02*
X518Y1182D01*
X1154Y1182D02*
X1170Y1182D01*
X1202Y1182D02*
X1218Y1182D01*
X455Y1181D02*
X471Y1181D01*
X501Y1181D02*
X517Y1181D01*
X1155Y1181D02*
X1171Y1181D01*
X1201Y1181D02*
X1217Y1181D01*
X455Y1180D02*
X472Y1180D01*
X500Y1180D02*
X517Y1180D01*
X1155Y1180D02*
X1172Y1180D01*
X1200Y1180D02*
X1217Y1180D01*
X456Y1179D02*
X473Y1179D01*
X499Y1179D02*
X516Y1179D01*
X1156Y1179D02*
X1173Y1179D01*
X1199Y1179D02*
X1216Y1179D01*
X456Y1178D02*
X474Y1178D01*
X498Y1178D02*
X516Y1178D01*
X1156Y1178D02*
X1174Y1178D01*
X1198Y1178D02*
X1216Y1178D01*
X457Y1177D02*
X476Y1177D01*
X497Y1177D02*
X515Y1177D01*
X1157Y1177D02*
X1176Y1177D01*
X1197Y1177D02*
X1215Y1177D01*
X457Y1176D02*
X478Y1176D01*
X494Y1176D02*
X515Y1176D01*
X1157Y1176D02*
X1178Y1176D01*
X1194Y1176D02*
X1215Y1176D01*
X458Y1175D02*
X482Y1175D01*
X490Y1175D02*
X514Y1175D01*
X1158Y1175D02*
X1182Y1175D01*
X1190Y1175D02*
X1214Y1175D01*
X459Y1174D02*
X514Y1174D01*
X1159Y1174D02*
X1214Y1174D01*
X459Y1173D02*
X513Y1173D01*
X1159Y1173D02*
X1213Y1173D01*
X460Y1172D02*
X512Y1172D01*
X1160Y1172D02*
X1212Y1172D01*
X461Y1171D02*
X511Y1171D01*
X1161Y1171D02*
X1211Y1171D01*
X462Y1170D02*
X510Y1170D01*
X1162Y1170D02*
X1210Y1170D01*
X463Y1169D02*
X509Y1169D01*
X1163Y1169D02*
X1209Y1169D01*
X464Y1168D02*
X508Y1168D01*
X1164Y1168D02*
X1208Y1168D01*
X465Y1167D02*
X507Y1167D01*
X1165Y1167D02*
X1207Y1167D01*
X466Y1166D02*
X506Y1166D01*
X1166Y1166D02*
X1206Y1166D01*
X468Y1165D02*
X505Y1165D01*
X1168Y1165D02*
X1205Y1165D01*
X469Y1164D02*
X503Y1164D01*
X1169Y1164D02*
X1203Y1164D01*
X471Y1163D02*
X502Y1163D01*
X1171Y1163D02*
X1201Y1163D01*
X473Y1162D02*
X500Y1162D01*
X1173Y1162D02*
X1200Y1162D01*
X475Y1161D02*
X497Y1161D01*
X1175Y1161D02*
X1197Y1161D01*
X478Y1160D02*
X494Y1160D01*
X1178Y1160D02*
X1194Y1160D01*
X483Y1159D02*
X489Y1159D01*
X1183Y1159D02*
X1189Y1159D01*
X480Y1126D02*
X492Y1126D01*
X1180Y1126D02*
X1192Y1126D01*
X477Y1125D02*
X496Y1125D01*
X1176Y1125D02*
X1196Y1125D01*
X474Y1124D02*
X498Y1124D01*
X1174Y1124D02*
X1198Y1124D01*
X472Y1123D02*
X500Y1123D01*
X1172Y1123D02*
X1200Y1123D01*
X470Y1122D02*
X502Y1122D01*
X1170Y1122D02*
X1202Y1122D01*
X469Y1121D02*
X504Y1121D01*
X1169Y1121D02*
X1204Y1121D01*
X467Y1120D02*
X505Y1120D01*
X1167Y1120D02*
X1205Y1120D01*
X466Y1119D02*
X506Y1119D01*
X1166Y1119D02*
X1206Y1119D01*
X465Y1118D02*
X508Y1118D01*
X1165Y1118D02*
X1208Y1118D01*
X464Y1117D02*
X509Y1117D01*
X1164Y1117D02*
X1209Y1117D01*
X463Y1116D02*
X510Y1116D01*
X1163Y1116D02*
X1210Y1116D01*
X462Y1115D02*
X511Y1115D01*
X1162Y1115D02*
X1210Y1115D01*
X461Y1114D02*
X511Y1114D01*
X1161Y1114D02*
X1211Y1114D01*
X460Y1113D02*
X512Y1113D01*
X1160Y1113D02*
X1212Y1113D01*
X459Y1112D02*
X513Y1112D01*
X1159Y1112D02*
X1213Y1112D01*
X459Y1111D02*
X514Y1111D01*
X1159Y1111D02*
X1214Y1111D01*
X458Y1110D02*
X480Y1110D01*
X493Y1110D02*
X514Y1110D01*
X1158Y1110D02*
X1180Y1110D01*
X1193Y1110D02*
X1214Y1110D01*
X457Y1109D02*
X477Y1109D01*
X495Y1109D02*
X515Y1109D01*
X1157Y1109D02*
X1177Y1109D01*
X1195Y1109D02*
X1215Y1109D01*
X457Y1108D02*
X475Y1108D01*
X497Y1108D02*
X515Y1108D01*
X1157Y1108D02*
X1175Y1108D01*
X1197Y1108D02*
X1215Y1108D01*
X456Y1107D02*
X474Y1107D01*
X499Y1107D02*
X516Y1107D01*
X1156Y1107D02*
X1174Y1107D01*
X1198Y1107D02*
X1216Y1107D01*
X456Y1106D02*
X473Y1106D01*
X500Y1106D02*
X516Y1106D01*
X1156Y1106D02*
X1173Y1106D01*
X1200Y1106D02*
X1216Y1106D01*
X455Y1105D02*
X472Y1105D01*
X501Y1105D02*
X517Y1105D01*
X1155Y1105D02*
X1172Y1105D01*
X1201Y1105D02*
X1217Y1105D01*
X455Y1104D02*
X471Y1104D01*
X501Y1104D02*
X517Y1104D01*
X1155Y1104D02*
X1171Y1104D01*
X1201Y1104D02*
X1217Y1104D01*
X454Y1103D02*
X470Y1103D01*
X502Y1103D02*
X518Y1103D01*
X1154Y1103D02*
X1170Y1103D01*
X1202Y1103D02*
X1218Y1103D01*
X454Y1102D02*
X470Y1102D01*
X503Y1102D02*
X518Y1102D01*
X1154Y1102D02*
X1170Y1102D01*
X1202Y1102D02*
X1218Y1102D01*
X454Y1101D02*
X469Y1101D01*
X503Y1101D02*
X518Y1101D01*
X1154Y1101D02*
X1169Y1101D01*
X1203Y1101D02*
X1218Y1101D01*
X453Y1100D02*
X469Y1100D01*
X503Y1100D02*
X519Y1100D01*
X1153Y1100D02*
X1169Y1100D01*
X1203Y1100D02*
X1219Y1100D01*
X453Y1099D02*
X468Y1099D01*
X504Y1099D02*
X519Y1099D01*
X1153Y1099D02*
X1168Y1099D01*
X1204Y1099D02*
X1219Y1099D01*
X453Y1098D02*
X468Y1098D01*
X504Y1098D02*
X519Y1098D01*
X1153Y1098D02*
X1168Y1098D01*
X1204Y1098D02*
X1219Y1098D01*
X453Y1097D02*
X468Y1097D01*
X504Y1097D02*
X519Y1097D01*
X1153Y1097D02*
X1168Y1097D01*
X1204Y1097D02*
X1219Y1097D01*
X453Y1096D02*
X468Y1096D01*
X504Y1096D02*
X519Y1096D01*
X1153Y1096D02*
X1168Y1096D01*
X1204Y1096D02*
X1219Y1096D01*
X453Y1095D02*
X468Y1095D01*
X504Y1095D02*
X519Y1095D01*
X1153Y1095D02*
X1168Y1095D01*
X1204Y1095D02*
X1219Y1095D01*
X453Y1094D02*
X468Y1094D01*
X504Y1094D02*
X519Y1094D01*
X1152Y1094D02*
X1167Y1094D01*
X1204Y1094D02*
X1219Y1094D01*
X452Y1093D02*
X468Y1093D01*
X504Y1093D02*
X519Y1093D01*
X1152Y1093D02*
X1167Y1093D01*
X1204Y1093D02*
X1219Y1093D01*
X453Y1092D02*
X468Y1092D01*
X504Y1092D02*
X519Y1092D01*
X1152Y1092D02*
X1167Y1092D01*
X1204Y1092D02*
X1219Y1092D01*
X453Y1091D02*
X468Y1091D01*
X504Y1091D02*
X519Y1091D01*
X1153Y1091D02*
X1167Y1091D01*
X1204Y1091D02*
X1219Y1091D01*
X453Y1090D02*
X468Y1090D01*
X504Y1090D02*
X519Y1090D01*
X1153Y1090D02*
X1168Y1090D01*
X1204Y1090D02*
X1219Y1090D01*
X453Y1089D02*
X468Y1089D01*
X504Y1089D02*
X519Y1089D01*
X1153Y1089D02*
X1168Y1089D01*
X1204Y1089D02*
X1219Y1089D01*
X453Y1088D02*
X468Y1088D01*
X504Y1088D02*
X519Y1088D01*
X1153Y1088D02*
X1168Y1088D01*
X1204Y1088D02*
X1219Y1088D01*
X453Y1087D02*
X468Y1087D01*
X504Y1087D02*
X519Y1087D01*
X1153Y1087D02*
X1168Y1087D01*
X1204Y1087D02*
X1219Y1087D01*
X453Y1086D02*
X468Y1086D01*
X504Y1086D02*
X519Y1086D01*
X1153Y1086D02*
X1168Y1086D01*
X1204Y1086D02*
X1219Y1086D01*
X453Y1085D02*
X469Y1085D01*
X503Y1085D02*
X519Y1085D01*
X1153Y1085D02*
X1169Y1085D01*
X1203Y1085D02*
X1218Y1085D01*
X454Y1084D02*
X469Y1084D01*
X503Y1084D02*
X518Y1084D01*
X1154Y1084D02*
X1169Y1084D01*
X1203Y1084D02*
X1218Y1084D01*
X454Y1083D02*
X470Y1083D01*
X502Y1083D02*
X518Y1083D01*
X1154Y1083D02*
X1170Y1083D01*
X1202Y1083D02*
X1218Y1083D01*
X454Y1082D02*
X470Y1082D01*
X502Y1082D02*
X518Y1082D01*
X1154Y1082D02*
X1170Y1082D01*
X1202Y1082D02*
X1218Y1082D01*
X455Y1081D02*
X471Y1081D01*
X501Y1081D02*
X517Y1081D01*
X1155Y1081D02*
X1171Y1081D01*
X1201Y1081D02*
X1217Y1081D01*
X455Y1080D02*
X472Y1080D01*
X500Y1080D02*
X517Y1080D01*
X1155Y1080D02*
X1172Y1080D01*
X1200Y1080D02*
X1217Y1080D01*
X456Y1079D02*
X473Y1079D01*
X499Y1079D02*
X516Y1079D01*
X1156Y1079D02*
X1173Y1079D01*
X1199Y1079D02*
X1216Y1079D01*
X456Y1078D02*
X474Y1078D01*
X498Y1078D02*
X516Y1078D01*
X1156Y1078D02*
X1174Y1078D01*
X1198Y1078D02*
X1216Y1078D01*
X457Y1077D02*
X476Y1077D01*
X497Y1077D02*
X515Y1077D01*
X1157Y1077D02*
X1176Y1077D01*
X1197Y1077D02*
X1215Y1077D01*
X457Y1076D02*
X478Y1076D01*
X494Y1076D02*
X515Y1076D01*
X1157Y1076D02*
X1178Y1076D01*
X1194Y1076D02*
X1215Y1076D01*
X458Y1075D02*
X482Y1075D01*
X490Y1075D02*
X514Y1075D01*
X1158Y1075D02*
X1182Y1075D01*
X1190Y1075D02*
X1214Y1075D01*
X459Y1074D02*
X514Y1074D01*
X1159Y1074D02*
X1214Y1074D01*
X459Y1073D02*
X513Y1073D01*
X1159Y1073D02*
X1213Y1073D01*
X460Y1072D02*
X512Y1072D01*
X1160Y1072D02*
X1212Y1072D01*
X461Y1071D02*
X511Y1071D01*
X1161Y1071D02*
X1211Y1071D01*
X462Y1070D02*
X510Y1070D01*
X1162Y1070D02*
X1210Y1070D01*
X463Y1069D02*
X509Y1069D01*
X1163Y1069D02*
X1209Y1069D01*
X464Y1068D02*
X508Y1068D01*
X1164Y1068D02*
X1208Y1068D01*
X465Y1067D02*
X507Y1067D01*
X1165Y1067D02*
X1207Y1067D01*
X466Y1066D02*
X506Y1066D01*
X1166Y1066D02*
X1206Y1066D01*
X468Y1065D02*
X505Y1065D01*
X1168Y1065D02*
X1205Y1065D01*
X469Y1064D02*
X503Y1064D01*
X1169Y1064D02*
X1203Y1064D01*
X471Y1063D02*
X501Y1063D01*
X1171Y1063D02*
X1201Y1063D01*
X473Y1062D02*
X500Y1062D01*
X1173Y1062D02*
X1199Y1062D01*
X475Y1061D02*
X497Y1061D01*
X1175Y1061D02*
X1197Y1061D01*
X478Y1060D02*
X494Y1060D01*
X1178Y1060D02*
X1194Y1060D01*
X483Y1059D02*
X489Y1059D01*
X1183Y1059D02*
X1189Y1059D01*
X480Y1026D02*
X492Y1026D01*
X1180Y1026D02*
X1192Y1026D01*
X476Y1025D02*
X496Y1025D01*
X1176Y1025D02*
X1196Y1025D01*
X474Y1024D02*
X498Y1024D01*
X1174Y1024D02*
X1198Y1024D01*
X472Y1023D02*
X500Y1023D01*
X1172Y1023D02*
X1200Y1023D01*
X470Y1022D02*
X502Y1022D01*
X1170Y1022D02*
X1202Y1022D01*
X469Y1021D02*
X504Y1021D01*
X1169Y1021D02*
X1204Y1021D01*
X467Y1020D02*
X505Y1020D01*
X1167Y1020D02*
X1205Y1020D01*
X466Y1019D02*
X506Y1019D01*
X1166Y1019D02*
X1206Y1019D01*
X465Y1018D02*
X508Y1018D01*
X1165Y1018D02*
X1208Y1018D01*
X464Y1017D02*
X509Y1017D01*
X1164Y1017D02*
X1209Y1017D01*
X463Y1016D02*
X510Y1016D01*
X1163Y1016D02*
X1210Y1016D01*
X462Y1015D02*
X511Y1015D01*
X1162Y1015D02*
X1211Y1015D01*
X461Y1014D02*
X511Y1014D01*
X1161Y1014D02*
X1211Y1014D01*
X460Y1013D02*
X512Y1013D01*
X1160Y1013D02*
X1212Y1013D01*
X459Y1012D02*
X513Y1012D01*
X1159Y1012D02*
X1213Y1012D01*
X459Y1011D02*
X514Y1011D01*
X1159Y1011D02*
X1214Y1011D01*
X458Y1010D02*
X480Y1010D01*
X493Y1010D02*
X514Y1010D01*
X1158Y1010D02*
X1180Y1010D01*
X1193Y1010D02*
X1214Y1010D01*
X457Y1009D02*
X477Y1009D01*
X495Y1009D02*
X515Y1009D01*
X1157Y1009D02*
X1177Y1009D01*
X1195Y1009D02*
X1215Y1009D01*
X457Y1008D02*
X475Y1008D01*
X497Y1008D02*
X515Y1008D01*
X1157Y1008D02*
X1175Y1008D01*
X1197Y1008D02*
X1215Y1008D01*
X456Y1007D02*
X474Y1007D01*
X499Y1007D02*
X516Y1007D01*
X1156Y1007D02*
X1174Y1007D01*
X1199Y1007D02*
X1216Y1007D01*
X456Y1006D02*
X473Y1006D01*
X500Y1006D02*
X516Y1006D01*
X1156Y1006D02*
X1173Y1006D01*
X1200Y1006D02*
X1216Y1006D01*
X455Y1005D02*
X472Y1005D01*
X501Y1005D02*
X517Y1005D01*
X1155Y1005D02*
X1172Y1005D01*
X1201Y1005D02*
X1217Y1005D01*
X455Y1004D02*
X471Y1004D01*
X501Y1004D02*
X517Y1004D01*
X1155Y1004D02*
X1171Y1004D01*
X1201Y1004D02*
X1217Y1004D01*
X454Y1003D02*
X470Y1003D01*
X502Y1003D02*
X518Y1003D01*
X1154Y1003D02*
X1170Y1003D01*
X1202Y1003D02*
X1218Y1003D01*
X454Y1002D02*
X470Y1002D01*
X503Y1002D02*
X518Y1002D01*
X1154Y1002D02*
X1170Y1002D01*
X1202Y1002D02*
X1218Y1002D01*
X454Y1001D02*
X469Y1001D01*
X503Y1001D02*
X518Y1001D01*
X1154Y1001D02*
X1169Y1001D01*
X1203Y1001D02*
X1218Y1001D01*
X453Y1000D02*
X469Y1000D01*
X503Y1000D02*
X519Y1000D01*
X1153Y1000D02*
X1169Y1000D01*
X1203Y1000D02*
X1219Y1000D01*
X453Y999D02*
X468Y999D01*
X504Y999D02*
X519Y999D01*
X1153Y999D02*
X1168Y999D01*
X1204Y999D02*
X1219Y999D01*
X453Y998D02*
X468Y998D01*
X504Y998D02*
X519Y998D01*
X1153Y998D02*
X1168Y998D01*
X1204Y998D02*
X1219Y998D01*
X453Y997D02*
X468Y997D01*
X504Y997D02*
X519Y997D01*
X1153Y997D02*
X1168Y997D01*
X1204Y997D02*
X1219Y997D01*
X453Y996D02*
X468Y996D01*
X504Y996D02*
X519Y996D01*
X1153Y996D02*
X1168Y996D01*
X1204Y996D02*
X1219Y996D01*
X453Y995D02*
X468Y995D01*
X504Y995D02*
X519Y995D01*
X1153Y995D02*
X1168Y995D01*
X1204Y995D02*
X1219Y995D01*
X453Y994D02*
X468Y994D01*
X504Y994D02*
X519Y994D01*
X1152Y994D02*
X1167Y994D01*
X1204Y994D02*
X1219Y994D01*
X452Y993D02*
X468Y993D01*
X504Y993D02*
X519Y993D01*
X1152Y993D02*
X1167Y993D01*
X1204Y993D02*
X1219Y993D01*
X453Y992D02*
X468Y992D01*
X504Y992D02*
X519Y992D01*
X1152Y992D02*
X1167Y992D01*
X1204Y992D02*
X1219Y992D01*
X453Y991D02*
X468Y991D01*
X504Y991D02*
X519Y991D01*
X1153Y991D02*
X1167Y991D01*
X1204Y991D02*
X1219Y991D01*
X453Y990D02*
X468Y990D01*
X504Y990D02*
X519Y990D01*
X1153Y990D02*
X1168Y990D01*
X1204Y990D02*
X1219Y990D01*
X453Y989D02*
X468Y989D01*
X504Y989D02*
X519Y989D01*
X1153Y989D02*
X1168Y989D01*
X1204Y989D02*
X1219Y989D01*
X453Y988D02*
X468Y988D01*
X504Y988D02*
X519Y988D01*
X1153Y988D02*
X1168Y988D01*
X1204Y988D02*
X1219Y988D01*
X453Y987D02*
X468Y987D01*
X504Y987D02*
X519Y987D01*
X1153Y987D02*
X1168Y987D01*
X1204Y987D02*
X1219Y987D01*
X453Y986D02*
X468Y986D01*
X504Y986D02*
X519Y986D01*
X1153Y986D02*
X1168Y986D01*
X1204Y986D02*
X1219Y986D01*
X453Y985D02*
X469Y985D01*
X503Y985D02*
X519Y985D01*
X1153Y985D02*
X1169Y985D01*
X1203Y985D02*
X1218Y985D01*
X454Y984D02*
X469Y984D01*
X503Y984D02*
X518Y984D01*
X1154Y984D02*
X1169Y984D01*
X1203Y984D02*
X1218Y984D01*
X454Y983D02*
X470Y983D01*
X502Y983D02*
X518Y983D01*
X1154Y983D02*
X1170Y983D01*
X1202Y983D02*
X1218Y983D01*
X454Y982D02*
X470Y982D01*
X502Y982D02*
X518Y982D01*
X1154Y982D02*
X1170Y982D01*
X1202Y982D02*
X1218Y982D01*
X455Y981D02*
X471Y981D01*
X501Y981D02*
X517Y981D01*
X1155Y981D02*
X1171Y981D01*
X1201Y981D02*
X1217Y981D01*
X455Y980D02*
X472Y980D01*
X500Y980D02*
X517Y980D01*
X1155Y980D02*
X1172Y980D01*
X1200Y980D02*
X1217Y980D01*
X456Y979D02*
X473Y979D01*
X499Y979D02*
X516Y979D01*
X1156Y979D02*
X1173Y979D01*
X1199Y979D02*
X1216Y979D01*
X456Y978D02*
X474Y978D01*
X498Y978D02*
X516Y978D01*
X1156Y978D02*
X1174Y978D01*
X1198Y978D02*
X1216Y978D01*
X457Y977D02*
X476Y977D01*
X497Y977D02*
X515Y977D01*
X1157Y977D02*
X1176Y977D01*
X1196Y977D02*
X1215Y977D01*
X457Y976D02*
X478Y976D01*
X494Y976D02*
X515Y976D01*
X1157Y976D02*
X1178Y976D01*
X1194Y976D02*
X1215Y976D01*
X458Y975D02*
X483Y975D01*
X490Y975D02*
X514Y975D01*
X1158Y975D02*
X1182Y975D01*
X1190Y975D02*
X1214Y975D01*
X459Y974D02*
X514Y974D01*
X1159Y974D02*
X1214Y974D01*
X459Y973D02*
X513Y973D01*
X1159Y973D02*
X1213Y973D01*
X460Y972D02*
X512Y972D01*
X1160Y972D02*
X1212Y972D01*
X461Y971D02*
X511Y971D01*
X1161Y971D02*
X1211Y971D01*
X462Y970D02*
X510Y970D01*
X1162Y970D02*
X1210Y970D01*
X463Y969D02*
X509Y969D01*
X1163Y969D02*
X1209Y969D01*
X464Y968D02*
X508Y968D01*
X1164Y968D02*
X1208Y968D01*
X465Y967D02*
X507Y967D01*
X1165Y967D02*
X1207Y967D01*
X466Y966D02*
X506Y966D01*
X1166Y966D02*
X1206Y966D01*
X468Y965D02*
X505Y965D01*
X1168Y965D02*
X1205Y965D01*
X469Y964D02*
X503Y964D01*
X1169Y964D02*
X1203Y964D01*
X471Y963D02*
X501Y963D01*
X1171Y963D02*
X1201Y963D01*
X473Y962D02*
X500Y962D01*
X1173Y962D02*
X1199Y962D01*
X475Y961D02*
X497Y961D01*
X1175Y961D02*
X1197Y961D01*
X478Y960D02*
X494Y960D01*
X1178Y960D02*
X1194Y960D01*
X483Y959D02*
X489Y959D01*
X1183Y959D02*
X1189Y959D01*
X480Y926D02*
X493Y926D01*
X1180Y926D02*
X1192Y926D01*
X476Y925D02*
X496Y925D01*
X1176Y925D02*
X1196Y925D01*
X474Y924D02*
X498Y924D01*
X1174Y924D02*
X1198Y924D01*
X472Y923D02*
X500Y923D01*
X1172Y923D02*
X1200Y923D01*
X470Y922D02*
X502Y922D01*
X1170Y922D02*
X1202Y922D01*
X469Y921D02*
X504Y921D01*
X1169Y921D02*
X1204Y921D01*
X467Y920D02*
X505Y920D01*
X1167Y920D02*
X1205Y920D01*
X466Y919D02*
X506Y919D01*
X1166Y919D02*
X1206Y919D01*
X465Y918D02*
X508Y918D01*
X1165Y918D02*
X1208Y918D01*
X464Y917D02*
X509Y917D01*
X1164Y917D02*
X1209Y917D01*
X463Y916D02*
X510Y916D01*
X1163Y916D02*
X1210Y916D01*
X462Y915D02*
X511Y915D01*
X1162Y915D02*
X1211Y915D01*
X461Y914D02*
X511Y914D01*
X1161Y914D02*
X1211Y914D01*
X460Y913D02*
X512Y913D01*
X1160Y913D02*
X1212Y913D01*
X459Y912D02*
X513Y912D01*
X1159Y912D02*
X1213Y912D01*
X459Y911D02*
X514Y911D01*
X1159Y911D02*
X1214Y911D01*
X458Y910D02*
X480Y910D01*
X493Y910D02*
X514Y910D01*
X1158Y910D02*
X1180Y910D01*
X1193Y910D02*
X1214Y910D01*
X457Y909D02*
X477Y909D01*
X495Y909D02*
X515Y909D01*
X1157Y909D02*
X1177Y909D01*
X1195Y909D02*
X1215Y909D01*
X457Y908D02*
X475Y908D01*
X497Y908D02*
X515Y908D01*
X1157Y908D02*
X1175Y908D01*
X1197Y908D02*
X1215Y908D01*
X456Y907D02*
X474Y907D01*
X499Y907D02*
X516Y907D01*
X1156Y907D02*
X1174Y907D01*
X1199Y907D02*
X1216Y907D01*
X456Y906D02*
X473Y906D01*
X500Y906D02*
X516Y906D01*
X1156Y906D02*
X1173Y906D01*
X1200Y906D02*
X1216Y906D01*
X455Y905D02*
X472Y905D01*
X501Y905D02*
X517Y905D01*
X1155Y905D02*
X1172Y905D01*
X1201Y905D02*
X1217Y905D01*
X455Y904D02*
X471Y904D01*
X501Y904D02*
X517Y904D01*
X1155Y904D02*
X1171Y904D01*
X1201Y904D02*
X1217Y904D01*
X454Y903D02*
X470Y903D01*
X502Y903D02*
X518Y903D01*
X1154Y903D02*
X1170Y903D01*
X1202Y903D02*
X1218Y903D01*
X454Y902D02*
X470Y902D01*
X503Y902D02*
X518Y902D01*
X1154Y902D02*
X1170Y902D01*
X1202Y902D02*
X1218Y902D01*
X454Y901D02*
X469Y901D01*
X503Y901D02*
X518Y901D01*
X1154Y901D02*
X1169Y901D01*
X1203Y901D02*
X1218Y901D01*
X453Y900D02*
X469Y900D01*
X503Y900D02*
X519Y900D01*
X1153Y900D02*
X1169Y900D01*
X1203Y900D02*
X1219Y900D01*
X453Y899D02*
X468Y899D01*
X504Y899D02*
X519Y899D01*
X1153Y899D02*
X1168Y899D01*
X1204Y899D02*
X1219Y899D01*
X453Y898D02*
X468Y898D01*
X504Y898D02*
X519Y898D01*
X1153Y898D02*
X1168Y898D01*
X1204Y898D02*
X1219Y898D01*
X453Y897D02*
X468Y897D01*
X504Y897D02*
X519Y897D01*
X1153Y897D02*
X1168Y897D01*
X1204Y897D02*
X1219Y897D01*
X453Y896D02*
X468Y896D01*
X504Y896D02*
X519Y896D01*
X1153Y896D02*
X1168Y896D01*
X1204Y896D02*
X1219Y896D01*
X453Y895D02*
X468Y895D01*
X504Y895D02*
X519Y895D01*
X1153Y895D02*
X1168Y895D01*
X1204Y895D02*
X1219Y895D01*
X453Y894D02*
X468Y894D01*
X504Y894D02*
X519Y894D01*
X1152Y894D02*
X1167Y894D01*
X1204Y894D02*
X1219Y894D01*
X452Y893D02*
X468Y893D01*
X504Y893D02*
X519Y893D01*
X1152Y893D02*
X1167Y893D01*
X1204Y893D02*
X1219Y893D01*
X453Y892D02*
X468Y892D01*
X504Y892D02*
X519Y892D01*
X1152Y892D02*
X1167Y892D01*
X1204Y892D02*
X1219Y892D01*
X453Y891D02*
X468Y891D01*
X504Y891D02*
X519Y891D01*
X1153Y891D02*
X1167Y891D01*
X1204Y891D02*
X1219Y891D01*
X453Y890D02*
X468Y890D01*
X504Y890D02*
X519Y890D01*
X1153Y890D02*
X1168Y890D01*
X1204Y890D02*
X1219Y890D01*
X453Y889D02*
X468Y889D01*
X504Y889D02*
X519Y889D01*
X1153Y889D02*
X1168Y889D01*
X1204Y889D02*
X1219Y889D01*
X453Y888D02*
X468Y888D01*
X504Y888D02*
X519Y888D01*
X1153Y888D02*
X1168Y888D01*
X1204Y888D02*
X1219Y888D01*
X453Y887D02*
X468Y887D01*
X504Y887D02*
X519Y887D01*
X1153Y887D02*
X1168Y887D01*
X1204Y887D02*
X1219Y887D01*
X453Y886D02*
X468Y886D01*
X504Y886D02*
X519Y886D01*
X1153Y886D02*
X1168Y886D01*
X1204Y886D02*
X1219Y886D01*
X454Y885D02*
X469Y885D01*
X503Y885D02*
X519Y885D01*
X1153Y885D02*
X1169Y885D01*
X1203Y885D02*
X1218Y885D01*
X454Y884D02*
X469Y884D01*
X503Y884D02*
X518Y884D01*
X1154Y884D02*
X1169Y884D01*
X1203Y884D02*
X1218Y884D01*
X454Y883D02*
X470Y883D01*
X502Y883D02*
X518Y883D01*
X1154Y883D02*
X1170Y883D01*
X1202Y883D02*
X1218Y883D01*
X454Y882D02*
X470Y882D01*
X502Y882D02*
X518Y882D01*
X1154Y882D02*
X1170Y882D01*
X1202Y882D02*
X1218Y882D01*
X455Y881D02*
X471Y881D01*
X501Y881D02*
X517Y881D01*
X1155Y881D02*
X1171Y881D01*
X1201Y881D02*
X1217Y881D01*
X455Y880D02*
X472Y880D01*
X500Y880D02*
X517Y880D01*
X1155Y880D02*
X1172Y880D01*
X1200Y880D02*
X1217Y880D01*
X456Y879D02*
X473Y879D01*
X499Y879D02*
X516Y879D01*
X1156Y879D02*
X1173Y879D01*
X1199Y879D02*
X1216Y879D01*
X456Y878D02*
X474Y878D01*
X498Y878D02*
X516Y878D01*
X1156Y878D02*
X1174Y878D01*
X1198Y878D02*
X1216Y878D01*
X457Y877D02*
X476Y877D01*
X497Y877D02*
X515Y877D01*
X1157Y877D02*
X1176Y877D01*
X1196Y877D02*
X1215Y877D01*
X457Y876D02*
X478Y876D01*
X494Y876D02*
X515Y876D01*
X1157Y876D02*
X1178Y876D01*
X1194Y876D02*
X1215Y876D01*
X458Y875D02*
X483Y875D01*
X490Y875D02*
X514Y875D01*
X1158Y875D02*
X1182Y875D01*
X1190Y875D02*
X1214Y875D01*
X459Y874D02*
X514Y874D01*
X1159Y874D02*
X1213Y874D01*
X459Y873D02*
X513Y873D01*
X1159Y873D02*
X1213Y873D01*
X460Y872D02*
X512Y872D01*
X1160Y872D02*
X1212Y872D01*
X461Y871D02*
X511Y871D01*
X1161Y871D02*
X1211Y871D01*
X462Y870D02*
X510Y870D01*
X1162Y870D02*
X1210Y870D01*
X463Y869D02*
X509Y869D01*
X1163Y869D02*
X1209Y869D01*
X464Y868D02*
X508Y868D01*
X1164Y868D02*
X1208Y868D01*
X465Y867D02*
X507Y867D01*
X1165Y867D02*
X1207Y867D01*
X466Y866D02*
X506Y866D01*
X1166Y866D02*
X1206Y866D01*
X468Y865D02*
X505Y865D01*
X1168Y865D02*
X1205Y865D01*
X469Y864D02*
X503Y864D01*
X1169Y864D02*
X1203Y864D01*
X471Y863D02*
X501Y863D01*
X1171Y863D02*
X1201Y863D01*
X473Y862D02*
X499Y862D01*
X1173Y862D02*
X1199Y862D01*
X475Y861D02*
X497Y861D01*
X1175Y861D02*
X1197Y861D01*
X478Y860D02*
X494Y860D01*
X1178Y860D02*
X1194Y860D01*
X483Y859D02*
X489Y859D01*
X1183Y859D02*
X1189Y859D01*
X480Y826D02*
X493Y826D01*
X1180Y826D02*
X1193Y826D01*
X476Y825D02*
X496Y825D01*
X1176Y825D02*
X1196Y825D01*
X474Y824D02*
X498Y824D01*
X1174Y824D02*
X1198Y824D01*
X472Y823D02*
X500Y823D01*
X1172Y823D02*
X1200Y823D01*
X470Y822D02*
X502Y822D01*
X1170Y822D02*
X1202Y822D01*
X469Y821D02*
X504Y821D01*
X1169Y821D02*
X1204Y821D01*
X467Y820D02*
X505Y820D01*
X1167Y820D02*
X1205Y820D01*
X466Y819D02*
X506Y819D01*
X1166Y819D02*
X1206Y819D01*
X465Y818D02*
X508Y818D01*
X1165Y818D02*
X1208Y818D01*
X464Y817D02*
X509Y817D01*
X1164Y817D02*
X1209Y817D01*
X463Y816D02*
X510Y816D01*
X1163Y816D02*
X1210Y816D01*
X462Y815D02*
X511Y815D01*
X1162Y815D02*
X1211Y815D01*
X461Y814D02*
X511Y814D01*
X1161Y814D02*
X1211Y814D01*
X460Y813D02*
X512Y813D01*
X1160Y813D02*
X1212Y813D01*
X459Y812D02*
X513Y812D01*
X1159Y812D02*
X1213Y812D01*
X459Y811D02*
X514Y811D01*
X1158Y811D02*
X1214Y811D01*
X458Y810D02*
X480Y810D01*
X493Y810D02*
X514Y810D01*
X1158Y810D02*
X1180Y810D01*
X1193Y810D02*
X1214Y810D01*
X457Y809D02*
X477Y809D01*
X495Y809D02*
X515Y809D01*
X1157Y809D02*
X1177Y809D01*
X1195Y809D02*
X1215Y809D01*
X457Y808D02*
X475Y808D01*
X497Y808D02*
X516Y808D01*
X1157Y808D02*
X1175Y808D01*
X1197Y808D02*
X1215Y808D01*
X456Y807D02*
X474Y807D01*
X499Y807D02*
X516Y807D01*
X1156Y807D02*
X1174Y807D01*
X1199Y807D02*
X1216Y807D01*
X456Y806D02*
X473Y806D01*
X500Y806D02*
X517Y806D01*
X1156Y806D02*
X1173Y806D01*
X1200Y806D02*
X1216Y806D01*
X455Y805D02*
X472Y805D01*
X501Y805D02*
X517Y805D01*
X1155Y805D02*
X1172Y805D01*
X1201Y805D02*
X1217Y805D01*
X455Y804D02*
X471Y804D01*
X501Y804D02*
X517Y804D01*
X1155Y804D02*
X1171Y804D01*
X1201Y804D02*
X1217Y804D01*
X454Y803D02*
X470Y803D01*
X502Y803D02*
X518Y803D01*
X1154Y803D02*
X1170Y803D01*
X1202Y803D02*
X1218Y803D01*
X454Y802D02*
X470Y802D01*
X503Y802D02*
X518Y802D01*
X1154Y802D02*
X1170Y802D01*
X1202Y802D02*
X1218Y802D01*
X454Y801D02*
X469Y801D01*
X503Y801D02*
X518Y801D01*
X1154Y801D02*
X1169Y801D01*
X1203Y801D02*
X1218Y801D01*
X453Y800D02*
X469Y800D01*
X503Y800D02*
X519Y800D01*
X1153Y800D02*
X1169Y800D01*
X1203Y800D02*
X1219Y800D01*
X453Y799D02*
X468Y799D01*
X504Y799D02*
X519Y799D01*
X1153Y799D02*
X1168Y799D01*
X1204Y799D02*
X1219Y799D01*
X453Y798D02*
X468Y798D01*
X504Y798D02*
X519Y798D01*
X1153Y798D02*
X1168Y798D01*
X1204Y798D02*
X1219Y798D01*
X453Y797D02*
X468Y797D01*
X504Y797D02*
X519Y797D01*
X1153Y797D02*
X1168Y797D01*
X1204Y797D02*
X1219Y797D01*
X453Y796D02*
X468Y796D01*
X504Y796D02*
X519Y796D01*
X1153Y796D02*
X1168Y796D01*
X1204Y796D02*
X1219Y796D01*
X453Y795D02*
X468Y795D01*
X504Y795D02*
X519Y795D01*
X1153Y795D02*
X1168Y795D01*
X1204Y795D02*
X1219Y795D01*
X453Y794D02*
X468Y794D01*
X504Y794D02*
X519Y794D01*
X1152Y794D02*
X1167Y794D01*
X1204Y794D02*
X1219Y794D01*
X452Y793D02*
X468Y793D01*
X504Y793D02*
X519Y793D01*
X1152Y793D02*
X1167Y793D01*
X1204Y793D02*
X1219Y793D01*
X453Y792D02*
X468Y792D01*
X504Y792D02*
X519Y792D01*
X1152Y792D02*
X1167Y792D01*
X1204Y792D02*
X1219Y792D01*
X453Y791D02*
X468Y791D01*
X504Y791D02*
X519Y791D01*
X1153Y791D02*
X1168Y791D01*
X1204Y791D02*
X1219Y791D01*
X453Y790D02*
X468Y790D01*
X504Y790D02*
X519Y790D01*
X1153Y790D02*
X1168Y790D01*
X1204Y790D02*
X1219Y790D01*
X453Y789D02*
X468Y789D01*
X504Y789D02*
X519Y789D01*
X1153Y789D02*
X1168Y789D01*
X1204Y789D02*
X1219Y789D01*
X453Y788D02*
X468Y788D01*
X504Y788D02*
X519Y788D01*
X1153Y788D02*
X1168Y788D01*
X1204Y788D02*
X1219Y788D01*
X453Y787D02*
X468Y787D01*
X504Y787D02*
X519Y787D01*
X1153Y787D02*
X1168Y787D01*
X1204Y787D02*
X1219Y787D01*
X453Y786D02*
X468Y786D01*
X504Y786D02*
X519Y786D01*
X1153Y786D02*
X1168Y786D01*
X1204Y786D02*
X1219Y786D01*
X454Y785D02*
X469Y785D01*
X503Y785D02*
X519Y785D01*
X1153Y785D02*
X1169Y785D01*
X1203Y785D02*
X1218Y785D01*
X454Y784D02*
X469Y784D01*
X503Y784D02*
X518Y784D01*
X1154Y784D02*
X1169Y784D01*
X1203Y784D02*
X1218Y784D01*
X454Y783D02*
X470Y783D01*
X502Y783D02*
X518Y783D01*
X1154Y783D02*
X1170Y783D01*
X1202Y783D02*
X1218Y783D01*
X454Y782D02*
X470Y782D01*
X502Y782D02*
X518Y782D01*
X1154Y782D02*
X1170Y782D01*
X1202Y782D02*
X1218Y782D01*
X455Y781D02*
X471Y781D01*
X501Y781D02*
X517Y781D01*
X1155Y781D02*
X1171Y781D01*
X1201Y781D02*
X1217Y781D01*
X455Y780D02*
X472Y780D01*
X500Y780D02*
X517Y780D01*
X1155Y780D02*
X1172Y780D01*
X1200Y780D02*
X1217Y780D01*
X456Y779D02*
X473Y779D01*
X499Y779D02*
X516Y779D01*
X1156Y779D02*
X1173Y779D01*
X1199Y779D02*
X1216Y779D01*
X456Y778D02*
X474Y778D01*
X498Y778D02*
X516Y778D01*
X1156Y778D02*
X1174Y778D01*
X1198Y778D02*
X1216Y778D01*
X457Y777D02*
X476Y777D01*
X497Y777D02*
X515Y777D01*
X1157Y777D02*
X1176Y777D01*
X1196Y777D02*
X1215Y777D01*
X457Y776D02*
X478Y776D01*
X494Y776D02*
X515Y776D01*
X1157Y776D02*
X1178Y776D01*
X1194Y776D02*
X1215Y776D01*
X458Y775D02*
X483Y775D01*
X490Y775D02*
X514Y775D01*
X1158Y775D02*
X1183Y775D01*
X1190Y775D02*
X1214Y775D01*
X459Y774D02*
X514Y774D01*
X1159Y774D02*
X1213Y774D01*
X459Y773D02*
X513Y773D01*
X1159Y773D02*
X1213Y773D01*
X460Y772D02*
X512Y772D01*
X1160Y772D02*
X1212Y772D01*
X461Y771D02*
X511Y771D01*
X1161Y771D02*
X1211Y771D01*
X462Y770D02*
X510Y770D01*
X1162Y770D02*
X1210Y770D01*
X463Y769D02*
X509Y769D01*
X1163Y769D02*
X1209Y769D01*
X464Y768D02*
X508Y768D01*
X1164Y768D02*
X1208Y768D01*
X465Y767D02*
X507Y767D01*
X1165Y767D02*
X1207Y767D01*
X466Y766D02*
X506Y766D01*
X1166Y766D02*
X1206Y766D01*
X468Y765D02*
X505Y765D01*
X1168Y765D02*
X1205Y765D01*
X469Y764D02*
X503Y764D01*
X1169Y764D02*
X1203Y764D01*
X471Y763D02*
X501Y763D01*
X1171Y763D02*
X1201Y763D01*
X473Y762D02*
X499Y762D01*
X1173Y762D02*
X1199Y762D01*
X475Y761D02*
X497Y761D01*
X1175Y761D02*
X1197Y761D01*
X478Y760D02*
X494Y760D01*
X1178Y760D02*
X1194Y760D01*
X483Y759D02*
X489Y759D01*
X1183Y759D02*
X1189Y759D01*
X599Y429D02*
X672Y429D01*
X1299Y429D02*
X1372Y429D01*
X599Y428D02*
X672Y428D01*
X1299Y428D02*
X1372Y428D01*
X599Y427D02*
X672Y427D01*
X1299Y427D02*
X1372Y427D01*
X599Y426D02*
X672Y426D01*
X1299Y426D02*
X1372Y426D01*
X599Y425D02*
X672Y425D01*
X1299Y425D02*
X1372Y425D01*
X599Y424D02*
X672Y424D01*
X1299Y424D02*
X1372Y424D01*
X599Y423D02*
X672Y423D01*
X1299Y423D02*
X1372Y423D01*
X599Y422D02*
X672Y422D01*
X1299Y422D02*
X1372Y422D01*
X599Y421D02*
X672Y421D01*
X1299Y421D02*
X1372Y421D01*
X599Y420D02*
X672Y420D01*
X1299Y420D02*
X1372Y420D01*
X599Y419D02*
X672Y419D01*
X1299Y419D02*
X1372Y419D01*
X599Y418D02*
X672Y418D01*
X1299Y418D02*
X1372Y418D01*
X599Y417D02*
X672Y417D01*
X1299Y417D02*
X1372Y417D01*
X599Y416D02*
X672Y416D01*
X1299Y416D02*
X1372Y416D01*
X599Y415D02*
X672Y415D01*
X1299Y415D02*
X1372Y415D01*
X599Y414D02*
X672Y414D01*
X1299Y414D02*
X1372Y414D01*
X599Y413D02*
X672Y413D01*
X1299Y413D02*
X1372Y413D01*
X599Y412D02*
X631Y412D01*
X641Y412D02*
X672Y412D01*
X1299Y412D02*
X1331Y412D01*
X1341Y412D02*
X1372Y412D01*
X599Y411D02*
X628Y411D01*
X644Y411D02*
X672Y411D01*
X1299Y411D02*
X1328Y411D01*
X1344Y411D02*
X1372Y411D01*
X599Y410D02*
X626Y410D01*
X646Y410D02*
X672Y410D01*
X1299Y410D02*
X1326Y410D01*
X1346Y410D02*
X1372Y410D01*
X599Y409D02*
X624Y409D01*
X648Y409D02*
X672Y409D01*
X1299Y409D02*
X1324Y409D01*
X1348Y409D02*
X1372Y409D01*
X599Y408D02*
X623Y408D01*
X649Y408D02*
X672Y408D01*
X1299Y408D02*
X1323Y408D01*
X1349Y408D02*
X1372Y408D01*
X599Y407D02*
X622Y407D01*
X650Y407D02*
X672Y407D01*
X1299Y407D02*
X1322Y407D01*
X1350Y407D02*
X1372Y407D01*
X599Y406D02*
X621Y406D01*
X651Y406D02*
X672Y406D01*
X1299Y406D02*
X1321Y406D01*
X1351Y406D02*
X1372Y406D01*
X599Y405D02*
X620Y405D01*
X652Y405D02*
X672Y405D01*
X1299Y405D02*
X1320Y405D01*
X1352Y405D02*
X1372Y405D01*
X599Y404D02*
X619Y404D01*
X653Y404D02*
X672Y404D01*
X1299Y404D02*
X1319Y404D01*
X1353Y404D02*
X1372Y404D01*
X599Y403D02*
X619Y403D01*
X653Y403D02*
X672Y403D01*
X1299Y403D02*
X1319Y403D01*
X1353Y403D02*
X1372Y403D01*
X599Y402D02*
X618Y402D01*
X654Y402D02*
X672Y402D01*
X1299Y402D02*
X1318Y402D01*
X1354Y402D02*
X1372Y402D01*
X599Y401D02*
X618Y401D01*
X654Y401D02*
X672Y401D01*
X1299Y401D02*
X1317Y401D01*
X1354Y401D02*
X1372Y401D01*
X599Y400D02*
X617Y400D01*
X655Y400D02*
X672Y400D01*
X1299Y400D02*
X1317Y400D01*
X1355Y400D02*
X1372Y400D01*
X599Y399D02*
X617Y399D01*
X655Y399D02*
X672Y399D01*
X1299Y399D02*
X1317Y399D01*
X1355Y399D02*
X1372Y399D01*
X599Y398D02*
X616Y398D01*
X655Y398D02*
X672Y398D01*
X1299Y398D02*
X1316Y398D01*
X1355Y398D02*
X1372Y398D01*
X599Y397D02*
X616Y397D01*
X656Y397D02*
X672Y397D01*
X1299Y397D02*
X1316Y397D01*
X1356Y397D02*
X1372Y397D01*
X599Y396D02*
X616Y396D01*
X656Y396D02*
X672Y396D01*
X1299Y396D02*
X1316Y396D01*
X1356Y396D02*
X1372Y396D01*
X599Y395D02*
X616Y395D01*
X656Y395D02*
X672Y395D01*
X1299Y395D02*
X1316Y395D01*
X1356Y395D02*
X1372Y395D01*
X599Y394D02*
X616Y394D01*
X656Y394D02*
X672Y394D01*
X1299Y394D02*
X1316Y394D01*
X1356Y394D02*
X1372Y394D01*
X599Y393D02*
X616Y393D01*
X656Y393D02*
X672Y393D01*
X1299Y393D02*
X1316Y393D01*
X1356Y393D02*
X1372Y393D01*
X599Y392D02*
X616Y392D01*
X656Y392D02*
X672Y392D01*
X1299Y392D02*
X1316Y392D01*
X1356Y392D02*
X1372Y392D01*
X599Y391D02*
X616Y391D01*
X656Y391D02*
X672Y391D01*
X1299Y391D02*
X1316Y391D01*
X1356Y391D02*
X1372Y391D01*
X599Y390D02*
X616Y390D01*
X656Y390D02*
X672Y390D01*
X1299Y390D02*
X1316Y390D01*
X1356Y390D02*
X1372Y390D01*
X599Y389D02*
X616Y389D01*
X656Y389D02*
X672Y389D01*
X1299Y389D02*
X1316Y389D01*
X1356Y389D02*
X1372Y389D01*
X599Y388D02*
X616Y388D01*
X656Y388D02*
X672Y388D01*
X1299Y388D02*
X1316Y388D01*
X1355Y388D02*
X1372Y388D01*
X599Y387D02*
X617Y387D01*
X655Y387D02*
X672Y387D01*
X1299Y387D02*
X1317Y387D01*
X1355Y387D02*
X1372Y387D01*
X599Y386D02*
X617Y386D01*
X655Y386D02*
X672Y386D01*
X1299Y386D02*
X1317Y386D01*
X1355Y386D02*
X1372Y386D01*
X599Y385D02*
X617Y385D01*
X655Y385D02*
X672Y385D01*
X1299Y385D02*
X1317Y385D01*
X1354Y385D02*
X1372Y385D01*
X599Y384D02*
X618Y384D01*
X654Y384D02*
X672Y384D01*
X1299Y384D02*
X1318Y384D01*
X1354Y384D02*
X1372Y384D01*
X599Y383D02*
X618Y383D01*
X653Y383D02*
X672Y383D01*
X1299Y383D02*
X1318Y383D01*
X1353Y383D02*
X1372Y383D01*
X599Y382D02*
X619Y382D01*
X653Y382D02*
X672Y382D01*
X1299Y382D02*
X1319Y382D01*
X1353Y382D02*
X1372Y382D01*
X599Y381D02*
X620Y381D01*
X652Y381D02*
X672Y381D01*
X1299Y381D02*
X1320Y381D01*
X1352Y381D02*
X1372Y381D01*
X599Y380D02*
X621Y380D01*
X651Y380D02*
X672Y380D01*
X1299Y380D02*
X1321Y380D01*
X1351Y380D02*
X1372Y380D01*
X599Y379D02*
X622Y379D01*
X650Y379D02*
X672Y379D01*
X1299Y379D02*
X1321Y379D01*
X1350Y379D02*
X1372Y379D01*
X599Y378D02*
X623Y378D01*
X649Y378D02*
X672Y378D01*
X1299Y378D02*
X1323Y378D01*
X1349Y378D02*
X1372Y378D01*
X599Y377D02*
X624Y377D01*
X648Y377D02*
X672Y377D01*
X1299Y377D02*
X1324Y377D01*
X1348Y377D02*
X1372Y377D01*
X599Y376D02*
X625Y376D01*
X647Y376D02*
X672Y376D01*
X1299Y376D02*
X1325Y376D01*
X1347Y376D02*
X1372Y376D01*
X599Y375D02*
X627Y375D01*
X645Y375D02*
X672Y375D01*
X1299Y375D02*
X1327Y375D01*
X1345Y375D02*
X1372Y375D01*
X599Y374D02*
X630Y374D01*
X642Y374D02*
X672Y374D01*
X1299Y374D02*
X1330Y374D01*
X1342Y374D02*
X1372Y374D01*
X599Y373D02*
X672Y373D01*
X1299Y373D02*
X1372Y373D01*
X599Y372D02*
X672Y372D01*
X1299Y372D02*
X1372Y372D01*
X599Y371D02*
X672Y371D01*
X1299Y371D02*
X1372Y371D01*
X599Y370D02*
X672Y370D01*
X1299Y370D02*
X1372Y370D01*
X599Y369D02*
X672Y369D01*
X1299Y369D02*
X1372Y369D01*
X599Y368D02*
X672Y368D01*
X1299Y368D02*
X1372Y368D01*
X599Y367D02*
X672Y367D01*
X1299Y367D02*
X1372Y367D01*
X599Y366D02*
X672Y366D01*
X1299Y366D02*
X1372Y366D01*
X599Y365D02*
X672Y365D01*
X1299Y365D02*
X1372Y365D01*
X599Y364D02*
X672Y364D01*
X1299Y364D02*
X1372Y364D01*
X599Y363D02*
X672Y363D01*
X1299Y363D02*
X1372Y363D01*
X599Y362D02*
X672Y362D01*
X1299Y362D02*
X1372Y362D01*
X599Y361D02*
X672Y361D01*
X1299Y361D02*
X1372Y361D01*
X599Y360D02*
X672Y360D01*
X1299Y360D02*
X1372Y360D01*
X599Y359D02*
X672Y359D01*
X1299Y359D02*
X1372Y359D01*
X599Y358D02*
X672Y358D01*
X1299Y358D02*
X1372Y358D01*
X599Y357D02*
X672Y357D01*
X1299Y357D02*
X1372Y357D01*
X600Y356D02*
X672Y356D01*
X1300Y356D02*
X1372Y356D01*
D02*
G04 End of Copper0*
M02*